<svg height='300px' width='300px'  fill="#e3e3e3" xmlns:dc="http://purl.org/dc/elements/1.1/" xmlns:cc="http://creativecommons.org/ns#" xmlns:rdf="http://www.w3.org/1999/02/22-rdf-syntax-ns#" xmlns:svg="http://www.w3.org/2000/svg" xmlns="http://www.w3.org/2000/svg" xmlns:sodipodi="http://sodipodi.sourceforge.net/DTD/sodipodi-0.dtd" xmlns:inkscape="http://www.inkscape.org/namespaces/inkscape" version="1.1" x="0px" y="0px" viewBox="0 0 100 100"><g transform="translate(0,-952.36218)"><path style="text-indent:0;text-transform:none;direction:ltr;block-progression:tb;baseline-shift:baseline;color:#000000;enable-background:accumulate;" d="m 50,960.36217 c 2.51609,0 4.88625,1.06362 6.9375,2.75 0.9302,-0.46013 1.96179,-0.75 3.0625,-0.75 3.84231,0 7,3.1577 7,7 0,2.14535 -0.99288,4.08699 -2.53125,5.375 0.20238,0.52377 0.40348,1.04801 0.59375,1.59375 2.69986,-0.50747 5.25593,-0.79634 7.625,-0.8125 6.11421,-0.0418 11.26436,1.64675 13.6875,5.84375 1.49171,2.58372 1.64359,5.68725 0.8125,8.8125 -0.83109,3.12526 -2.58517,6.36882 -5.0625,9.65625 -0.63558,0.84348 -1.33209,1.68458 -2.0625,2.53128 0.73056,0.8477 1.4268,1.6876 2.0625,2.5312 2.47733,3.2875 4.23141,6.4998 5.0625,9.625 0.79114,2.9751 0.67317,5.9601 -0.625,8.4688 0.27631,0.7491 0.4375,1.5345 0.4375,2.375 0,3.8423 -3.15769,7 -7,7 -2.45217,0 -4.62338,-1.2893 -5.875,-3.2188 -2.76527,0.1185 -5.81009,-0.1423 -9.0625,-0.75 -0.36956,1.059 -0.77314,2.0563 -1.1875,3.0313 -1.60982,3.7878 -3.55168,6.9064 -5.84375,9.1875 -2.29207,2.2811 -5.04823,3.75 -8.03125,3.75 -2.98302,0 -5.73918,-1.4689 -8.03125,-3.75 -2.29207,-2.2811 -4.23393,-5.3997 -5.84375,-9.1875 -0.41436,-0.975 -0.81794,-1.9723 -1.1875,-3.0313 -1.06822,0.2014 -2.10432,0.3744 -3.125,0.5 -0.69325,3.1316 -3.48398,5.5 -6.8125,5.5 -3.84231,0 -7,-3.1577 -7,-7 0,-0.011 -5e-5,-0.02 0,-0.031 -1.82911,-0.9319 -3.37113,-2.2612 -4.375,-4 -1.49171,-2.5837 -1.64359,-5.7185 -0.8125,-8.8437 0.83109,-3.1253 2.58517,-6.3376 5.0625,-9.625 0.6357,-0.8436 1.33194,-1.6836 2.0625,-2.5313 -0.73041,-0.8466 -1.42692,-1.6878 -2.0625,-2.53123 -2.47733,-3.28744 -4.23141,-6.531 -5.0625,-9.65625 -0.83109,-3.12525 -0.67921,-6.22878 0.8125,-8.8125 2.42315,-4.19701 7.57331,-5.88545 13.6875,-5.84375 2.36907,0.0162 4.92514,0.30503 7.625,0.8125 0.36956,-1.05983 0.77314,-2.08754 1.1875,-3.0625 1.60982,-3.7878 3.55168,-6.90641 5.84375,-9.1875 2.29207,-2.28114 5.04823,-3.7188 8.03125,-3.7188 z m 0,4 c -1.7114,0 -3.44312,0.79538 -5.21875,2.5625 -1.77563,1.76713 -3.50217,4.48673 -4.96875,7.9375 -0.31563,0.74266 -0.61605,1.53669 -0.90625,2.34375 3.55555,0.92669 7.27753,2.24508 11.09375,3.90625 3.81622,-1.66117 7.5382,-2.97956 11.09375,-3.90625 -0.10826,-0.30103 -0.23186,-0.58276 -0.34375,-0.875 -0.24434,0.0262 -0.49914,0.0312 -0.75,0.0312 -3.84231,0 -7,-3.1577 -7,-7 0,-1.2768 0.33087,-2.46514 0.9375,-3.5 -1.33335,-1.00361 -2.6398,-1.5 -3.9375,-1.5 z m 10,2 c -1.68053,0 -3,1.31948 -3,3 0,1.68051 1.31947,3 3,3 1.68053,0 3,-1.31949 3,-3 0,-1.68052 -1.31947,-3 -3,-3 z m 12.6875,13.15625 c -1.96115,0.0134 -4.13998,0.23262 -6.46875,0.65625 0.96974,3.53994 1.72015,7.42817 2.1875,11.5625 3.34204,2.47223 6.32682,5.0471 8.90625,7.65625 0.55598,-0.65665 1.10647,-1.32212 1.59375,-1.96875 2.25708,-2.99516 3.76247,-5.86035 4.40625,-8.28125 0.64378,-2.42089 0.4805,-4.29948 -0.375,-5.78125 -1.39108,-2.40941 -4.88329,-3.8804 -10.25,-3.84375 z m -45.375,0 c -5.36673,-0.0366 -8.85893,1.43434 -10.25,3.84375 -0.8555,1.48177 -1.01878,3.36036 -0.375,5.78125 0.64378,2.4209 2.14917,5.28609 4.40625,8.28125 0.48728,0.64663 1.03777,1.3121 1.59375,1.96875 2.58461,-2.61438 5.58735,-5.17949 8.9375,-7.65625 0.46777,-4.12999 1.18791,-8.02549 2.15625,-11.5625 -2.32877,-0.42363 -4.5076,-0.64288 -6.46875,-0.65625 z m 34.96875,1.5625 c -2.34948,0.60934 -4.81272,1.37837 -7.34375,2.34375 1.52065,0.77291 3.03765,1.58838 4.5625,2.46875 1.5367,0.88721 2.99713,1.84239 4.4375,2.78125 -0.42877,-2.69817 -1.00405,-5.23622 -1.65625,-7.59375 z m -24.59375,0 c -0.64864,2.34527 -1.19753,4.88062 -1.625,7.5625 1.43588,-0.93557 2.90595,-1.86576 4.4375,-2.75 1.52485,-0.88037 3.04185,-1.69584 4.5625,-2.46875 -2.54144,-0.96936 -5.0168,-1.73339 -7.375,-2.34375 z M 50,985.51842 c -2.47632,1.13395 -4.99371,2.39674 -7.5,3.84375 -2.50854,1.44831 -4.8719,2.98425 -7.09375,4.5625 C 35.15079,996.64636 35,999.45531 35,1002.3622 c 0,2.8957 0.15268,5.7254 0.40625,8.4375 2.22249,1.5755 4.58437,3.0824 7.09375,4.5312 2.51552,1.4524 5.04522,2.7396 7.53125,3.875 2.46711,-1.1344 4.97059,-2.4327 7.46875,-3.875 2.50938,-1.4488 4.87126,-2.9557 7.09375,-4.5312 0.25357,-2.7121 0.40625,-5.5418 0.40625,-8.4375 0,-2.89354 -0.1532,-5.69564 -0.40625,-8.40628 -2.22625,-1.5821 -4.57943,-3.14211 -7.09375,-4.59375 -2.50629,-1.44701 -5.02368,-2.7098 -7.5,-3.84375 z m 0,9.84375 c 3.84231,0 7,3.15771 7,7.00003 0,3.8423 -3.15769,7 -7,7 -3.84231,0 -7,-3.1577 -7,-7 0,-3.84232 3.15769,-7.00003 7,-7.00003 z m 18.84375,1.8125 C 68.93464,998.88362 69,1000.5959 69,1002.3622 c 0,1.7564 -0.066,3.4887 -0.15625,5.1875 2.10781,-1.7099 4.04393,-3.4543 5.75,-5.1875 -1.70777,-1.7385 -3.63972,-3.47166 -5.75,-5.18753 z m -37.6875,0 c -2.11028,1.71587 -4.04223,3.44903 -5.75,5.18753 1.70607,1.7332 3.64219,3.4776 5.75,5.1875 C 31.06602,1005.8509 31,1004.1186 31,1002.3622 c 0,-1.7672 0.0649,-3.47737 0.15625,-5.18753 z M 50,999.36217 c -1.68053,0 -3,1.31953 -3,3.00003 0,1.6805 1.31947,3 3,3 1.68053,0 3,-1.3195 3,-3 0,-1.6805 -1.31947,-3.00003 -3,-3.00003 z m 27.3125,6.00003 c -2.58157,2.6059 -5.59238,5.1567 -8.9375,7.625 -0.46611,4.1149 -1.16061,8.0055 -2.125,11.5312 2.45398,0.4472 4.71195,0.6605 6.75,0.6563 0.1049,-3.7534 3.22305,-6.8125 7,-6.8125 1.31332,0 2.53916,0.3922 3.59375,1.0312 0.17316,-1.1059 0.10675,-2.3847 -0.28125,-3.8437 -0.64378,-2.4209 -2.14917,-5.2549 -4.40625,-8.25 -0.48665,-0.6458 -1.03859,-1.2811 -1.59375,-1.9375 z m -54.625,0 c -0.55516,0.6564 -1.1071,1.2917 -1.59375,1.9375 -2.25708,2.9951 -3.76247,5.8291 -4.40625,8.25 -0.64378,2.4209 -0.4805,4.3307 0.375,5.8125 0.48445,0.8391 1.18556,1.5519 2.15625,2.125 1.26573,-1.8436 3.39491,-3.0938 5.78125,-3.0938 2.96661,0 5.51913,1.9048 6.53125,4.5313 0.73549,-0.095 1.47854,-0.2345 2.25,-0.375 -0.96927,-3.5355 -1.68855,-7.4335 -2.15625,-11.5625 -3.34512,-2.4683 -6.35593,-5.0191 -8.9375,-7.625 z m 41.25,10.7187 c -1.43588,0.9343 -2.90595,1.8345 -4.4375,2.7188 -1.5246,0.8802 -3.04177,1.7274 -4.5625,2.5 2.54006,0.9667 5.01881,1.7341 7.375,2.3437 0.6491,-2.3476 1.19751,-4.8776 1.625,-7.5625 z m -27.875,0 c 0.42923,2.6958 0.97242,5.2381 1.625,7.5938 2.35827,-0.6119 4.83385,-1.4023 7.375,-2.375 -1.52156,-0.7746 -3.03528,-1.6183 -4.5625,-2.5 -1.53155,-0.8843 -3.00162,-1.7845 -4.4375,-2.7188 z M 80,1022.3622 c -1.68053,0 -3,1.3195 -3,3 0,1.6805 1.31947,3 3,3 1.68053,0 3,-1.3195 3,-3 0,-1.6805 -1.31947,-3 -3,-3 z m -30.03125,1.25 c -3.8101,1.6556 -7.54567,2.9498 -11.09375,3.875 0.29444,0.8211 0.61679,1.6204 0.9375,2.375 1.46658,3.4508 3.19312,6.1704 4.96875,7.9375 1.77563,1.7671 3.50735,2.5625 5.21875,2.5625 1.7114,0 3.44312,-0.7954 5.21875,-2.5625 1.77563,-1.7671 3.50217,-4.4867 4.96875,-7.9375 0.31563,-0.7427 0.61605,-1.5367 0.90625,-2.3438 -3.56071,-0.9283 -7.302,-2.2365 -11.125,-3.9062 z M 25,1024.3934 c -1.68053,0 -3,1.3195 -3,3 0,1.6805 1.31947,3 3,3 1.68053,0 3,-1.3195 3,-3 0,-1.6805 -1.31947,-3 -3,-3 z" fill="#e3e3e3" fill-opacity="1" stroke="none" marker="none" visibility="visible" display="inline" overflow="visible"></path></g></svg>