<?xml version="1.0" encoding="UTF-8"?>
<svg width="700pt" height="700pt" version="1.1" viewBox="175 100 350 350" xmlns="http://www.w3.org/2000/svg" xmlns:xlink="http://www.w3.org/1999/xlink" fill="#e3e3e3">
    <path d="m400.32 400.4c-1.4531 26.535-23.43 47.602-50.324 47.602s-48.871-21.066-50.324-47.602h-61.621c-18.586 0-33.656-15.035-33.656-33.598 0-18.539 15.059-33.602 33.613-33.602-0.023438 0-0.011719-67.203-0.011719-67.203 0-47.336 29.602-88.836 72.801-104.95v-1.4766c0-21.629 17.574-39.176 39.199-39.176 21.648 0 39.199 17.535 39.199 39.176v1.4766c43.199 16.113 72.801 57.621 72.801 104.95v67.195c18.516 0.007813 33.602 15.062 33.602 33.609 0 18.543-15.082 33.598-33.656 33.598zm-22.461 0h-55.727c1.4062 14.152 13.344 25.203 27.863 25.203s26.457-11.051 27.863-25.203zm-52.758-220.5c-38.027 10.969-64.707 45.906-64.707 86.098v67.195c0 12.367-10.035 22.41-22.387 22.41-6.1836 0-11.211 5.0273-11.211 11.199 0 6.1797 5.0273 11.199 11.254 11.199h223.89c6.2109 0 11.254-5.0352 11.254-11.199 0-6.1641-5.043-11.199-11.211-11.199-12.375 0-22.387-10.008-22.387-22.41v-67.195c0-40.18-26.68-75.129-64.707-86.098l-8.0938-2.3359v-17.988c0-9.2617-7.5195-16.773-16.801-16.773-9.2617 0-16.801 7.5234-16.801 16.773v17.988z"/>
</svg>
