<?xml version="1.0" encoding="UTF-8"?>
<svg width="700pt" height="700pt" version="1.1" viewBox="60 0 550 550" xmlns="http://www.w3.org/2000/svg" xmlns:xlink="http://www.w3.org/1999/xlink" fill="#e3e3e3">
    <path d="m113.75 67.336c-5.7734 0.54297-10.176 5.4023-10.148 11.199v320.6c0 6.1836 5.0117 11.199 11.199 11.199h69.648l-12.949 69.125c-0.82812 4.5195 1.1875 9.0898 5.0898 11.523 3.8984 2.4297 8.8906 2.2344 12.586-0.5l107.98-80.148h288.05-0.003906c6.1875 0 11.199-5.0156 11.199-11.199v-320.6c0-6.1836-5.0117-11.199-11.199-11.199h-470.4c-0.35156-0.015626-0.69922-0.015626-1.0508 0zm126.88 95.199c21.516 0 39.199 17.684 39.199 39.199 0.007812 2.9766-1.168 5.832-3.2695 7.9375-2.1016 2.1055-4.9531 3.2891-7.9297 3.2891s-5.8281-1.1836-7.9297-3.2891c-2.1016-2.1055-3.2773-4.9609-3.2695-7.9375 0-9.3984-7.4023-16.801-16.801-16.801s-16.801 7.4023-16.801 16.801c0.007812 2.9766-1.168 5.832-3.2695 7.9375-2.1016 2.1055-4.9531 3.2891-7.9297 3.2891s-5.8281-1.1836-7.9297-3.2891c-2.1016-2.1055-3.2773-4.9609-3.2695-7.9375 0-21.516 17.684-39.199 39.199-39.199zm218.75 0c21.516 0 39.199 17.684 39.199 39.199 0.007812 2.9766-1.168 5.832-3.2695 7.9375-2.1016 2.1055-4.9531 3.2891-7.9297 3.2891s-5.8281-1.1836-7.9297-3.2891c-2.1016-2.1055-3.2773-4.9609-3.2695-7.9375 0-9.3984-7.4023-16.801-16.801-16.801s-16.801 7.4023-16.801 16.801c0.007812 2.9766-1.168 5.832-3.2695 7.9375-2.1016 2.1055-4.9531 3.2891-7.9297 3.2891s-5.8281-1.1836-7.9297-3.2891c-2.1016-2.1055-3.2773-4.9609-3.2695-7.9375 0-21.516 17.684-39.199 39.199-39.199zm-16.102 95.551c5.0586-0.63672 9.9062 2.2188 11.801 6.9531 1.8945 4.7305 0.35156 10.145-3.75 13.172-59.445 49.137-142.75 49.48-202.65 0-3.6055-2.8438-5.1094-7.5977-3.7969-11.996 1.3125-4.3984 5.1758-7.5508 9.7461-7.9531 0.35156-0.015625 0.69922-0.015625 1.0508 0 2.625 0.007812 5.1641 0.93359 7.1758 2.625 52.098 43.031 122.64 42.703 174.3 0h-0.003906c1.707-1.5391 3.8477-2.5195 6.125-2.8008z" fill-rule="evenodd"/>
</svg>
