<svg height='300px' width='300px'  fill="#e3e3e3" xmlns="http://www.w3.org/2000/svg" data-name="Layer 1" viewBox="0 0 100 100" x="0px" y="0px"><title>setng cog</title><path d="M98.69,28.92c-1.56-3.61-5.86-6.35-9.57-6.09s-8-1.19-9.9-3-3.44-6.09-3.3-9.82S73.19,2.1,69.52.64s-8.63-.35-11.07,2.44S51.92,7.92,49.32,8s-6.74-1.87-9.26-4.59S32.53-.28,28.92,1.28s-6.37,5.86-6.11,9.57-1.19,8-3,9.9-6.09,3.42-9.8,3.3S2.1,26.79.64,30.46,0.29,39.09,3.08,41.53,7.92,48.06,8,50.65s-1.86,6.74-4.59,9.26S-0.3,67.43,1.28,71.06s5.86,6.37,9.57,6.11,8,1.19,9.9,3,3.44,6.07,3.3,9.8,2.73,7.91,6.41,9.37,8.63,0.35,11.07-2.44,6.52-4.84,9.12-4.88,6.74,1.89,9.28,4.61,7.54,3.65,11.15,2.09,6.37-5.84,6.11-9.55,1.19-8,3-9.9S86.27,75.85,90,76s7.91-2.73,9.37-6.41,0.37-8.63-2.44-11.09S92.07,52,92,49.37s1.87-6.74,4.61-9.26A10.69,10.69,0,0,0,98.69,28.92Zm-41,38.94A19.46,19.46,0,1,1,67.84,42.3,19.46,19.46,0,0,1,57.72,67.86Z"></path></svg>