<?xml version="1.0" encoding="UTF-8"?>
<svg width="700pt" height="700pt" version="1.1" viewBox="0 0 700 700" xmlns="http://www.w3.org/2000/svg" fill="#e3e3e3">
 <g>
  <path d="m546.89 189.91c35.02-56.504 54.844-115.32 52.004-166.58-67.742 5.8047-125.07 19.508-173.64 38.527l-72.145 87.473 22.551-64.605c-175.73 93.52-210.22 261.67-216.91 319.55 69.328-97.926 185.73-226.56 301.67-268.95-124.08 97.832-197.89 186.59-282.37 289.99 129.88-0.57812 262.32-90.703 343.11-197.83l-66.938-1.9414z"/>
  <path d="m158.76 404.28c-45.078 63.691-70.281 114.41-62.309 119.91 29.344-34.777 55.945-67.48 81.609-98.879z"/>
  <path d="m144.24 521.83c18.367-13.086 38.305-23.445 58.5-33.469 20.535-9.1484 41.59-17.434 63.336-24.398 21.895-6.3086 44.559-10.508 67.852-12.582 11.836-0.87891 23.184-1.4922 36.27-0.14844 3.3594 0.39062 6.832 0.91406 10.809 2.0352 3.9961 1.2695 8.5859 2.5938 14.297 8.1758 2.7266 2.7266 5.3555 7.0742 6.2891 11.555 0.98828 4.5156 0.54297 8.457-0.14844 11.406-1.4922 5.8438-3.5859 9.2227-5.375 12.246l-8.9414 13.383c-0.95312 1.457-1.1953 2.8008-0.98828 1.1953 0.59766-1.793-2.3711-6.8125-3.1172-6.6094-0.93359-0.14844 4.0703 1.7539 8.3633 2.1094 4.4062 0.65234 10.043 0.91406 14.504 1.0625 20.926 0.039063 41.105-2.5938 61.805-7.8789 40.863-11.312 80.602-30.668 118.11-54.207l1.2305 1.3828c-34.215 28.297-72.988 51.332-115.19 65.594-21.094 6.9258-43.27 11.367-65.574 11.48-11.125-0.375-22.586 0.46484-33.375-5.582-2.668-1.6445-4.5938-5.2461-4.2188-8.5312 0.24219-3.2461 1.5664-5.9727 2.8945-8.4922 2.7422-5.0391 6.1211-9.4453 8.8672-14.113 2.668-4.4805 5.0039-10.023 1.6055-13.047-3.3594-3.0977-9.0703-4.1992-14.297-5.0039-10.77-1.3438-21.879-1.1367-32.816-0.57812-21.988 1.2305-43.812 5.0039-65.277 10.098-42.895 10.434-84.672 25.703-124.62 44.559z"/>
 </g>
</svg>
