<svg height='300px' width='300px'  fill="#e3e3e3" xmlns="http://www.w3.org/2000/svg" data-name="Layer 1" viewBox="0 0 32 32" x="0px" y="0px"><title>Artboard 2</title><path d="M7.13333,18.33334H2.46667A.46639.46639,0,0,0,2,18.8v9.33333A.46639.46639,0,0,0,2.46667,28.6H7.13333A.46639.46639,0,0,0,7.6,28.13333V18.8A.46639.46639,0,0,0,7.13333,18.33334ZM4.33333,21.6a.93334.93334,0,1,1,.93334-.93333A.93334.93334,0,0,1,4.33333,21.6Z"></path><path d="M27.43651,3.5627a5.35619,5.35619,0,0,0-7.56259,0L18.84256,4.59458,17.8112,3.5627a5.34756,5.34756,0,1,0-7.56259,7.5626l8.21587,8.21535a.53456.53456,0,0,0,.75616,0l8.21587-8.21535A5.35429,5.35429,0,0,0,27.43651,3.5627Z"></path><path d="M27.351,21.01827l-3.173,1.90369a2.64533,2.64533,0,0,1,.00165,1.03971,2.72628,2.72628,0,0,1-2.71131,2.11268H16a.46666.46666,0,0,1-.46667-.46667h0A.46666.46666,0,0,1,16,25.141h5.6a1.69884,1.69884,0,0,0,1.69713-1.69668c0-.02894-.00456-.05663-.006-.08522A1.697,1.697,0,0,0,21.6,21.7472H16l-.24512-.19386a6.8916,6.8916,0,0,0-7.22154-.82458h0l.08482,6.42732,7.88953,2.63013a4.16286,4.16286,0,0,0,3.45984-.38014L29.17587,23.881a1.69761,1.69761,0,0,0,.41521-2.56051A1.761,1.761,0,0,0,27.351,21.01827Z"></path></svg>