<svg height='300px' width='300px'  fill="#e3e3e3" xmlns="http://www.w3.org/2000/svg" data-name="Layer 1" viewBox="0 0 100 100" x="0px" y="0px"><title>Info</title><path d="M30.88,47.4l-1.51,1a2.72,2.72,0,0,0-.77,3.77l.18.28c.58.88,1.77,1,2.57,1.21a8.49,8.49,0,0,1,2,.35,5.35,5.35,0,0,1,2.79,2.22c1,1.72.35,3.84.11,4.84-2.14,8.78-4.33,17.55-6.43,26.35-1.75,7.33,2.4,12.58,10,12.58,8.43,0,16-2.78,22.92-7.48A5.62,5.62,0,0,0,64,91.32c1.36-1.79.84-3.16-1.35-3.66-.64-.15-1.3-.26-1.93-.43-4.17-1.13-5.25-3-4.23-7.16,2.17-8.85,4.39-17.69,6.51-26.55,1.42-5.87-1.29-10.69-6.71-12a19.83,19.83,0,0,0-4.5-.48,42.44,42.44,0,0,0-5.58.6c-1.19.22-2.27.47-3.27.74a49.24,49.24,0,0,0-5.66,1.9c-1.12.45-2.54,1.06-4.15,1.85ZM57,0A14,14,0,0,0,42.68,14.13a14.25,14.25,0,0,0,28.5.26A14.17,14.17,0,0,0,57,0Z"></path></svg>