<?xml version="1.0" encoding="UTF-8"?>
<svg width="700pt" fill="#e3e3e3" height="700pt" version="1.1" viewBox="0 0 700 700" xmlns="http://www.w3.org/2000/svg" xmlns:xlink="http://www.w3.org/1999/xlink">
 <g>
  <path d="m350.01 32.668c106.01 0 191.96 85.945 191.96 191.96 0 146.67-142.66 217.32-191.96 302.71-48.258-83.582-191.96-156.04-191.96-302.71 0-106.01 85.945-191.96 191.96-191.96zm-44.043 192.94c37.668-53.656 56.828-48.375 65.461-42.266 8.8164 6.25 10.285 18.375 8.4531 24.617-1.8398 6.2422-22.773 92.215-27.547 104.71-4.7812 12.488 5.1406 13.5 12.582 6.8867 2.6836-2.3867 48.43-56.512 25.074-16.809-3.2734 5.5742-25.207 43.258-43.594 49.91-11.133 4.0273-25.168 5.0586-32.457-5.3828-15.047-21.551 27.887-104.41 25.723-129.21-1.7852-20.492-58.418 42.773-33.691 7.5469zm74.297-107.46c11.059 0 20.027 13.242 20.027 29.57 0 16.336-8.9688 29.578-20.027 29.578-11.059 0-20.02-13.242-20.02-29.578 0-16.332 8.9609-29.57 20.02-29.57z" fill-rule="evenodd"/>
 </g>
</svg>
