<svg height='300px' width='300px'  fill="#e3e3e3" xmlns="http://www.w3.org/2000/svg" data-name="Layer 1" viewBox="0 0 32 32" x="0px" y="0px"><path d="M2.5,27.482l5,3.085a2.808,2.808,0,0,0,2.879.068A3.25,3.25,0,0,0,12,27.775V27.4h2a3,3,0,0,0,3-3V22a1,1,0,0,0-2,0v2.4a1,1,0,0,1-1,1H12V7.311a3.276,3.276,0,0,0-1.5-2.793L8.037,3H14a1,1,0,0,1,1,1V6a1,1,0,0,0,2,0V4a3,3,0,0,0-3-3H4a.929.929,0,0,0-.1.021,2.816,2.816,0,0,0-1.277.344A3.25,3.25,0,0,0,1,4.225V24.689A3.276,3.276,0,0,0,2.5,27.482ZM3,4.225a1.246,1.246,0,0,1,.592-1.114.845.845,0,0,1,.854.023l5,3.086A1.283,1.283,0,0,1,10,7.311V27.775c0,.708-.694,1.554-1.446,1.091l-5-3.086A1.283,1.283,0,0,1,3,24.689Z"></path><path d="M21.185,22.822a2,2,0,0,0,2.19-.37l7-7A2.1,2.1,0,0,0,31,13.915a1.947,1.947,0,0,0-.638-1.389L23.333,5.5A2,2,0,0,0,20,7V9H17a3,3,0,0,0-3,3v4a3,3,0,0,0,3,3h3v2A1.976,1.976,0,0,0,21.185,22.822ZM17,17a1,1,0,0,1-1-1V12a1,1,0,0,1,1-1h3a2,2,0,0,0,2-2l-.043-2.04S28.983,13.987,29,14c0,0-6.952,6.953-6.994,7V19a2,2,0,0,0-2-2Z"></path></svg>