<svg height='300px' width='300px'  fill="#e3e3e3" xmlns="http://www.w3.org/2000/svg" data-name="Layer 1" viewBox="0 0 80 80" x="0px" y="0px"><title>tv-pc-screen-matlab-math-numericalcomputing</title><path d="M63,29c-3.582,0-5.154,3.418-6.418,6.164C55.754,36.962,54.816,39,53.8,39s-1.957-2.038-2.785-3.836C49.748,32.418,48.176,29,44.594,29s-5.152,3.418-6.416,6.164C37.352,36.962,36.414,39,35.4,39s-1.956-2.038-2.782-3.835C31.351,32.418,29.778,29,26.2,29s-5.152,3.418-6.415,6.164C18.955,36.962,18.018,39,17,39a2,2,0,0,0,0,4c3.581,0,5.153-3.418,6.416-6.165C24.242,35.037,25.18,33,26.2,33s1.956,2.038,2.783,3.836C30.243,39.582,31.815,43,35.4,43s5.152-3.418,6.416-6.164c.826-1.8,1.764-3.836,2.781-3.836s1.957,2.038,2.785,3.836C48.643,39.582,50.215,43,53.8,43s5.154-3.418,6.418-6.164C61.043,35.038,61.98,33,63,33a2,2,0,0,0,0-4Z"></path><path d="M71,10H9a6.007,6.007,0,0,0-6,6V56a6.007,6.007,0,0,0,6,6H30.438l-1,4H24a2,2,0,0,0,0,4H56a2,2,0,0,0,0-4H50.562l-1-4H57a2,2,0,0,0,0-4H9a2,2,0,0,1-2-2V16a2,2,0,0,1,2-2H71a2,2,0,0,1,2,2V56a2,2,0,0,1-2,2H69a2,2,0,0,0,0,4h2a6.007,6.007,0,0,0,6-6V16A6.007,6.007,0,0,0,71,10ZM34.562,62H45.438l1,4H33.562Z"></path><circle cx="63" cy="60" r="2"></circle></svg>