<svg height='300px' width='300px'  fill="#000000" xmlns="http://www.w3.org/2000/svg" xmlns:xlink="http://www.w3.org/1999/xlink" version="1.1" x="0px" y="0px" viewBox="0 0 33 33" enable-background="new 0 0 33 33" xml:space="preserve"><path d="M13.241,14.316V4.09H4.548v10.227H13.241z M6.829,7.754c0-0.943,0.725-1.57,1.838-1.693V4.904l0.775-0.01v1.156  c0.672,0.063,1.316,0.293,1.801,0.619l-0.432,0.918C10.14,7.182,9.47,7.014,9.001,7.014c-0.607,0-1.006,0.229-1.006,0.645  c0,1.35,3.338,0.627,3.328,2.854c0,0.979-0.76,1.623-1.881,1.756v1.246H8.667v-1.236c-0.85-0.072-1.635-0.443-2.199-0.963  l0.449-0.902c0.637,0.584,1.432,0.902,2.092,0.902c0.725,0,1.16-0.275,1.16-0.752C10.169,9.186,6.829,9.953,6.829,7.754z"></path><path d="M8.175,24.166c0-1.428-1.162-2.588-2.588-2.588H2.784V3.086c0-0.475,0.387-0.861,0.863-0.861h19.188  c0.477,0,0.863,0.387,0.863,0.861v6.848h1.725V3.086c0-1.426-1.16-2.586-2.588-2.586H3.647C2.22,0.5,1.06,1.66,1.06,3.086v19.676  l5.857,6.795h7.955v-1.725H8.175V24.166z"></path><path d="M29.978,10.916H17.815c-1.08,0-1.963,0.883-1.963,1.961v17.66c0,1.08,0.883,1.963,1.963,1.963h12.162  c1.08,0,1.963-0.883,1.963-1.963v-17.66C31.94,11.799,31.058,10.916,29.978,10.916z M21.226,29.557h-3.053V27.92h3.053V29.557z   M21.226,26.449h-3.053v-1.635h3.053V26.449z M21.226,23.344h-3.053v-1.637h3.053V23.344z M25.423,29.557H22.37V27.92h3.053V29.557z   M25.423,26.449H22.37v-1.635h3.053V26.449z M25.423,23.344H22.37v-1.637h3.053V23.344z M29.62,29.557h-3.053v-4.742h3.053V29.557z   M29.62,23.344h-3.053v-1.637h3.053V23.344z M29.62,19.256H18.173v-5.602H29.62V19.256z"></path><rect x="14.327" y="8.547" width="7.844" height="1.313"></rect><rect x="14.327" y="5.193" width="7.844" height="1.313"></rect><rect x="4.548" y="16.367" width="10.324" height="1.313"></rect><rect x="4.548" y="19.637" width="10.324" height="1.313"></rect><rect x="9.312" y="22.908" width="5.561" height="1.311"></rect></svg>