<svg height='300px' width='300px'  fill="#000000" xmlns="http://www.w3.org/2000/svg" viewBox="0 0 512 512" x="0px" y="0px"><title>Glyph science evolutionay biology</title><path d="M37.14,486.23H56.71a5.94,5.94,0,0,0,5.83-4.33A5.74,5.74,0,0,0,60,475.64l-8.79-5.49a1.09,1.09,0,0,1-.16-1.73s19.73-18.68,28.07-26.61a4,4,0,0,0-.57-6.24c-5.72-3.72-12.64-8.29-19.79-13.16a3.39,3.39,0,0,0-5.29,2.41l-.44,3.83A16,16,0,0,1,50.24,436L27.88,467.63a12.25,12.25,0,0,0-2.27,5.69A11.6,11.6,0,0,0,37.14,486.23Z"></path><path d="M190.83,315.52l13-2.61a11.49,11.49,0,0,0,9-8.77,76.44,76.44,0,0,0,1.58-16.68,10.55,10.55,0,0,0-4-8.19,10.55,10.55,0,0,1-4-7.17L205,260.19a10.59,10.59,0,0,0-9-9.33c-34.73-5-47,17.37-50.67,27.1a5.66,5.66,0,0,1-5.95,3.66,84.88,84.88,0,0,0-9.73-.64,40.61,40.61,0,0,0-26.08,9.49L41,342.44c-6.51,3.95-10.28,11.3-12.47,18.25a26,26,0,0,0,8.39,27.94C42.31,393,49,398,56,402.93c11.16,7.9,23.06,15.77,31.6,21.3,3.09,2,5.75,3.71,7.76,5A20.14,20.14,0,0,1,103,438c6.67,14.89,3.72,31.37,3,34.66a6,6,0,0,0-.13,1.27v1.9a10.43,10.43,0,0,0,10.43,10.43h19.36a6.3,6.3,0,0,0,3.24-11.71l-6.3-3.78a6.32,6.32,0,0,1-3-6.41A177.42,177.42,0,0,0,131,420.52a26.29,26.29,0,0,0-6.16-14.63c-14.44-17-27.85-30-27.85-30,17.26-8.9,43.94-19.36,43.94-19.36,2.57,13.21,5.65,29.51,7.26,38.07a19.5,19.5,0,0,0,4.62,9.49c15.34,17,24.55,42.91,28.59,56.46a10.09,10.09,0,0,1-6,12.28l-2.1.83a6.49,6.49,0,0,0,2.37,12.54h12.89a15.62,15.62,0,0,0,15.61-15.78c-.54-44.53-17.23-68.94-24.17-77.19a12.12,12.12,0,0,1-2.82-8.2l1.68-55.35A15,15,0,0,1,190.83,315.52Z"></path><path d="M350.1,76.68a47.54,47.54,0,0,0,15.77,16.45L385,105.35a6.21,6.21,0,0,0,8.73-2.12c3.55-6.14,9.31-15.92,13.47-22a6.32,6.32,0,0,0,.37-6.47,26.25,26.25,0,0,0-2.36-3.68,6.21,6.21,0,0,1-1.13-5c1.52-7.65,3.88-28.65-13.64-37.43a28.64,28.64,0,0,0-21.77-1.37l-.42.14C348.08,34.32,339.64,58.14,350.1,76.68Z"></path><path d="M481.29,458.78a167.07,167.07,0,0,1-25.16-3.13,9.45,9.45,0,0,1-7.61-8.3c-2-19-7.86-53-10.47-67.87a50.37,50.37,0,0,0-4.29-13.27c-12.11-25.08-43.12-95.3-43.12-95.3a111.76,111.76,0,0,1-6-28.1,136.66,136.66,0,0,1,3.19-42.51c8-34.55,4-50.47,4-50.47-7.58-28.29-22.12-39.69-32.24-44.28a16.32,16.32,0,0,0-19.56,4.65c-9.44,11.92-13.25,30.26-14.63,39.4a65.52,65.52,0,0,1-3.2,12.48l-12.51,34.55a33.06,33.06,0,0,0-.35,21.54c4.2,12.85,9,28.38,11.76,37.52a25.9,25.9,0,0,1,.36,14.05,71.9,71.9,0,0,0-1.68,8.64,24.58,24.58,0,0,0,1,11.3,22,22,0,0,0,8.6,11.18,14.8,14.8,0,0,0,9.55-1.13c11.43-5.7,6.36-23.47,6.31-23.65s-.11-.39-.15-.59l-11-53.85a52.33,52.33,0,0,1,1-25l12.67-43.45a7.22,7.22,0,0,1,9.59-4.68,7.43,7.43,0,0,1,4.18,9L349,200.69a37.85,37.85,0,0,0-.74,18.07l10.92,53.57c2.49,8.78,3.42,25.51-7.18,35.67a4,4,0,0,0-.29,5.45l0,0,38.93,47.7a31.1,31.1,0,0,1,6.79,16l.57,4.7a31.21,31.21,0,0,0,4.46,12.71l7.05,11.36a120.07,120.07,0,0,1,13.43,30c4.47,15.42,8.07,31.13,10.15,40.8a8.53,8.53,0,0,0,11.22,6.22l38.35-13.79a5.52,5.52,0,0,0,3.74-4.67A5.28,5.28,0,0,0,481.29,458.78Z"></path><path d="M354,353.49a9.08,9.08,0,0,0-1.59-9.95L331.85,321.3a3.49,3.49,0,0,0-6,2.05l-.56,6.17a38.73,38.73,0,0,1-10.14,22.79,38.81,38.81,0,0,0-9.53,18.62l-2.86,14.18c-3.7,20.71-20.94,54-20.94,54l-6.1,9.26a10.09,10.09,0,0,0,2.4,13.65c10.61,7.83,24.17,14.87,31.82,18.61a5.64,5.64,0,0,0,6.57-8.93,121.73,121.73,0,0,1-10.08-12.49,11,11,0,0,1-.46-12.08C326.14,413.47,347,368.9,354,353.49Z"></path><path d="M415.75,275.87a12.52,12.52,0,0,0,17.45,4.86c2.46-1.51,4.71-4.12,5.72-8.61a19.45,19.45,0,0,0-1.23-11.87,49.33,49.33,0,0,0-7.39-11.92,20.82,20.82,0,0,1-3.41-5.76c-2.61-6.77-9.16-23.17-17.63-40.24a4.25,4.25,0,0,0-7.93.84c-1.18,4.65-2.57,10.11-3.83,15a12.24,12.24,0,0,0,1.39,9.45l13.44,22.08A12.83,12.83,0,0,1,414,258.4C413.29,263,412.82,270.28,415.75,275.87Z"></path><rect x="67.52" y="173.99" width="40.15" height="40.15" rx="5.58" transform="translate(-84.67 68.93) rotate(-29.71)"></rect><rect x="34.17" y="198.75" width="20.07" height="40.15" rx="5.58" transform="translate(-102.65 50.68) rotate(-29.71)"></rect><path d="M264.18,122.83l4.61,8.07a5.58,5.58,0,0,0,9.57.2l40.42-64.28a5.57,5.57,0,0,0-4.88-8.54L238,60.38a5.58,5.58,0,0,0-4.69,8.35l5.44,9.53a5.58,5.58,0,0,1-2.08,7.62L119,153a5.58,5.58,0,0,0-2.08,7.62l14.37,25.17a5.57,5.57,0,0,0,7.61,2.08l117.68-67.15A5.57,5.57,0,0,1,264.18,122.83Z"></path></svg>