<?xml version="1.0" encoding="UTF-8" standalone="no"?>
<svg
   width="700pt"
   height="700pt"
   version="1.1"
   viewBox="0 0 700 700"
   id="svg115"
   xmlns="http://www.w3.org/2000/svg"
   xmlns:svg="http://www.w3.org/2000/svg">
  <defs
     id="defs41">
    <symbol
       id="m"
       overflow="visible">
      <path
         d="m29.312-1.75c-1.5117 0.78125-3.0898 1.3711-4.7344 1.7656-1.6367 0.40625-3.3398 0.60938-5.1094 0.60938-5.3125 0-9.5273-1.4844-12.641-4.4531-3.1055-2.9688-4.6562-7-4.6562-12.094s1.5508-9.125 4.6562-12.094c3.1133-2.9688 7.3281-4.4531 12.641-4.4531 1.7695 0 3.4727 0.19922 5.1094 0.59375 1.6445 0.39844 3.2227 0.99219 4.7344 1.7812v6.5938c-1.5312-1.0391-3.0391-1.8008-4.5156-2.2812-1.4805-0.48828-3.0391-0.73438-4.6719-0.73438-2.9375 0-5.2461 0.94531-6.9219 2.8281-1.6797 1.875-2.5156 4.4648-2.5156 7.7656 0 3.293 0.83594 5.8828 2.5156 7.7656 1.6758 1.875 3.9844 2.8125 6.9219 2.8125 1.6328 0 3.1914-0.23828 4.6719-0.71875 1.4766-0.48828 2.9844-1.2539 4.5156-2.2969z"
         id="path2" />
    </symbol>
    <symbol
       id="h"
       overflow="visible">
      <path
         d="m21.453-17.406c-0.67969-0.3125-1.3516-0.53906-2.0156-0.6875-0.65625-0.15625-1.3203-0.23438-1.9844-0.23438-1.9688 0-3.4844 0.63281-4.5469 1.8906-1.0547 1.2617-1.5781 3.0703-1.5781 5.4219v11.016h-7.6562v-23.922h7.6562v3.9219c0.97656-1.5625 2.1016-2.7031 3.375-3.4219 1.2812-0.71875 2.8125-1.0781 4.5938-1.0781 0.25 0 0.52344 0.011719 0.82812 0.03125 0.30078 0.023438 0.73438 0.070312 1.2969 0.14062z"
         id="path5" />
    </symbol>
    <symbol
       id="c"
       overflow="visible">
      <path
         d="m27.562-12.031v2.1875h-17.891c0.1875 1.793 0.83203 3.1367 1.9375 4.0312 1.1133 0.89844 2.6719 1.3438 4.6719 1.3438 1.6016 0 3.25-0.23438 4.9375-0.70312 1.6875-0.47656 3.4219-1.2031 5.2031-2.1719v5.8906c-1.8047 0.6875-3.6094 1.2031-5.4219 1.5469-1.8125 0.35156-3.6211 0.53125-5.4219 0.53125-4.3359 0-7.7031-1.0977-10.109-3.2969-2.3984-2.207-3.5938-5.2969-3.5938-9.2656 0-3.9062 1.1758-6.9727 3.5312-9.2031 2.3633-2.2383 5.6094-3.3594 9.7344-3.3594 3.7578 0 6.7695 1.1367 9.0312 3.4062 2.2578 2.2617 3.3906 5.2812 3.3906 9.0625zm-7.8594-2.5312c0-1.457-0.42969-2.6289-1.2812-3.5156-0.84375-0.89453-1.9492-1.3438-3.3125-1.3438-1.4922 0-2.6992 0.41797-3.625 1.25-0.91797 0.83594-1.4922 2.0391-1.7188 3.6094z"
         id="path8" />
    </symbol>
    <symbol
       id="b"
       overflow="visible">
      <path
         d="m14.391-10.766c-1.5938 0-2.793 0.27344-3.5938 0.8125-0.80469 0.54297-1.2031 1.3398-1.2031 2.3906 0 0.96875 0.32031 1.7305 0.96875 2.2812 0.64453 0.54297 1.5469 0.8125 2.7031 0.8125 1.4375 0 2.6445-0.51562 3.625-1.5469 0.98828-1.0312 1.4844-2.3203 1.4844-3.875v-0.875zm11.688-2.8906v13.656h-7.7031v-3.5469c-1.0312 1.4492-2.1875 2.5078-3.4688 3.1719s-2.8398 1-4.6719 1c-2.4805 0-4.4961-0.72266-6.0469-2.1719-1.543-1.4453-2.3125-3.3203-2.3125-5.625 0-2.8125 0.96094-4.8672 2.8906-6.1719 1.9375-1.3125 4.9688-1.9688 9.0938-1.9688h4.5156v-0.60938c0-1.207-0.48047-2.0938-1.4375-2.6562-0.94922-0.5625-2.4375-0.84375-4.4688-0.84375-1.6367 0-3.1562 0.16797-4.5625 0.5-1.4062 0.32422-2.7188 0.8125-3.9375 1.4688v-5.8281c1.6445-0.40625 3.2891-0.70703 4.9375-0.90625 1.6562-0.20703 3.3047-0.3125 4.9531-0.3125 4.3203 0 7.4375 0.85547 9.3438 2.5625 1.9141 1.6992 2.875 4.4609 2.875 8.2812z"
         id="path11" />
    </symbol>
    <symbol
       id="g"
       overflow="visible">
      <path
         d="m12.031-30.719v6.7969h7.875v5.4688h-7.875v10.141c0 1.1172 0.21875 1.8711 0.65625 2.2656 0.4375 0.38672 1.3125 0.57812 2.625 0.57812h3.9375v5.4688h-6.5625c-3.0234 0-5.1641-0.62891-6.4219-1.8906-1.2617-1.2578-1.8906-3.3984-1.8906-6.4219v-10.141h-3.7969v-5.4688h3.7969v-6.7969z"
         id="path14" />
    </symbol>
    <symbol
       id="f"
       overflow="visible">
      <path
         d="m19.953-20.422v-12.812h7.6875v33.234h-7.6875v-3.4531c-1.0547 1.4062-2.2148 2.4375-3.4844 3.0938-1.2734 0.65625-2.7422 0.98438-4.4062 0.98438-2.9492 0-5.3711-1.1719-7.2656-3.5156-1.8867-2.3438-2.8281-5.3594-2.8281-9.0469s0.94141-6.7031 2.8281-9.0469c1.8945-2.3438 4.3164-3.5156 7.2656-3.5156 1.6562 0 3.1172 0.33594 4.3906 1 1.2812 0.65625 2.4453 1.6836 3.5 3.0781zm-5.0469 15.484c1.6445 0 2.8945-0.59766 3.75-1.7969 0.86328-1.1953 1.2969-2.9297 1.2969-5.2031 0-2.2812-0.43359-4.0195-1.2969-5.2188-0.85547-1.1953-2.1055-1.7969-3.75-1.7969-1.625 0-2.8711 0.60156-3.7344 1.7969-0.85547 1.1992-1.2812 2.9375-1.2812 5.2188 0 2.2734 0.42578 4.0078 1.2812 5.2031 0.86328 1.1992 2.1094 1.7969 3.7344 1.7969z"
         id="path17" />
    </symbol>
    <symbol
       id="e"
       overflow="visible">
      <path
         d="m16.406-4.9375c1.6328 0 2.8828-0.59766 3.75-1.7969 0.86328-1.1953 1.2969-2.9297 1.2969-5.2031 0-2.2812-0.43359-4.0195-1.2969-5.2188-0.86719-1.1953-2.1172-1.7969-3.75-1.7969-1.6367 0-2.8906 0.60547-3.7656 1.8125-0.875 1.1992-1.3125 2.9336-1.3125 5.2031 0 2.2617 0.4375 3.9961 1.3125 5.2031 0.875 1.1992 2.1289 1.7969 3.7656 1.7969zm-5.0781-15.484c1.0508-1.3945 2.2188-2.4219 3.5-3.0781 1.2812-0.66406 2.7539-1 4.4219-1 2.9453 0 5.3672 1.1719 7.2656 3.5156 1.8945 2.3438 2.8438 5.3594 2.8438 9.0469s-0.94922 6.7031-2.8438 9.0469c-1.8984 2.3438-4.3203 3.5156-7.2656 3.5156-1.668 0-3.1406-0.33594-4.4219-1s-2.4492-1.6914-3.5-3.0781v3.4531h-7.6562v-33.234h7.6562z"
         id="path20" />
    </symbol>
    <symbol
       id="a"
       overflow="visible">
      <path
         d="m0.53125-23.922h7.6562l6.4219 16.234 5.4688-16.234h7.6562l-10.062 26.188c-1.0117 2.6641-2.1953 4.5234-3.5469 5.5781-1.3438 1.0625-3.1211 1.5938-5.3281 1.5938h-4.4219v-5.0156h2.3906c1.3008 0 2.2422-0.21094 2.8281-0.625 0.59375-0.40625 1.0547-1.1484 1.3906-2.2188l0.20312-0.65625z"
         id="path23" />
    </symbol>
    <symbol
       id="d"
       overflow="visible">
      <path
         d="m4.0156-31.891h22.203v6.2188h-13.984v5.9375h13.141v6.2188h-13.141v7.2969h14.453v6.2188h-22.672z"
         id="path26" />
    </symbol>
    <symbol
       id="l"
       overflow="visible">
      <path
         d="m3.4219-9.3125v-14.609h7.6875v2.3906c0 1.293-0.011719 2.918-0.03125 4.875-0.011719 1.9609-0.015625 3.2656-0.015625 3.9219 0 1.9297 0.046875 3.3125 0.14062 4.1562 0.10156 0.84375 0.28125 1.4609 0.53125 1.8438 0.3125 0.5 0.71875 0.88672 1.2188 1.1562 0.50781 0.27344 1.0938 0.40625 1.75 0.40625 1.5938 0 2.8438-0.60938 3.75-1.8281 0.91406-1.2266 1.375-2.9297 1.375-5.1094v-11.812h7.6406v23.922h-7.6406v-3.4531c-1.1562 1.3867-2.3828 2.4141-3.6719 3.0781-1.2812 0.66406-2.6992 1-4.25 1-2.7734 0-4.8828-0.84766-6.3281-2.5469-1.4375-1.6953-2.1562-4.1602-2.1562-7.3906z"
         id="path29" />
    </symbol>
    <symbol
       id="k"
       overflow="visible">
      <path
         d="m23-23.172v6.2344c-1.0312-0.71875-2.0742-1.2422-3.125-1.5781-1.043-0.34375-2.125-0.51562-3.25-0.51562-2.1367 0-3.8047 0.625-5 1.875-1.1875 1.2422-1.7812 2.9805-1.7812 5.2188 0 2.2305 0.59375 3.9688 1.7812 5.2188 1.1953 1.25 2.8633 1.875 5 1.875 1.1953 0 2.332-0.17578 3.4062-0.53125 1.0703-0.36328 2.0625-0.89453 2.9688-1.5938v6.2656c-1.1875 0.4375-2.4023 0.76562-3.6406 0.98438-1.2305 0.22656-2.4648 0.34375-3.7031 0.34375-4.3125 0-7.6875-1.1094-10.125-3.3281s-3.6562-5.2969-3.6562-9.2344c0-3.9453 1.2188-7.0234 3.6562-9.2344 2.4375-2.2188 5.8125-3.3281 10.125-3.3281 1.25 0 2.4844 0.10938 3.7031 0.32812s2.4297 0.55469 3.6406 1z"
         id="path32" />
    </symbol>
    <symbol
       id="j"
       overflow="visible">
      <path
         d="m3.6719-33.234h7.6562v33.234h-7.6562z"
         id="path35" />
    </symbol>
    <symbol
       id="i"
       overflow="visible">
      <path
         d="m11.328-3.4531v12.547h-7.6562v-33.016h7.6562v3.5c1.0508-1.3945 2.2188-2.4219 3.5-3.0781 1.2812-0.66406 2.7539-1 4.4219-1 2.9453 0 5.3672 1.1719 7.2656 3.5156 1.8945 2.3438 2.8438 5.3594 2.8438 9.0469s-0.94922 6.7031-2.8438 9.0469c-1.8984 2.3438-4.3203 3.5156-7.2656 3.5156-1.668 0-3.1406-0.33594-4.4219-1s-2.4492-1.6914-3.5-3.0781zm5.0781-15.5c-1.6367 0-2.8906 0.60547-3.7656 1.8125-0.875 1.1992-1.3125 2.9336-1.3125 5.2031 0 2.2617 0.4375 3.9961 1.3125 5.2031 0.875 1.1992 2.1289 1.7969 3.7656 1.7969 1.6328 0 2.8828-0.59766 3.75-1.7969 0.86328-1.1953 1.2969-2.9297 1.2969-5.2031 0-2.2812-0.43359-4.0195-1.2969-5.2188-0.86719-1.1953-2.1172-1.7969-3.75-1.7969z"
         id="path38" />
    </symbol>
  </defs>
  <g
     id="g113"
     transform="matrix(1.2891784,0,0,1.2891784,-98.099894,77.272479)">
    <path
       d="m 586.25,376.25 v -17.5 c 0,-4.8281 -3.9219,-8.75 -8.75,-8.75 l -44.836,-0.0703 -69.465,-8.6797 -194.07,-0.26172 -68.953,-17.238 h -77.672 c -4.8281,0 -8.75,3.9219 -8.75,8.75 v 43.75 h -35 v 17.5 h 542.5 v -17.5 z m -385,-35 h 17.5 v 17.5 h -17.5 z m -35,0 h 17.5 v 17.5 h -17.5 z m -35,0 h 17.5 v 17.5 h -17.5 z m 140,35 v -17.5 h 17.5 v 17.5 z m 35,0 v -17.5 h 17.5 v 17.5 z m 35,0 v -17.5 h 17.5 v 17.5 z m 35,0 v -17.5 h 17.5 v 17.5 z m 35,0 v -17.5 h 17.5 v 17.5 z"
       id="path43" />
    <path
       d="m 189.94,306.47 c -4.2344,-24.824 -10.902,-46.418 -17.613,-63.727 -17.414,-3.457 -37.422,-5.6094 -60.023,-6.2656 10.281,16.809 26.703,45.762 34.238,69.852 z"
       id="path45" />
    <path
       d="m 261.2,320.97 c -4.5234,-36.871 -13.895,-72.047 -23.355,-100.62 -20.266,-10.266 -41.949,-16.547 -64.766,-18.453 10.195,19.145 26.969,56.586 34.711,105.73 z"
       id="path47" />
    <path
       d="m 442.55,323.81 h 6.5703 c 2.293,-4.7422 6.3789,-11.609 13.359,-18.891 -9.7578,-3.6914 -22.285,-7.0703 -35.938,-7.1914 4.625,7.2578 10.551,16.789 16.008,26.082 z"
       id="path49" />
    <path
       d="m 303.02,323.76 119.14,0.043 c -9.1172,-14.988 -18.105,-28.664 -18.219,-28.84 l -7.3945,-11.234 13.266,-2.2031 c 12.102,-2.0117 23.766,-1.4336 34.359,0.36719 7.5703,-17.586 16.406,-31.832 22.594,-40.793 -93.551,-23.863 -146.51,51.887 -163.75,82.66 z"
       id="path51" />
    <path
       d="m 234.02,160.98 c 12.602,28.832 37.336,92.523 45.09,162.77 h 4.1914 c 6.8672,-13.344 27.773,-49.578 63.41,-75.723 -17.168,-32.586 -50.137,-71.023 -112.69,-87.043 z"
       id="path53" />
    <path
       d="m 534.29,332.5 h 2.9219 c 9.4766,-17.656 21.57,-33.766 30.492,-44.598 -62.879,-0.75391 -88.691,22.312 -98.621,36.445 z"
       id="path55" />
    <path
       d="m 455,122.5 c -14.473,0 -26.25,11.777 -26.25,26.25 0,14.473 11.777,26.25 26.25,26.25 h 122.5 c 14.473,0 26.25,-11.777 26.25,-26.25 0,-14.473 -11.777,-26.25 -26.25,-26.25 -14.473,0 -26.25,11.777 -26.25,26.25 h -17.5 c 0,-15.953 8.582,-29.941 21.375,-37.582 C 547.7344,96.898 532.77,87.5 516.25,87.5 c -19.301,0 -36.102,12.383 -41.797,30.801 l -2.6523,8.5742 -8.5039,-2.8594 c -3.0117,-1.0273 -5.7227,-1.5156 -8.2969,-1.5156 z"
       id="path75" />
    <path
       d="m 218.75,113.75 h 122.5 c 14.473,0 26.25,-11.777 26.25,-26.25 0,-14.473 -11.777,-26.25 -26.25,-26.25 C 326.777,61.25 315,73.027 315,87.5 h -17.5 c 0,-15.953 8.582,-29.941 21.375,-37.582 C 311.4844,35.648 296.52,26.25 280,26.25 c -19.301,0 -36.102,12.383 -41.797,30.801 l -2.6523,8.5742 -8.5039,-2.8594 c -3.0117,-1.0273 -5.7227,-1.5156 -8.2969,-1.5156 -14.473,0 -26.25,11.777 -26.25,26.25 0,14.473 11.777,26.25 26.25,26.25 z"
       id="path77" />
    <path
       d="m 385,87.5 c 0,20.57 -14.324,37.758 -33.484,42.402 11.172,17.02 30.055,27.598 50.984,27.598 3.2109,0 6.4062,-0.28125 9.5547,-0.77734 -0.48047,-2.5898 -0.80469,-5.2422 -0.80469,-7.9727 0,-26.004 22.848,-47.199 49.438,-43.328 0.83203,-1.8125 1.8633,-3.4844 2.8594,-5.1797 0.0898,-1.3242 0.20312,-2.6445 0.20312,-3.9922 0,-33.773 -27.484,-61.25 -61.25,-61.25 -14.754,0 -28.648,5.2852 -39.629,14.699 13.152,7.5508 22.129,21.578 22.129,37.801 z"
       id="path79" />
  </g>
</svg>
