<?xml version="1.0" encoding="UTF-8"?>
<svg width="752pt" height="752pt" version="1.1" viewBox="100 100 552 552" xmlns="http://www.w3.org/2000/svg">
 <path d="m464.8 379.04-25.383 6.5117c-0.88672 0-21.238 5.6992-28.117 37-1.7812 10.703-6.293 20.77-13.098 29.227-9.3242-28.414 4.7344-72.887 24.418-97.602h0.003906c6.8398-9.3945 16.395-16.473 27.379-20.273-0.96094 2.5898-1.8516 4.7344-2.4414 6.2891-6.7344 17.461 4.7344 29.449 17.238 38.848zm43.953 20.645c0-21.387-8.8789-39.516-13.246-54.312h0.003906c-3.3516-9.5586-5.4648-19.504-6.2891-29.598 0-5.6992-2.0703-9.5469-5.1055-10.656h-0.003906c-0.58594-0.10938-1.1875-0.10938-1.7734 0-0.79688-0.058593-1.5859 0.17969-2.2227 0.66406-7.5664 12.594-13.816 25.934-18.645 39.812-2.4414 6.2148-1.1094 11.617 12.875 22.199 13.984 10.582 14.801 26.715 14.355 44.918v7.3984c-0.88672 16.531-3.9453 32.879-9.1016 48.613-1.1836 4.5156-2.3672 8.8047-3.3281 12.727-0.37109 1.7031-0.8125 3.3281-1.2578 4.8086l3.9219-2.2188c18.199-10.727 30.262-38.254 29.746-84.355zm-306.71-78.656-9.3984-39.664c-1.4062-3.8477-8.6562-25.824 0.51953-44.398l1.9258-3.9961c7.3984-14.801 12.285-25.086 32.336-23.68h-0.003907c15.945-0.20703 31.84-1.7891 47.508-4.7344 6.4375-4.293 30.191-19.609 44.77-19.609 9.1641 0.23438 18.164 2.5117 26.34 6.6602 2.1875 1.0312 4.4375 1.918 6.7344 2.6641 15.219 4.1133 30.07 9.4844 44.398 16.055 9.3984 5.625 12.137 25.676 14.801 71.48l0.59375 8.4375c1.5547 24.121 0.73828 35.223-13.836 45.805l-3.1836 2.1445h-0.003906c-3.8516 2.3633-8.2812 3.6211-12.801 3.6289-10.301-0.75-20.297-3.8398-29.227-9.0273-5.918-3.0352-11.914-6.5117-17.609-10.062l-7.7695-4.8086c-4.7344-2.9609-9.1016-5.6992-12.801-7.7695l-0.003906-0.003907c-8.293-4.5664-17.547-7.1016-27.008-7.3984l-10.582 5.918c-2.9922 1.6484-6.7227 1.0391-9.0273-1.4805l-8.9531-9.6953-10.805 10.582c-2.4922 2.4375-6.3438 2.8086-9.25 0.89063l-10.879-7.3984-12.875 21.09v-0.003906c-1.543 2.543-4.457 3.9102-7.3984 3.4805-3.0078-0.21875-5.5859-2.2383-6.5117-5.1055zm139.56-30.707v-0.003906c2.6992 4.9453 7.7031 8.1992 13.32 8.6562h1.1094c4.9531-0.29297 9.7266-1.9844 13.762-4.8789 4.0312-2.8945 7.1641-6.8711 9.0273-11.473 0.91016-1.8164 1.0352-3.9219 0.34375-5.832-0.6875-1.9102-2.1328-3.4531-3.9922-4.2656-1.8633-0.8125-3.9727-0.82422-5.8438-0.035156-1.8711 0.78906-3.3359 2.3125-4.0469 4.2148 0 0-3.7734 7.3984-9.5469 7.3984-1.2148-0.91406-2.1211-2.1797-2.5898-3.625-3.5703-9.5469-3.5703-20.059 0-29.602 0.96094-2.293 1.7773-3.1836 1.5547-3.2578v0.003907c1.5547 0.67969 2.9219 1.7188 3.9961 3.0352 2.5625 3.1484 7.1875 3.6445 10.359 1.1094 3.1719-2.543 3.7031-7.168 1.1836-10.359-4.1016-5.4492-10.574-8.5898-17.391-8.4375-3.1172 0.61328-6.0039 2.0703-8.3555 4.207-2.3477 2.1406-4.0625 4.8828-4.9648 7.9297-5.8516 14.664-5.0938 31.141 2.0742 45.211zm-68.52-26.715h-0.003907c3.5156 6.168 8.6289 11.281 14.801 14.797 4.1836 2.6172 8.9805 4.0977 13.91 4.293 11.766 0 18.277-10.582 21.531-15.836 6.6602-10.73 4.293-40.477-9.5469-49.652-13.836-9.1758-34.629 8.3633-37 10.508h0.003906c-1.4023 1.3828-2.1992 3.2695-2.2109 5.2383-0.015625 1.9727 0.75391 3.8672 2.1406 5.2695 2.8789 2.9219 7.582 2.957 10.504 0.074219 6.1406-5.7734 15.613-10.879 18.574-8.9531 6.4375 4.3672 7.7695 25.234 5.1055 29.598-5.625 8.9531-7.8438 10.805-15.465 6.3633-3.8086-2.1445-6.957-5.293-9.1016-9.1016-0.97656-1.7109-2.5938-2.9648-4.5-3.4766-1.9023-0.51562-3.9297-0.25-5.6367 0.73828-1.7773 0.91406-3.1094 2.5039-3.6953 4.4141-0.58203 1.9102-0.37109 3.9727 0.58594 5.7266zm-64.305-14.801c0.16797 1.9648 1.1133 3.7812 2.6289 5.0469 1.5156 1.2656 3.4727 1.8711 5.4336 1.6875 3.8281-0.34766 6.75-3.5586 6.7344-7.4023 1.9102-1.957 4.3125-3.3633 6.957-4.0664 1.7578-0.70312 3.7188-0.70312 5.4766 0-0.39453 2.4414-1.2734 4.7852-2.5898 6.8789l-0.66406 1.332h-0.003906c-0.89844 1.7578-1.0625 3.7969-0.45313 5.6758 0.61328 1.875 1.9492 3.4297 3.7109 4.3164 1.0352 0.5 2.1758 0.75391 3.3281 0.73828 2.8125 0.019532 5.3945-1.5586 6.6602-4.0703l0.59375-1.1836c6.5117-12.578 5.3281-21.605-3.5508-26.641l-0.003906 0.003907c-4.0391-1.7891-8.4805-2.4766-12.871-1.9961-4.3945 0.48047-8.5781 2.1133-12.137 4.7305-2.8086 1.3945-5.1641 3.5469-6.8008 6.2188-1.6328 2.668-2.4844 5.7461-2.4492 8.8789zm64.969 139.19 8.5078 2.293c15.043 4.832 30.68 7.5703 46.473 8.1406 27.707-2.1523 52.32-18.504 65.043-43.215-3.4648 1.0078-7.0469 1.5547-10.656 1.6289h-0.74219c-12.645-0.57031-24.973-4.1445-35.961-10.434-5.8477-3.0352-12.137-6.5859-18.723-10.656l-8.4375-5.2539-2.4375-1.625-7.3984 2.293-11.914-6.2148c-3.3398-1.7344-7.4492-0.68359-9.5469 2.4414l-7.3984 11.027-10.289-14.211-0.66406-0.96094c-1.4102-1.9844-3.707-3.1445-6.1406-3.1094-0.78906-0.003906-1.5664 0.14844-2.2969 0.44531-1.5664 0.46484-2.9102 1.4922-3.7734 2.8867l-7.1758 10.727-5.2539-8.9531-5.6992-9.6953v0.003906c-1.5234-2.5703-4.4414-3.9727-7.3984-3.5547-2.8242 0.28125-5.2383 2.1484-6.2148 4.8125l-8.2148 22.199-10.285-8.8789c-2.1641-1.8555-5.2031-2.3008-7.8086-1.1484-2.6055 1.1523-4.3164 3.6992-4.4023 6.5469v1.1836c-0.8125 39.145 4.8086 44.398 6.6602 45.879l1.6289 1.4805c5.1992 5.8711 12.52 9.4375 20.348 9.918 4.9883-0.39844 9.9375-1.1914 14.801-2.3711 11.395-2.0703 27.898-5.3984 35.371-3.4766zm288.07 0c-0.8125-9.9883-1.9258-21.09-3.4023-33.891-0.73828-5.8477-3.6992-6.3633-4.6602-6.5117h-1.2578c-6.6602 0-19.906 7.3984-31.523 29.598-3.6992 7.3984 0 22.57 3.0352 35l-0.003906 0.003906c1.7891 6.6328 3.125 13.383 3.9961 20.199 0.37109 3.625 0.96094 7.3984 1.5547 11.098 3.1094 20.57 7.3984 46.176-17.168 79.473v0.003907c-5.5273 7.2461-10.477 14.914-14.801 22.938 1.7773-1.4062 3.8477-3.1836 6.2148-5.4023 4.3672-3.9961 6.8828-6.0664 9.3242-8.0664 7.1797-5.9805 14.023-12.355 20.496-19.09 28.785-28.043 32.633-68.816 28.195-124.83zm-133.2 95.531c-7.3672 1.3438-13.703 6.0117-17.168 12.652l-87.242-36.035c1.9727-8.6094-0.50391-17.633-6.5898-24.035-6.0898-6.3984-14.977-9.3203-23.676-7.7852-5.0781 1.2461-9.6367 4.0625-13.027 8.0469-3.3867 3.9844-5.4297 8.9375-5.8398 14.152-0.60156 4.0312-0.32422 8.1484 0.8125 12.062-3.5781 1.9375-6.6875 4.6406-9.1016 7.918-3.3047 3.9961-5.2852 8.918-5.6719 14.086-0.38281 5.1719 0.84766 10.332 3.5273 14.773 2.8477 4.0195 6.7539 7.1758 11.289 9.1055 4.5312 1.9336 9.5117 2.5742 14.387 1.8438 5.3086-0.73438 10.168-3.3594 13.691-7.3984l91.977 38.184c-0.32031 5.3125 1.2852 10.566 4.5156 14.797 5.0195 6.7969 12.934 10.848 21.383 10.953 6.0234 0.027344 11.824-2.2617 16.207-6.3945 4.3789-4.1328 7-9.793 7.3242-15.805 0.61328-4.0625 0.30859-8.207-0.88672-12.137 3.6133-1.9141 6.75-4.6211 9.1758-7.918 3.2969-3.9844 5.2656-8.8984 5.6406-14.059 0.37109-5.1602-0.87891-10.309-3.5703-14.727-2.8359-4.3516-6.8828-7.7852-11.641-9.875-4.7578-2.0898-10.02-2.7461-15.145-1.8906zm42.105-200.38c0.9375 0.86719 2.1328 1.4102 3.4023 1.5508 2.5156 0 4.8086 0.37109 7.0312 0.37109 8.5938 0.83984 17.066-2.4883 22.789-8.9531 8.9531-11.766 1.7031-30.117-0.66406-36.184-1.4141-5.3086-5.0977-9.7188-10.066-12.062-7.3984-2.5156-14.801 1.7773-27.75 8.8789h0.003906c-6.8281 3.082-11.645 9.3984-12.801 16.797-0.81641 11.914 8.8047 21.906 18.422 30.117zm67.188 43.805c0.58594 0.10547 1.1875 0.10547 1.7773 0 3.6562 0.88281 7.5 0.53516 10.938-0.99219 3.4414-1.5234 6.2773-4.1406 8.0781-7.4453 2-4.5234 2.5781-9.543 1.668-14.406-0.91016-4.8594-3.2734-9.3281-6.7734-12.824-2.0938-2.2383-4.75-3.875-7.6875-4.75-2.9414-0.87109-6.0586-0.94141-9.0352-0.20703-6.1562 1.8555-10.863 6.8438-12.359 13.098-0.92969 4.8047-0.56641 9.7734 1.0586 14.391 1.625 4.6172 4.4531 8.7188 8.1914 11.879 1.2109 1.1641 2.8359 1.8047 4.5156 1.7773z"/>
</svg>
