<?xml version="1.0" encoding="UTF-8" standalone="no"?>
<svg
   width="752pt"
   height="752pt"
   version="1.1"
   viewBox="0 0 752 752"
   id="svg8"
   sodipodi:docname="astronomy.svg"
   inkscape:version="1.1 (c68e22c387, 2021-05-23)"
   xmlns:inkscape="http://www.inkscape.org/namespaces/inkscape"
   xmlns:sodipodi="http://sodipodi.sourceforge.net/DTD/sodipodi-0.dtd"
   xmlns="http://www.w3.org/2000/svg"
   xmlns:svg="http://www.w3.org/2000/svg">
  <defs
     id="defs12" />
  <sodipodi:namedview
     id="namedview10"
     pagecolor="#ffffff"
     bordercolor="#666666"
     borderopacity="1.0"
     inkscape:pageshadow="2"
     inkscape:pageopacity="0.0"
     inkscape:pagecheckerboard="0"
     inkscape:document-units="pt"
     showgrid="false"
     inkscape:zoom="0.29055319"
     inkscape:cx="132.50586"
     inkscape:cy="-287.38284"
     inkscape:window-width="1920"
     inkscape:window-height="1009"
     inkscape:window-x="-8"
     inkscape:window-y="-8"
     inkscape:window-maximized="1"
     inkscape:current-layer="svg8" />
  <g
     id="g6"
     transform="matrix(-1.456942,0,0,1.456942,932.65684,-169.45676)">
    <path
       d="m 182.62,350.35 c -0.98828,-0.98828 -2.9609,-0.98828 -2.9609,0.98828 -0.98438,7.8945 -0.98438,15.785 -0.98438,24.664 0,109.52 88.797,197.32 197.32,197.32 8.8789,0 17.758,-0.98828 25.652,-1.9727 0.98828,0 1.9727,-1.9727 0.98828,-2.9609 -38.477,-27.625 -78.93,-61.172 -118.39,-101.62 -36.508,-34.531 -72.023,-75.969 -101.62,-116.42 z"
       id="path2" />
    <path
       d="m 564.45,447.04 c -1.9727,-1.9727 -1.9727,-4.9336 -0.98828,-7.8945 3.9453,-10.852 6.9062,-22.691 7.8945,-34.531 v -0.98828 c 0.98828,-3.9453 0.98828,-7.8945 1.9727,-12.824 0.004,-3.9453 0.004,-8.8789 0.004,-14.801 0,-109.52 -88.797,-197.32 -197.32,-197.32 -4.9336,0 -10.852,0 -15.785,0.98828 -4.9336,0 -8.8789,0.98828 -13.812,1.9727 -11.84,1.9727 -23.68,4.9336 -34.531,8.8789 -1.9727,0.98828 -4.9336,0 -6.9062,-0.98828 -44.402,-29.598 -83.867,-45.383 -112.48,-45.383 -14.801,0 -26.641,3.9453 -35.52,12.824 -46.371,46.371 38.477,181.54 147.99,290.07 95.703,95.703 198.31,160.82 254.55,160.82 14.801,0 26.641,-3.9453 35.52,-12.824 26.641,-27.625 9.8672,-83.863 -30.586,-147.99 z m 9.8672,127.27 c -2.9609,2.9609 -7.8945,3.9453 -14.801,3.9453 -40.453,0 -133.2,-52.293 -232.84,-151.94 -121.35,-121.35 -168.71,-227.91 -148.98,-248.63 2.9609,-2.9609 7.8945,-3.9453 14.801,-3.9453 17.758,0 45.387,9.8672 78.93,29.598 1.9727,0.98828 1.9727,3.9453 0,4.9336 -7.8945,4.9336 -15.785,10.852 -22.691,16.773 -2.9609,2.9609 -5.918,4.9336 -8.8789,7.8945 -0.98828,0.98828 -0.98828,0.98828 -1.9727,1.9727 -3.9453,3.9453 -7.8945,7.8945 -11.84,12.824 -0.98828,1.9727 -1.9727,3.9453 -0.98828,5.918 22.691,37.496 61.172,90.773 121.36,151.95 58.211,58.211 113.46,98.664 153.91,121.36 1.9727,0.98828 3.9453,0.98828 4.9336,-0.98828 7.8945,-6.9062 15.785,-14.801 22.691,-22.691 5.918,-7.8945 11.84,-15.785 16.773,-23.68 0.98828,-0.98828 2.9609,-0.98828 2.9609,0 2.9609,5.918 9.8672,16.773 10.852,20.719 22.691,42.426 22.691,66.105 15.785,73.996 z"
       id="path4" />
  </g>
</svg>
