<svg height='300px' width='300px'  fill="#000000" xmlns="http://www.w3.org/2000/svg" xmlns:xlink="http://www.w3.org/1999/xlink" version="1.1" x="0px" y="0px" viewBox="0 0 200 200" enable-background="new 0 0 200 200" xml:space="preserve"><g><g><path fill="#000000" d="M100.001,115.093L57.715,90.681V41.852l42.286-24.413l42.282,24.413v48.829L100.001,115.093z     M64.382,86.832l35.619,20.561l35.615-20.561V45.701l-35.615-20.562L64.382,45.701V86.832z"></path><path fill="#000000" d="M61.049,182.561l-42.286-24.412v-48.831l42.286-24.409l42.286,24.409v48.831L61.049,182.561z     M25.429,154.3l35.62,20.562L96.668,154.3v-41.132L61.049,92.604l-35.62,20.563V154.3z"></path><path fill="#000000" d="M138.95,182.561l-42.282-24.412V109.32l42.282-24.412l42.288,24.409v48.831L138.95,182.561z     M103.335,154.3l35.615,20.562l35.622-20.564v-41.129L138.95,92.604l-35.615,20.563V154.3z"></path><rect x="96.668" fill="#000000" width="6.667" height="21.29"></rect><rect x="57.715" y="178.713" fill="#000000" width="6.667" height="21.287"></rect><rect x="135.616" y="178.713" fill="#000000" width="6.667" height="21.287"></rect><rect x="183.79" y="95.276" transform="matrix(0.5001 0.8659 -0.8659 0.5001 185.2563 -109.0928)" fill="#000000" width="6.666" height="21.288"></rect><rect x="2.234" y="102.587" transform="matrix(0.8661 0.4999 -0.4999 0.8661 54.6796 7.7492)" fill="#000000" width="21.287" height="6.668"></rect></g><g><polygon fill="#000000" points="76.604,80.202 83.271,76.352 100.001,86.01 116.728,76.354 123.395,80.203 100.001,93.71   "></polygon><polygon fill="#000000" points="76.604,52.33 100.001,38.823 123.395,52.33 116.728,56.178 100.001,46.522 83.271,56.178   "></polygon><polygon fill="#000000" points="78.149,143.18 78.149,123.86 61.419,114.201 61.419,106.505 84.816,120.012 84.816,147.028   "></polygon><polygon fill="#000000" points="37.281,147.457 37.281,120.437 43.948,124.288 43.948,143.608 60.678,153.267 60.678,160.964       "></polygon><polygon fill="#000000" points="115.187,120.012 138.582,106.502 138.582,114.201 121.854,123.86 121.854,143.18 115.187,147.028       "></polygon><polygon fill="#000000" points="139.323,153.264 156.054,143.605 156.054,124.288 162.72,120.437 162.72,147.454 139.323,160.961       "></polygon></g></g></svg>