<?xml version="1.0" encoding="UTF-8" standalone="no"?>
<svg
   width="700pt"
   height="700pt"
   version="1.1"
   viewBox="0 0 700 700"
   id="svg22"
   sodipodi:docname="biochemistry.svg"
   inkscape:version="1.1 (c68e22c387, 2021-05-23)"
   xmlns:inkscape="http://www.inkscape.org/namespaces/inkscape"
   xmlns:sodipodi="http://sodipodi.sourceforge.net/DTD/sodipodi-0.dtd"
   xmlns="http://www.w3.org/2000/svg"
   xmlns:svg="http://www.w3.org/2000/svg">
  <defs
     id="defs26" />
  <sodipodi:namedview
     id="namedview24"
     pagecolor="#ffffff"
     bordercolor="#666666"
     borderopacity="1.0"
     inkscape:pageshadow="2"
     inkscape:pageopacity="0.0"
     inkscape:pagecheckerboard="0"
     inkscape:document-units="pt"
     showgrid="false"
     inkscape:zoom="0.44142857"
     inkscape:cx="463.26861"
     inkscape:cy="254.85437"
     inkscape:window-width="1920"
     inkscape:window-height="1009"
     inkscape:window-x="-8"
     inkscape:window-y="-8"
     inkscape:window-maximized="1"
     inkscape:current-layer="svg22" />
  <g
     id="g20"
     transform="matrix(1.1800025,0,0,1.1800025,-49.408634,23.227743)">
    <path
       d="m 350.04,166.25 h -60.762 c -4.4023,-0.10547 -8.25,2.9453 -9.1562,7.2539 -0.43359,2.543 0.27734,5.1484 1.9375,7.125 1.6602,1.9727 4.1094,3.1133 6.6875,3.1211 h 8.5742 v 81.199 c -58.625,21.656 -100.45,74.027 -100.45,140.66 -0.33594,40.832 15.648,80.105 44.398,109.09 28.754,28.992 67.895,45.301 108.73,45.301 40.835,0 79.973,-16.309 108.73,-45.301 28.75,-28.988 44.734,-68.262 44.398,-109.09 0,-66.633 -41.824,-118.96 -100.45,-140.66 V 183.75 h 8.043 c 4.4023,0.10547 8.2539,-2.9453 9.1562,-7.2578 0.43359,-2.543 -0.27734,-5.1445 -1.9375,-7.1211 -1.6602,-1.9727 -4.1094,-3.1133 -6.6875,-3.1211 h -43.707 v -0.74219 c -0.0977,-1.75 -0.0664,-3.5078 0.0898,-5.25 v -0.26562 c 0.44531,-7.6016 2.3125,-15.051 5.5039,-21.965 8.5586,-20.727 25.523,-38.641 43.164,-52.117 13.359,-10.02 27.828,-18.469 43.117,-25.184 4.4102,-1.9844 9.5898,-0.01562 11.574,4.3945 1.9805,4.4102 0.0117,9.5898 -4.3984,11.574 -30.145,13.52 -49.262,29.094 -61.383,43.75 2.7773,2.4336 5.7383,4.6523 8.8555,6.6406 4.4609,2.8398 9.7969,3.9883 15.035,3.2305 32.43,-4.3945 56.297,-17.281 71.004,-38.309 25.508,-36.445 13.344,-83.52 12.82,-85.488 -0.60938,-2.3398 -2.1641,-4.3203 -4.2891,-5.4688 -2.1406,-1.1367 -4.6484,-1.3594 -6.957,-0.61328 -12.902,3.6055 -26.238,5.418 -39.637,5.3828 -17.762,0.83203 -36.137,1.6641 -53.332,9.8867 -16.227,7.2773 -29.062,20.48 -35.875,36.906 -6.8164,16.43 -7.0977,34.84 -0.78516,51.469 0.13281,0.30469 0.30469,0.57031 0.4375,0.875 -22.969,29.531 -22.707,56.219 -22.445,61.293 z m 35.133,17.5 v 17.5 h -8.9258 c -4.832,0 -8.75,3.918 -8.75,8.75 0,4.832 3.918,8.75 8.75,8.75 h 8.9258 v 17.5 h -8.9258 c -4.832,0 -8.75,3.918 -8.75,8.75 0,4.832 3.918,8.75 8.75,8.75 h 8.9258 v 23.406 l 11.461,4.2422 c 54.906,20.301 88.988,67.859 88.988,124.21 0,3.543 -0.17578,7.0859 -0.4375,10.586 -21.219,-9.2734 -49.305,-11.68 -83.824,-7.043 -19.535,3.3047 -38.645,8.7773 -56.965,16.32 -9.668,3.543 -19.688,7.2617 -29.707,10.238 -30.801,9.0547 -75.031,11.023 -98.395,-13.344 -0.30469,-0.30469 -0.65625,-0.57031 -0.96094,-0.83203 -0.62891,-5.2852 -0.94922,-10.602 -0.96094,-15.926 0,-56.348 34.082,-103.95 88.988,-124.25 l 11.461,-4.1992 v -23.406 h 8.9258 c 4.832,0 8.75,-3.918 8.75,-8.75 0,-4.832 -3.918,-8.75 -8.75,-8.75 h -8.9258 v -17.5 h 8.9258 c 4.832,0 8.75,-3.918 8.75,-8.75 0,-4.832 -3.918,-8.75 -8.75,-8.75 h -8.9258 v -17.5 z"
       id="path2" />
    <path
       d="m 256.95,132.82 c 12.875,8.0352 27.805,12.16 42.98,11.871 11.188,-0.125 22.312,-1.7461 33.07,-4.8281 4.3594,-1.1953 7.0898,-5.5195 6.2969,-9.9688 -0.29297,-1.6367 -7.5,-40.27 -39.406,-59.895 -20.258,-12.469 -45.434,-14.316 -74.809,-5.4961 v -0.0039 c -4.2305,1.2695 -6.8555,5.4922 -6.1133,9.8477 0.26953,1.5703 6.9062,38.688 37.98,58.473 z"
       id="path4" />
    <path
       d="m 385,389.38 c 6.9609,0 13.641,-2.7656 18.562,-7.6875 4.921,-4.9219 7.6875,-11.602 7.6875,-18.562 0,-6.96 -2.7656,-13.641 -7.6875,-18.562 -4.9219,-4.921 -11.602,-7.6875 -18.562,-7.6875 -6.96,0 -13.641,2.7656 -18.562,7.6875 -4.921,4.9219 -7.6875,11.602 -7.6875,18.562 0.008,6.9609 2.7773,13.633 7.6953,18.555 4.9219,4.918 11.594,7.6875 18.555,7.6953 z m 0,-35 c 3.5391,0 6.7305,2.1328 8.082,5.4023 1.3555,3.2695 0.60938,7.0312 -1.8945,9.5352 -2.50388,2.504 -6.2656,3.25 -9.5352,1.8945 -3.2695,-1.3516 -5.4023,-4.543 -5.4023,-8.082 0.004,-4.832 3.918,-8.7461 8.75,-8.75 z"
       id="path6" />
    <path
       d="m 354.38,310.62 c 0,4.832 -3.918,8.75 -8.75,8.75 -4.832,0 -8.75,-3.918 -8.75,-8.75 0,-4.832 3.918,-8.75 8.75,-8.75 4.832,0 8.75,3.918 8.75,8.75"
       id="path8" />
    <path
       d="m 280,354.38 c -8.1211,0 -15.91,3.2266 -21.656,8.9688 -5.7422,5.7461 -8.9688,13.535 -8.9688,21.656 0,8.121 3.2266,15.91 8.9688,21.656 5.7461,5.7422 13.535,8.9688 21.656,8.9688 8.121,0 15.91,-3.2266 21.656,-8.9688 5.7422,-5.7461 8.9688,-13.535 8.9688,-21.656 -0.008,-8.1211 -3.2383,-15.902 -8.9805,-21.645 -5.7422,-5.7422 -13.523,-8.9727 -21.645,-8.9805 z m 0,43.75 c -5.3086,0 -10.094,-3.1992 -12.125,-8.1016 -2.0312,-4.9062 -0.91016,-10.551 2.8438,-14.305 3.75396,-3.754 9.3984,-4.875 14.305,-2.8438 4.9023,2.0312 8.1016,6.8164 8.1016,12.125 -0.008,7.2461 -5.8789,13.117 -13.125,13.125 z"
       id="path10" />
    <path
       d="m 144.38,183.75 c 6.9609,0 13.641,-2.7656 18.562,-7.6875 4.921,-4.9219 7.6875,-11.602 7.6875,-18.562 0,-6.96 -2.7656,-13.641 -7.6875,-18.562 -4.9219,-4.921 -11.602,-7.6875 -18.562,-7.6875 -6.96,0 -13.641,2.7656 -18.562,7.6875 -4.921,4.9219 -7.6875,11.602 -7.6875,18.562 0.008,6.9609 2.7773,13.633 7.6953,18.555 4.9219,4.918 11.594,7.6875 18.555,7.6953 z m 0,-35 c 3.5391,0 6.7305,2.1328 8.082,5.4023 1.3555,3.2695 0.60938,7.0312 -1.8945,9.5352 -2.50388,2.504 -6.2656,3.25 -9.5352,1.8945 -3.2695,-1.3516 -5.4023,-4.543 -5.4023,-8.082 0.004,-4.832 3.918,-8.7461 8.75,-8.75 z"
       id="path12" />
    <path
       d="m 218.75,258.12 c 10.441,0 20.457,-4.1484 27.844,-11.531 7.3828,-7.3867 11.531,-17.402 11.531,-27.844 0,-10.442 -4.1484,-20.457 -11.531,-27.844 -7.3867,-7.3828 -17.402,-11.531 -27.844,-11.531 -10.442,0 -20.457,4.1484 -27.844,11.531 -7.3828,7.3867 -11.531,17.402 -11.531,27.844 0.0117,10.438 4.1641,20.449 11.547,27.828 7.3789,7.3828 17.391,11.535 27.828,11.547 z m 0,-61.25 c 5.8008,0 11.367,2.3047 15.469,6.4062 4.102,4.1015 6.4062,9.668 6.4062,15.469 0,5.801 -2.3047,11.367 -6.4062,15.469 -4.1015,4.102 -9.668,6.4062 -15.469,6.4062 -5.801,0 -11.367,-2.3047 -15.469,-6.4062 -4.102,-4.1015 -6.4062,-9.668 -6.4062,-15.469 0.008,-5.8008 2.3125,-11.359 6.4141,-15.461 4.1016,-4.1016 9.6602,-6.4062 15.461,-6.4141 z"
       id="path14" />
    <path
       d="m 555.62,183.75 c 6.9609,0 13.641,-2.7656 18.562,-7.6875 4.921,-4.9219 7.6875,-11.602 7.6875,-18.562 0,-6.96 -2.7656,-13.641 -7.6875,-18.562 -4.9219,-4.921 -11.602,-7.6875 -18.562,-7.6875 -6.96,0 -13.641,2.7656 -18.562,7.6875 -4.921,4.9219 -7.6875,11.602 -7.6875,18.562 0.008,6.9609 2.7773,13.633 7.6953,18.555 4.9219,4.918 11.594,7.6875 18.555,7.6953 z m 0,-35 c 3.5391,0 6.7305,2.1328 8.082,5.4023 1.3555,3.2695 0.60938,7.0312 -1.8945,9.5352 -2.50388,2.504 -6.2656,3.25 -9.5352,1.8945 -3.2695,-1.3516 -5.4023,-4.543 -5.4023,-8.082 0.004,-4.832 3.918,-8.7461 8.75,-8.75 z"
       id="path16" />
    <path
       d="m 481.25,179.38 c -10.441,0 -20.457,4.1484 -27.844,11.531 -7.3828,7.3867 -11.531,17.402 -11.531,27.844 0,10.442 4.1484,20.457 11.531,27.844 7.3867,7.3828 17.402,11.531 27.844,11.531 10.442,0 20.457,-4.1484 27.844,-11.531 7.3828,-7.3867 11.531,-17.402 11.531,-27.844 -0.0117,-10.438 -4.1641,-20.449 -11.547,-27.828 -7.3789,-7.3828 -17.391,-11.535 -27.828,-11.547 z m 0,61.25 c -5.8008,0 -11.367,-2.3047 -15.469,-6.4062 -4.102,-4.1015 -6.4062,-9.668 -6.4062,-15.469 0,-5.801 2.3047,-11.367 6.4062,-15.469 4.1015,-4.102 9.668,-6.4062 15.469,-6.4062 5.801,0 11.367,2.3047 15.469,6.4062 4.102,4.1015 6.4062,9.668 6.4062,15.469 -0.008,5.8008 -2.3125,11.359 -6.4141,15.461 -4.1016,4.1016 -9.6602,6.4062 -15.461,6.4141 z"
       id="path18" />
  </g>
</svg>
