<?xml version="1.0" encoding="UTF-8" standalone="no"?>
<svg
   width="752pt"
   height="752pt"
   version="1.1"
   viewBox="0 0 752 752"
   id="svg11"
   sodipodi:docname="biochemistry.svg"
   inkscape:version="1.1 (c68e22c387, 2021-05-23)"
   xmlns:inkscape="http://www.inkscape.org/namespaces/inkscape"
   xmlns:sodipodi="http://sodipodi.sourceforge.net/DTD/sodipodi-0.dtd"
   xmlns="http://www.w3.org/2000/svg"
   xmlns:svg="http://www.w3.org/2000/svg">
  <sodipodi:namedview
     id="namedview13"
     pagecolor="#ffffff"
     bordercolor="#666666"
     borderopacity="1.0"
     inkscape:pageshadow="2"
     inkscape:pageopacity="0.0"
     inkscape:pagecheckerboard="0"
     inkscape:document-units="pt"
     showgrid="false"
     inkscape:zoom="0.41090426"
     inkscape:cx="54.757282"
     inkscape:cy="229.98058"
     inkscape:window-width="1920"
     inkscape:window-height="1009"
     inkscape:window-x="-8"
     inkscape:window-y="-8"
     inkscape:window-maximized="1"
     inkscape:current-layer="svg11" />
  <defs
     id="defs5">
    <clipPath
       id="a">
      <path
         d="m168 139.21h416v473.58h-416z"
         id="path2" />
    </clipPath>
  </defs>
  <path
     d="m 223.05768,481.03491 44.10647,77.89537 c 3.80982,6.73574 1.54431,15.33536 -5.0553,19.21863 -6.59974,3.89144 -15.04229,1.5818 -18.85135,-5.14639 l -40.12324,-70.86117 h -38.8477 c -7.61944,0 -13.79661,-6.29753 -13.79661,-14.0728 0,-7.76787 6.17717,-14.06539 13.79661,-14.06539 h 46.81602 c 4.93149,0 9.48423,2.68099 11.9538,7.0327 z m 529.75506,-49.23572 c 0.0434,17.66731 -8.38441,34.2357 -22.56796,44.38021 -14.17553,10.15171 -32.32834,12.59505 -48.6081,6.5574 -16.28073,-6.04504 -28.64162,-19.81366 -33.10039,-36.87829 h -92.9197 l -67.94246,120.12919 71.97791,127.10064 c 3.80981,6.72835 1.55158,15.33537 -5.05533,19.21865 -6.59972,3.884 -15.035,1.58177 -18.85134,-5.15381 L 463.76746,580.05821 H 326.95202 l -46.1037,81.31173 c 11.90998,11.7559 17.74477,28.50949 15.7707,45.29275 -1.97408,16.78344 -11.52397,31.65776 -25.82388,40.21289 -14.29936,8.5477 -31.69432,9.80266 -47.02862,3.37148 -15.33379,-6.42377 -26.83648,-19.79084 -31.09758,-36.12166 H 91.021904 c -4.924203,0 -9.476943,-2.68097 -11.953782,-7.02527 L 3.0342673,573.03181 h 0.00757 c -2.4693692,-4.35191 -2.4693692,-9.72111 0,-14.08024 L 75.084538,431.79007 3.0935954,304.68181 c -3.8098274,-6.72832 -1.5442958,-15.33536 5.0553126,-19.21863 6.599734,-3.88403 15.042298,-1.58179 18.851355,5.14638 L 98.9856,417.71786 H 235.816 l 46.11115,-81.30412 c -11.91727,-11.74849 -17.75933,-28.5095 -15.79271,-45.29276 1.96663,-16.78326 11.52398,-31.66537 25.81641,-40.22049 14.29937,-8.56254 31.70176,-9.81027 47.0361,-3.38631 15.33377,6.43116 26.84393,19.79084 31.10502,36.12925 h 101.66194 c 4.93149,0 9.49151,2.68097 11.9538,7.03267 l 71.91077,127.03414 h 92.92719 c 4.46529,-17.06577 16.82691,-30.82698 33.10783,-36.86499 16.28071,-6.03764 34.42623,-3.58687 48.6081,6.56481 14.17553,10.15173 22.5959,26.72052 22.55302,44.38021 z M 293.37964,297.65101 c 0,10.53801 6.2281,20.04371 15.77797,24.07604 9.54989,4.03232 20.55021,1.80459 27.86212,-5.65153 7.30631,-7.44866 9.49897,-18.66233 5.53624,-28.3992 -3.95543,-9.74336 -13.27222,-16.09277 -23.61594,-16.09277 -14.10988,0.0223 -25.54603,11.67412 -25.56094,26.06651 z m -24.00941,402.4712 c 0.0218,-14.39221 -11.40013,-26.07414 -25.51805,-26.10265 -14.11716,-0.0223 -25.57585,11.62223 -25.60383,26.01518 v 0.0223 l -0.0141,0.0669 c 0.10914,14.31786 11.52396,25.8726 25.5684,25.8726 14.04444,0 25.45837,-11.55531 25.56094,-25.8726 z m 33.66912,-134.1425 -68.0506,-120.12918 -136.008,0.008 -68.050628,120.12919 68.050628,120.00181 h 93.7365 c 3.43087,-13.77586 12.12853,-25.56842 24.14743,-32.75664 12.01923,-7.18859 26.36279,-9.17149 39.83043,-5.51027 z M 531.70229,431.78589 463.78218,311.78408 h -93.74396 c -3.43088,13.76844 -12.12852,25.56082 -24.13994,32.75092 -12.01925,7.1886 -26.35536,9.17889 -39.82301,5.51769 l -46.78061,82.45431 67.65715,119.41437 h 136.81546 z m 193.4926,0.0143 c 0,-10.53801 -6.2281,-20.04373 -15.77797,-24.07604 -9.54988,-4.03249 -20.5502,-1.80458 -27.86212,5.65154 -7.30632,7.44866 -9.49897,18.66233 -5.53624,28.39919 3.95546,9.73594 13.27221,16.09278 23.61594,16.09278 14.11716,-0.0143 25.5535,-11.67415 25.56841,-26.06652 z M 439.82313,339.85629 H 393.0425 c -7.62669,0 -13.80387,6.29755 -13.80387,14.0654 0,7.76787 6.17718,14.06539 13.80387,14.06539 h 38.8328 l 40.11578,70.84786 c 3.81708,6.72831 12.25235,9.03782 18.85136,5.1538 6.60702,-3.88404 8.86511,-12.49106 5.05531,-19.21862 l -44.10647,-77.88016 c -2.46211,-4.3519 -7.02213,-7.04011 -11.95379,-7.03269 z"
     id="path2-5"
     style="stroke-width:1.8829" />
  <path
     d="m 504.78198,233.1152 h -0.20812 l -0.20811,0.2013 z M 646.24912,38.902482 c 3.72224,-4.135099 8.34182,-11.163126 13.855,-21.094735 3.17294,-5.373516 5.37692,-9.7202444 6.61883,-13.0296164 16.68049,33.0911014 23.71498,67.2154534 21.09474,102.3730594 -2.48033,34.33572 -13.99212,63.84144 -34.53748,88.52068 -17.92249,21.3786 -38.19185,35.77947 -60.80458,43.22709 -13.37374,4.6878 -39.8461,0.82224 -79.4162,-11.58673 -0.41283,0.41283 -0.75742,0.96896 -1.03377,1.65468 -0.13648,0.27294 -0.41283,0.62095 -0.82565,1.03378 -12.682,20.4091 -20.54274,43.70485 -23.57524,69.90382 -0.27636,2.20398 -1.24191,3.99859 -2.8966,5.37352 -1.65468,1.51826 -3.5858,2.27909 -5.78978,2.27909 -2.20398,0 -4.1351,-0.76082 -5.78979,-2.27909 -1.65468,-1.37493 -2.61684,-3.16954 -2.89659,-5.37352 -2.48033,-19.30685 -8.2019,-36.61533 -17.16437,-51.91408 -0.27636,-0.41283 -0.48447,-0.89726 -0.62094,-1.44655 -0.13648,-0.27294 -0.27636,-0.48448 -0.41283,-0.62095 -0.27636,-0.13647 -0.41283,-0.27294 -0.41283,-0.41283 -30.74685,7.85734 -51.08434,10.12988 -61.00984,6.82356 -17.50936,-5.78978 -33.22735,-17.02811 -47.15396,-33.71209 -15.85424,-19.16362 -24.88886,-41.9851 -27.09336,-68.46095 -1.93103,-27.30123 3.65402,-53.909836 16.75212,-79.825827 0.96215,2.61684 2.55203,6.06954 4.75601,10.341242 4.55128,7.57758 8.20189,12.957995 10.96224,16.124127 11.03036,13.377238 30.40272,23.995348 58.1162,31.852598 14.476,4.27153 24.26786,7.65261 29.36861,10.12988 10.20149,4.27152 18.06223,9.72024 23.57523,16.34248 9.79187,11.44 14.20349,25.15874 13.23749,41.15272 -0.13647,1.79461 -2.20397,9.239 -6.20605,22.33674 -9.79187,-12.958 -24.54473,-22.12886 -44.25772,-27.50561 16.40711,11.30986 29.78173,24.54473 40.12297,39.70985 1.24191,1.7946 2.41211,3.5858 3.5175,5.38041 0.13648,0.13647 0.34459,0.348 0.62095,0.62095 0.41283,0.5493 0.82565,1.23509 1.24191,2.06755 v 0.20129 c 3.86216,6.61883 7.30804,13.579 10.34124,20.89385 4.41486,-14.33974 10.54912,-27.71697 18.40637,-40.12559 0.13647,-0.27294 0.34458,-0.5493 0.62094,-0.82224 0.96216,-1.79461 2.13917,-3.51751 3.51751,-5.16887 13.37374,-20.40911 31.29623,-38.18836 53.77271,-53.36046 -28.12661,9.65561 -47.43084,23.2346 -57.90833,40.74309 -6.89519,-20.39862 -10.41287,-31.84561 -10.54912,-34.32611 -1.24191,-20.68248 4.34323,-38.39623 16.75211,-53.15171 7.0317,-8.54655 17.16437,-15.585231 30.40273,-21.101725 6.61883,-3.169538 19.30423,-7.512772 38.05472,-13.022628 35.69388,-10.058255 60.57924,-23.63987 74.64648,-40.743096 z"
     fill-rule="evenodd"
     id="path2-3"
     style="stroke-width:0.873416" />
</svg>
