<?xml version="1.0" encoding="UTF-8" standalone="no"?>
<svg
   height="300px"
   width="300px"
   fill="#000000"
   data-name="Layer 1"
   viewBox="0 0 80 80"
   x="0px"
   y="0px"
   version="1.1"
   id="svg10"
   sodipodi:docname="bioinformatics.svg"
   inkscape:version="1.1 (c68e22c387, 2021-05-23)"
   xmlns:inkscape="http://www.inkscape.org/namespaces/inkscape"
   xmlns:sodipodi="http://sodipodi.sourceforge.net/DTD/sodipodi-0.dtd"
   xmlns="http://www.w3.org/2000/svg"
   xmlns:svg="http://www.w3.org/2000/svg">
  <defs
     id="defs14" />
  <sodipodi:namedview
     id="namedview12"
     pagecolor="#ffffff"
     bordercolor="#666666"
     borderopacity="1.0"
     inkscape:pageshadow="2"
     inkscape:pageopacity="0.0"
     inkscape:pagecheckerboard="0"
     showgrid="false"
     inkscape:zoom="1.3733333"
     inkscape:cx="-156.18932"
     inkscape:cy="222.45146"
     inkscape:window-width="1920"
     inkscape:window-height="1009"
     inkscape:window-x="-8"
     inkscape:window-y="-8"
     inkscape:window-maximized="1"
     inkscape:current-layer="svg10" />
  <title
     id="title2">tv-pc-screen-matlab-math-numericalcomputing</title>
  <path
     d="M71,10H9a6.007,6.007,0,0,0-6,6V56a6.007,6.007,0,0,0,6,6H30.438l-1,4H24a2,2,0,0,0,0,4H56a2,2,0,0,0,0-4H50.562l-1-4H57a2,2,0,0,0,0-4H9a2,2,0,0,1-2-2V16a2,2,0,0,1,2-2H71a2,2,0,0,1,2,2V56a2,2,0,0,1-2,2H69a2,2,0,0,0,0,4h2a6.007,6.007,0,0,0,6-6V16A6.007,6.007,0,0,0,71,10ZM34.562,62H45.438l1,4H33.562Z"
     id="path6" />
  <circle
     cx="63"
     cy="60"
     r="2"
     id="circle8" />
  <g
     id="g10"
     transform="matrix(-0.52572562,0,0,0.52572562,70.057582,12.483776)">
    <path
       d="m 38.736,64.987 c 0.422,0.014 0.84,0.02 1.254,0.02 9,0 16.373,-3.268 20.855,-9.271 4.926,-6.604 5.867,-16.041 2.584,-25.895 C 58.068,13.773 67.07,5.126 67.474,4.751 68.492,3.815 68.562,2.231 67.63,1.208 66.694,0.185 65.105,0.108 64.079,1.044 63.593,1.487 52.224,12.138 58.661,31.431 c 2.797,8.393 2.143,15.955 -1.844,21.299 -3.676,4.926 -10.059,7.504 -17.916,7.234 -1.404,-0.045 -2.547,1.041 -2.594,2.428 -0.043,1.386 1.043,2.548 2.429,2.595 z"
       id="path2" />
    <path
       d="m 66.732,32.608 c -0.049,1.387 1.035,2.551 2.422,2.598 0.432,0.016 0.852,0.023 1.266,0.023 14.303,0 18.844,-8.76 19.035,-9.145 0.615,-1.23 0.117,-2.713 -1.105,-3.342 -1.227,-0.629 -2.734,-0.143 -3.377,1.072 -0.068,0.127 -0.873,1.561 -2.859,3.037 L 69.357,15.228 c -1.027,-0.936 -2.615,-0.861 -3.551,0.164 -0.934,1.025 -0.859,2.615 0.166,3.549 L 77.271,29.24 c -2.105,0.645 -4.707,1.055 -7.941,0.945 -1.371,-0.057 -2.549,1.035 -2.598,2.423 z"
       id="path4" />
    <path
       d="m 24.469,58.515 c 0,-1.387 -1.125,-2.512 -2.512,-2.512 -15.107,0 -20.52,8.58 -20.744,8.945 -0.723,1.186 -0.348,2.73 0.836,3.455 0.408,0.248 0.861,0.367 1.307,0.367 0.848,0 1.674,-0.428 2.146,-1.203 0.02,-0.031 0.951,-1.479 3.195,-3.004 l 13.086,12.643 c 0.488,0.473 1.117,0.707 1.746,0.707 0.658,0 1.314,-0.258 1.807,-0.768 0.965,-0.998 0.938,-2.588 -0.061,-3.553 L 13.539,62.255 c 2.24,-0.721 5.002,-1.227 8.418,-1.227 1.387,0 2.512,-1.125 2.512,-2.513 z"
       id="path6-8" />
    <path
       d="m 42.234,55.099 c 0.49,0.498 1.139,0.748 1.789,0.748 0.637,0 1.273,-0.24 1.764,-0.723 0.988,-0.975 1,-2.564 0.025,-3.553 L 34.127,39.716 c 0.439,-0.797 0.936,-1.543 1.49,-2.227 1.072,-1.324 2.383,-2.402 3.877,-3.287 l 11.271,11.146 c 0.488,0.484 1.127,0.727 1.766,0.727 0.648,0 1.295,-0.248 1.787,-0.746 0.975,-0.986 0.967,-2.576 -0.02,-3.553 L 44.6,32.185 c 2.314,-0.531 4.924,-0.738 7.822,-0.611 1.369,0.063 2.559,-1.016 2.619,-2.402 0.061,-1.385 -1.014,-2.559 -2.4,-2.619 -9.387,-0.404 -16.424,2.207 -20.93,7.775 -1.158,1.43 -2.107,3.047 -2.875,4.813 -0.033,0.07 -0.064,0.143 -0.092,0.215 -2.697,6.393 -2.871,14.811 -0.395,24.381 4.158,16.07 -4.203,21.895 -4.609,22.166 -1.158,0.75 -1.496,2.293 -0.756,3.459 0.48,0.752 1.293,1.164 2.123,1.164 0.461,0 0.928,-0.127 1.346,-0.395 0.488,-0.309 11.891,-7.83 6.762,-27.654 -1.738,-6.715 -2.059,-12.695 -1.002,-17.543 z"
       id="path8" />
  </g>
  <text
     xml:space="preserve"
     style="font-style:normal;font-weight:normal;font-size:22.9472px;line-height:1.25;font-family:sans-serif;fill:#000000;fill-opacity:1;stroke:none;stroke-width:0.57368"
     x="8.3812113"
     y="55.201321"
     id="text2337"
     transform="scale(0.96988977,1.031045)"><tspan
       style="stroke-width:0.57368"
       x="8.3812113"
       y="55.201321"
       sodipodi:role="line"
       id="tspan13031">AB</tspan></text>
</svg>
