<svg height='300px' width='300px'  fill="#000000" xmlns="http://www.w3.org/2000/svg" xmlns:xlink="http://www.w3.org/1999/xlink" version="1.1" x="0px" y="0px" viewBox="0 0 100 100" style="enable-background:new 0 0 100 100;" xml:space="preserve"><g><path d="M50,89.5c-21.78,0-39.5-17.72-39.5-39.5S28.22,10.5,50,10.5S89.5,28.22,89.5,50S71.78,89.5,50,89.5z M50,14.5   c-19.575,0-35.5,15.925-35.5,35.5S30.425,85.5,50,85.5S85.5,69.575,85.5,50S69.575,14.5,50,14.5z"></path><path d="M50,80.702C33.071,80.702,19.298,66.93,19.298,50S33.071,19.298,50,19.298S80.702,33.07,80.702,50S66.929,80.702,50,80.702   z M50,23.298c-14.724,0-26.702,11.979-26.702,26.702S35.276,76.702,50,76.702S76.702,64.724,76.702,50S64.724,23.298,50,23.298z"></path><path d="M35.938,52c-3.688,0-6.688-3-6.688-6.688s3-6.688,6.688-6.688s6.688,3,6.688,6.688S39.625,52,35.938,52z M35.938,42.625   c-1.482,0-2.688,1.206-2.688,2.688S34.456,48,35.938,48s2.688-1.206,2.688-2.688S37.419,42.625,35.938,42.625z"></path><path d="M56.23,70.393h-1.542c-3.688,0-6.688-3-6.688-6.688s3-6.688,6.688-6.688h0.715c1.087,0,1.972-0.885,1.972-1.973   c0-3.688,3-6.688,6.688-6.688s6.688,3,6.688,6.688v0.827C70.75,63.879,64.236,70.393,56.23,70.393z M54.688,61.018   c-1.482,0-2.688,1.206-2.688,2.688s1.206,2.688,2.688,2.688h1.542c5.801,0,10.52-4.72,10.52-10.521v-0.827   c0-1.481-1.206-2.688-2.688-2.688s-2.688,1.206-2.688,2.688c0,3.293-2.679,5.973-5.972,5.973H54.688z"></path><path d="M52.746,41.795c-0.846,0-1.632-0.542-1.904-1.391c-0.337-1.052,0.243-2.178,1.295-2.515   c1.735-0.556,1.965-1.36,2.347-2.692c0.404-1.409,1.155-4.032,4.892-4.032c1.104,0,2,0.896,2,2s-0.896,2-2,2   c-0.515,0-0.676,0.092-0.677,0.093c-0.104,0.113-0.264,0.672-0.37,1.041c-0.449,1.568-1.201,4.192-4.972,5.399   C53.153,41.764,52.948,41.795,52.746,41.795z"></path><circle cx="33.938" cy="58.34" r="2"></circle><circle cx="35.938" cy="64.766" r="2"></circle></g></svg>