<?xml version="1.0" encoding="UTF-8" standalone="no"?>
<svg
   width="752pt"
   height="752pt"
   version="1.1"
   viewBox="0 0 752 752"
   id="svg8"
   sodipodi:docname="biomedical_engineering.svg"
   inkscape:version="1.1 (c68e22c387, 2021-05-23)"
   xmlns:inkscape="http://www.inkscape.org/namespaces/inkscape"
   xmlns:sodipodi="http://sodipodi.sourceforge.net/DTD/sodipodi-0.dtd"
   xmlns="http://www.w3.org/2000/svg"
   xmlns:svg="http://www.w3.org/2000/svg">
  <defs
     id="defs12" />
  <sodipodi:namedview
     id="namedview10"
     pagecolor="#ffffff"
     bordercolor="#666666"
     borderopacity="1.0"
     inkscape:pageshadow="2"
     inkscape:pageopacity="0.0"
     inkscape:pagecheckerboard="0"
     inkscape:document-units="pt"
     showgrid="false"
     inkscape:zoom="0.82180851"
     inkscape:cx="501.94175"
     inkscape:cy="501.94175"
     inkscape:window-width="1920"
     inkscape:window-height="1009"
     inkscape:window-x="-8"
     inkscape:window-y="-8"
     inkscape:window-maximized="1"
     inkscape:current-layer="svg8" />
  <g
     id="g6"
     transform="matrix(1.4991617,0,0,1.4991617,-187.19941,-141.38961)">
    <path
       d="M 571.39,440.33 H 181.05 v 74.531 h 24.605 v 50.688 l 141.93,0.16797 28.637,-54.301 28.641,54.301 141.92,-0.16016 0.004,-50.695 h 24.602 v -74.531 z m -212.32,50.18 -26.562,50.785 -102.11,-0.0469 v -76.094 h 128.68 z m 162.98,50.738 -102.11,0.0469 -26.562,-50.785 v -25.355 h 128.68 z"
       id="path2" />
    <path
       d="m 560.86,390.89 c 0,-104.02 -58.23,-161.63 -123.49,-188.7 v 14.074 c 0,7.6641 -6.2383,13.898 -13.898,13.898 -7.6641,0 -13.906,-6.2383 -13.906,-13.898 v -22.816 c -10.758,-2.3125 -21.812,-3.7031 -33.152,-3.7031 -11.238,0 -22.191,1.4258 -32.863,3.7383 v 22.789 c 0,7.6641 -6.2422,13.898 -13.871,13.898 -7.6953,0 -13.934,-6.2383 -13.934,-13.898 v -14.012 c -65.102,27.199 -124.29,85.75 -124.29,188.64 l -48.055,-0.004 v 36.133 h 465.65 v -36.133 H 560.856 Z M 436.45,345.335 H 396.305 V 385.48 H 356.157 V 345.335 H 316.012 V 305.19 h 40.145 v -40.148 h 40.148 v 40.148 h 40.145 z"
       id="path4" />
  </g>
</svg>
