<svg height='300px' width='300px'  fill="#000000" xmlns="http://www.w3.org/2000/svg" xmlns:xlink="http://www.w3.org/1999/xlink" version="1.1" x="0px" y="0px" viewBox="0 0 91 91" enable-background="new 0 0 91 91" xml:space="preserve"><g><path d="M38.736,64.987c0.422,0.014,0.84,0.02,1.254,0.02c9,0,16.373-3.268,20.855-9.271c4.926-6.604,5.867-16.041,2.584-25.895   c-5.361-16.068,3.641-24.715,4.045-25.09c1.018-0.936,1.088-2.52,0.156-3.543c-0.936-1.023-2.525-1.1-3.551-0.164   c-0.486,0.443-11.855,11.094-5.418,30.387c2.797,8.393,2.143,15.955-1.844,21.299c-3.676,4.926-10.059,7.504-17.916,7.234   c-1.404-0.045-2.547,1.041-2.594,2.428C36.264,63.778,37.35,64.94,38.736,64.987z"></path><path d="M66.732,32.608c-0.049,1.387,1.035,2.551,2.422,2.598c0.432,0.016,0.852,0.023,1.266,0.023   c14.303,0,18.844-8.76,19.035-9.145c0.615-1.23,0.117-2.713-1.105-3.342c-1.227-0.629-2.734-0.143-3.377,1.072   c-0.068,0.127-0.873,1.561-2.859,3.037L69.357,15.228c-1.027-0.936-2.615-0.861-3.551,0.164c-0.934,1.025-0.859,2.615,0.166,3.549   l11.299,10.299c-2.105,0.645-4.707,1.055-7.941,0.945C67.959,30.128,66.781,31.22,66.732,32.608z"></path><path d="M24.469,58.515c0-1.387-1.125-2.512-2.512-2.512c-15.107,0-20.52,8.58-20.744,8.945c-0.723,1.186-0.348,2.73,0.836,3.455   c0.408,0.248,0.861,0.367,1.307,0.367c0.848,0,1.674-0.428,2.146-1.203c0.02-0.031,0.951-1.479,3.195-3.004l13.086,12.643   c0.488,0.473,1.117,0.707,1.746,0.707c0.658,0,1.314-0.258,1.807-0.768c0.965-0.998,0.938-2.588-0.061-3.553L13.539,62.255   c2.24-0.721,5.002-1.227,8.418-1.227C23.344,61.028,24.469,59.903,24.469,58.515z"></path><path d="M42.234,55.099c0.49,0.498,1.139,0.748,1.789,0.748c0.637,0,1.273-0.24,1.764-0.723c0.988-0.975,1-2.564,0.025-3.553   L34.127,39.716c0.439-0.797,0.936-1.543,1.49-2.227c1.072-1.324,2.383-2.402,3.877-3.287l11.271,11.146   c0.488,0.484,1.127,0.727,1.766,0.727c0.648,0,1.295-0.248,1.787-0.746c0.975-0.986,0.967-2.576-0.02-3.553L44.6,32.185   c2.314-0.531,4.924-0.738,7.822-0.611c1.369,0.063,2.559-1.016,2.619-2.402c0.061-1.385-1.014-2.559-2.4-2.619   c-9.387-0.404-16.424,2.207-20.93,7.775c-1.158,1.43-2.107,3.047-2.875,4.813c-0.033,0.07-0.064,0.143-0.092,0.215   c-2.697,6.393-2.871,14.811-0.395,24.381c4.158,16.07-4.203,21.895-4.609,22.166c-1.158,0.75-1.496,2.293-0.756,3.459   c0.48,0.752,1.293,1.164,2.123,1.164c0.461,0,0.928-0.127,1.346-0.395c0.488-0.309,11.891-7.83,6.762-27.654   c-1.738-6.715-2.059-12.695-1.002-17.543L42.234,55.099z"></path></g></svg>