<?xml version="1.0" encoding="UTF-8" standalone="no"?>
<svg
   width="752pt"
   height="752pt"
   version="1.1"
   viewBox="0 0 752 752"
   id="svg10"
   sodipodi:docname="biotechnology.svg"
   inkscape:version="1.1 (c68e22c387, 2021-05-23)"
   xmlns:inkscape="http://www.inkscape.org/namespaces/inkscape"
   xmlns:sodipodi="http://sodipodi.sourceforge.net/DTD/sodipodi-0.dtd"
   xmlns="http://www.w3.org/2000/svg"
   xmlns:svg="http://www.w3.org/2000/svg">
  <defs
     id="defs14" />
  <sodipodi:namedview
     id="namedview12"
     pagecolor="#ffffff"
     bordercolor="#666666"
     borderopacity="1.0"
     inkscape:pageshadow="2"
     inkscape:pageopacity="0.0"
     inkscape:pagecheckerboard="0"
     inkscape:document-units="pt"
     showgrid="false"
     inkscape:zoom="0.41090426"
     inkscape:cx="745.91586"
     inkscape:cy="431.97411"
     inkscape:window-width="1920"
     inkscape:window-height="1009"
     inkscape:window-x="-8"
     inkscape:window-y="-8"
     inkscape:window-maximized="1"
     inkscape:current-layer="g8" />
  <g
     id="g8">
    <path
       d="m 499.71128,188.82284 c -9.36361,0 -17.16344,-7.79983 -17.16344,-17.16344 V 82.715244 c 0,-9.36362 -7.79983,-17.16345 -17.16345,-17.16345 -9.36362,0 -17.16344,7.79983 -17.16344,17.16345 V 171.6594 c 0,67.88111 -30.42731,130.29919 -81.92424,171.65093 10.92098,6.24247 21.06303,12.48477 31.20492,19.50617 31.20492,-28.09119 55.39651,-63.19569 70.21724,-103.76488 3.12115,-8.58486 13.26353,-13.26353 21.84888,-10.14222 8.58535,3.12132 13.26353,13.26353 10.14222,21.84888 -16.37826,44.46219 -42.12607,83.47451 -76.45955,114.68602 58.51849,53.83306 92.84373,131.0768 92.84373,213.777 v 88.15995 c 0,28.09118 -23.40574,51.49693 -51.49692,51.49693 -26.52773,0 -48.37496,-20.28377 -51.49693,-46.8115 H 254.72311 c -2.34256,25.74847 -24.18501,46.8115 -51.49693,46.8115 -28.09118,0 -51.49693,-23.40575 -51.49693,-51.49693 V 598.4371 c 0,-82.70185 34.32689,-159.16139 93.62299,-213.00268 -58.51849,-54.61726 -93.62299,-131.0768 -93.62299,-213.777 V 82.713264 c 0,-28.09118 23.40575,-51.49693 51.49693,-51.49693 26.52772,0 48.37495,20.28378 51.49693,46.8115 H 413.8845 c 2.34255,-25.74847 24.185,-46.8115 51.49693,-46.8115 28.09118,0 51.49692,23.40575 51.49692,51.49693 v 88.950746 c 0,10.14222 -7.80625,17.16345 -17.17003,17.16345 z m -166.1813,135.75565 c 19.50616,-14.04214 36.66961,-31.20492 49.15421,-50.71109 h -97.52916 c 12.48476,19.50617 28.86879,36.66961 48.37495,50.71109 z m -65.5384,-85.04457 H 400.6269 c 5.4637,-14.82089 9.36361,-30.4273 11.70617,-46.03223 H 256.292 c 2.33613,15.60608 6.24247,31.2115 11.69975,46.03223 z M 254.72805,159.17479 H 413.11183 V 112.3633 H 254.72805 Z m 80.36572,287.12281 c -19.50616,14.04213 -36.66961,31.20492 -49.15421,50.71108 h 97.52916 C 370.19877,477.50911 354.59334,460.33907 335.09377,446.2976 Z m 65.53181,85.04456 H 267.99026 c -5.4637,14.8209 -9.36361,30.42731 -11.70617,46.03224 H 411.5459 c -1.55738,-15.60608 -5.45728,-31.21151 -10.92098,-46.03224 z m 12.48477,80.35913 H 254.72657 v 46.8115 H 413.11035 Z M 186.07113,599.22295 v 88.15995 c 0,10.14222 7.80626,17.94929 17.17004,17.94929 9.36378,0 17.16345,-7.79983 17.16345,-17.16344 V 599.2246 c 0,-67.88112 30.4273,-130.29919 81.92423,-171.65094 -10.92098,-5.4637 -21.06303,-12.48477 -30.42731,-19.50616 -53.83964,47.59075 -85.83041,116.24948 -85.83041,191.1571 z M 220.40462,83.495814 c 0,-9.36361 -7.79983,-17.16344 -17.16345,-17.16344 -9.36362,0 -17.16345,7.79983 -17.16345,17.16344 l -0.006,88.166546 c 0,96.74497 53.83305,184.91315 140.44108,228.60432 74.90267,38.23307 121.71417,113.915 121.71417,198.17536 v 88.94415 c 0,9.36362 7.79983,17.16345 17.16344,17.16345 9.36362,0 17.16345,-7.79983 17.16345,-17.16345 v -88.94415 c 0,-96.74496 -53.83306,-184.91315 -140.44108,-228.60431 -74.9031,-38.23307 -121.7146,-113.91501 -121.7146,-198.17537 z"
       id="path4"
       style="stroke-width:1.64748" />
    <path
       d="m 649.60227,304.86778 -12.90614,-18.29189 c 14.0568,-19.23102 16.76301,-45.95723 3.40359,-68.08531 l -3.03861,-5.26298 c -1.1966,-1.06106 -2.2122,-2.82029 -3.40879,-3.88127 l -0.50575,-0.876 c -2.90315,-3.00541 -5.11691,-5.81986 -8.20511,-8.13451 -6.6894,-5.50083 -13.9286,-8.92758 -22.23661,-11.1537 -6.92001,-1.85419 -14.21596,-2.32824 -21.69273,-2.10412 l 17.73421,30.71649 c 3.03858,5.263 3.81804,10.66728 3.02495,16.39074 l -1.48397,5.53833 -0.18514,0.69087 c -0.37022,1.3817 -1.43286,2.58395 -1.98971,4.66229 l -0.18512,0.69085 c -1.06107,1.19659 -2.12367,2.39889 -3.19052,3.59391 -0.18511,0.69087 -0.87597,0.50574 -1.06108,1.19659 -1.06111,1.1966 -2.8203,2.21222 -4.57222,3.22369 -6.14626,3.54854 -13.11733,4.64855 -19.34673,2.97939 -6.22941,-1.66916 -11.71623,-6.10724 -15.26507,-12.2536 l -17.73417,-30.71651 c -11.92724,16.83295 -14.90896,39.03779 -6.90103,58.98464 0.82484,2.44855 2.34781,5.07791 3.86924,7.71311 1.52146,2.63521 2.53291,4.38711 4.23947,6.33139 l 0.50577,0.87597 c 8.85052,11.27537 20.19725,18.76451 33.35207,22.28933 7.61652,2.04084 14.90676,2.51334 22.56918,1.59863 l 9.3882,20.32294 47.38215,97.27302 c 8.10858,14.04444 27.16733,17.66422 43.84547,8.03991 15.79634,-9.12002 23.06854,-27.94694 14.95992,-41.99122 z"
       id="path2"
       style="stroke-width:1.5132"
       sodipodi:nodetypes="cccccccscsccsscccsscccsccscccccc"
       inkscape:transform-center-x="-14.002214"
       inkscape:transform-center-y="-105.08522" />
  </g>
</svg>
