<?xml version="1.0" encoding="UTF-8" standalone="no"?>
<svg
   width="752pt"
   height="752pt"
   version="1.1"
   viewBox="0 0 752 752"
   id="svg14"
   sodipodi:docname="chemistry.svg"
   inkscape:version="1.1 (c68e22c387, 2021-05-23)"
   xmlns:inkscape="http://www.inkscape.org/namespaces/inkscape"
   xmlns:sodipodi="http://sodipodi.sourceforge.net/DTD/sodipodi-0.dtd"
   xmlns="http://www.w3.org/2000/svg"
   xmlns:svg="http://www.w3.org/2000/svg">
  <defs
     id="defs18" />
  <sodipodi:namedview
     id="namedview16"
     pagecolor="#ffffff"
     bordercolor="#666666"
     borderopacity="1.0"
     inkscape:pageshadow="2"
     inkscape:pageopacity="0.0"
     inkscape:pagecheckerboard="0"
     inkscape:document-units="pt"
     showgrid="false"
     inkscape:zoom="0.82180851"
     inkscape:cx="616.32362"
     inkscape:cy="303.59871"
     inkscape:window-width="1920"
     inkscape:window-height="1009"
     inkscape:window-x="-8"
     inkscape:window-y="-8"
     inkscape:window-maximized="1"
     inkscape:current-layer="g12" />
  <g
     id="g12"
     transform="matrix(1.5963176,0,0,1.5963176,-215.85201,-171.28733)">
    <path
       d="m 528.73,331.25 c -6.332,-3.1758 -10.301,-9.7266 -10.18,-16.809 v -65.70552 h 4.2617 c 5.1953,0 9.4688,-4.2773 9.4688,-9.4727 0,-5.1953 -4.2734,-9.4688 -9.4688,-9.4688 h -94.719 c -5.1953,0 -9.4688,4.2734 -9.4688,9.4688 0,5.1953 4.39505,10.59039 9.4688,9.4727 h 4.2656 V 314.441 c 0.004,7.0898 -3.9766,13.613 -10.277,16.859 -16.785,8.0508 -31.508,19.828 -43.051,34.43 -7.9922,10 -14.383,21.188 -18.941,33.148 l -28.414,-54.746 c -1.8633,-3.6172 -2.8203,-7.6289 -2.7969,-11.695 v -126.92 h 4.5 c 5.1953,0 9.4727,-4.2773 9.4727,-9.4727 0,-5.1953 -4.2773,-9.4688 -9.4727,-9.4688 h -94.715 c -5.1953,0 -9.4727,4.2734 -9.4727,9.4688 0,5.1953 4.2773,9.4727 9.4727,9.4727 h 4.2617 v 127.35 c 0.0234,4.0664 -0.93359,8.0781 -2.793,11.695 l -81.98,158.84 c -7.0547,13.758 -6.4805,30.238 1.5156,43.477 6.6758,11.379 18.867,18.445 32.062,18.562 h 188.58 c 13.125,-0.18359 25.234,-7.2422 31.871,-18.562 8.0547,-13.207 8.7031,-29.688 1.7031,-43.477 l -41.012,-79.23 c 2.7305,-15.699 9.0312,-30.555 18.422,-43.426 10.586,-0.77734 21.137,1.9023 30.074,7.625 23.242,14.809 53.098,14.809 76.34,0 7.0508,-4.6406 15.246,-7.2617 23.68,-7.5781 4.9648,-0.32422 8.875,-4.4961 8.875,-9.4727 0,-5.2031 -4.2852,-9.4883 -9.4922,-9.4883 -0.20313,0 -0.41016,0.004 -0.61328,0.0156 -11.859,0.54297 -23.336,4.3633 -33.152,11.035 -16.691,10.25 -37.816,10.25 -54.508,0 -7.3945,-5.0156 -15.773,-8.3867 -24.578,-9.8984 6.8516,-5.8516 14.43,-10.805 22.543,-14.72699 12.75,-6.4258 20.828,-19.53501 20.836,-33.812 V 248.7396 h 48.305 v 65.70553 c -0.0703,14.33199 8.0742,27.512 20.934,33.85899 36.258,17.234 59.457,53.957 59.457,94.102 0,57.152 -47.031,104.19001 -104.19,104.19001 -11.883,0 -23.68,-2.03521 -34.879,-6.0156 -1.0156,-0.35547 -2.0781,-0.53906 -3.1484,-0.53906 -5.207,0 -9.4922,4.2852 -9.4922,9.4883 0,4.0195 2.5547,7.6211 6.3398,8.9531 13.121,4.6094 26.922,6.9609 40.824,6.9609 3.0312,0 6.0625,0 9.0938,-0.33203 64.004,-4.668 114.17,-58.629 114.17,-122.8 0,-47.312 -27.27,-90.609 -69.941,-111.05 z M 395.99,537.02 c -3.1641,5.7148 -9.1484,9.3281 -15.676,9.4727 h -188.58 c -6.5312,-0.14453 -12.512,-3.7578 -15.676,-9.4727 -4.5977,-7.5977 -4.918,-17.062 -0.85156,-24.957 l 51.148,-99.453 c 15.262,-5.9727 32.48,-4.4453 46.457,4.1211 11.305,7.582 24.652,11.551 38.266,11.363 6.6055,0.0156 13.184,-0.85938 19.559,-2.6016 4.1016,-1.1289 6.9648,-4.8906 6.9648,-9.1406 0,-5.1992 -4.2734,-9.4766 -9.4766,-9.4766 -0.84766,0 -1.6875,0.11328 -2.5078,0.33594 -14.137,4.0703 -29.359,1.9727 -41.867,-5.7773 -13.598,-8.875 -29.898,-12.699 -46.031,-10.797 l 19.277,-37.414 c 3.1562,-6.3164 4.7812,-13.297 4.7344,-20.363 v -127.35 h 48.445 v 127.35 c -0.0469,7.0664 1.5781,14.047 4.7383,20.363 l 81.93,158.84 c 4.0664,7.8945 3.7461,17.359 -0.85156,24.957 z"
       id="path2"
       sodipodi:nodetypes="cccssssssccccccccssssssccccccccccccccssccccccccccsscsscscscccccccccccsscccccccccccc" />
    <path
       d="m 252.87,447.04 c -18.188,0 -33.152,14.965 -33.152,33.148 0,18.188 14.965,33.152 33.152,33.152 18.184,0 33.148,-14.965 33.148,-33.152 0,-18.184 -14.965,-33.148 -33.148,-33.148 z m 0,47.359 c -7.7969,0 -14.207,-6.4141 -14.207,-14.211 0,-7.793 6.4102,-14.207 14.207,-14.207 7.793,0 14.207,6.4141 14.207,14.207 0,7.7969 -6.4141,14.211 -14.207,14.211 z"
       id="path4" />
    <path
       d="m 335.23,489.66 c -3.0977,-0.60547 -6.3008,0.375 -8.5234,2.6055 -0.46094,0.41797 -0.85938,0.89453 -1.1836,1.4219 -0.34766,0.51172 -0.65234,1.0469 -0.90234,1.6094 -0.23438,0.57812 -0.41016,1.1836 -0.51953,1.8008 -0.25,1.2148 -0.25,2.4766 0,3.6914 0.10938,0.61719 0.28516,1.2227 0.51953,1.8008 0.25,0.5625 0.55469,1.0977 0.90234,1.6094 0.70312,1.0195 1.5859,1.8984 2.6016,2.6055 0.5,0.36328 1.0391,0.66406 1.6133,0.89844 0.57422,0.23828 1.1836,0.41406 1.7969,0.52344 1.2188,0.25 2.4766,0.25 3.6953,0 0.61328,-0.10937 1.2227,-0.28516 1.8008,-0.52344 0.57031,-0.23438 1.1094,-0.53516 1.6094,-0.89844 0.53125,-0.33984 1.0234,-0.73438 1.4688,-1.1836 1.7109,-1.7305 2.6992,-4.0547 2.7461,-6.4883 0.0703,-0.61719 0.0703,-1.2305 0,-1.8477 -0.10937,-0.61719 -0.28516,-1.2227 -0.52344,-1.8008 -0.23438,-0.57031 -0.53516,-1.1133 -0.89844,-1.6094 -0.32813,-0.51172 -0.70703,-0.98828 -1.1367,-1.4219 -0.44531,-0.44922 -0.9375,-0.83984 -1.4688,-1.1836 -0.49609,-0.36328 -1.0352,-0.66016 -1.6094,-0.89844 -0.62891,-0.31641 -1.2969,-0.55469 -1.9883,-0.71094 z"
       id="path6" />
    <path
       d="m 546.49,456.51 c 0,-23.383 -19.242,-42.625 -42.625,-42.625 -23.379,0 -42.621,19.242 -42.621,42.625 0,23.379 19.242,42.621 42.621,42.621 23.383,0 42.625,-19.242 42.625,-42.621 z m -66.305,0 c 0,-12.992 10.691,-23.68 23.68,-23.68 12.992,0 23.68,10.688 23.68,23.68 0,12.988 -10.688,23.676 -23.68,23.676 -12.988,0 -23.68,-10.688 -23.68,-23.676 z"
       id="path8" />
    <path
       d="m 437.57,432.83 c 0,-7.7969 -6.4102,-14.207 -14.207,-14.207 -7.7968,0 -14.207,6.4102 -14.207,14.207 0,7.793 6.4102,14.207 14.207,14.207 7.7968,0 14.207,-6.4141 14.207,-14.207 z m -14.207,4.7344 c -2.6016,0 -4.7344,-2.1367 -4.7344,-4.7344 0,-2.6016 2.1328,-4.7383 4.7344,-4.7383 2.6016,0 4.7344,2.1367 4.7344,4.7383 0,2.5977 -2.1328,4.7344 -4.7344,4.7344 z"
       id="path10" />
  </g>
</svg>
