<svg height='300px' width='300px'  fill="#000000" xmlns="http://www.w3.org/2000/svg" xmlns:xlink="http://www.w3.org/1999/xlink" xml:space="preserve" version="1.1" style="shape-rendering:geometricPrecision;text-rendering:geometricPrecision;image-rendering:optimizeQuality;" viewBox="0 0 544 472" x="0px" y="0px" fill-rule="evenodd" clip-rule="evenodd"><defs><style type="text/css">
   
    .fil0 {fill:#000000}
   
  </style></defs><g><path class="fil0" d="M44 280l92 0 0 144 10 0 0 -227 18 0 0 -19 54 0 0 19 43 0 0 219 7 0 0 -214 0 -9 0 -46 32 -24 0 -47 38 0 0 -76 3 0 0 76 17 0 0 19 28 -16 0 114 0 0 0 62 0 168 8 0 0 -158 35 0 0 -16 48 0 0 16 23 0 0 181c24,7 39,16 44,26l-544 -1c10,-12 24,-21 44,-25l0 -166z"></path></g></svg>