<?xml version="1.0" encoding="UTF-8"?>
<svg width="752pt" height="752pt" version="1.1" viewBox="125 130 452 452" xmlns="http://www.w3.org/2000/svg">
 <g fill="none" stroke="#000" stroke-linecap="round" stroke-linejoin="round" stroke-width="2">
  <path transform="matrix(4.7358 0 0 4.7358 139.21 139.21)" d="m54 38.38c-0.70358-1.8287-1.5523-3.5979-2.5405-5.2905-2.0802-3.2102-3.9996-2.8902-3.9996-2.8902s-2.1-0.32004-3.9996 2.8902h-8.25e-4c-0.93371 1.7181-1.7783 3.4841-2.5298 5.2905-0.80669 2.0761-1.2562 4.2735-1.3296 6.4997v38.37h15.68v-38.37c-0.060213-2.2229-0.49325-4.4203-1.2801-6.4997z"/>
  <path transform="matrix(4.7358 0 0 4.7358 139.21 139.21)" d="m44.56 40.15h5.4398c0.44706 0 0.80999 0.44706 0.80999 0.80998v1.0096c0 0.44706-0.36293 0.80999-0.80999 0.80999h-5.4398c-0.44706 0-0.80999-0.44706-0.80999-0.80999v-1.0096c0-0.44706 0.36293-0.80998 0.80999-0.80998z"/>
  <path transform="matrix(4.7358 0 0 4.7358 139.21 139.21)" d="m41.19 31v-12.32s0.39014-7.6297 5.2303-11.6c0.52624-0.43056 1.2834-0.43056 1.8097 0 4.8401 3.9996 5.2303 11.6 5.2303 11.6v12.32c0-9.7899 4.4401-10.8 4.4401-10.8s4.45 0.9997 4.45 10.8v33.63"/>
  <path transform="matrix(4.7358 0 0 4.7358 139.21 139.21)" d="m36.75 20.15s-4.45 0.9997-4.45 10.8v33.68"/>
  <path transform="matrix(4.7358 0 0 4.7358 139.21 139.21)" d="m41.19 31c0-9.7899-4.4401-10.8-4.4401-10.8"/>
  <path transform="matrix(4.7358 0 0 4.7358 139.21 139.21)" d="m39.61 60.91-13 11.64s-3.6103 2.9999-3.6103 6.8502v3.8503h16.61"/>
  <path transform="matrix(4.7358 0 0 4.7358 139.21 139.21)" d="m55.28 60.91 13 11.64s3.64 2.9999 3.64 6.8502v3.8503h-16.64"/>
  <path transform="matrix(4.7358 0 0 4.7358 139.21 139.21)" d="m47.45 72.08v10.73"/>
  <path transform="matrix(4.7358 0 0 4.7358 139.21 139.21)" d="m54.8 86.97v2.3697h6.8395v-3.9699"/>
  <path transform="matrix(4.7358 0 0 4.7358 139.21 139.21)" d="m61.64 92.41h-6.3595"/>
  <path transform="matrix(4.7358 0 0 4.7358 139.21 139.21)" d="m49.25 86.11h3.3101"/>
  <path transform="matrix(4.7358 0 0 4.7358 139.21 139.21)" d="m39.14 86.97v2.3697h-6.8403v-3.9699"/>
  <path transform="matrix(4.7358 0 0 4.7358 139.21 139.21)" d="m32.3 92.41h6.3603"/>
  <path transform="matrix(4.7358 0 0 4.7358 139.21 139.21)" d="m44.69 86.11h-3.3101"/>
  <path transform="matrix(4.7358 0 0 4.7358 139.21 139.21)" d="m46.57 12.2 0.23013-0.37035"/>
  <path transform="matrix(4.7358 0 0 4.7358 139.21 139.21)" d="m44.46 27.88v-7.2099c-0.014022-1.9235 0.27632-3.8371 0.85948-5.6699l0.099805-0.26972"/>
 </g>
</svg>
