<svg height='300px' width='300px'  fill="#000000" xmlns="http://www.w3.org/2000/svg" data-name="Layer 1" viewBox="0 0 100 100" x="0px" y="0px"><title>Artboard 6</title><path d="M12.61,43.55l11.6,4.81a67,67,0,0,0-3.12,10.17l-.44,2L37.28,77.17l2-.43a67,67,0,0,0,10.17-3.12l4.81,11.6a.75.75,0,0,0,1.23.24l7.27-7.27a12,12,0,0,0,3.5-9.09L66,64.43C79.46,54.49,93.08,37.06,96.79,6.64A5,5,0,0,0,91.18,1C60.77,4.74,43.33,18.37,33.39,31.79l-4.66-.24A12,12,0,0,0,19.64,35l-7.27,7.27A.75.75,0,0,0,12.61,43.55ZM59.25,25.83a9,9,0,1,1,0,12.75A9,9,0,0,1,59.25,25.83ZM10.44,78.5a11.81,11.81,0,0,0-6-.48,1.08,1.08,0,0,1-1-.3,1.09,1.09,0,0,1-.22-1.23C5.35,71.91,11,62.7,21.23,70.14a.51.51,0,0,1,0,.76A11.11,11.11,0,0,0,17,80a.81.81,0,0,0,.78.78,11.1,11.1,0,0,0,9.1-4.14.51.51,0,0,1,.79,0c1.42,1.69,5.33,7.21,1,12.54a11.25,11.25,0,0,1-7.54,4C16.93,93.63,9.17,95,6,98.62a1.09,1.09,0,0,1-1.88-.4C3,94.4,1.26,85.86,10.44,78.5Z"></path></svg>