<?xml version="1.0" encoding="UTF-8" standalone="no"?>
<svg
   width="752pt"
   height="752pt"
   version="1.1"
   viewBox="0 0 752 752"
   id="svg10"
   sodipodi:docname="culturalstudies.svg"
   inkscape:version="1.1 (c68e22c387, 2021-05-23)"
   xmlns:inkscape="http://www.inkscape.org/namespaces/inkscape"
   xmlns:sodipodi="http://sodipodi.sourceforge.net/DTD/sodipodi-0.dtd"
   xmlns="http://www.w3.org/2000/svg"
   xmlns:svg="http://www.w3.org/2000/svg">
  <defs
     id="defs14" />
  <sodipodi:namedview
     id="namedview12"
     pagecolor="#ffffff"
     bordercolor="#666666"
     borderopacity="1.0"
     inkscape:pageshadow="2"
     inkscape:pageopacity="0.0"
     inkscape:pagecheckerboard="0"
     inkscape:document-units="pt"
     showgrid="false"
     inkscape:zoom="0.41090426"
     inkscape:cx="256.75081"
     inkscape:cy="483.08091"
     inkscape:window-width="1920"
     inkscape:window-height="1009"
     inkscape:window-x="-8"
     inkscape:window-y="-8"
     inkscape:window-maximized="1"
     inkscape:current-layer="svg10" />
  <g
     id="g8"
     transform="matrix(1.5395399,0,0,1.5395399,-202.86372,-200.50803)">
    <path
       d="m 402.52,468.35 90.926,-150.12 c 2.3672,-3.7891 5.2109,-8.0508 8.5234,-11.367 v -139.71 c 0,-4.7344 -1.8945,-8.9961 -5.6836,-11.84 -3.3164,-2.8398 -8.0508,-4.2617 -12.312,-3.7891 l -3.7891,0.47266 c -97.559,11.84 -196.54,11.84 -293.62,0 l -2.8398,-0.94531 c -4.7344,-0.47266 -9.4727,0.94531 -12.785,3.7891 -3.3164,3.3125 -5.6836,7.5781 -5.6836,12.312 v 152.96 c 0,29.363 5.6836,58.25 16.574,85.719 25.102,62.039 84.773,102.77 152.02,102.77 8.5234,0 16.574,-0.47266 25.102,-1.8945 1.8945,-3.7891 3.7891,-7.1055 5.6836,-10.418 9.4688,-13.734 22.73,-23.207 37.887,-27.941 z m -5.2109,-227.32 c 31.73,0 43.098,26.047 44.043,40.254 0.47266,2.8398 -0.47266,5.6836 -2.3672,7.5781 -1.89454,1.8945 -4.2617,3.3164 -7.1055,3.3164 l -68.668,-0.004 c -2.8398,0 -5.2109,-0.94531 -7.1055,-3.3164 -1.8945,-1.8945 -2.8398,-4.7344 -2.3672,-7.5781 0.94922,-14.203 11.84,-40.25 43.57,-40.25 z m -168.59,47.359 c -1.8945,-1.8945 -2.8398,-4.7344 -2.3672,-7.5781 1.4219,-13.734 11.84,-40.254 44.043,-40.254 31.258,0 42.621,26.047 44.043,40.254 0.47266,2.8398 -0.47266,5.6836 -2.3672,7.5781 -1.8945,1.8945 -4.7344,3.3164 -7.5781,3.3164 l -68.672,-0.004 c -2.3672,0 -5.207,-0.94531 -7.1016,-3.3125 z m 105.13,130.23 c -28.414,0 -53.516,-14.68 -67.723,-39.309 -4.2617,-7.5781 -1.8945,-17.523 5.6836,-21.785 7.5781,-4.262 17.523,-1.8945 21.785,5.6836 8.5234,14.207 23.68,23.207 40.254,23.207 16.574,0 31.73,-8.5234 39.309,-22.73 4.2617,-8.0508 14.207,-10.418 21.785,-6.1562 7.5781,4.2617 10.418,14.207 6.1562,21.785 -13.262,24.621 -38.836,39.305 -67.25,39.305 z"
       id="path2" />
    <path
       d="m 570.64,320.59 c -17.523,-12.312 -42.148,-7.1055 -53.043,11.84 l -81.457,134.5 c 9.4727,1.4219 18.469,5.2109 26.52,10.891 8.0508,5.6836 14.68,12.312 19.891,20.363 l 96.609,-124.08 c 12.789,-17.047 9,-41.672 -8.5195,-53.512 z"
       id="path4" />
    <path
       d="m 447.04,500.55 c -19.418,-13.262 -45.938,-8.5234 -59.672,10.891 -14.207,20.836 0,49.254 -25.102,76.719 -4.7344,4.7344 -1.4219,12.785 5.2109,12.785 46.883,0.94531 76.246,-20.836 89.98,-41.203 13.734,-19.41 9,-45.934 -10.418,-59.191 z"
       id="path6" />
  </g>
</svg>
