<svg height='300px' width='300px'  fill="#000000" xmlns="http://www.w3.org/2000/svg" xmlns:xlink="http://www.w3.org/1999/xlink" version="1.1" x="0px" y="0px" viewBox="0 0 100 100" enable-background="new 0 0 100 100" xml:space="preserve"><g><path d="M45.95,83.864c5.824,2.794,12.669,2.367,18.101-1.124c7.521,3.35,16.338-0.043,19.693-7.57   c0.824-1.877,1.266-3.904,1.279-5.951c0.064-8.304,3.504-16.224,9.541-21.932c-12.648-1.856-25.445,2.196-34.723,10.991   c-5.246,4.984-6.172,13.01-2.189,19.047c4.982-1.025,9.164-4.395,11.211-9.051c-0.148,1.855-0.633,3.676-1.449,5.354   c-3.592,7.408-12.506,10.508-19.921,6.917c1.892-4.885,2.36-10.209,1.351-15.349c8.809-8.609,8.965-22.737,0.355-31.545   c-2.14-2.19-4.713-3.917-7.557-5.069C30.139,23.911,21.039,14.747,16.439,3.215C6.877,19.759,5.441,39.786,12.536,57.53   c4.024,10.039,14.667,15.755,25.253,13.558c1.337-7.485-1.045-15.157-6.384-20.574c5.495,2.695,9.64,7.529,11.475,13.373   c3.675,11.744-2.873,24.25-14.625,27.926c-1.436,0.447-2.239,1.983-1.791,3.427c0.447,1.442,1.983,2.246,3.42,1.792   C36.75,94.891,42.509,90.162,45.95,83.864z"></path></g></svg>