<?xml version="1.0" encoding="UTF-8"?>
<svg width="700pt" height="700pt" fill="#e3e3e3" version="1.1" viewBox="0 -70 700 700" xmlns="http://www.w3.org/2000/svg">
 <g>
  <path d="m405.9 170.65c29.629 0 53.453 23.828 53.453 53.453v111.8c0 29.629-23.828 53.453-53.453 53.453h-112.1c-29.629 0-53.453-23.828-53.453-53.453l0.003906-111.8c0-29.629 23.828-53.453 53.453-53.453zm0 172.88c4.2773 0 7.6367-3.3594 7.6367-7.6367l0.003906-111.79c0-4.2773-3.3594-7.6367-7.6367-7.6367l-112.11-0.003906c-4.2773 0-7.6367 3.3594-7.6367 7.6367v111.8c0 4.2773 3.3594 7.6367 7.6367 7.6367l112.1 0.007812z"/>
  <path d="m472.18 440.36c21.078 0 37.879-17.109 38.18-38.18l0.003906-244.36c-0.30859-21.078-17.109-38.18-38.18-38.18l-244.36-0.003906c-21.379 0-38.18 17.109-38.18 38.18v80.949 0.60938 0.91797l-0.30859 78.199c0.30859 0.30859 0.30859 0.30859 0 0.60937v3.668 0.30859 79.113 1.2227c0.30859 0.30859 0.30859 0.30859 0 0.60938 1.2227 20.16 17.719 36.348 38.488 36.348h244.36zm0-412.36c12.523 0 22.91 10.387 22.91 22.91v26.27c27.797 7.9414 49.789 29.934 57.73 57.73h26.27c12.523 0 22.91 10.387 22.91 22.91 0 12.523-10.387 22.91-22.91 22.91h-22.91v35.738h22.91c12.523 0 22.91 10.078 22.91 22.91 0 12.523-10.387 22.91-22.91 22.91h-22.91l-0.30859 35.43h23.211c12.523 0 22.91 10.387 22.91 22.91 0 12.828-10.387 22.91-22.91 22.91h-23.211v35.738h23.211c12.523 0 22.91 10.387 22.91 22.91s-10.387 22.91-22.91 22.91h-26.27c-7.9336 27.793-29.922 49.781-57.723 57.723v26.27c0 12.523-10.387 22.91-22.91 22.91-12.828 0-22.91-10.387-22.91-22.91v-22.91h-35.738v22.91c0 12.523-10.387 22.91-22.91 22.91-12.828 0-22.91-10.387-22.91-22.91v-22.91h-35.738v22.91c0 12.523-10.078 22.91-22.91 22.91-12.523 0-22.91-10.387-22.91-22.91v-22.91h-35.43v22.91c0 12.523-10.387 22.91-22.91 22.91-12.828 0-22.91-10.387-22.91-22.91v-25.961c-28.102-7.9414-50.094-29.934-58.039-58.039h-25.953c-12.832 0-22.91-10.383-22.91-22.91 0-12.523 10.078-22.91 22.91-22.91h22.91v-35.738h-22.91c-12.832 0-22.91-10.078-22.91-22.902 0-12.523 10.078-22.91 22.91-22.91h22.91v-35.43h-22.91c-12.832-0.007812-22.91-10.391-22.91-22.918 0-12.828 10.078-22.91 22.91-22.91h22.91v-35.738h-22.91c-12.832 0.007813-22.91-10.383-22.91-22.902 0-12.523 10.078-22.91 22.91-22.91h25.961c7.9414-28.102 29.934-50.094 58.039-58.039v-25.961c0-12.523 10.078-22.91 22.91-22.91 12.523 0 22.91 10.387 22.91 22.91v22.91h35.43v-22.91c0-12.523 10.387-22.91 22.91-22.91 12.828 0 22.91 10.387 22.91 22.91v22.91h35.738v-22.91c0-12.523 10.078-22.91 22.91-22.91 12.523 0 22.91 10.387 22.91 22.91v22.91h35.738v-22.91c-0.007813-12.523 10.074-22.91 22.902-22.91z"/>
 </g>
</svg>
