<svg height='300px' width='300px'  fill="#e3e3e3" xmlns="http://www.w3.org/2000/svg" xmlns:xlink="http://www.w3.org/1999/xlink" version="1.1" x="0px" y="0px" viewBox="0 0 100 100" style="enable-background:new 0 0 100 100;" xml:space="preserve"><title>111all</title><path d="M18,77.8c0,2.2,1.8,4,4,4h9.5v12.5h8V81.8H46v12.5h8V81.8h6.5v12.5h8V81.8H78c2.2,0,4-1.8,4-4v-9.3h12.3v-8H82V54h12.3v-8  H82v-6.5h12.3v-8H82v-9.7c0-2.2-1.8-4-4-4h-9.5V5.7h-8v12H54v-12h-8v12h-6.5v-12h-8v12H22c-2.2,0-4,1.8-4,4v9.7H5.7v8H18V46H5.7v8  H18v6.5H5.7v8H18V77.8z M26,25.7h48v48.1H26V25.7z"></path><path d="M61.9,33.9H38.1c-2.2,0-4,1.8-4,4v23.7c0,2.2,1.8,4,4,4h23.7c2.2,0,4-1.8,4-4V37.9C65.9,35.7,64.1,33.9,61.9,33.9z   M57.9,57.7H42.1V41.9h15.7V57.7z"></path></svg>