<?xml version="1.0" encoding="UTF-8" standalone="no"?>
<svg
   width="752pt"
   height="752pt"
   version="1.1"
   viewBox="0 0 752 752"
   id="svg4"
   sodipodi:docname="electrical_engineering.svg"
   inkscape:version="1.1 (c68e22c387, 2021-05-23)"
   xmlns:inkscape="http://www.inkscape.org/namespaces/inkscape"
   xmlns:sodipodi="http://sodipodi.sourceforge.net/DTD/sodipodi-0.dtd"
   xmlns="http://www.w3.org/2000/svg"
   xmlns:svg="http://www.w3.org/2000/svg">
  <defs
     id="defs8" />
  <sodipodi:namedview
     id="namedview6"
     pagecolor="#ffffff"
     bordercolor="#666666"
     borderopacity="1.0"
     inkscape:pageshadow="2"
     inkscape:pageopacity="0.0"
     inkscape:pagecheckerboard="0"
     inkscape:document-units="pt"
     showgrid="false"
     inkscape:zoom="0.82180851"
     inkscape:cx="501.94175"
     inkscape:cy="501.94175"
     inkscape:window-width="1920"
     inkscape:window-height="1009"
     inkscape:window-x="-8"
     inkscape:window-y="-8"
     inkscape:window-maximized="1"
     inkscape:current-layer="svg4" />
  <path
     d="M 723.33005,565.79177 446.26766,102.77579 c -31.62182,-52.703525 -107.66294,-52.703525 -139.28316,0 L 30.68519,565.79177 c -32.3721698,54.20745 6.775055,122.72108 69.265588,122.72108 H 652.56531 c 63.99397,0 102.38972,-68.51524 70.76951,-122.72108 z M 462.8329,410.69691 373.99265,568.80277 c -8.28404,15.05926 -32.37217,6.77504 -28.60922,-10.53833 l 18.82269,-87.33157 c 0.75142,-2.26047 -1.50281,-4.51459 -3.76326,-4.51459 h -54.95781 c -10.53833,0 -18.8227,-10.53831 -15.81059,-21.08333 l 40.65638,-153.58457 c 2.26048,-7.52654 8.28404,-12.04732 15.81059,-12.04732 h 61.73333 c 11.29601,0 19.57306,11.296 15.8106,21.83369 l -28.60923,79.05371 c -0.75141,2.26048 0.75141,5.27227 3.76327,5.27227 h 49.69254 c 12.7988,-0.0128 20.325,13.54391 14.3016,24.83355 z"
     id="path2"
     style="stroke-width:1.58976" />
</svg>
