<?xml version="1.0" encoding="UTF-8"?>
<svg width="752pt" height="752pt" version="1.1" viewBox="150 120 452 452" xmlns="http://www.w3.org/2000/svg">
 <defs>
  <clipPath id="b">
   <path d="m162 564h431v48.793h-431z"/>
  </clipPath>
  <clipPath id="a">
   <path d="m162 139.21h431v415.79h-431z"/>
  </clipPath>
 </defs>
 <g>
  <g clip-path="url(#b)">
   <path d="m565.77 607.58c-7.6289-3.9453-17.422-5.8906-27.176-5.8906s-18.812 1.9453-27.191 5.8906c-7.6406 3.2617-16.707 5.2227-26.461 5.2227-9.0586 0-18.125-1.9648-26.48-5.2227-8.3516-3.9453-17.422-5.8906-27.176-5.8906-9.7539 0-18.82 1.9453-27.184 5.8906-8.3516 3.2617-17.41 5.2227-26.488 5.2227-9.7422 0-18.801-1.9648-26.469-5.2227-8.3633-3.9453-18.125-5.8906-27.871-5.8906-9.0469 0-18.812 1.9453-27.176 5.8906-7.6758 3.2617-16.727 5.2227-26.48 5.2227-9.0586 0-18.125-1.9648-26.469-5.2227-8.3711-3.9453-17.441-5.8906-27.184-5.8906-9.7539 0-18.801 1.9453-27.184 5.8906-8.3516 3.25-17.41 5.2148-26.488 5.2148v-37.332c9.0781 0 18.137-1.9531 26.48-5.2148 8.3828-3.9453 17.43-5.9375 27.184-5.9375 9.7422 0 18.812 1.9922 27.184 5.9375 8.3516 3.2617 17.41 5.2148 26.469 5.2148 9.7539 0 18.801-1.9531 26.48-5.2148 8.3633-3.9453 18.125-5.9375 27.176-5.9375 9.7422 0 19.508 1.9922 27.871 5.9375 7.668 3.2617 16.727 5.2148 26.469 5.2148 9.0859 0 18.145-1.9531 26.488-5.2148 8.3633-3.9453 17.422-5.9375 27.184-5.9375s18.82 1.9922 27.176 5.9375c8.3633 3.2617 17.422 5.2148 26.48 5.2148 9.7539 0 18.82-1.9531 26.461-5.2148 8.3828-3.9453 17.43-5.9375 27.191-5.9375 9.7617 0 19.535 1.9922 27.176 5.9375 8.3711 3.2617 17.422 5.2148 27.184 5.2148l-0.003907 37.332c-9.7617 0-18.809-1.9648-27.172-5.2148z"/>
  </g>
  <g clip-path="url(#a)">
   <path d="m565.77 511.74c-7.6289-3.9453-17.422-5.8828-27.176-5.8828s-18.812 1.9375-27.191 5.8828c-4.8672 2.0859-10.441 3.3633-16.266 4.2188v-75.172l36.977 23.059 1.5898 0.85547h0.85547l1.9648-0.39453 0.72266-0.85547c1.3828-1.6172 0.81641-3.7227-0.48047-5.2227l-27.07-25.078c-0.28125-0.32031-1.3633-1.4102-3.6914-2.2188-2.0664-0.72266-7.6875-1.4922-10.863-1.8984l-0.003906-2.5742h-1.3711l-0.27344-51.691c0.19922-1.7305-0.78906-3.7695-3.5508-4.1641-1.9648 0-3.168 1.5703-3.6836 3.2305l-6.7266 36.25c-0.09375 0.28125-0.51562 1.8398 0.046875 4.2852 0.64062 2.8477 4.5117 10.898 5.0742 12.082h-0.28125l-0.12109-0.21484-0.30078 0.21484h-0.97656v0.65625l-43.168 29.738c-1.5781 0.84375-2.6953 2.8281-1.7188 4.8477l1.7461 1.9648h1.5508l35.48-15.176c0.29297-0.074219 1.8125-0.62109 3.5039-2.4609 0.64844-0.71484 1.6172-2.0938 2.5938-3.5977v74.336c-8.4023-0.26172-16.762-1.9922-24.508-5.0273-8.3516-3.9453-17.422-5.8828-27.176-5.8828s-18.82 1.9375-27.184 5.8828c-4.7266 1.8516-9.7148 3.1367-14.77 4.0312l-0.003906-170 50.348 72.285c0.22656 0.23438 2.1328 2.2852 4.4727 2.2852 0.73438 0 1.4102-0.19922 2.0586-0.60938 2.8203-1.8242 2.0195-4.9609 1.2578-6.25l-56.613-126.91c2.2461-3.543 3.3555-7.6406 2.7617-11.848-0.35547-2.6133-1.3984-4.9805-2.8086-7.1328 6.8203-4.4727 20.691-13.793 24.777-18.023 4.0039-4.0703 4.8398-7.3203 4.8281-7.3203l36.551-95.965c0.43359-1.8047 0.43359-5.1758-2.3203-6.3242l-1.6992-0.34766c-2.8008 0-4.1914 2.8281-4.1914 2.8359l-72.438 117.46c-5.5156-0.027344-11.023 2.0859-14.441 6.6445-1.1172 1.4766-1.7188 3.1562-2.3008 4.8203-7.9766-3.5977-22.551-9.9883-28.227-11.211-4.4062-0.97656-9.0781-0.33984-9.0859-0.32812l-104.32 18.98c-1.8242 0.58203-4.793 2.332-4.3398 5.2891 0.48828 2.7422 2.8828 3.7383 5.3203 3.7383h0.046876l143.62 0.40234c0.78125 0.95703 1.4453 1.9531 2.4336 2.7617h-0.52734v224.66c-4.7539-0.89453-9.2656-2.1797-13.344-3.9258-8.3633-3.9453-18.125-5.8828-27.871-5.8828-9.0469 0-18.812 1.9375-27.176 5.8828-1.4453 0.60938-3.168 0.92969-4.707 1.4453v-124.03c0.78125-0.96875 1.3633-2.0586 1.7852-3.2617l66.594-24.469c1.9648-0.50781 3.7227-2.3477 3.2617-4.9336-0.43359-1.9375-1.9062-2.8672-5.1602-3.168l-52.039 8.5977c-0.38672 0.007813-2.4414 0.16797-5.2227 1.9922-2.4531 1.5703-7.668 6.625-10.938 9.8867-1.4375-1.1289-3.0547-2.0391-4.9727-2.3477-0.75-0.10156-1.4453 0.074219-2.1719 0.10156l-48.59-50.93c-0.22656-0.30078-1.4766-1.7578-3.4375-1.7578l-1.6523 0.29297-0.62891 0.44141c-1.9844 1.3828-1.9453 3.9375-0.92969 5.9648l28.594 44.352c0.16797 0.33984 1.1758 2.1992 3.918 3.9453 2.2734 1.5508 8.4023 4.1172 12.684 5.8438-0.09375 0.32812-0.30078 0.60156-0.34766 0.94922-0.48828 3.168 0.50781 6.1914 2.3867 8.5039l-19.762 72.363c-0.78906 2.0469-0.30859 4.6797 2.1719 5.7227l1.4375 0.28125c2.3789 0 3.8789-2.207 4.293-2.9023l15.43-32.445v83.949c-2.8008 0.33984-5.5156 0.84375-8.457 0.84375-9.0586 0-18.125-1.9727-26.469-5.2422-8.3711-3.9453-17.441-5.8828-27.184-5.8828-9.7539 0-18.801 1.9375-27.184 5.8828-8.3516 3.2695-17.41 5.2422-26.48 5.2422v37.324c9.0781 0 18.137-1.9453 26.48-5.2148 8.3828-3.9453 17.43-5.918 27.184-5.918 9.7422 0 18.812 1.9727 27.184 5.918 8.3516 3.2695 17.41 5.2148 26.469 5.2148 9.7539 0 18.801-1.9453 26.48-5.2148 8.3633-3.9453 18.125-5.918 27.176-5.918 9.7422 0 19.508 1.9727 27.871 5.918 7.668 3.2695 16.727 5.2148 26.469 5.2148 9.0859 0 18.145-1.9453 26.488-5.2148 8.3633-3.9453 17.422-5.918 27.184-5.918 9.7617 0 18.82 1.9727 27.176 5.918 8.3633 3.2695 17.422 5.2148 26.48 5.2148 9.7539 0 18.82-1.9453 26.461-5.2148 8.3828-3.9453 17.43-5.918 27.191-5.918 9.7617 0 19.535 1.9727 27.176 5.918 8.3711 3.2695 17.422 5.2148 27.184 5.2148v-37.324c-9.793 0.011719-18.84-1.9609-27.203-5.2305z"/>
  </g>
 </g>
</svg>
