<?xml version="1.0" encoding="UTF-8" standalone="no"?>
<svg
   width="752pt"
   height="752pt"
   version="1.1"
   viewBox="0 0 752 752"
   id="svg34"
   sodipodi:docname="environmental_engineering.svg"
   inkscape:version="1.1 (c68e22c387, 2021-05-23)"
   xmlns:inkscape="http://www.inkscape.org/namespaces/inkscape"
   xmlns:sodipodi="http://sodipodi.sourceforge.net/DTD/sodipodi-0.dtd"
   xmlns="http://www.w3.org/2000/svg"
   xmlns:svg="http://www.w3.org/2000/svg">
  <defs
     id="defs38" />
  <sodipodi:namedview
     id="namedview36"
     pagecolor="#ffffff"
     bordercolor="#666666"
     borderopacity="1.0"
     inkscape:pageshadow="2"
     inkscape:pageopacity="0.0"
     inkscape:pagecheckerboard="0"
     inkscape:document-units="pt"
     showgrid="false"
     inkscape:zoom="0.82180851"
     inkscape:cx="501.94175"
     inkscape:cy="501.94175"
     inkscape:window-width="1920"
     inkscape:window-height="1009"
     inkscape:window-x="-8"
     inkscape:window-y="-8"
     inkscape:window-maximized="1"
     inkscape:current-layer="svg34" />
  <g
     id="g32"
     transform="matrix(1.6182185,0,0,1.6182185,-230.50458,-232.44997)">
    <path
       d="m 469.28,188.72 c -2.8711,-2.8711 -2.8711,-7.1758 0,-10.047 2.8711,-2.8711 7.1758,-2.8711 10.047,0 l 5.7422,5.7422 c 2.8711,2.8711 2.8711,7.1758 0,10.047 -2.8711,2.8711 -7.1758,2.8711 -10.047,0 z"
       id="path2" />
    <path
       d="m 303.53,358.06 c -6.457,-25.832 7.8945,-52.383 33.727,-60.992 -2.1523,-48.074 59.555,-71.039 89.695,-33.727 8.6094,10.047 12.199,22.961 10.762,36.594 22.242,10.762 33.008,35.16 27.266,58.121 17.938,7.1758 30.137,22.242 31.57,42.336 2.1523,20.09 -7.8945,38.746 -25.113,48.793 0.71875,41.617 -57.402,64.578 -87.539,32.289 -30.137,30.859 -83.953,11.484 -86.824,-32.285 -17.938,-10.047 -27.984,-28.703 -25.832,-49.512 2.8711,-19.371 15.07,-35.16 32.289,-41.617 z"
       id="path4" />
    <path
       d="m 516.64,171.5 v -7.8906 c 0,-3.5859 2.8711,-7.1758 7.1758,-7.1758 3.5859,0 7.1758,2.8711 7.1758,7.1758 v 7.8945 c 0,3.5859 -2.8711,7.1758 -7.1758,7.1758 -4.3047,-0.72266 -7.1758,-3.5898 -7.1758,-7.1797 z"
       id="path6" />
    <path
       d="m 194.46,223.16 c -2.8711,-2.8711 -2.8711,-7.1758 0,-10.047 13.633,-13.633 32.289,-15.785 47.359,-4.3047 15.785,-11.48 32.289,-8.6094 47.359,4.3047 2.8711,2.8711 2.8711,7.1758 0,10.047 -2.8711,2.8711 -7.1758,2.8711 -10.047,0 -12.914,-8.6094 -21.527,-11.48 -32.289,0 -2.8711,2.8711 -7.1758,2.8711 -10.047,0 -14.352,-14.352 -32.289,-2.1523 -32.289,0 -2.8711,2.1523 -7.1758,2.1523 -10.047,0 z"
       id="path8" />
    <path
       d="m 562.56,282.72 c -2.8711,-2.8711 -2.8711,-7.1758 0,-10.047 2.8711,-2.8712 7.1758,-2.8711 10.047,0 l 5.7422,5.7422 c 2.8711,2.8711 2.8711,7.1758 0,10.047 -2.8711,2.8711 -7.1758,2.8711 -10.047,0 z"
       id="path10" />
    <path
       d="m 446.32,233.21 c 0,-3.5859 2.8711,-7.1758 7.1758,-7.1758 h 7.8945 c 3.5859,0 7.1758,2.8711 7.1758,7.1758 0,3.5859 -2.8711,7.1758 -7.1758,7.1758 h -7.8945 c -4.3047,0 -7.1758,-2.8711 -7.1758,-7.1758 z"
       id="path12" />
    <path
       d="m 562.56,194.46 c -2.8711,-2.8711 -2.8711,-7.1758 0,-10.047 l 5.7422,-5.7422 c 2.8711,-2.8711 7.1758,-2.8711 10.047,0 2.8711,2.8711 2.8711,7.1758 0,10.047 l -5.7422,5.7422 c -2.8711,2.8711 -7.8945,2.8711 -10.047,0 z"
       id="path14" />
    <path
       d="m 484.35,282.72 -5.7422,5.7422 c -2.8711,2.8711 -7.1758,2.8711 -10.047,0 -2.8711,-2.8711 -2.8711,-7.1758 0,-10.047 l 5.7422,-5.7422 c 2.8711,-2.8711 7.1758,-2.8711 10.047,0 2.8711,2.8711 2.8711,7.1797 0,10.047 z"
       id="path16" />
    <path
       d="m 579.07,233.21 c 0,-3.5859 2.8711,-7.1758 7.1758,-7.1758 h 7.8945 c 3.5859,0 7.1758,2.8711 7.1758,7.1758 0,3.5859 -2.8711,7.1758 -7.1758,7.1758 h -7.8945 c -4.3047,0 -7.1758,-2.8711 -7.1758,-7.1758 z"
       id="path18" />
    <path
       d="m 180.11,402.55 c -2.8711,-19.375 12.199,-39.465 36.594,-38.031 12.914,-26.551 47.359,-30.855 67.449,-12.199 -14.352,10.762 -24.398,27.266 -26.551,45.922 -2.1523,23.68 7.1758,45.922 26.551,58.84 3.5859,18.656 14.352,33.727 29.418,43.055 -12.914,5.0234 -27.266,2.8711 -37.312,-6.457 -13.633,12.199 -33.727,12.199 -46.641,0.71875 -6.457,5.7422 -14.352,8.6094 -22.242,8.6094 -20.09,0 -38.031,-16.504 -35.879,-37.312 -27.98,-13.633 -22.238,-55.969 8.6133,-63.145 z"
       id="path20" />
    <path
       d="m 523.82,310.7 c -3.5859,0 -7.1758,-2.8711 -7.1758,-7.1758 v -7.8945 c 0,-3.5859 2.8711,-7.1758 7.1758,-7.1758 3.5859,0 7.1758,2.8711 7.1758,7.1758 v 7.8945 C 530.27705,307.114 527.406,310.7 523.82,310.7 Z"
       id="path22" />
    <path
       d="m 316.45,194.46 c -2.8711,-2.8711 -2.8711,-7.1758 0,-10.047 12.914,-12.914 31.57,-16.504 47.359,-4.3047 15.785,-12.199 32.289,-7.8945 47.359,4.3047 2.8711,2.8711 2.8711,7.1758 0,10.047 -2.1523,2.1523 -7.1758,2.8711 -10.047,0 -12.914,-8.6094 -21.527,-11.48 -32.289,0 -2.8711,2.8711 -7.1758,2.8711 -10.047,0 -10.762,-10.762 -23.68,-9.3281 -32.289,0 -2.8711,2.8711 -7.1758,2.8711 -10.047,0 z"
       id="path24" />
    <path
       d="m 480.05,231.06 c 0,-25.832 20.809,-46.641 45.922,-46.641 25.113,0 45.922,20.809 45.922,46.641 0,25.832 -20.809,45.922 -45.922,45.922 -25.113,0 -45.922,-20.094 -45.922,-45.922 z"
       id="path26" />
    <path
       d="m 605.62,588.39 c 0,3.5859 -2.8711,7.1758 -7.1758,7.1758 h -444.88 c -3.5859,0 -7.1758,-2.8711 -7.1758,-7.1758 0,-3.5859 2.8711,-7.1758 7.1758,-7.1758 h 73.191 c 12.199,-12.914 14.352,-44.488 14.352,-66.016 12.914,2.8711 25.113,1.4336 35.879,-4.3047 2.1523,1.4336 4.3047,2.1523 6.457,2.8711 5.0234,31.57 7.1758,55.969 7.8945,67.449 h 62.426 c 11.48,-15.07 14.352,-49.512 14.352,-74.625 5.7422,-2.1523 10.762,-4.3047 15.785,-7.8945 7.8945,5.7422 17.223,9.3281 27.984,10.762 0,0.71875 5.0234,36.594 6.457,71.754 h 61.711 c 12.199,-12.914 14.352,-41.617 14.352,-62.426 8.6094,0.71875 17.938,-1.4336 26.551,-5.7422 5.0234,2.8711 10.762,5.0234 16.504,5.7422 5.0234,29.418 6.457,52.383 7.1758,63.145 l 53.809,0.004 c 4.3047,0 7.1758,2.8711 7.1758,6.457 z"
       id="path28" />
    <path
       d="m 480.05,350.17 v -1.4336 c 20.09,-10.047 46.641,-3.5859 58.121,18.656 19.375,-0.71875 36.594,17.223 34.441,38.031 30.137,7.1758 36.594,48.793 7.8945,63.863 2.1523,30.855 -35.879,48.793 -58.84,27.984 -13.633,12.199 -33.727,12.199 -46.641,0.71875 -8.6094,7.8945 -20.809,10.047 -28.703,7.8945 20.809,-7.8945 36.594,-25.832 39.465,-48.074 35.879,-27.992 33.008,-84.676 -5.7383,-107.64 z"
       id="path30" />
  </g>
</svg>
