<?xml version="1.0" encoding="UTF-8"?>
<svg width="752pt" height="752pt" version="1.1" viewBox="100 100 552 552" xmlns="http://www.w3.org/2000/svg">
 <path d="m570.55 590.11c0 4.7617-1.8906 9.3281-5.2539 12.695-3.3672 3.3633-7.9336 5.2539-12.691 5.2539h-67.391c-6.4219 0-12.355-3.4258-15.566-8.9844-3.2109-5.5625-3.2109-12.414 0-17.973 3.2109-5.5625 9.1445-8.9883 15.566-8.9883h67.391c4.7656 0 9.3398 1.8984 12.707 5.2773 3.3672 3.375 5.2539 7.9531 5.2383 12.719zm-17.945-72.031h-67.391c-6.4219 0-12.355 3.4258-15.566 8.9883-3.2109 5.5586-3.2109 12.41 0 17.973 3.2109 5.5586 9.1445 8.9844 15.566 8.9844h67.391c6.418 0 12.352-3.4258 15.562-8.9844 3.2109-5.5625 3.2109-12.414 0-17.973-3.2109-5.5625-9.1445-8.9883-15.562-8.9883zm0-53.895-67.391 0.003906c-4.7617 0-9.3281 1.8906-12.695 5.2539-3.3633 3.3672-5.2539 7.9336-5.2539 12.695 0 4.7578 1.8906 9.3242 5.2539 12.691 3.3672 3.3633 7.9336 5.2539 12.695 5.2539h67.391c4.7578 0 9.3242-1.8906 12.691-5.2539 3.3633-3.3672 5.2539-7.9336 5.2539-12.691-0.046875-4.7305-1.9609-9.2461-5.3203-12.57-3.3633-3.3242-7.8984-5.1914-12.625-5.1914zm0-53.895-67.391 0.003906c-6.4219 0-12.355 3.4258-15.566 8.9844-3.2109 5.5625-3.2109 12.414 0 17.973 3.2109 5.5625 9.1445 8.9883 15.566 8.9883h67.391c6.418 0 12.352-3.4258 15.562-8.9883 3.2109-5.5586 3.2109-12.41 0-17.973-3.2109-5.5586-9.1445-8.9844-15.562-8.9844zm-124.51 161.82h-67.293c-6.4219 0-12.355 3.4258-15.566 8.9883-3.2109 5.5586-3.2109 12.41 0 17.973 3.2109 5.5586 9.1445 8.9844 15.566 8.9844h67.293c6.4219 0 12.355-3.4258 15.566-8.9844 3.2109-5.5625 3.2109-12.414 0-17.973-3.2109-5.5625-9.1445-8.9883-15.566-8.9883zm0-54.035h-67.293c-6.4219 0-12.355 3.4258-15.566 8.9883-3.2109 5.5586-3.2109 12.41 0 17.973 3.2109 5.5586 9.1445 8.9844 15.566 8.9844h67.293c6.4219 0 12.355-3.4258 15.566-8.9844 3.2109-5.5625 3.2109-12.414 0-17.973-3.2109-5.5625-9.1445-8.9883-15.566-8.9883zm0-53.895-67.293 0.003906c-4.793 0-9.3906 1.9141-12.762 5.3242-3.3711 3.4062-5.2383 8.0195-5.1875 12.812 0 4.7617 1.8906 9.3242 5.2578 12.691 3.3633 3.3672 7.9297 5.2578 12.691 5.2578h67.293c4.7617 0 9.3281-1.8906 12.691-5.2578 3.3672-3.3672 5.2578-7.9297 5.2578-12.691 0-4.7617-1.8906-9.3242-5.2578-12.691-3.3633-3.3672-7.9297-5.2578-12.691-5.2578zm124.51-107.59h-67.391c-6.4219 0-12.355 3.4258-15.566 8.9844-3.2109 5.5625-3.2109 12.414 0 17.973 3.2109 5.5625 9.1445 8.9883 15.566 8.9883h67.391c6.418 0 12.352-3.4258 15.562-8.9883 3.2109-5.5586 3.2109-12.41 0-17.973-3.2109-5.5586-9.1445-8.9844-15.562-8.9844zm-99.121-175.56c1.4961-3.9414 1.4219-8.3047-0.21094-12.191-1.6289-3.8867-4.6914-7-8.5508-8.6914-26.629-11.492-55.449-17.02-84.441-16.199-3.8984 0.09375-7.5859 1.7852-10.203 4.6758-2.6133 2.8945-3.9258 6.7344-3.625 10.621l1.4219 17.855c-18.703-7.707-38.648-11.961-58.867-12.551-9.0469 0.03125-17.434 4.7578-22.145 12.484-4.7148 7.7227-5.0781 17.344-0.96484 25.402l37.367 73.074h-0.003907c18.395 3.8438 37.141 5.7812 55.93 5.7773 7.2227-0.21875 13.461 5.0195 14.492 12.172 0.40234 3.8398-0.83984 7.668-3.4219 10.539-2.582 2.8711-6.2617 4.5156-10.121 4.5195-25.246 0.082031-50.395-3.1016-74.824-9.4727-37.18 45.984-86.289 125.69-77.48 221.73-11.793 11.844-20.562 26.348-25.574 42.293-0.95312 2.8086-1.0508 5.8359-0.28516 8.7031 0.76953 2.8672 2.3672 5.4414 4.5977 7.3984 30.547 26.426 62.18 31.918 87.613 18.707h-0.003906c15.02 4.0117 30.332 6.832 45.797 8.4297 1.0703 0.10156 2.1211-0.34375 2.7891-1.1836 0.67188-0.83984 0.86719-1.9648 0.52734-2.9844-4.125-12.582-1.5938-26.398 6.7227-36.703 1.0586-1.4023 1.0586-3.3359 0-4.7344-5.5742-6.9531-8.6133-15.598-8.6133-24.508 0-8.9141 3.0391-17.559 8.6133-24.508 1.0938-1.3906 1.0938-3.3477 0-4.7383-6.332-7.8828-9.3711-17.914-8.4766-27.988 1.1172-9.9844 5.9102-19.199 13.449-25.844 7.5391-6.6445 17.277-10.246 27.328-10.102h81.551c1.043 0.007812 2.0312-0.47656 2.6719-1.3008 0.64063-0.82422 0.85938-1.9023 0.59375-2.9141-0.875-3.3398-1.3359-6.7734-1.3711-10.227 0.003906-8.9062 3.043-17.543 8.6172-24.484 1.0742-1.3984 1.0742-3.3398 0-4.7383-7.0859-8.8398-10.004-20.312-8.0078-31.465 1.9961-11.156 8.7148-20.902 18.426-26.738-13.945-22.375-29.992-43.371-47.926-62.699z"/>
</svg>
