<svg height='300px' width='300px'  fill="#000000" xmlns="http://www.w3.org/2000/svg" xmlns:xlink="http://www.w3.org/1999/xlink" version="1.1" viewBox="0 0 96 96" x="0px" y="0px"><path d="M68.024 22.008c-9.656 0-26-1.684-26-8s16.344-8 26-8c9.652 0 26 1.688 26 8s-16.348 8-26 8zM68.024 10.008c-13.352 0-21.316 2.66-22.028 4.148 0.712 1.196 8.676 3.852 22.028 3.852 13.348 0 21.312-2.656 22.024-4.14-0.712-1.2-8.676-3.86-22.024-3.86z" fill="#000000"></path><path d="M40.024 74.008v-4c13.172 0 21.096-2.584 21.988-4.084v0c-0.128 0-0.728-0.632-2.78-1.396l1.388-3.752c3.584 1.328 5.408 3.084 5.408 5.236-0.004 6.312-16.352 7.996-26.004 7.996z" fill="#000000"></path><path d="M39.972 81.992c-9.656 0-26-1.68-26-7.98v-4.076h4v4.076c0.684 1.336 8.652 3.98 22 3.98 13.352 0 21.316-2.668 22.024-4.16l-0.024-7.896h4v8.032c0 6.336-16.344 8.024-26 8.024z" fill="#000000"></path><path d="M36.024 66.008c-9.656 0-26-1.684-26-8h4c0.684 1.344 8.648 4 22 4 13.048 0 20.952-2.532 21.964-4.036-0.1-0.032-0.372-0.296-0.996-0.648l1.972-3.484c2.028 1.152 3.060 2.56 3.060 4.168 0 6.316-16.348 8-26 8z" fill="#000000"></path><path d="M35.972 73.992c-9.656 0-26-1.68-26-7.98v-8.076h4v8.076c0.684 1.336 8.652 3.98 22 3.98 13.352 0 21.316-2.668 22.024-4.16l-0.024-7.896h4v8.032c0 6.336-16.344 8.024-26 8.024z" fill="#000000"></path><path d="M28.024 54.008c-9.656 0-26-1.684-26-8s16.344-8 26-8c9.652 0 26 1.688 26 8s-16.348 8-26 8zM28.024 42.008c-13.352 0-21.316 2.66-22.028 4.148 0.712 1.196 8.676 3.852 22.028 3.852 13.348 0 21.312-2.656 22.024-4.14-0.712-1.2-8.676-3.86-22.024-3.86z" fill="#000000"></path><path d="M27.972 61.992c-9.656 0-26-1.68-26-7.98v-8.076h4v8.076c0.684 1.336 8.652 3.98 22 3.98 13.352 0 21.316-2.668 22.024-4.16l-0.024-7.896h4v8.032c0 6.336-16.344 8.024-26 8.024z" fill="#000000"></path><path d="M35.436 81.916c-11.2 0-24.74-1.852-28.264-5.36-0.948-0.944-1.148-1.904-1.148-2.544 0-2.652 3.244-4.516 9.632-5.552l0.636 3.948c-3.556 0.576-5.332 1.336-6.044 1.792 1.86 1.272 12.192 3.752 25.756 3.704l0.028 4c-0.2 0.012-0.396 0.012-0.596 0.012z" fill="#000000"></path><path d="M31.972 89.992c-9.656 0-26-1.68-26-7.98v-8.076h4v8.076c0.684 1.336 8.652 3.98 22 3.98 13.352 0 21.316-2.668 22.024-4.16l-0.024-3.896h4v4.032c0 6.336-16.344 8.024-26 8.024z" fill="#000000"></path><path d="M68.024 34.008c-9.656 0-26-1.684-26-8 0-1.1 0.896-2 2-2 1.1 0 2 0.9 2 2 0.684 1.344 8.648 4 22 4 13.348 0 21.312-2.656 22.024-4.14 0-1.104 0.884-1.928 1.988-1.928 1.1 0 1.984 0.972 1.984 2.072 0.004 6.312-16.344 7.996-25.996 7.996z" fill="#000000"></path><path d="M68.024 46.008c-9.656 0-26-1.684-26-8 0-1.1 0.896-2 2-2 1.1 0 2 0.9 2 2 0.684 1.344 8.648 4 22 4 13.348 0 21.312-2.656 22.024-4.14 0-1.104 0.884-1.928 1.988-1.928 1.1 0 1.984 0.972 1.984 2.072 0.004 6.312-16.344 7.996-25.996 7.996z" fill="#000000"></path><path d="M68.024 58.008c-4.416 0-12.984-0.564-16.668-1.092-1.092-0.156-1.856-1.172-1.696-2.264 0.156-1.084 1.172-1.844 2.264-1.692 3.48 0.5 11.904 1.052 16.096 1.052 13.348 0 21.312-2.656 22.024-4.14 0-1.104 0.884-1.928 1.988-1.928 1.1 0 1.984 0.972 1.984 2.076 0.008 6.304-16.34 7.988-25.992 7.988z" fill="#000000"></path><path d="M68.024 70.008c-1.392 0-2.752-0.028-4.084-0.084-1.104-0.048-1.964-0.976-1.916-2.080 0.044-1.1 0.916-1.972 2.080-1.92 1.276 0.056 2.584 0.084 3.92 0.084 13.348 0 21.312-2.656 22.024-4.14 0-1.1 0.884-1.928 1.988-1.928 1.1 0 1.988 0.976 1.988 2.076 0 6.308-16.348 7.992-26 7.992z" fill="#000000"></path><path d="M41.972 13.936h4v28h-4v-28z" fill="#000000"></path><path d="M67.972 77.992c-1.376 0-2.724-0.028-4.036-0.084-1.104-0.048-1.96-0.984-1.912-2.084 0.048-1.096 1.016-1.94 2.084-1.912 1.256 0.052 2.548 0.080 3.864 0.080 13.348 0 21.316-2.644 22.024-4.124l-0.024-55.932c0-1.104 0.9-2 2-2 1.104 0 2 0.896 2 2v56.076c0 6.3-16.344 7.98-26 7.98z" fill="#000000"></path></svg>