<svg height='300px' width='300px'  fill="#000000" xmlns="http://www.w3.org/2000/svg" xmlns:xlink="http://www.w3.org/1999/xlink" version="1.1" x="0px" y="0px" viewBox="0 0 32 32" enable-background="new 0 0 32 32" xml:space="preserve"><path d="M20.038,2.236c-0.521-0.242-1.055-0.448-1.588-0.613c-0.406-0.126-0.836,0.101-0.963,0.506  c-0.125,0.405,0.102,0.836,0.506,0.962c0.469,0.146,0.939,0.327,1.396,0.539c5.502,2.566,7.891,9.132,5.326,14.634  c-1.244,2.666-3.451,4.688-6.214,5.693s-5.753,0.875-8.419-0.368c-0.618-0.288-1.211-0.634-1.76-1.026  c-0.345-0.246-0.825-0.167-1.072,0.179c-0.247,0.345-0.167,0.825,0.179,1.072c0.626,0.447,1.3,0.841,2.004,1.169  c0.558,0.26,1.129,0.474,1.708,0.648v2.378h-1.041c-1.327-0.001-2.402,1.076-2.402,2.401l9.832,0.001  c0-1.327-1.076-2.402-2.402-2.403h-1.041v-1.861c0.213,0.012,0.428,0.018,0.643,0.018c1.446,0,2.898-0.253,4.299-0.763  c3.148-1.146,5.664-3.45,7.08-6.488C29.032,12.643,26.31,5.162,20.038,2.236z"></path><path d="M8.059,15.856c0.226-1.375,0.665-2.813,1.285-4.231L5.465,9.816c-0.804,1.959-0.938,4.038-0.505,5.977  C5.927,15.685,6.974,15.708,8.059,15.856z"></path><path d="M12.16,7.046c-0.81-0.734-1.498-1.521-2.035-2.328C8.361,5.631,6.854,7.07,5.87,8.945l3.874,1.806  C10.447,9.332,11.272,8.083,12.16,7.046z"></path><path d="M20.467,11.205c-1.321-0.265-2.678-0.706-3.994-1.32c-1.313-0.611-2.52-1.364-3.568-2.203  c-0.842,0.976-1.63,2.153-2.29,3.477l8.645,4.03C19.843,13.849,20.255,12.494,20.467,11.205z"></path><path d="M9.006,16.015c1.32,0.265,2.677,0.706,3.993,1.319c1.313,0.612,2.52,1.365,3.568,2.204c0.842-0.976,1.631-2.153,2.29-3.477  l-8.644-4.03C9.63,13.371,9.217,14.726,9.006,16.015z"></path><path d="M18.774,4.95C18.774,4.95,18.774,4.95,18.774,4.95c-1.426-0.665-3.398,0.196-5.219,2.026c0.977,0.771,2.1,1.467,3.322,2.038  c1.228,0.571,2.486,0.986,3.707,1.238c0.046-0.51,0.063-1.006,0.041-1.481C20.534,6.821,19.878,5.464,18.774,4.95z"></path><path d="M8.848,18.448c0.09,1.95,0.747,3.308,1.85,3.821c0.001,0,0.001,0,0.001,0c1.425,0.665,3.397-0.197,5.218-2.027  c-0.976-0.771-2.099-1.467-3.322-2.037c-1.227-0.572-2.485-0.986-3.706-1.238C8.842,17.477,8.825,17.973,8.848,18.448z"></path><path d="M8.672,21.585c-0.456-0.811-0.728-1.854-0.784-3.093c-0.025-0.542-0.008-1.107,0.048-1.688  c-0.953-0.133-1.87-0.161-2.718-0.078C5.839,18.624,7.022,20.333,8.672,21.585z"></path><path d="M12.806,6.341c1.344-1.372,2.787-2.254,4.135-2.504c-2.017-0.457-4.084-0.266-5.936,0.478  C11.484,5.015,12.095,5.697,12.806,6.341z"></path><path d="M18.468,22.905c-0.48-0.7-1.09-1.383-1.801-2.026c-1.344,1.371-2.787,2.254-4.136,2.504  C14.548,23.84,16.616,23.648,18.468,22.905z"></path><path d="M24.255,10.493c-0.621-1.897-1.806-3.606-3.455-4.858c0.457,0.811,0.728,1.854,0.785,3.093  c0.025,0.542,0.008,1.106-0.049,1.688C22.489,10.547,23.407,10.576,24.255,10.493z"></path><path d="M23.603,18.274l-3.875-1.807c-0.703,1.42-1.529,2.669-2.416,3.706c0.811,0.734,1.499,1.52,2.036,2.328  C21.11,21.589,22.618,20.149,23.603,18.274z"></path><path d="M24.009,17.404c0.803-1.96,0.938-4.039,0.504-5.978c-0.967,0.108-2.014,0.085-3.1-0.063  c-0.225,1.375-0.664,2.814-1.285,4.231L24.009,17.404z"></path></svg>