<?xml version="1.0" encoding="UTF-8" standalone="no"?>
<svg
   width="752pt"
   height="752pt"
   version="1.1"
   viewBox="0 0 752 752"
   id="svg11"
   sodipodi:docname="geology.svg"
   inkscape:version="1.1 (c68e22c387, 2021-05-23)"
   xmlns:inkscape="http://www.inkscape.org/namespaces/inkscape"
   xmlns:sodipodi="http://sodipodi.sourceforge.net/DTD/sodipodi-0.dtd"
   xmlns="http://www.w3.org/2000/svg"
   xmlns:svg="http://www.w3.org/2000/svg">
  <sodipodi:namedview
     id="namedview13"
     pagecolor="#ffffff"
     bordercolor="#666666"
     borderopacity="1.0"
     inkscape:pageshadow="2"
     inkscape:pageopacity="0.0"
     inkscape:pagecheckerboard="0"
     inkscape:document-units="pt"
     showgrid="false"
     inkscape:zoom="0.10272606"
     inkscape:cx="-1104.8803"
     inkscape:cy="73.009709"
     inkscape:window-width="1920"
     inkscape:window-height="1009"
     inkscape:window-x="-8"
     inkscape:window-y="-8"
     inkscape:window-maximized="1"
     inkscape:current-layer="svg11" />
  <defs
     id="defs5">
    <clipPath
       id="a">
      <path
         d="m176 139.21h400v473.58h-400z"
         id="path2" />
    </clipPath>
  </defs>
  <g
     clip-path="url(#a)"
     id="g9"
     transform="matrix(1.4695165,0,0,1.4695165,-174.35129,-211.51471)">
    <path
       d="M 277.14,390.8 369.191,612.79 176.651,390.8 Z M 382.81,612.79 575.35,390.8 H 474.87 Z M 325.388,257.6 h -67.781 c -4.7656,0.0117 -9.2305,2.3281 -11.988,6.2148 l -69.555,97.383 h 101.67 z m 116.32,103.6 -47.652,-103.6 h -36.113 l -47.652,103.6 z m 32.559,0 h 101.67 l -69.559,-97.379 v -0.004 c -2.7539,-3.8867 -7.2188,-6.2031 -11.984,-6.2148 h -67.781 z m -165.16,29.598 66.891,167.38 66.895,-167.38 z"
       id="path7"
       sodipodi:nodetypes="cccccccccccccccccccccccccccccc" />
  </g>
</svg>
