<?xml version="1.0" encoding="UTF-8"?>
<svg width="752pt" height="752pt" version="1.1" viewBox="100 100 552 552" xmlns="http://www.w3.org/2000/svg">
 <defs>
  <clipPath id="a">
   <path d="m168 139.21h414v473.58h-414z"/>
  </clipPath>
 </defs>
 <g clip-path="url(#a)">
  <path d="m485.52 164.37c19.238 0 35.52 16.281 35.52 37s-16.281 37-35.52 37c-20.719 0-37-16.281-37-37s16.281-37 37-37zm-316.71 233.83c-4.4414 116.91 88.797 214.59 207.19 214.59 116.91 0 211.63-97.676 205.71-214.59h-412.9zm198.31 82.875c-23.68 1.4805-47.359 4.4414-69.559 11.84-5.918-25.16-10.359-51.797-10.359-78.438h79.918zm-130.23 39.957c-25.16-29.598-39.957-66.598-41.438-106.55h73.996c1.4805 28.117 4.4414 56.238 11.84 84.355-14.801 5.918-31.078 13.32-44.398 22.199zm50.316-5.918c7.3984 22.199 19.238 47.359 37 65.117-28.117-8.8789-54.758-25.16-76.957-45.879 13.32-7.3984 26.641-14.801 39.957-19.238zm16.281-5.918c20.719-7.3984 41.438-10.359 63.637-10.359v87.316c-32.559-5.918-54.758-47.359-63.637-76.957zm145.04 0c-10.359 29.598-31.078 71.039-63.637 76.957v-87.316c20.719 0 42.918 2.9609 63.637 10.359zm16.281 5.918c13.32 4.4414 26.641 11.84 38.477 19.238-20.719 20.719-47.359 37-76.957 45.879 17.758-17.758 29.598-42.918 38.477-65.117zm50.316 5.918c-14.801-8.8789-29.598-16.281-45.879-22.199 7.3984-28.117 11.84-56.238 11.84-84.355h75.477c-1.4805 39.957-16.281 76.957-41.438 106.55zm-62.156-28.117c-22.199-7.3984-45.879-10.359-68.078-11.84v-66.598h79.918c-1.4805 26.641-4.4414 53.277-11.84 78.438zm-76.957-353.71c-25.16 0-45.879 20.719-45.879 45.879s20.719 44.398 45.879 44.398 44.398-19.238 44.398-44.398-19.238-45.879-44.398-45.879zm-73.996 241.23v-88.797c0-62.156 146.52-62.156 146.52 0v88.797zm-35.52-216.07c-20.719 0-37 16.281-37 37s16.281 37 37 37 37-16.281 37-37-16.281-37-37-37zm-59.199 216.07v-93.234c0-35.52 62.156-45.879 96.195-29.598-7.3984 8.8789-13.32 20.719-13.32 34.039v88.797h-82.875zm337.43 0v-93.234c0-35.52-63.637-45.879-97.676-29.598 8.8789 8.8789 13.32 20.719 13.32 34.039v88.797h84.355z" fill-rule="evenodd"/>
 </g>
</svg>
