<?xml version="1.0" encoding="UTF-8" standalone="no"?>
<svg
   width="752pt"
   height="752pt"
   version="1.1"
   viewBox="0 0 752 752"
   id="svg10"
   sodipodi:docname="historyofart.svg"
   inkscape:version="1.1 (c68e22c387, 2021-05-23)"
   xmlns:inkscape="http://www.inkscape.org/namespaces/inkscape"
   xmlns:sodipodi="http://sodipodi.sourceforge.net/DTD/sodipodi-0.dtd"
   xmlns="http://www.w3.org/2000/svg"
   xmlns:svg="http://www.w3.org/2000/svg">
  <defs
     id="defs14" />
  <sodipodi:namedview
     id="namedview12"
     pagecolor="#ffffff"
     bordercolor="#666666"
     borderopacity="1.0"
     inkscape:pageshadow="2"
     inkscape:pageopacity="0.0"
     inkscape:pagecheckerboard="0"
     inkscape:document-units="pt"
     showgrid="false"
     inkscape:zoom="0.29055319"
     inkscape:cx="411.28443"
     inkscape:cy="356.21705"
     inkscape:window-width="1920"
     inkscape:window-height="1009"
     inkscape:window-x="-8"
     inkscape:window-y="-8"
     inkscape:window-maximized="1"
     inkscape:current-layer="svg10" />
  <g
     id="g8"
     transform="matrix(1.3907389,0,0,1.3907389,-148.33147,-130.0267)">
    <path
       d="m 276.84,304.32 c -17.246,20.797 -24.992,47.867 -21.359,74.641 l 37,200.83 h -0.004 c 0.9375,5.1094 3.6328,9.7305 7.625,13.059 3.9922,3.3242 9.0234,5.1484 14.219,5.1445 h 32.559 v -14.801 h -32.559 c -3.5664,0 -6.6289,-2.5469 -7.2734,-6.0586 l -5.7109,-30.984 c 0.22266,0 0.44531,0.043 0.66406,0.043 v 0.004 c 14.891,-0.0117 28.785,-7.4844 37,-19.906 8.207,12.426 22.105,19.906 36.996,19.906 14.895,0 28.793,-7.4805 37,-19.906 8.2148,12.422 22.109,19.895 37,19.906 0.22266,0 0.44531,-0.043 0.66406,-0.043 l -5.7109,30.988 c -0.64844,3.5078 -3.707,6.0508 -7.2734,6.0508 h -76.219 v 14.801 h 76.219 c 5.1875,0 10.211,-1.8164 14.199,-5.1367 3.9883,-3.3203 6.6875,-7.9336 7.6289,-13.035 l 37.074,-201.2 h -0.004 c 3.5273,-26.676 -4.2539,-53.613 -21.457,-74.301 l -39.426,-47.301 v 0.004 c -4.5234,-5.457 -6.1875,-12.734 -4.4844,-19.609 l 9.7617,-39.004 h 1.625 c 3.9258,0 7.6914,-1.5625 10.465,-4.3359 2.7773,-2.7773 4.3359,-6.5391 4.3359,-10.465 v -14.801 c 0,-3.9258 -1.5586,-7.6875 -4.3359,-10.465 -2.7734,-2.7734 -6.5391,-4.332 -10.465,-4.332 h -29.598 v 14.797 h 29.598 v 14.801 h -133.2 v -14.801 h 59.078 l 0.004,-14.797 h -59.082 c -3.9219,0 -7.6875,1.5586 -10.465,4.332 -2.7734,2.7773 -4.332,6.5391 -4.332,10.465 v 14.801 c 0,3.9258 1.5586,7.6875 4.332,10.465 2.7773,2.7734 6.543,4.3359 10.465,4.3359 h 1.6289 l 9.7539,39.004 c 1.7031,6.875 0.0352,14.152 -4.4922,19.602 z m 205.12,71.977 -5.3945,29.305 h -35.879 l 37.844,-64.875 h -0.004 c 3.7969,11.449 4.9688,23.605 3.4336,35.57 z m -68.965,101.01 c -8.207,-12.43 -22.105,-19.906 -37,-19.906 -14.891,0 -28.789,7.4766 -36.996,19.906 -5.5859,-8.5508 -13.977,-14.883 -23.723,-17.922 -9.75,-3.0352 -20.254,-2.5781 -29.703,1.2852 l -7.3984,-40.27 h 195.66 l -7.3984,40.27 c -9.4531,-3.8711 -19.961,-4.3281 -29.711,-1.293 -9.7539,3.0391 -18.145,9.375 -23.73,17.93 z m -142.9,-100.64 c -1.5781,-12.078 -0.41797,-24.355 3.3867,-35.926 l 37.828,64.859 h -35.887 z m 66.988,28.934 38.914,-66.719 38.918,66.719 z m 90.715,-7.2812 -38.918,-66.719 h 77.832 z m -103.6,0 -38.914,-66.719 h 77.828 z m -22.199,133.07 c -1.1445,-0.008 -2.2891,-0.0859 -3.4258,-0.23047 l -2.9609,-16.078 c 1.9883,0.98047 4.1719,1.4961 6.3867,1.5117 4.9883,0.0156 9.6445,-2.4766 12.398,-6.6367 2.75,-4.1602 3.2227,-9.4219 1.2539,-14.004 -1.9688,-4.5821 -6.1094,-7.8633 -11.02,-8.7344 -4.9102,-0.86719 -9.9258,0.79297 -13.348,4.4219 l -2.9609,-16.086 c 8.0625,-4.2109 17.609,-4.4766 25.895,-0.73047 8.286,3.74613 14.391,11.094 16.551,19.926 2.1641,8.8359 0.14844,18.172 -5.4688,25.324 -5.6172,7.1484 -14.207,11.324 -23.301,11.316 z m 73.996,0 c -7.8477,0 -15.379,-3.1172 -20.93,-8.668 -5.5508,-5.5508 -8.668,-13.082 -8.668,-20.93 0,-7.8516 3.1172,-15.379 8.668,-20.93 5.5508,-5.5508 13.082,-8.668 20.93,-8.668 7.8516,0 15.379,3.1172 20.93,8.668 5.5508,5.5508 8.6719,13.078 8.6719,20.93 0,7.8477 -3.1211,15.379 -8.6719,20.93 -5.5508,5.5508 -13.078,8.668 -20.93,8.668 z m 73.996,0 h 0.004 c -9.0938,0.008 -17.688,-4.168 -23.301,-11.316 -5.6172,-7.1523 -7.6328,-16.488 -5.4727,-25.324 2.1641,-8.832 8.2656,-16.18 16.551,-19.926 8.2854,-3.746 17.836,-3.4805 25.895,0.73047 l -2.9609,16.086 h 0.004 c -2.5117,-2.6758 -5.9258,-4.3203 -9.582,-4.6211 -3.6562,-0.29688 -7.293,0.76953 -10.203,3 -2.9141,2.2305 -4.8945,5.4609 -5.5586,9.0664 -0.66406,3.6094 0.0312,7.3359 1.957,10.457 1.92575,3.1211 4.9453,5.4141 8.4648,6.4375 3.5234,1.0234 7.3008,0.70312 10.598,-0.89844 l -2.9609,16.078 h 0.004 c -1.1406,0.14453 -2.2891,0.22266 -3.4336,0.23047 z m -114.86,-297.56 -8.8594,-35.422 h 99.438 l -8.8789,35.422 c -2.8281,11.457 -0.0508,23.574 7.4883,32.652 l 39.426,47.305 c 0.80469,0.96094 1.4805,2.0039 2.2188,3.0039 l -179.97,0.004 c 0.73828,-1 1.4805,-2.043 2.2188,-3.0039 l 39.449,-47.309 c 7.5312,-9.0781 10.309,-21.199 7.4727,-32.652 z"
       id="path2" />
    <path
       d="m 383.28,154.01 h 14.918 v 14.801 H 383.28 Z"
       id="path4" />
    <path
       d="m 390.8,501.8 c 0,8.1719 -6.625,14.801 -14.801,14.801 -8.1719,0 -14.797,-6.6289 -14.797,-14.801 0,-8.1758 6.625,-14.801 14.797,-14.801 8.1758,0 14.801,6.625 14.801,14.801"
       id="path6" />
  </g>
</svg>
