<svg height='300px' width='300px'  fill="#e3e3e3" xmlns="http://www.w3.org/2000/svg" xmlns:xlink="http://www.w3.org/1999/xlink" version="1.1" x="0px" y="0px" viewBox="0 0 100 100" style="enable-background:new 0 0 100 100;" xml:space="preserve"><path d="M25,65v-4H9v14c0,1.1,0.9,2,2,2h23c1.1,0,2-0.9,2-2v-4h-5C27.7,71,25,68.3,25,65z M19,69.4c0,0.1-0.1,0.3-0.1,0.4  c0,0.1-0.1,0.2-0.2,0.3c-0.1,0.1-0.2,0.2-0.3,0.3C18,70.8,17.5,71,17,71s-1-0.2-1.4-0.6c-0.1-0.1-0.2-0.2-0.2-0.3  c-0.1-0.1-0.1-0.2-0.2-0.3c-0.1-0.1-0.1-0.2-0.1-0.4c0-0.1,0-0.3,0-0.4c0-0.5,0.2-1,0.6-1.4c0.1-0.1,0.2-0.2,0.3-0.2  c0.1-0.1,0.2-0.1,0.3-0.2c0.1,0,0.2-0.1,0.4-0.1c0.7-0.1,1.3,0.1,1.8,0.5C18.8,68,19,68.5,19,69C19,69.1,19,69.3,19,69.4z M25,31H9  V21c0-1.1,0.9-2,2-2h23c1.1,0,2,0.9,2,2v2h-5c-3.3,0-6,2.7-6,6V31z M25,35H9v22h16V35z M18.4,50.4c-0.1,0.1-0.2,0.2-0.3,0.2  c-0.1,0.1-0.2,0.1-0.3,0.2s-0.2,0.1-0.4,0.1c-0.1,0-0.3,0-0.4,0c-0.5,0-1-0.2-1.4-0.6C15.2,50,15,49.5,15,49c0-0.1,0-0.3,0-0.4  c0-0.1,0.1-0.2,0.1-0.4c0-0.1,0.1-0.2,0.2-0.3c0.1-0.1,0.1-0.2,0.2-0.3c0.1-0.1,0.2-0.2,0.3-0.2s0.2-0.1,0.3-0.2  c0.1,0,0.2-0.1,0.4-0.1c0.7-0.1,1.3,0.1,1.8,0.5c0.1,0.1,0.2,0.2,0.2,0.3c0.1,0.1,0.1,0.2,0.2,0.3c0.1,0.1,0.1,0.2,0.1,0.4  c0,0.1,0,0.3,0,0.4C19,49.5,18.8,50,18.4,50.4z M29,61h62v4c0,1.1-0.9,2-2,2H31c-1.1,0-2-0.9-2-2V61z M91,29v28H29V29  c0-1.1,0.9-2,2-2h58C90.1,27,91,27.9,91,29z M74,79c0,1.1-0.9,2-2,2H48c-1.1,0-2-0.9-2-2c0-1.1,0.9-2,2-2h9v-6h6v6h9  C73.1,77,74,77.9,74,79z"></path></svg>