<?xml version="1.0" encoding="UTF-8"?>
<svg width="752pt" height="752pt" version="1.1" viewBox="100 100 552 552" xmlns="http://www.w3.org/2000/svg">
 <defs>
  <clipPath id="a">
   <path d="m139.21 139.21h473.58v473.58h-473.58z"/>
  </clipPath>
 </defs>
 <g clip-path="url(#a)">
  <path d="m570.27 511.3c6.1406-8.7852 11.676-18.004 16.59-27.602 0.31641-0.62891 0.65234-1.2656 0.96875-1.9102 2.4414-4.8672 4.7578-9.8281 6.8516-14.895 0-0.015625 0.015625-0.023437 0.015625-0.035156v0.015625c11.633-27.988 18.094-58.668 18.094-90.871 0-130.77-106.02-236.79-236.79-236.79-94.789 0-176.54 55.727-214.36 136.18-0.47266 0.97656-0.89453 1.9844-1.3633 2.9766-1.3906 3.0703-2.7227 6.1797-3.9805 9.3164-0.48047 1.1836-0.95312 2.375-1.4062 3.5664-1.2227 3.1953-2.375 6.4219-3.4688 9.6875-0.33984 1.0195-0.70312 2.0195-1.0273 3.0469-2.7148 8.5156-4.957 17.25-6.7109 26.156-0.25391 1.3164-0.46875 2.6445-0.69922 3.9688-0.57031 3.1602-1.082 6.3281-1.5078 9.5312-0.20703 1.5391-0.41406 3.0703-0.59375 4.6172-0.37109 3.1836-0.66406 6.3867-0.91016 9.6133-0.10938 1.4141-0.23828 2.8281-0.31641 4.2461-0.27344 4.5938-0.44531 9.2188-0.44531 13.879 0 130.77 106.02 236.79 236.79 236.79 5.4922 0 10.914-0.25 16.301-0.62109 1.332-0.089844 2.6406-0.18359 3.9727-0.30469 5.3516-0.45703 10.664-1.0273 15.91-1.8203 0.11719-0.023438 0.19922-0.042969 0.31641-0.066407 5.1719-0.79297 10.262-1.8125 15.301-2.9453 1.2422-0.27344 2.4844-0.55469 3.7148-0.85156 5.0977-1.2266 10.176-2.5664 15.133-4.1211 0.15625-0.050782 0.31641-0.10938 0.46484-0.15625 4.8672-1.5312 9.6289-3.25 14.34-5.082 1.1094-0.4375 2.2266-0.86719 3.3242-1.3164 4.8242-1.9453 9.5977-4.0117 14.266-6.2734 0.13281-0.066407 0.25781-0.14062 0.40625-0.20703 4.5508-2.2109 9.0039-4.6094 13.387-7.1055 0.95312-0.53125 1.8945-1.082 2.8359-1.6289 4.5078-2.6406 8.9297-5.3945 13.238-8.3164 0.089844-0.058594 0.15625-0.125 0.24609-0.17188 4.2344-2.8867 8.3242-5.9336 12.344-9.0703 0.77734-0.59766 1.5469-1.1992 2.3164-1.8047 4.1055-3.293 8.1406-6.6836 12.008-10.242 0.03125-0.03125 0.058593-0.050782 0.089843-0.082032 3.832-3.5156 7.5195-7.1836 11.113-10.945 0.59375-0.62109 1.1992-1.2344 1.7773-1.8633 7.25-7.7383 13.977-15.969 20.148-24.633 0.44141-0.60547 0.88281-1.2266 1.3203-1.8633zm27.949-135.3c0 25.73-4.4531 50.43-12.527 73.434-1.4414-4.7891-3.25-9.5312-6.5781-13.652-9.6133-11.93-21.445-15.695-34.844-20.777-30.449-11.543-35.621-30.359-51.664-55.785-17.402-27.594-7.9922-50.059 21.652-57.332 12.055-2.9453 25.73-0.76953 30.34-11.594 7.1836-16.887-9.5977-20.453-19.859-26.543 0.42187-7.3477-1.0938-14.117-3.7461-20.984-9.582-2.1836-16.738 3.5078-26.055 3.3242-1.082 17.07-0.73828 33.09-21.91 34.691-20.273 1.5312-21.125-9.6484-24.516-25.344-3.7461-17.352-16.176-28.09-22.016-44.562-4.9141-13.844-2.5312-30.613-8.2812-44.836-1.4727-3.6719-3.5312-6.6758-5.8984-9.2422 105.32 17.391 185.9 109.05 185.9 219.2zm-264.06-218.21c-2.4414 1.1602-4.7969 2.3477-6.9102 3.543-9.0039 5.1367-14.953 10.691-25.367 13.387-8.6562 2.2344-18.211 1.9961-27.289 3.6484 18.504-9.5391 38.508-16.555 59.566-20.578zm41.836 440.43c-3.4258 0-6.8359-0.10938-10.234-0.25781-2.6211-7.1914-2.3164-14.793-2.3984-25.922-0.18359-20.488-7.25-35.246-17.879-52.672-10.234-16.828-21.348-29.215-22.027-49.141-0.54688-16.48 1.7461-33.965-1.6211-49.859-3.1367-14.82-13.496-24.035-28.34-28.305-6.1992-1.7852-11.551 1.9844-19.438-1.9922-8.3008-4.1602-11.312-10.656-16.633-17.879-15.828-21.43-10.188-28.32-2.3828-51.93 5.832-17.684-0.71094-24.449-4.832-41.129-3.043-12.27 3.4492-18.031-11.062-23.465-4.4922-1.6797-18.668-0.95312-23.812 0.035156-11.105 2.1328-20.016 5.2148-30.406 6.9922 16.598-27.898 39.102-51.855 65.82-70.141-4.1602 7.0586-4.0273 15.852-3.4844 26.41 6.1797 0.54688 14.023 0.35547 19.328 3.3672 7.6367 4.3438 11.516 18.02 20.273 21.562 4.7812 1.9297 22.258 1.9961 26.75-0.87891 4.0195-2.5742 3.5977-12.07 8.5234-15.531 7.9609-5.6094 36.176-0.51953 41.336 6.6602 11.387 15.82-5.5352 32.965-21.52 31.863-4.3047 16.34 14.348 21.016 26.461 14.332 13.438-7.4453 12.719-24.195 33.164-17.898 34.543 10.617-2.6992 50.91-23.273 54.848-15.48 2.9531-23.352 2.5234-28.254 19.941-3.5 12.438 5.2031 41.289-18.285 33.285-13.992-4.7812-10.129-18.922-29.465-18.352-27.617 0.79297-14.191 17.539 1.2891 25.434 14.902 7.5781 27.691 18.965 44.805 21.141 19.727 2.5078 32.145-3.543 46.988 13.066 12.57 14.066 17.457 22.223 36.133 28.82 16.316 5.7578 32.797 7.5938 33.238 27.52 0.50391 22.977-20.504 19.707-36.133 29-13.254 7.8867-24.168 22.598-30.074 36.656-9.6289 22.895-16.605 41.906-20.48 64.355-0.68359 0.015625-1.3633 0.0625-2.0742 0.0625z"/>
 </g>
</svg>
