<?xml version="1.0" encoding="UTF-8"?>
<svg width="752pt" height="752pt" version="1.1" viewBox="100 100 552 552" xmlns="http://www.w3.org/2000/svg">
 <defs>
  <clipPath id="a">
   <path d="m228 139.21h296v473.58h-296z"/>
  </clipPath>
 </defs>
 <g clip-path="url(#a)">
  <path d="m287.2 346.4v-147.99c0.019531-15.695 6.2617-30.742 17.359-41.84 11.098-11.098 26.145-17.34 41.84-17.359h59.199c15.695 0.015624 30.742 6.2578 41.84 17.355 11.098 11.102 17.34 26.148 17.355 41.844v147.99c0 31.723-16.922 61.039-44.398 76.898-27.473 15.863-61.32 15.863-88.797 0-27.473-15.859-44.398-45.176-44.398-76.898zm236.79 0 0.003906-29.598c0-5.2891-2.8203-10.176-7.3984-12.816-4.582-2.6445-10.223-2.6445-14.801 0-4.5781 2.6406-7.3984 7.5273-7.3984 12.816v29.598c0 42.297-22.566 81.383-59.199 102.54-36.633 21.148-81.766 21.148-118.39 0-36.633-21.152-59.199-60.238-59.199-102.54v-29.598c0-5.2891-2.8203-10.176-7.3984-12.816-4.5781-2.6445-10.223-2.6445-14.801 0-4.5781 2.6406-7.3984 7.5273-7.3984 12.816v29.598c0.046876 36.676 13.688 72.031 38.293 99.227 24.602 27.199 58.414 44.309 94.902 48.02v45.145h-59.199c-3.1055 0-6.1328 0.97656-8.6523 2.793-2.5195 1.8164-4.4062 4.3789-5.3867 7.3242l-14.801 44.398c-1.5 4.5156-0.74219 9.4727 2.0391 13.332s7.2461 6.1484 12 6.1523h177.59c4.7578 0 9.2266-2.2852 12.008-6.1484 2.7812-3.8594 3.5352-8.8242 2.0273-13.336l-14.801-44.398c-0.98047-2.9453-2.8633-5.5078-5.3828-7.3242-2.5195-1.8164-5.543-2.793-8.6484-2.793h-59.199v-45.145c36.484-3.7148 70.301-20.824 94.902-48.02 24.602-27.199 38.246-62.551 38.293-99.227z"/>
 </g>
</svg>
