<svg height='300px' width='300px'  fill="#000000" xmlns="http://www.w3.org/2000/svg" xmlns:xlink="http://www.w3.org/1999/xlink" version="1.1" x="0px" y="0px" viewBox="0 0 64 64" enable-background="new 0 0 64 64" xml:space="preserve"><g><path d="M61.832,58.299c0.098-2.226-1.041-3.855-2.484-5.398c-7.459-7.982-14.887-15.993-22.326-23.994   c-0.231-0.249-0.452-0.507-0.602-0.676c1.221-1.856,2.414-3.66,3.596-5.472c0.619-0.949,0.474-1.715-0.322-2.595   c-3.435-3.799-6.817-7.648-10.154-11.534c-0.699-0.814-1.413-1.045-2.288-0.614c-1.916,0.945-3.937,1.769-5.657,3.002   c-3.819,2.737-7.309,5.845-9.506,10.148c-0.541,1.059-0.49,1.801,0.35,2.728c3.407,3.758,6.753,7.574,10.051,11.429   c0.729,0.852,1.461,1.083,2.394,0.658c1.944-0.885,3.859-1.834,5.97-2.844c2.103,2.537,4.371,5.262,6.628,7.995   c4.97,6.021,9.933,12.047,14.903,18.068c0.31,0.376,0.636,0.74,0.976,1.089c2.568,2.628,5.871,2.265,7.865-0.856   c0.129-0.202,0.292-0.381,0.439-0.571C61.722,58.674,61.777,58.487,61.832,58.299z"></path><g><g><path d="M31.323,7.983l9.289,10.477c1.327,1.496,3.616,1.634,5.112,0.307s1.634-3.616,0.307-5.112L36.743,3.178     c-1.327-1.496-3.616-1.634-5.112-0.307C30.134,4.197,29.996,6.486,31.323,7.983z"></path></g><g><path d="M6.069,30.374l9.289,10.477c1.327,1.496,3.616,1.634,5.112,0.307c1.496-1.327,1.634-3.616,0.307-5.112l-9.289-10.477     c-1.327-1.496-3.616-1.634-5.112-0.307C4.879,26.588,4.742,28.877,6.069,30.374z"></path></g></g><path d="M18.161,61.858c-4.05,0-8.1,0-12.15,0c-2.767,0-4.22-1.68-3.768-4.441c0.105-0.644,0.35-1.307,0.691-1.863   c0.573-0.934,1.534-1.212,2.593-1.211c3.804,0.004,7.608,0.003,11.412,0.001c4.46-0.002,8.919-0.007,13.379-0.007   c2.799,0,4.259,1.744,3.804,4.531c-0.231,1.412-0.85,2.519-2.345,2.892c-0.36,0.09-0.748,0.093-1.123,0.094   C26.491,61.86,22.326,61.858,18.161,61.858z"></path><path d="M18.12,52.976c-2.966,0-5.932,0.002-8.898-0.001c-1.304-0.001-1.982-0.549-2.193-1.835c-0.131-0.798-0.118-1.6,0.237-2.361   c0.314-0.674,0.841-1.027,1.578-1.064c0.262-0.013,0.524-0.004,0.786-0.004c5.801-0.001,11.602-0.002,17.404-0.002   c1.478,0,2.217,0.655,2.32,2.127c0.036,0.516,0.011,1.054-0.096,1.558c-0.229,1.076-0.889,1.578-1.994,1.581   C24.216,52.981,21.168,52.977,18.12,52.976z"></path></g></svg>