<?xml version="1.0" encoding="UTF-8"?>
<svg width="752pt" height="752pt" version="1.1" viewBox="100 100 552 552" xmlns="http://www.w3.org/2000/svg">
 <g>
  <path d="m570.17 579.64h-33.633c-5.4102 0-10.562-2.3125-14.156-6.3555l-29.027-32.648-38.422 31.438c-7.5352 6.1602-18.508 5.6172-25.391-1.2656l-53.766-53.773-61.621 57.512c-3.5156 3.2852-8.1055 5.0938-12.918 5.0938h-119.4c-12.598 0-12.617-18.941 0-18.941h119.4l61.621-57.512c7.5-7.0156 19.062-6.8047 26.32 0.45312l53.766 53.77 38.422-31.438c7.8867-6.4609 19.383-5.5391 26.152 2.0742l29.023 32.652h33.633c12.598 0 12.617 18.941 0 18.941z"/>
  <path d="m196.5 402.8c10.547-124.79 107.32-206.23 297.07-225.16 0.78906-0.082031 1.043 1.043 0.28906 1.3086-134.21 47.57-237.81 135.47-294.46 224.82-0.87891 1.3828-3.0273 0.67188-2.8906-0.96484z"/>
  <path d="m276.55 376c-9.4688 11.75-18.211 23.68-26.152 35.633-1.043 1.5664 0.11328 3.6953 1.9883 3.7227 43.09 0.625 83.355-7.0703 122.28-23.391 1.3516-0.5625 2.8594 0.21484 3.2305 1.6289 2.3555 8.9883-2.3867 18.629-11.391 21.883-42.883 15.496-84.988 20.625-128.36 18.309-0.89062-0.046875-1.7461 0.41797-2.1914 1.1875-5.6133 9.7617-10.633 19.465-15.035 29.031-0.71094 1.543 0.44141 3.3359 2.1406 3.3906 53.633 1.7461 97.055-10.578 133.11-23.656 1.375-0.49609 2.8164 0.375 3.1172 1.8008 1.8945 9.1367-3.3164 18.473-12.445 21.5-45.082 14.949-86.516 21.617-133.17 18.848-1.0469-0.0625-2.0352 0.58203-2.3906 1.5742-5.2461 14.605-8.875 28.707-10.641 41.965-2.4844 18.641-30.641 14.848-28.164-3.7539 14.391-107.84 144.83-291.02 403.95-352.55 1.2305-0.29297 2.25 1.0547 1.6484 2.168-90.246 167.17-180.39 201.28-301.52 200.71z"/>
 </g>
</svg>
