<svg height='300px' width='300px'  fill="#000000" xmlns="http://www.w3.org/2000/svg" xmlns:xlink="http://www.w3.org/1999/xlink" version="1.1" x="0px" y="0px" viewBox="0 0 60 60" style="enable-background:new 0 0 60 60;" xml:space="preserve"><path d="M51.0108032,35.3676758c0.473938-0.5342407,0.6462402-1.2752075,0.4480591-1.9730835  c-0.1809692-0.6548462-0.6461792-1.163208-1.2751465-1.40448c-0.6290283-0.241272-1.3182983-0.1723022-1.8869629,0.1895752  l-5.9279175,3.7394409c-0.1206665,1.2407227-1.0598145,2.2487793-2.2833252,2.4728394  c-2.1540527,0.3876953-6.1519775,1.0080566-8.7282104,0.8615723c-3.3947754-0.1895142-5.1524658,0.0172729-5.1697388,0.0172729  c-0.0430298,0-0.0775146,0.008606-0.1119995,0.008606c-0.4221802,0-0.8012695-0.3188477-0.8529663-0.7581787  c-0.0516968-0.473938,0.2756958-0.9047852,0.7495728-0.9650269c0.0775757-0.008606,1.9042358-0.2240601,5.4799194-0.0172729  c2.1971436,0.1119995,5.9796753-0.3790894,8.1422729-0.7495728c1.3441162-0.4308472,1.2493896-1.2924194,0-2.0248413  c-0.2843018-0.0603027-0.9650269-0.0861816-1.3527222-0.0344849c-1.6629639,0.2240601-5.1352539,0.3963623-6.7809448-0.473877  c-2.9553223-1.5681152-6.2984619-2.2229614-8.4524536-2.309082c-1.9127808-0.0775757-3.7566528,0.5858765-5.2041626,1.8782959  l-2.8778687,2.550354L21.56073,45.784668l1.4733276-1.0339966l8.6506348-0.2929688  c1.5250854-0.0516968,3.032959-0.2756958,4.4890747-0.6547852C39.7322388,42.8551025,46.4011841,40.5029297,51.0108032,35.3676758z"></path><path d="M8.6192017,40.2444458l7.7200928,10.93396c0.1292725,0.1895142,0.3446655,0.3187866,0.5687256,0.3532104  c0.0430298,0.008606,0.0861206,0.008606,0.1292114,0.008606c0.1895752,0,0.3790894-0.0603027,0.5255737-0.1809082  l3.1190796-2.4039307c0.3704834-0.2756958,0.447998-0.8012695,0.1809082-1.1804199l-7.7200928-10.925293  c-0.1378784-0.1895752-0.3446655-0.3187866-0.5772705-0.3532715s-0.473877,0.0258789-0.6548462,0.1723022l-3.1190796,2.4039307  C8.4296265,39.3483276,8.3521118,39.8739014,8.6192017,40.2444458z"></path><path d="M49.5891724,18.1783447c0.456604-0.1205444,0.7323608-0.5944824,0.6116943-1.0511475  c-0.2756348-1.0683594-0.697876-2.093689-1.2492676-3.0415039c-0.241272-0.4049683-0.7755127-0.5428467-1.1804199-0.3015747  c-0.456665,0.2670898-1.395874,0.0775757-2.1713257-0.697876c-0.7668457-0.7668457-0.9563599-1.7059937-0.68927-2.1627197  c0.1119995-0.1981201,0.1464844-0.4307861,0.0947876-0.6547852c-0.0603638-0.2154541-0.2067871-0.4049683-0.4050293-0.5255737  c-0.9477539-0.5514526-1.9644165-0.9736328-3.0328369-1.2579956c-0.456665-0.1119995-0.930542,0.1550903-1.0512085,0.6203613  c-0.1378174,0.5083618-0.930481,1.0425415-2.0247803,1.0425415c-1.0942383,0-1.8869629-0.5341797-2.0161743-1.0425415  c-0.1206055-0.465271-0.5945435-0.7323608-1.0512085-0.6203613c-1.0769653,0.2843628-2.093689,0.706543-3.0415039,1.2579956  c-0.4135742,0.241272-0.5428467,0.7668457-0.3101807,1.1803589c0.2670898,0.4567261,0.0861206,1.395874-0.68927,2.1627197  c-0.7755127,0.7754517-1.7059937,0.9649658-2.1626587,0.697876c-0.4135742-0.241272-0.939209-0.1033936-1.1804199,0.3015747  c-0.5600586,0.9478149-0.9822998,1.9731445-1.2579956,3.0415039c-0.1206055,0.456665,0.1550903,0.930603,0.6117554,1.0511475  c0.5169678,0.1378784,1.0426025,0.930603,1.0426025,2.0162354c0,1.0942383-0.5256348,1.8869629-1.0426025,2.0247803  c-0.456665,0.1206055-0.7323608,0.5945435-0.6117554,1.0512085c0.2756958,1.0683594,0.697937,2.093689,1.2579956,3.0414429  c0.2412109,0.4050293,0.7668457,0.5428467,1.1804199,0.3016357c0.456665-0.2670898,1.387146-0.0775757,2.1626587,0.697876  c0.7753906,0.7754517,0.9563599,1.7059937,0.68927,2.1627197c-0.232666,0.4135132-0.1033936,0.9390869,0.3101807,1.1803589  c0.9478149,0.5514526,1.9645386,0.9736328,3.0415039,1.2579346c0.0689697,0.0172729,0.1464844,0.0258789,0.2154541,0.0258789  c0.3790894,0,0.7323608-0.2584839,0.8357544-0.6461792c0.1292114-0.5084229,0.921936-1.0426025,2.0161743-1.0426025  c1.0942993,0,1.8869629,0.5341797,2.0247803,1.0426025c0.1206665,0.46521,0.5945435,0.7323608,1.0512085,0.6203003  c1.0684204-0.2843018,2.085083-0.7064819,3.0328369-1.2579346c0.1982422-0.1206055,0.3446655-0.3101807,0.4050293-0.5255737  c0.0516968-0.223999,0.0172119-0.456665-0.0947876-0.6547852c-0.2670898-0.4567261-0.0775757-1.395813,0.68927-2.1627197  c0.7754517-0.7754517,1.7146606-0.9649658,2.1713257-0.697876c0.4049072,0.2412109,0.9391479,0.1033936,1.1804199-0.3016357  c0.5513916-0.9477539,0.9736328-1.9730835,1.2492676-3.0414429c0.0603638-0.2240601,0.0258789-0.456665-0.0861206-0.6548462  s-0.3015747-0.3360596-0.5255737-0.3963623c-0.5083618-0.1378174-1.0426025-0.921936-1.0426025-2.0247803  C48.5465698,19.1089478,49.0808105,18.3162231,49.5891724,18.1783447z M38.4915161,25.8242188  c-3.1064453,0-5.6320801-2.5256348-5.6320801-5.6185303c0-3.1064453,2.5256348-5.6322021,5.6320801-5.6322021  s5.6320801,2.5257568,5.6320801,5.6322021C44.1235962,23.298584,41.5979614,25.8242188,38.4915161,25.8242188z"></path></svg>