<?xml version="1.0" encoding="UTF-8" standalone="no"?>
<svg
   width="752pt"
   height="752pt"
   version="1.1"
   viewBox="0 0 752 752"
   id="svg18"
   sodipodi:docname="materialengineering.svg"
   inkscape:version="1.1 (c68e22c387, 2021-05-23)"
   xmlns:inkscape="http://www.inkscape.org/namespaces/inkscape"
   xmlns:sodipodi="http://sodipodi.sourceforge.net/DTD/sodipodi-0.dtd"
   xmlns="http://www.w3.org/2000/svg"
   xmlns:svg="http://www.w3.org/2000/svg">
  <defs
     id="defs22" />
  <sodipodi:namedview
     id="namedview20"
     pagecolor="#ffffff"
     bordercolor="#666666"
     borderopacity="1.0"
     inkscape:pageshadow="2"
     inkscape:pageopacity="0.0"
     inkscape:pagecheckerboard="0"
     inkscape:document-units="pt"
     showgrid="false"
     inkscape:zoom="0.82180851"
     inkscape:cx="501.94175"
     inkscape:cy="727.05502"
     inkscape:window-width="1920"
     inkscape:window-height="1009"
     inkscape:window-x="-8"
     inkscape:window-y="-8"
     inkscape:window-maximized="1"
     inkscape:current-layer="svg18" />
  <g
     id="g16"
     transform="matrix(1.5347363,0,0,1.5347363,-198.66571,-237.45567)">
    <path
       d="m 178.04,582.48 h -29.359 c 0.94531,-25.574 1.8945,-113.66 6.6289,-136.39 2.8398,-15.156 14.207,-24.625 22.73,-29.363 z"
       id="path6" />
    <path
       d="m 220.67,246.24 c 3.7891,-36.938 22.73,-67.25 49.254,-82.402 l 9.4727,48.305 c 0.94531,3.7891 3.7891,5.6836 6.6289,5.6836 4.7344,0 7.5781,-3.7891 6.6289,-8.5234 l -9.4727,-51.148 c 13.262,-3.7891 27.469,-3.7891 40.727,0 l -10.418,51.148 c -0.94531,3.7891 1.8945,7.5781 5.6836,8.5234 3.7891,0.94531 7.5781,-1.8945 8.5234,-5.6836 l 9.4727,-48.305 c 26.52,15.156 45.465,46.41 49.254,82.402 z"
       id="path8" />
    <path
       d="m 336.22,383.58 52.094,16.102 v 64.406 h -164.8 v -64.406 l 50.199,-16.102 c 9.4727,4.7344 18.941,8.5234 31.258,8.5234 11.367,0 20.836,-2.8398 31.254,-8.5234 z"
       id="path10" />
    <path
       d="m 215.93,268.02 c 0.94531,-2.8398 1.8945,-3.7891 3.7891,-3.7891 3.7891,1.8945 8.5234,0.94531 10.418,-2.8398 h 148.7 c 2.8398,6.6289 10.418,2.8398 11.367,2.8398 1.8945,0 5.6836,7.5781 3.7891,17.996 -1.8945,10.418 -7.5781,15.156 -9.4727,15.156 -10.418,-1.8945 -5.6836,9.4727 -17.996,27.469 -16.102,20.836 -21.785,43.57 -48.305,51.148 -48.305,15.156 -67.25,-41.676 -76.719,-51.148 -4.7344,-6.6289 -7.5781,-14.207 -9.4727,-22.73 -0.94531,-4.7344 -5.6836,-5.6836 -7.5781,-5.6836 -1.8906,0.94531 -13.258,-16.102 -8.5234,-28.418 z"
       id="path12" />
    <path
       d="M 192.25,582.48 V 410.1 l 17.047,-5.6836 v 67.25 c 0,3.7891 2.8398,7.5781 6.6289,7.5781 l 179.02,-0.004 c 0.94531,0 2.8398,0 3.7891,-0.94531 v 93.77 c 0,3.7891 0.94531,7.5781 1.8945,11.367 l -208.38,-0.004 z"
       id="path14" />
  </g>
  <g
     id="g14"
     transform="matrix(0,-1.3868576,1.212738,0,128.39022,955.65277)">
    <path
       d="m 169.52,383.58 c -15.156,0 -20.836,39.781 -20.836,54.934 v 6.6289 c 1.8945,28.414 12.312,48.305 20.836,48.305 h 277.52 c -8.5234,-12.312 -13.262,-32.203 -13.262,-54.934 0,-22.731 4.7344,-42.621 13.262,-54.934 z"
       id="path2" />
    <path
       d="m 469.77,383.58 c -8.5234,0 -20.836,21.785 -20.836,54.934 0,33.152 12.312,54.934 20.836,54.934 8.5234,0 20.836,-21.785 20.836,-54.934 0.004,-33.148 -12.312,-54.934 -20.836,-54.934 z"
       id="path4" />
    <path
       d="m 215.93,368.43 h 277.52 c -8.5234,-12.312 -13.262,-32.203 -13.262,-54.934 0,-22.73 4.7344,-42.621 13.262,-54.934 l -277.52,-0.004 c -14.207,0 -20.836,35.992 -20.836,54.934 v 6.6289 c 0.94531,28.418 11.367,48.309 20.836,48.309 z"
       id="path6-1" />
    <path
       d="m 515.23,368.43 c 8.5234,0 20.836,-21.785 20.836,-54.934 0,-33.152 -12.312,-54.934 -20.836,-54.934 -8.524,0 -20.836,21.785 -20.836,54.934 0,33.148 12.312,54.934 20.836,54.934 z"
       id="path8-0" />
    <path
       d="m 549.33,338.11 c -4.7344,26.52 -17.051,44.516 -32.203,45.465 h -0.94531 -23.68 c 8.5234,12.312 13.262,32.203 13.262,54.934 v 9.4727 h 55.883 c -8.5234,-12.312 -13.262,-32.203 -13.262,-54.934 0,-22.731 4.7344,-42.621 13.262,-54.934 z"
       id="path10-3" />
    <path
       d="m 582.48,338.11 c -8.5234,0 -20.836,21.785 -20.836,54.934 0,34.098 12.312,54.934 20.836,54.934 8.524,0 20.836,-21.785 20.836,-54.934 0,-34.094 -12.312,-54.934 -20.836,-54.934 z"
       id="path12-7" />
  </g>
</svg>
