<svg version="1.0" xmlns="http://www.w3.org/2000/svg"
 width="200.000000pt" height="200.000000pt" viewBox="0 0 200.000000 200.000000"
 preserveAspectRatio="xMidYMid meet">

<g transform="translate(0.000000,200.000000) scale(0.100000,-0.100000)"
fill="#e3e3e3" stroke="none">
<path d="M787 1756 c-100 -27 -177 -111 -197 -215 -6 -32 -10 -257 -10 -553
l0 -499 -24 -24 c-15 -15 -40 -26 -72 -30 -27 -3 -56 -7 -64 -8 -12 -2 -15
-20 -15 -97 l0 -95 86 -3 c113 -4 180 20 239 84 78 85 74 55 80 654 3 294 9
542 13 551 11 23 51 39 97 39 69 0 70 2 70 105 0 75 -3 94 -16 99 -27 10 -136
5 -187 -8z"/>
<path d="M1387 1756 c-100 -27 -177 -111 -197 -215 -6 -32 -10 -257 -10 -553
l0 -499 -24 -24 c-15 -15 -40 -26 -72 -30 -27 -3 -56 -7 -64 -8 -12 -2 -15
-20 -15 -97 l0 -95 86 -3 c113 -4 180 20 239 84 78 85 74 55 80 654 3 294 9
542 13 551 11 23 51 39 97 39 69 0 70 2 70 105 0 75 -3 94 -16 99 -27 10 -136
5 -187 -8z"/>
</g>
</svg>
