<?xml version="1.0" encoding="UTF-8"?>
<svg width="752pt" height="752pt" version="1.1" viewBox="130 120 502 502" xmlns="http://www.w3.org/2000/svg">
 <path d="m478.78 302.01c-6.7617 0.011719-13.504 0.70312-20.125 2.0703l-44.027-76.289h-0.003906c6.7812-14.402 6.5547-31.125-0.61328-45.336-7.168-14.215-20.48-24.336-36.094-27.441-15.609-3.1094-31.781 1.1406-43.848 11.523-12.066 10.383-18.68 25.742-17.934 41.645l-59.641 45.879c-5.6641-3.2031-12.227-4.4375-18.668-3.5156-6.4375 0.92578-12.391 3.9531-16.926 8.6211l-39.738 23.309h0.003907c-2.6055 1.5664-4.0039 4.543-3.5547 7.5469l9.0273 57.125c0.58203 3.5898 3.6875 6.2266 7.3281 6.2148 3.1406 0.015625 5.9414-1.9805 6.9531-4.957l12.137-34.41 17.242-7.1055v0.003906c4.832 2.2188 10.203 2.9922 15.465 2.2188-0.007813 5.3906 1.5039 10.676 4.3672 15.246l-4.6602 17.906-32.559 16.574h-0.003906c-3.0352 1.5156-4.6484 4.9023-3.9219 8.2148 0.78125 3.3125 3.6992 5.6836 7.1055 5.7734l57.793 1.4062-0.003907-0.003906c3.0273 0.070312 5.7852-1.7227 6.957-4.5117l17.609-42.18h0.003906c3.7344-4.5977 5.9883-10.219 6.4609-16.125 0.47656-5.9023-0.84766-11.812-3.7969-16.949l50.984-39.219c1.0352 0.29688 2.1445 0.59375 3.2578 0.8125-12.211 41.117 9.6133 84.613 35.148 103.89h-0.003906c-7.4805 17.531-9.625 36.879-6.1641 55.621 3.4609 18.746 12.375 36.051 25.625 49.754l-27.379 36.48c-3.3008 4.3711-5.5781 9.4258-6.6602 14.797h-45.137c-7.1875 0.039063-13.914 3.5508-18.055 9.4258-4.1445 5.875-5.1914 13.391-2.8125 20.176h-16.133c1.6953-29.922-46.098-29.91-44.398 0-5.8828 0.015625-11.52 2.3594-15.676 6.5195-4.1602 4.1602-6.5039 9.7969-6.5234 15.676v7.4023c0.019532 5.8828 2.3633 11.52 6.5234 15.676 4.1562 4.1602 9.793 6.5039 15.676 6.5234h236.79c5.8789-0.019531 11.516-2.3633 15.676-6.5234 4.1602-4.1562 6.5039-9.793 6.5234-15.676v-7.4023c-0.035156-6.0977-2.5586-11.918-6.9883-16.109-4.4297-4.1914-10.379-6.3906-16.469-6.0859 2.3281-6.7969 1.25-14.297-2.8984-20.16-4.1484-5.8633-10.863-9.3789-18.043-9.4414l16.723-22.273c126.22-7.375 124.45-187.37-1.9258-192.32zm0 140.59c-11.77-0.007813-23.059-4.6914-31.383-13.016-8.3242-8.3242-13.004-19.609-13.016-31.383 2.0703-58.766 86.738-58.75 88.797 0-0.007813 11.773-4.6875 23.059-13.012 31.383-8.3242 8.3242-19.613 13.008-31.387 13.016zm-34.703-134.08c-9.2617 3.5508-17.902 8.543-25.602 14.797l-38.695-67.117c9.7812-2.3516 18.676-7.4922 25.598-14.797zm-153.32-24.715c-5.7266-3.5352-12.5-4.9727-19.168-4.0703 0.003906-5.4023-1.4844-10.703-4.293-15.316l52.168-40.105v-0.003906c3.5586 9.4414 9.8438 17.605 18.059 23.457zm76.957 9.6953-0.003906-0.003906c-1.3164-9.1562-1.1133-18.473 0.60156-27.562l39.086 67.793h0.003906c-3.5742 4.0117-6.8242 8.3008-9.7227 12.828-15.953-13.582-26.574-32.383-29.969-53.059zm-44.324 245.3-0.003906-0.003907c0.066406-4.0586 3.3398-7.3359 7.4023-7.3984h45.211c1.0391 5.3828 3.3203 10.449 6.6602 14.801h-51.871c-4.082-0.015625-7.3867-3.3203-7.4023-7.4023zm140.59-7.3984v-0.003906c4.0391 0.066406 7.2812 3.3594 7.2812 7.3984 0 4.043-3.2422 7.3359-7.2812 7.4023h-22.199l11.098-14.801z"/>
</svg>
