<?xml version="1.0" encoding="UTF-8"?>
<svg width="752pt" height="752pt" version="1.1" viewBox="100 100 552 552" xmlns="http://www.w3.org/2000/svg">
 <defs>
  <clipPath id="c">
   <path d="m414 501h198.79v111.79h-198.79z"/>
  </clipPath>
  <clipPath id="b">
   <path d="m139.21 251h388.79v361.79h-388.79z"/>
  </clipPath>
  <clipPath id="a">
   <path d="m308 139.21h232v55.789h-232z"/>
  </clipPath>
 </defs>
 <path d="m266.39 508.73c0 12.77-10.355 23.125-23.125 23.125s-23.125-10.355-23.125-23.125c0-12.773 10.355-23.125 23.125-23.125s23.125 10.352 23.125 23.125"/>
 <g clip-path="url(#c)">
  <path d="m447.22 501.8h133.2c17.879 0 32.375 17.879 32.375 32.375v46.25c0 17.879-14.496 32.375-32.375 32.375h-133.2c-17.879 0-32.375-17.879-32.375-32.375v-46.25c0-17.879 14.496-32.375 32.375-32.375z"/>
 </g>
 <g clip-path="url(#b)">
  <path d="m423.64 445.38c28.984 0.011719 56.652-12.094 76.309-33.391v62.062h27.75v-132.73c0.007813-29.594-12.609-57.781-34.688-77.484v64.996c0 24.785-13.223 47.688-34.684 60.078-21.465 12.391-47.91 12.391-69.375 0-21.461-12.391-34.684-35.293-34.684-60.078v-64.996c-22.078 19.703-34.695 47.891-34.688 77.484v96.75c-19.664-21.285-47.328-33.391-76.309-33.391s-56.645 12.105-76.309 33.391v-173.06c0-7.6641-6.2148-13.875-13.875-13.875-7.6641 0-13.875 6.2109-13.875 13.875v243.73c0 37.176 19.832 71.527 52.027 90.117 32.199 18.586 71.863 18.586 104.06 0 32.199-18.59 52.031-52.941 52.031-90.117v-96.75c19.656 21.297 47.324 33.402 76.309 33.391zm-180.37 114.23v-0.003906c-13.492 0-26.434-5.3594-35.973-14.898-9.5391-9.543-14.902-22.48-14.902-35.973s5.3633-26.434 14.902-35.973c9.5391-9.543 22.48-14.902 35.973-14.902 13.492 0 26.434 5.3594 35.973 14.902 9.5391 9.5391 14.898 22.48 14.898 35.973-0.011719 13.488-5.3789 26.418-14.914 35.957-9.5391 9.5352-22.469 14.902-35.957 14.914z"/>
 </g>
 <g clip-path="url(#a)">
  <path d="m327.19 194.71h192.89l17.715-35.418v0.003907c2.1523-4.3008 1.9219-9.4102-0.60938-13.504-2.5273-4.0898-6.9961-6.5781-11.805-6.5781h-203.49c-4.8086 0-9.2773 2.4883-11.805 6.5781-2.5312 4.0938-2.7578 9.2031-0.60938 13.504z"/>
 </g>
 <path d="m423.64 370.45c11.035-0.015625 21.617-4.4023 29.418-12.207 7.8047-7.8008 12.195-18.383 12.207-29.418v-106.37h-83.246v106.37c0.011719 11.035 4.3984 21.617 12.203 29.418 7.8047 7.8047 18.383 12.191 29.418 12.207z"/>
</svg>
