<?xml version="1.0" encoding="UTF-8"?>
<svg width="752pt" height="752pt" version="1.1" viewBox="145 100 452 452" xmlns="http://www.w3.org/2000/svg">
 <path d="m597.61 387.6-21.379-57.641c-0.69141-1.8438-2.207-3.25-4.1094-3.7812l-16.328-4.5586-16.867-39.371c-0.050782-0.11719-0.16797-0.18359-0.22266-0.29688-0.070312-0.14453-0.074219-0.30469-0.15625-0.44531-0.26172-0.43359-0.64062-0.73047-0.98047-1.0742-0.19141-0.19531-0.32812-0.42578-0.54297-0.59375-0.71484-0.55469-1.5234-0.94531-2.3906-1.1367-0.035157-0.007813-0.0625-0.039063-0.097657-0.046875l-106.08-22.051-20.777-13.777c-0.0625-0.039063-0.13672-0.050781-0.19922-0.089844-0.039063-0.023437-0.0625-0.066406-0.10156-0.089844-0.12891-0.074219-0.27344-0.074219-0.40625-0.14062-0.35547-0.17578-0.69922-0.38672-1.0859-0.49219l-108.48-29.418c-2.6172-0.69922-5.3711 0.375-6.8047 2.6641l-133.31 212c-0.078125 0.12109-0.058594 0.28125-0.12891 0.41016-0.11719 0.21484-0.29687 0.37109-0.39062 0.60547-0.19922 0.50391-0.21094 1.0195-0.27344 1.5312-0.019531 0.16406-0.14062 0.30078-0.14453 0.46875l-2.3398 56.148c-0.11328 2.6719 1.5078 5.1016 4.0117 6.0156l127.11 46.793c0.69141 0.25391 1.3984 0.38672 2.1055 0.38672 0.003906 0 0.003906 0.003906 0.007812 0.003906h0.003906 0.003906 0.007813c0.49609 0 0.99609-0.058594 1.4922-0.19141 0.34375-0.085938 0.60547-0.30078 0.91797-0.4375 0.28906-0.12891 0.5625-0.22656 0.83203-0.39844 0.82031-0.52344 1.5391-1.1602 2.0273-1.9766l36.195-60.461 105.62 34.609c0.003906 0 0.003906 0 0.007812 0.003906l0.30078 0.097657c0.60156 0.20312 1.2266 0.29687 1.8516 0.30469 0.019531 0 0.035156 0.011719 0.054687 0.011719h0.003907c0.21484 0 0.4375-0.015625 0.65234-0.042969 1.0352-0.10938 1.9336-0.53516 2.7422-1.082 0.082031-0.054688 0.1875-0.03125 0.26562-0.089844l155.27-115.29c2.1953-1.6367 3.0547-4.5156 2.1094-7.082zm-84.031 35.934-21.23-21.137 15.941-12.402zm-223.98 94.066-10.793-42.832 127.5-218.1 16.223 10.758c0.011718 0.007813 0.019531 0.015625 0.03125 0.019531l12.012 7.9648-21.938 36.648c-0.019531 0.03125-0.039062 0.0625-0.058594 0.09375zm131.45-195.65 43.586 6.2891 10.84 65.309-84.434-21.473zm47.621-5.5508-40.777-5.8828 20.246-33.82c0.61719-1.0312 0.78906-2.1641 0.76563-3.2812l67.777 14.09zm-84.219 66.68 80.227 20.402-37.109 16.98-57.5-13.355zm50.355 47.59 46.957-21.484 31.438 31.305-71.645 53.199zm52.645-40.035-10.746-64.719 53.707-32.332 20.453 47.73zm-188.86-164.99 96.34 26.137-125.34 214.4-97.953-38.652zm-130.32 213.77 98.781 38.98 11.41 45.281-111.98-41.215zm195.16-21.23 59.137 13.734 6.8867 64.309-94.254-30.883zm163.64 12-7.6953-48.812 42.77-33.273c2.207-1.7188 2.9844-4.7031 1.875-7.2773l-2.0156-4.707 3.8008 1.0625 18.68 50.379z"/>
</svg>
