<?xml version="1.0" encoding="UTF-8"?>
<svg width="752pt" height="752pt" version="1.1" viewBox="100 100 552 552" xmlns="http://www.w3.org/2000/svg">
 <path d="m585.8 480.66c-13.734-31.73-65.355-39.781-115.08-17.996-49.723 21.785-79.086 64.879-65.352 96.137 13.734 31.254 65.355 39.781 115.08 17.996 49.723-21.785 79.086-64.406 65.352-96.137zm-28.414 23.68c-3.3164 13.734-19.891 33.625-48.305 45.938-13.262 6.1562-26.992 8.9961-41.676 9.4727-8.5234 0-17.523-1.8945-25.102-5.6836-3.3164-1.8945-4.7344-5.6836-2.8398-8.9961 1.8945-3.3164 5.6836-4.7344 8.9961-2.8398 0 0 0.47266 0 0.47266 0.47266 7.5781 4.2617 28.887 6.6289 54.934-4.2617 26.047-10.891 38.832-28.414 40.727-36.938 1.4219-3.3164 5.2109-5.2109 8.5234-4.2617 2.8477 0.9375 4.7422 3.7812 4.2695 7.0977zm-277.99-115.08c-49.727-20.363-100.4-11.367-113.66 19.891-13.262 31.258 16.574 73.879 66.301 94.242s100.4 11.367 113.66-19.891c13.262-31.258-16.574-73.879-66.301-94.242zm30.309 90.453c-8.0508 4.2617-17.051 6.1562-26.52 5.6836-13.734 0-27.469-3.3164-39.781-8.5234-28.887-11.84-45.465-31.258-48.777-44.988-2.3672-8.0508 0-17.051 6.1562-22.73 10.418-8.9961 29.363-8.5234 51.621 0.94531 3.3164 1.8945 4.2617 5.6836 2.8398 8.9961-1.4219 2.8398-4.7344 4.2617-8.0508 3.3164-20.363-8.5234-33.152-7.1055-37.887-3.3164-2.8398 2.3672-3.3164 6.1562-2.3672 9.4727 1.8945 8.5234 14.68 25.102 41.203 35.992 26.52 10.891 46.883 8.0508 54.461 3.3164 2.8398-1.8945 7.1055-1.4219 9.4727 1.8945 1.8906 3.3125 0.94531 7.5742-2.3711 9.9414 0.47266-0.47266 0 0 0 0zm-62.512-251.47c0-14.68 11.84-26.52 26.52-26.52 14.68 0 26.52 11.84 26.52 26.52 0 14.68-11.84 26.52-26.52 26.52-14.68 0-26.52-12.312-26.52-26.52zm277.99-21.785c-5.2109-4.2617-11.84-7.1055-18.469-7.1055v-13.262c22.73 0 41.203 18.469 41.676 41.203h-13.262c-0.47266-8.0508-3.7891-15.629-9.9453-20.836zm33.152 20.836h13.262c-0.47656-35.52-29.367-64.406-64.883-64.406v13.262c28.414-0.003906 51.145 22.73 51.621 51.145zm-89.98 35.047h-0.94531c-5.2109 0-9.4727 4.7344-8.9961 9.9453 0 5.2109 4.7344 9.4727 9.9453 8.9961 5.2109-0.47266 9.4727-4.7344 8.9961-9.9453-0.003906-4.7344-3.793-8.9961-9-8.9961zm-27.941 130.71 27.941-32.203 0.47266 0.47266c5.6836 4.7344 6.1562 13.262 1.4219 18.469l-10.891 12.312c-8.0508-1.4219-15.156 3.7891-16.574 11.84-1.4219 8.0508 3.7891 15.156 11.84 16.574 8.0508 1.4219 15.156-3.7891 16.574-11.84 0.47266-2.8398 0-6.1562-1.4219-8.5234l9.9453-11.84c9.4727-10.891 8.5234-27.941-2.8398-37.414l-87.145-74.824c-10.891-9.4727-27.941-8.5234-37.414 2.8398l-10.418 11.844c-8.0508-1.4219-15.629 3.7891-17.051 11.84-1.4219 8.0508 3.7891 15.629 11.84 17.051 8.0508 1.4219 15.629-3.7891 17.051-11.84 0.47266-2.8398 0-6.1562-0.94531-8.5234l9.9453-11.84c4.7344-5.2109 12.785-5.6836 18.469-1.4219l0.47266 0.47266-27.469 31.73c-16.574 18.941-14.207 47.832 4.7344 63.934l17.523 15.629c18.473 16.574 46.887 14.203 63.938-4.7383-0.47656 0-0.47656 0 0 0zm44.988-52.094-86.664-74.828 20.363-23.68c16.574-18.941 44.988-21.312 63.934-4.7344l3.3164 2.8398 8.5234-9.9453c-1.4219-6.1562 1.8945-12.785 8.5234-14.207 6.1562-1.4219 12.785 1.8945 14.207 8.5234 1.4219 6.1562-1.8945 12.785-8.5234 14.207-1.4219 0.47266-2.8398 0.47266-4.2617 0.47266l-8.5234 9.9453 4.2617 3.7891c18.941 16.574 21.312 44.988 4.7344 63.934zm0-53.988c8.0508-9.4727 7.1055-24.152-2.3672-32.203s-24.152-7.1055-32.203 2.3672c-8.0508 9.4727-7.1055 24.152 2.3672 32.203 4.2617 3.7891 9.4727 5.6836 15.156 5.6836 6.6289 0 12.785-2.8438 17.047-8.0508z"/>
</svg>
