<?xml version="1.0" encoding="UTF-8"?>
<svg width="700pt" height="700pt" version="1.1" viewBox="0 -100 670 670" xmlns="http://www.w3.org/2000/svg" xmlns:xlink="http://www.w3.org/1999/xlink">
  <path d="m579.6 129.36c-6.7188-11.199-20.719-11.762-34.16-12.32-7.2812 0-15.121-0.55859-21.281-2.2383-21.84-6.1602-80.641-44.801-96.32-63.84-1.6797-1.6797-2.8008-3.9219-4.4805-5.6016-6.1602-8.3984-14-19.039-26.32-24.078-14.559-6.1602-31.922-7.2812-40.879-7.2812-9.5195 0-17.359 7.2812-18.48 16.801-1.6797 16.801-6.7188 35.84-18.48 40.32-13.441 5.0391-21.281 12.32-27.441 17.359-6.7188 6.1602-8.9609 7.2812-14 6.7188-1.6797-0.55859-5.6016-4.4805-7.8398-6.7188-3.3594-3.3594-6.7188-7.2812-11.199-9.5195-7.2812-3.9219-16.801-3.9219-28.559 0.55859-8.3984 3.3594-12.879 11.199-11.762 20.16 1.1211 6.7188 2.8008 17.359 5.6016 28.559-9.5195-0.55859-19.602-2.2383-25.199-8.9609-10.641-12.32-33.602-11.199-67.762 1.6797-8.9609 3.3594-15.121 12.879-14.559 22.961 1.6797 20.719 9.5195 35.281 23.52 39.762 25.762 8.9609 45.359 31.359 58.801 51.52 13.441 20.16 20.16 38.078 20.16 38.078 7.8398 28 1.1211 75.602-20.16 141.12-3.3594 10.078 0.55859 21.281 8.9609 27.441 20.16 14.559 43.68 21.281 63.281 24.078 0-0.55859 0.55859-0.55859 0.55859-1.1211-5.0391-5.6016-8.3984-12.32-8.3984-20.719v-3.9219c-14-2.8008-29.121-8.3984-42.559-18.48 22.961-71.121 29.68-121.52 20.16-156.24-1.1211-3.3594-31.922-82.879-93.52-104.72-3.9219-1.1211-6.7188-8.3984-7.8398-18.48 25.199-9.5195 38.641-8.9609 40.879-7.8398 16.238 17.922 43.121 17.359 59.359 16.801 3.9219 0 7.2812-2.2383 9.5195-5.0391 2.2383-3.3594 2.8008-7.2812 1.1211-10.641-4.4805-11.762-7.2812-26.32-8.9609-35.281 2.8008-0.55859 3.9219-1.1211 4.4805-0.55859 1.6797 0.55859 3.9219 3.3594 6.1602 5.6016 5.6016 5.6016 12.32 12.879 21.84 13.441 15.68 1.6797 24.641-6.1602 31.922-12.879 5.6016-4.4805 10.641-9.5195 20.16-13.441 22.961-8.9609 30.238-36.398 32.48-54.879 7.8398 0.55859 17.922 1.6797 26.879 5.6016 6.7188 2.8008 11.762 10.078 16.801 16.801 1.6797 2.2383 3.3594 4.4805 5.0391 6.7188 21.273 22.395 84.555 64.395 110.88 71.676 8.9609 2.2383 18.48 2.8008 26.32 2.8008 4.4805 0 10.641 0.55859 14 1.1211-0.55859 1.1211-1.1211 2.8008-2.2383 5.0391-7.8398 15.68-10.641 31.359-12.32 43.68-1.6797 10.078-2.8008 19.039-6.7188 20.719-15.68 7.8398-52.641 39.762-50.961 64.398 0 3.3594 1.6797 6.1602 4.4805 8.3984 2.2383 2.2383 6.1602 2.8008 8.9609 2.2383 2.2383-0.55859 4.4805-0.55859 6.7188-1.1211 2.2383-0.55859 6.1602-1.1211 6.7188-1.1211 0 0 2.2383 1.6797 4.4805 11.199 4.4805 19.039 6.7188 32.48 3.9219 36.398-7.8398 9.5195-11.199 38.641-4.4805 54.879 5.0391 12.32 13.441 15.121 18.48 15.68 1.6797 0 2.8008 0.55859 3.9219 1.1211-1.1211 1.6797-3.3594 5.0391-10.641 10.078-6.1602 4.4805-10.641 8.3984-14.559 12.32-10.078 8.9609-13.441 12.32-25.199 6.7188v11.199c0 4.4805-1.1211 8.9609-2.8008 12.879 20.16 6.1602 30.801-1.6797 44.238-13.441 3.9219-3.3594 7.8398-6.7188 12.32-10.641 20.16-14.559 22.398-27.441 20.16-35.281-2.2383-9.5195-10.641-16.238-23.52-18.48-3.9219-5.0391-2.8008-27.441 0.55859-33.039 9.5195-12.879 6.7188-29.68 0.55859-56-5.0391-21.84-14.559-28-24.641-29.121 7.8398-10.641 20.719-22.961 31.359-28.559 14.559-7.2812 16.801-22.961 19.602-38.078 1.6797-11.199 3.9219-24.078 10.078-36.398 2.8008-4.4648 9.5195-17.906 2.8008-28.547z"/>
  <path d="m447.44 449.68h12.32c3.3594 0 6.1602-2.8008 6.1602-6.1602v-17.359c0-3.3594-2.8008-6.1602-6.1602-6.1602h-165.2c-3.3594 0-6.1602 2.8008-6.1602 6.1602v17.359c0 3.3594 2.8008 6.1602 6.1602 6.1602h12.32c-17.922 39.199-45.359 76.16-56.559 90.16-1.6797 2.2383 0 6.1602 2.8008 6.1602h56c1.6797 0 3.3594-1.6797 3.3594-3.3594 2.8008-33.039 30.238-61.602 63.84-61.602 33.602 0 61.602 28.559 63.84 61.602 0 1.6797 1.6797 3.3594 3.3594 3.3594h56c3.3594 0 5.0391-3.3594 2.8008-6.1602-9.5195-14-36.961-50.961-54.879-90.16z"/>
  <path d="m323.68 328.72v17.359c0 3.3594 2.8008 6.1602 6.1602 6.1602h11.762c-5.0391 18.48-10.078 35.281-15.68 50.398h34.16l8.9609-50.398h16.238l8.9609 50.398 34.156 0.003906c-5.6016-15.68-10.641-32.48-15.68-50.398h11.762c3.3594 0 6.1602-2.8008 6.1602-6.1602v-17.359c0-3.3594-2.8008-6.1602-6.1602-6.1602l-94.641-0.003906c-3.3594 0.5625-6.1602 3.3633-6.1602 6.1602z"/>
  <path d="m376.88 158.48c-5.0391 0-8.9609 3.9219-8.9609 8.9609v20.719h-3.9219c-6.7188 0-12.32 5.6016-12.32 12.32v24.078c0 6.1602 4.4805 10.641 10.078 11.762-2.2383 24.078-5.6016 47.039-9.5195 68.32h49.84c-3.9219-21.281-7.2812-44.238-9.5195-68.32 5.6016-1.1211 10.078-5.6016 10.078-11.762v-24.078c0-6.7188-5.6016-12.32-12.32-12.32h-3.9219l0.007813-20.16c-0.55859-5.0391-4.4766-9.5195-9.5195-9.5195z"/>
</svg>
