<svg height='300px' width='300px'  fill="#000000" xmlns="http://www.w3.org/2000/svg" xmlns:xlink="http://www.w3.org/1999/xlink" version="1.1" x="0px" y="0px" viewBox="0 0 100 100" enable-background="new 0 0 100 100" xml:space="preserve"><path d="M78.584,16.987c-0.268-1.747-2.081-3.76-4.565-3.828c-4.162-1.879-6.043,1.88-6.444,2.62  c-0.403,0.737-0.672,1.341-2.618,2.55c0,0-1.343-1.277-3.627-2.752c-3.624-5.105-6.981-5.438-9.802-5.774  c0,0-4.295-1.543-7.316-2.015c-0.941-0.402-1.813-1.074-4.834-1.543c-0.671-0.606-1.275-1.076-7.049-1.949  C27.023-2.751,20.243,0.74,19.236,1.813c-1.342-0.336-1.544,0.269-1.611,1.14c0,0-0.939,0.27-1.276,0.942  c-0.738,0.068-0.873,0.871-0.671,1.611c-0.269,0.538,0.067,1.275,0.47,1.679c0,5.974,3.893,9.264,8.66,9.264  s7.183-3.355,7.788-5.371c0,0,3.357,0.538,6.311,1.007c2.819,2.619,8.594,3.894,11.949,5.103  c-8.728,5.707-10.741,13.695-11.749,17.523c0,0-2.081,2.752-3.759,7.317c-1.678,4.565,0.805,6.984,3.356,9.196  c-2.147,0.202-1.678,1.479-0.739,2.687c0.941,1.209,0.672,3.091-1.074,4.97c-1.611-0.066-1.745,1.676-1.745,2.348  c0,0.671,1.142,0.941,1.611,2.888c0.47,1.947-2.484,6.646-3.29,9.467c-0.738,0.671-1.141,2.886-1.208,5.103  c-1.208,0.874-1.41,5.974-0.94,8.459c-0.739,0.267-1.476,2.418-1.544,3.625l-7.653,1.409v6.044l42.229,0.269l11.277-1.142v-5.373  c0,0-8.257-0.601-12.956-0.737c0-0.403-0.066-0.939-1.142-1.274c-1.074-0.336-3.424-1.543-6.177-3.089c0,0-0.067-2.148,0.067-3.762  c0.135-1.611,1.947-6.242,3.76-11.544c0,0,2.686-1.613,4.029-2.755c1.342-1.141,0.938-2.819,0.872-3.76  c0.671-0.535,0.806-1.878,1.141-2.954c0.336-1.075,1.342-2.752,3.29-5.974c1.947-3.224,2.887-7.453,1.745-10.206  c0,0,0.404-2.015,0.471-6.646c1.679-5.171,0.738-8.595-0.537-9.468c0,0-0.673-1.745-1.544-2.886c1.073,0,1.342-0.805,1.678-0.805  c0.337,0,0.939-0.066,1.276-0.404c0,0,0.336,0.404,0.672,0.404c0.334,0,1.006-0.874,1.744-1.747  c1.074,0.202,1.679-0.536,2.484-1.341C79.055,23.029,78.853,18.732,78.584,16.987z M50.898,86.979  c-0.058,0.173-1.039,1.907-1.618,3.812c0,0-1.271-0.286-2.426-0.286c0,0,0.116-4.45,0.304-5.2c0.188-0.751,0.101-1.33-0.593-2.111  c-0.693-0.779-0.058-2.858,0.593-5.284c0,0,1.372-1.098,4.088-2.314C51.246,77.966,50.841,81.548,50.898,86.979z M54.236,66.21  c-0.763,0.165-1.416,0.438-1.416,0.438c0-2.125,0-3.922,0-3.922c1.035,0.764,2.287,2.015,2.287,2.015  C54.618,65.504,54.236,66.21,54.236,66.21z M64.478,50.25c-0.599,1.905-0.488,4.847-0.488,6.374c-0.328,1.58-0.764,2.015-1.744,2.07  c-2.452-3.323-6.7-10.134-10.134-13.838c0.6-2.669,1.961-4.631,2.615-5.83c3.27-0.492,6.429-2.94,7.735-4.139  c1.255,0.272,2.561,1.034,2.561,1.034c-0.326,2.833-0.216,8.226,0,9.914C65.24,47.524,65.077,48.341,64.478,50.25z"></path></svg>