<?xml version="1.0" standalone="no"?>
<!DOCTYPE svg PUBLIC "-//W3C//DTD SVG 20010904//EN"
 "http://www.w3.org/TR/2001/REC-SVG-20010904/DTD/svg10.dtd">
<svg version="1.0" xmlns="http://www.w3.org/2000/svg"
 width="1033.000000pt" height="1033.000000pt" viewBox="0 0 1033.000000 1033.000000"
 preserveAspectRatio="xMidYMid meet">

<g transform="translate(0.000000,1033.000000) scale(0.100000,-0.100000)"
fill="#000000" stroke="none">
<path d="M4075 9066 c-122 -23 -190 -70 -307 -213 -64 -78 -77 -84 -131 -57
-46 24 -75 20 -163 -24 -106 -53 -173 -72 -258 -72 -209 0 -262 -75 -268 -375
-3 -110 0 -135 14 -157 24 -37 53 -43 100 -22 46 21 46 21 79 -66 60 -158 92
-444 62 -553 -8 -31 -40 -40 -96 -26 -104 24 -156 55 -262 157 -108 105 -168
142 -229 142 -50 0 -89 -22 -166 -93 -36 -32 -102 -86 -146 -118 -71 -52 -85
-67 -108 -119 -38 -84 -54 -170 -67 -355 -12 -180 -5 -438 17 -582 17 -114 63
-256 110 -341 37 -66 74 -163 74 -193 0 -28 -34 -45 -158 -79 -128 -34 -201
-68 -230 -105 -12 -15 -25 -55 -32 -98 -18 -116 -48 -226 -71 -263 -24 -40
-84 -74 -129 -74 -44 0 -92 22 -140 66 l-42 38 33 15 c67 32 61 106 -11 135
-160 64 -335 61 -425 -8 -43 -33 -91 -130 -111 -226 -18 -87 -46 -155 -77
-188 -12 -13 -52 -39 -90 -58 -138 -70 -187 -148 -172 -272 l7 -56 -24 17
c-98 71 -182 91 -313 75 -94 -12 -135 -35 -135 -75 0 -10 32 -70 70 -133 117
-191 132 -277 69 -397 -36 -68 -199 -288 -240 -323 -19 -16 -32 -38 -35 -62
-6 -35 -3 -40 54 -95 33 -32 147 -155 252 -273 106 -118 200 -221 208 -227 28
-23 59 -15 89 22 l29 35 37 -76 c55 -111 71 -113 257 -19 39 20 75 33 80 30 5
-3 70 -84 145 -180 75 -96 147 -183 161 -192 24 -15 29 -15 72 0 89 32 98 28
182 -80 110 -142 195 -273 219 -337 25 -68 28 -191 10 -441 -11 -142 -10 -164
4 -198 10 -22 26 -41 42 -47 28 -11 58 -1 260 84 l109 47 98 -68 c149 -103
125 -99 279 -52 l134 41 200 2 c162 2 215 7 277 23 l77 20 58 -48 c69 -58 131
-76 190 -56 53 17 78 67 63 128 -5 24 -12 57 -15 72 -3 16 -16 37 -28 48 -12
10 -51 45 -87 78 -36 32 -80 66 -97 75 -47 24 -115 30 -170 16 -58 -15 -181
-27 -408 -39 -124 -7 -188 -15 -238 -31 l-67 -21 -33 24 c-17 14 -72 46 -122
72 -87 46 -92 47 -157 42 l-68 -4 0 78 c0 101 -13 161 -62 278 -54 129 -80
179 -123 236 -21 26 -42 62 -47 79 -6 17 -43 65 -82 106 -40 41 -94 102 -121
134 -64 77 -112 99 -208 94 -82 -3 -73 -12 -154 150 -26 50 -60 108 -76 127
-35 43 -94 75 -139 76 -39 0 -195 -17 -223 -25 -16 -5 -24 3 -44 43 -13 28
-35 61 -50 74 -47 44 -127 58 -200 37 -42 -12 -81 9 -138 74 -75 85 -75 83 0
184 37 49 81 120 99 158 30 62 33 80 38 184 l5 115 65 1 c76 1 123 19 178 68
51 46 80 115 93 218 5 45 12 85 15 89 2 4 25 17 51 30 59 29 176 149 207 214
14 28 28 74 31 103 7 50 24 68 40 42 15 -24 186 -100 250 -111 101 -17 223 -6
328 30 109 37 133 55 196 139 49 65 74 120 105 232 l15 55 73 24 c164 53 286
140 334 237 22 45 27 71 28 132 1 71 -2 82 -35 142 -20 36 -42 83 -49 105 -7
22 -28 71 -47 109 -42 84 -75 245 -79 391 -2 55 -6 141 -10 190 -8 123 12 326
38 388 21 47 90 119 136 140 21 10 27 7 58 -30 33 -40 197 -149 270 -179 50
-21 184 -28 278 -15 100 14 172 47 226 102 90 93 108 178 86 404 -8 84 -24
180 -36 218 -12 38 -27 110 -35 160 -10 66 -23 109 -49 158 -39 76 -39 78 41
118 24 12 50 33 60 47 l17 26 128 -7 c125 -7 129 -7 182 19 68 33 166 136 206
217 35 69 53 79 140 79 72 0 87 -13 124 -106 26 -64 44 -158 66 -349 8 -68 26
-144 57 -235 85 -251 140 -358 194 -375 11 -4 19 -21 24 -51 12 -79 115 -164
200 -164 25 0 37 -5 41 -17 14 -44 52 -122 86 -175 88 -136 292 -176 515 -99
109 37 148 39 207 7 75 -40 272 -76 412 -76 104 0 285 43 365 86 75 41 237
214 277 297 18 37 35 67 38 67 3 0 24 -15 45 -34 62 -53 175 -105 267 -123
l82 -16 0 -40 c0 -22 17 -99 37 -170 35 -123 40 -133 90 -187 59 -64 141 -112
231 -135 50 -13 73 -14 124 -5 59 11 201 43 241 56 13 4 17 -1 17 -21 0 -15
15 -52 34 -83 19 -32 39 -80 44 -107 6 -36 25 -75 66 -135 52 -76 58 -88 53
-123 -3 -22 -10 -44 -15 -49 -5 -5 -56 -14 -114 -19 -114 -10 -200 -35 -250
-72 -18 -14 -53 -35 -76 -47 -115 -57 -176 -153 -176 -280 0 -92 14 -143 57
-207 36 -52 97 -88 254 -151 45 -18 96 -46 113 -62 28 -26 30 -33 30 -96 0
-106 39 -172 116 -199 l37 -13 28 -111 c38 -151 81 -255 135 -324 47 -61 47
-62 -21 -70 -22 -3 -76 -22 -120 -43 -70 -34 -82 -44 -103 -85 -32 -64 -62
-183 -62 -249 0 -112 81 -223 180 -250 20 -5 83 -16 140 -24 361 -50 410 -64
513 -144 81 -62 91 -74 116 -151 60 -183 93 -205 332 -227 252 -23 347 -57
401 -145 19 -32 43 -56 63 -65 17 -7 86 -65 152 -128 132 -126 154 -162 172
-277 18 -106 14 -159 -11 -187 -20 -21 -24 -37 -28 -136 -5 -107 -7 -116 -47
-197 -23 -47 -52 -98 -64 -114 -44 -55 -234 -125 -341 -125 -62 0 -130 -26
-215 -83 -37 -25 -99 -62 -138 -82 -38 -21 -85 -49 -103 -63 -47 -36 -111
-128 -124 -179 -10 -41 -12 -43 -47 -42 -39 0 -77 7 -221 37 -52 11 -130 25
-172 31 -151 21 -216 41 -281 85 -202 138 -481 208 -593 149 -23 -12 -100 -40
-171 -62 -173 -54 -188 -65 -242 -176 -54 -112 -59 -162 -18 -202 37 -38 95
-38 134 -1 32 30 87 58 228 118 l100 43 100 -6 c114 -5 152 -18 226 -77 140
-111 313 -159 839 -234 373 -52 390 -48 390 95 0 118 29 174 115 224 22 13
128 53 235 90 459 156 557 248 702 662 46 132 52 159 56 249 3 81 0 116 -17
179 -79 285 -325 635 -552 781 -128 83 -287 136 -497 164 -53 8 -92 18 -92 24
0 6 -14 40 -30 75 -37 77 -137 184 -232 247 -150 100 -287 145 -500 166 l-126
12 19 38 c22 44 51 58 115 58 86 0 147 44 197 144 l28 54 -21 63 c-33 98 -67
156 -129 223 -32 35 -64 80 -71 101 -15 45 -9 144 19 294 34 188 5 226 -142
188 l-56 -15 -26 54 c-30 62 -81 109 -180 167 -234 136 -275 162 -275 171 0 6
21 24 47 40 42 25 68 31 203 46 199 23 285 43 351 83 91 54 133 142 157 324
13 97 1 119 -88 165 -118 62 -137 85 -160 202 -23 114 -44 165 -100 244 -22
32 -40 67 -40 79 0 28 -51 70 -103 84 -62 17 -137 6 -275 -40 -185 -61 -216
-55 -246 51 -18 62 -36 208 -36 294 0 72 -15 121 -40 134 -10 6 -40 10 -66 10
-26 0 -99 5 -161 11 l-113 12 -42 66 c-61 93 -134 164 -191 186 -99 38 -167
-13 -297 -220 -95 -154 -153 -216 -244 -260 -87 -42 -227 -79 -273 -72 -18 3
-73 24 -121 46 -119 55 -160 62 -362 64 l-175 2 -78 -33 c-43 -17 -82 -30 -87
-27 -12 7 -65 159 -85 245 -35 146 -57 161 -166 112 l-69 -31 2 57 c3 89 -9
103 -100 117 -38 6 -46 12 -59 44 -9 20 -24 86 -34 146 -9 61 -29 184 -44 274
-41 254 -92 391 -199 529 -75 98 -72 97 -205 99 -64 1 -147 -4 -186 -11z"/>
<path d="M5209 6747 c-4 -38 -12 -74 -18 -80 -14 -14 -14 -50 0 -64 7 -7 7
-134 -2 -429 -12 -417 -12 -419 -35 -447 -29 -35 -30 -66 -4 -100 11 -14 20
-29 20 -34 0 -5 -20 -29 -45 -53 l-45 -44 0 -223 0 -223 -25 0 -25 0 0 -255 0
-255 -40 0 -39 0 -3 63 c-3 62 -3 62 -33 62 -30 0 -30 0 -33 -62 -4 -77 -22
-84 -48 -17 l-17 46 -17 -44 c-24 -65 -44 -57 -48 20 l-3 63 -32 -3 c-32 -3
-32 -3 -35 -65 -2 -47 -7 -63 -17 -63 -13 0 -15 -37 -15 -245 0 -157 -4 -245
-10 -245 -5 0 -10 -24 -10 -54 0 -30 5 -58 10 -61 6 -4 10 -134 10 -358 -1
-371 -3 -387 -46 -387 -33 0 -43 14 -46 65 -3 50 -3 50 -40 53 l-38 3 0 -56
c0 -48 -3 -56 -17 -53 -14 2 -19 15 -21 56 -3 52 -3 52 -37 52 l-34 0 -3 -57
c-3 -50 -6 -58 -24 -61 -16 -2 -23 -12 -28 -40 -3 -20 -6 -277 -6 -569 l0
-533 -210 0 -210 0 0 -440 0 -440 1320 0 1320 0 5 23 c3 12 4 204 3 427 l-3
405 -220 5 -220 5 -3 579 c-2 484 -5 582 -16 595 -8 9 -16 34 -18 56 -3 38 -5
40 -40 43 l-38 3 0 -46 c0 -39 -3 -46 -17 -43 -13 2 -19 15 -21 46 -3 41 -4
42 -38 42 -34 0 -34 0 -34 -45 l0 -45 -44 0 c-73 0 -76 17 -76 396 0 307 1
316 20 321 17 4 20 14 20 58 0 46 -3 53 -22 58 -21 6 -21 6 -15 241 4 146 3
238 -3 241 -6 4 -10 33 -10 66 l0 60 -32 -3 c-33 -3 -33 -4 -36 -60 -4 -70
-24 -78 -49 -20 l-16 37 -15 -37 c-10 -25 -21 -38 -33 -38 -16 0 -19 8 -19 60
0 60 0 60 -30 60 -28 0 -29 -1 -32 -57 l-3 -58 -42 -3 -43 -3 0 255 0 255 -22
3 c-23 3 -23 3 -26 228 l-2 225 -46 46 -46 47 21 21 c28 28 27 73 -3 108 l-23
28 -10 420 c-9 353 -8 423 3 436 18 20 18 34 -1 49 -9 8 -15 36 -17 83 l-3 72
-6 -68z m396 -2527 l0 -165 -402 -3 -403 -2 0 170 0 170 403 -2 402 -3 0 -165z
m5 -639 c0 -299 -2 -360 -14 -364 -21 -8 -26 2 -26 50 l0 44 -37 -3 c-37 -3
-38 -4 -43 -48 -4 -40 -8 -45 -32 -48 -25 -3 -28 -7 -29 -45 0 -23 0 -199 0
-392 0 -192 -2 -358 -5 -367 -5 -16 -23 -18 -200 -18 l-194 0 0 354 c0 194 -3
374 -6 399 -7 46 -7 46 -48 49 l-41 3 -3 58 -3 57 -34 0 -34 0 -3 -57 c-3 -54
-5 -58 -28 -58 l-25 0 -3 373 -2 372 405 0 405 0 0 -359z m193 -518 l137 -6 0
-514 0 -513 -35 0 -35 0 -2 178 -3 177 -139 -3 c-107 -3 -141 0 -147 10 -10
15 -12 638 -3 662 7 18 25 19 227 9z m-928 -348 l0 -330 -157 3 -158 3 -2
-168 -3 -168 -47 -3 -48 -3 0 495 0 495 63 4 c34 2 127 3 207 3 l145 -1 0
-330z m843 -929 c1 -248 -2 -454 -6 -458 -5 -5 -234 -5 -510 -2 l-502 7 0 447
c0 246 3 450 7 453 3 4 232 6 507 5 l501 -3 3 -449z m-1168 -166 l0 -280 -255
0 -255 0 0 280 0 280 255 0 255 0 0 -280z m1835 -20 l0 -275 -255 0 -255 0 -3
278 -2 277 257 -2 258 -3 0 -275z"/>
</g>
</svg>
