<?xml version="1.0" encoding="UTF-8"?>
<svg width="752pt" height="752pt" version="1.1" viewBox="150 60 502 502" xmlns="http://www.w3.org/2000/svg">
 <g>
  <path d="m294.31 479.48c0-8.2305-14.918-14.91-14.918-14.91s-14.918 6.6758-14.918 14.91v27.473h29.836zm-15.914 8.7578-9.4258-1.1836c1.4688-11.602 10.609-15.961 10.988-16.148l4.0273 8.5703c-0.1875 0.097657-4.832 2.4648-5.5898 8.7617z"/>
  <path d="m490.98 479.48c0-8.2305-14.914-14.91-14.914-14.91s-14.914 6.6758-14.914 14.91v27.473h29.84l0.003906-27.473zm-15.906 8.7578-9.4258-1.1836c1.4766-11.602 10.609-15.961 10.988-16.148l3.9766 8.6133c-0.42578 0.19531-4.7812 2.6133-5.5391 8.7188z"/>
  <path d="m549.64 488.45c0-7.7539-11.477-14.031-11.477-14.031s-11.477 6.2812-11.477 14.031v25.844h22.949z"/>
  <path d="m225.31 489.06c0-7.7539-11.477-14.043-11.477-14.043s-11.469 6.2891-11.469 14.043v25.844h22.945z"/>
  <path d="m572.68 351.57c-2.6016 0-4.7344 2.1328-4.7344 4.7344v60.383h-21.262v-32.344c0-2.6055-2.1328-4.7344-4.7344-4.7344-2.6055 0-4.7344 2.1328-4.7344 4.7344v67.578h-25.34l-0.003906-21.832h-15.391v-42.668l-0.80469-1.1836c-1.3672-2.0352 0.24219-5.3555 0.28906-5.4453 2.2695-4.4062 3.5039-9.4258 3.5508-14.398 0.13672-11.887-6.1602-22.828-16.438-28.699l-12.168-13.215c0-0.1875 0.097656-0.37891 0.097656-0.56641v-26.758c0-2.6523-2.0781-4.7344-4.7344-4.7344-2.6094 0-4.7344 2.082-4.7344 4.7344v26.754c0 0.23828 0.097656 0.42578 0.13672 0.66406l-7.5781 8.9023c0.046875-0.56641 0.09375-1.0898 0.13672-1.6562 0.097656-9.5195-1.5117-18.895-4.7891-27.75l-8.9023 3.2695c2.8828 7.8125 4.2617 16.008 4.2188 24.391-0.097656 4.9258-0.70703 9.7539-1.7461 14.445-13.734-1.2773-40.965-3.5039-66.918-3.5039-26.047 0-53.324 2.2266-67.105 3.5039-1.1836-5.2109-1.8008-10.512-1.7539-15.914 0.28516-24.578 13.734-47.121 35.094-59.148l67.297-0.007813c10.277 5.7773 19 14.113 25.156 24.199l8.0977-4.9258c-4.4453-7.293-10.086-13.828-16.574-19.273l-5.3516-4.0742c-2.4688-1.7539-5.0312-3.3633-7.6719-4.7812l-32.543-20.363v-0.23828c7.0078-1.4688 12.027-6.0625 12.027-11.699 0-5.6836-5.0195-10.277-12.027-11.746v-28.18c0-2.6055-2.1328-4.7344-4.7344-4.7344-2.6055 0-4.7344 2.1328-4.7344 4.7344v28.18c-7.0078 1.4688-12.027 6.0625-12.027 11.746 0 5.6367 5.0195 10.23 12.027 11.699v0.23828l-32.727 20.461c-2.5586 1.4219-4.9727 2.9375-7.3398 4.5938l-5.4922 4.168c-17.285 14.492-27.656 35.992-27.941 59.055 0 1.0898 0.046875 2.1797 0.09375 3.2695l-7.5312-8.8555c0.046875-0.23828 0.14062-0.42578 0.14062-0.66406v-26.758c0-2.6523-2.1328-4.7344-4.7344-4.7344-2.6523 0-4.7344 2.082-4.7344 4.7344l-0.003906 26.754c0 0.1875 0.09375 0.37891 0.09375 0.56641l-12.172 13.215c-10.277 5.8711-16.527 16.812-16.434 28.699 0.046875 4.9727 1.2773 9.9922 3.5977 14.488 0 0.050781 1.5625 3.3203 0.23828 5.3555l-0.80469 1.1836v42.668h-15.391v21.828h-25.336v-67.574c0-2.6055-2.1328-4.7344-4.7344-4.7344-2.6055 0-4.7344 2.1328-4.7344 4.7344v32.344l-21.266 0.003906v-60.383c0-2.6055-2.1328-4.7344-4.7344-4.7344-2.6055 0-4.7344 2.1328-4.7344 4.7344l-0.003906 145.2h9.4727v-40.117h56.07l0.003906 99.789h-14.824v-21.496c0-7.7695-11.461-14.07-11.461-14.07s-11.461 6.2969-11.461 14.07v21.496h-18.328v-31.258h-9.4727v40.727h402.82v-214.34c0-2.6055-2.125-4.7344-4.7344-4.7344zm-178.25-89.934h-13.691v-8.5703zm-25.723-31.684c0-0.51953 2.4141-2.793 7.293-2.793 4.832 0 7.293 2.2734 7.293 2.793s-2.4688 2.793-7.293 2.793c-4.875 0-7.293-2.2734-7.293-2.793zm2.5586 23.109v8.5703h-13.688zm-165.94 198.85h-3.6484v-10.98c0-4.7344-7.0547-8.5234-7.0547-8.5234s-7.0547 3.7891-7.0547 8.5234v10.98h-3.5078v-25.758h21.266zm80.27-118.34 2.6055 3.125h-5.4922zm-7.5273 213.63-9.375-1.2422c1.4688-11.598 10.562-15.953 10.988-16.094l1.9883 4.2539 1.9883 4.3086c-0.42969 0.20312-4.832 2.6602-5.5898 8.7734zm27.656 13.973h-11.414v-23.773c0-8.2422-14.918-14.965-14.918-14.965s-14.918 6.7266-14.918 14.965v23.773h-14.871v-121.62h56.121zm0-131.09h-10.465v-15.391c0-6.3477-9.5195-11.551-9.5195-11.551s-9.5664 5.2148-9.5664 11.551v15.391h-10.418v-34.238h39.969zm2.082-43.719h-41.676c0.61719-3.9766-0.56641-7.8086-1.6562-9.8555-1.6094-3.2188-2.4609-6.6289-2.5117-10.23-0.09375-8.2891 4.2148-15.863 11.27-20.129h23.867c0.89844 0.56641 1.7539 1.1367 2.5586 1.8008 1.375 6.2969 3.5039 12.359 6.3945 17.996 1.8008 4.6523 4.3125 14.977 1.7539 20.418zm158.6-52.797 2.8906 3.125h-5.4922zm-41.391 20.598c1.7031 0.09375 3.4141 0.23828 5.0312 0.37891l-0.99609 5.4453c-1.5156-0.14063-3.125-0.28516-4.8359-0.47266zm-14.633-0.99219c1.7539 0.09375 3.457 0.23828 5.1133 0.33203l-0.75781 5.2109c-1.6094-0.14062-3.2578-0.28516-4.9727-0.37891zm-14.727-0.66406c1.7461 0.046875 3.4961 0.09375 5.2461 0.1875l-0.56641 5.0195c-1.6562-0.09375-3.3594-0.1875-5.0586-0.28516zm-14.824-0.37891c1.7578 0 3.5508 0.046876 5.3555 0.09375l-0.37891 4.8789c-1.6562-0.046875-3.3711-0.046875-5.0234-0.09375zm-9.4727 0-0.046875 4.8789c-1.75 0.046875-3.457 0.046875-5.1602 0.09375l-0.28516-4.8789c1.8008-0.046874 3.6445-0.046874 5.4922-0.09375zm-14.965 0.37891 0.28516 4.9258c-1.7031 0.09375-3.4102 0.1875-5.0664 0.28516l-0.47266-5.0195c1.7031-0.050781 3.4531-0.14453 5.2539-0.19141zm-14.727 0.66406 0.47266 5.1602c-1.7031 0.09375-3.3633 0.23828-4.9727 0.37891l-0.66406-5.2109c1.6602-0.09375 3.4102-0.23438 5.1641-0.32812zm-14.637 0.99219 0.71094 5.3516c-1.7539 0.14062-3.3633 0.33203-4.8789 0.47266l-0.89844-5.4453c1.6094-0.14062 3.3164-0.23438 5.0664-0.37891zm48.969 12.266c22.969 0 47.547 2.4609 58.391 3.6484-1.1367 4.5-1.7539 10.324-0.097656 16.285h-116.5c1.1836-5.4414 0.42578-11.512-0.66406-16.25 10.758-1.1719 35.668-3.6836 58.871-3.6836zm-64.215-10.984c0.23828-0.046875 0.47266-0.046875 0.71094-0.09375l0.47266 2.7461c-0.42578-0.90234-0.85156-1.7539-1.1836-2.6523zm44.277 137.2-9.4727-0.28516c0.85156-27.75 26.094-42.68 27.137-43.289l2.8906 5.0234 1.8477 3.1719c-0.85156 0.56641-21.738 13.316-22.402 35.379zm52.953-26.852c-10.094-17.434-33.016-29.883-33.016-29.883s-22.922 12.449-33.008 29.883v-37.887h66.023zm14.676 95.379h-5.2109v-142.74h-84.961v142.74h-5.2109l0.003906-148.66h95.379zm13.117 0h-3.6484l0.003906-158.13h-114.32v158.13h-3.6484v-165.33h121.62zm2.1328-202.74 0.56641-3.0781c0.23828 0.046876 0.51563 0.046876 0.75781 0.09375-0.37891 0.99609-0.89844 1.9922-1.3242 2.9844zm6.8672 7.9102c2.9844-5.8711 5.0586-12.027 6.4844-18.328 0.80469-0.66406 1.6992-1.2773 2.6094-1.8477h23.867c7.0508 4.2617 11.359 11.84 11.27 20.129-0.046874 3.5977-0.89453 7.0547-2.4688 10.086-1.1289 2.125-2.3125 5.9688-1.6953 9.9883h-41.535c-4.2148-9.0859 1.3242-19.789 1.4688-20.027zm20.461 36.797s-9.5234 5.2109-9.5234 11.547v15.391h-10.465v-34.234h39.965v34.234h-10.414v-15.391c0-6.3359-9.5625-11.547-9.5625-11.547zm8.4727 144.06-9.3711-1.2305c1.4688-11.598 10.555-15.965 10.98-16.098l4.0312 8.5234c-0.19531 0.097657-4.8359 2.5078-5.6406 8.8047zm27.652 13.973h-11.414v-23.773c0-8.2422-14.914-14.965-14.914-14.965s-14.914 6.7266-14.914 14.965v23.773h-14.871v-121.62h56.121l-0.003906 121.62zm65.543 0h-18.32v-22.117c0-7.7656-11.461-14.066-11.461-14.066s-11.461 6.2969-11.461 14.066v22.117h-14.828v-99.785h56.07zm0-109.26h-3.5v-10.98c0-4.7344-7.0547-8.5234-7.0547-8.5234s-7.0508 3.7891-7.0508 8.5234v10.98h-3.6523v-25.758h21.258z"/>
  <path d="m174.7 511.29h9.4375v9.4336h-9.4375z"/>
  <path d="m491.11 202.48c-2.6992 5.7734-4.0664 11.957-4.0664 18.383 0 23.941 19.469 43.418 43.41 43.418 23.949 0 43.418-19.477 43.418-43.418 0-23.941-19.469-43.418-43.418-43.418-7.625 0-15.133 2.0078-21.699 5.8125l4.75 8.1914c5.1211-2.9648 10.98-4.5312 16.949-4.5312 18.719 0 33.945 15.227 33.945 33.945s-15.227 33.945-33.945 33.945c-18.711 0-33.938-15.227-33.938-33.945 0-5.0234 1.0703-9.8594 3.1758-14.367z"/>
  <path d="m482.17 222.96 1.3789 9.3711-12.895 1.8945-1.3789-9.3711z"/>
  <path d="m482.12 220.19-12.953-1.4961 1.0898-9.4102 12.953 1.4961z"/>
  <path d="m483.91 208.1-12.121-4.8086 3.4961-8.8086 12.121 4.8086z"/>
  <path d="m488.71 196.86-10.453-7.7695 5.6484-7.5977 10.453 7.7695z"/>
  <path d="m562.22 270.54-8.0859-10.215 7.4258-5.8789 8.0859 10.215z"/>
  <path d="m551.76 261.74 5.1641 11.961-8.6914 3.7539-5.1641-11.961z"/>
  <path d="m531.03 267.64 9.3711-1.3789 1.8945 12.895-9.3711 1.3789z"/>
  <path d="m517.35 279.54 1.5039-12.949 9.4062 1.0938-1.5039 12.949z"/>
  <path d="m511.36 278.02-8.8047-3.4922 4.8047-12.117 8.8047 3.4922z"/>
  <path d="m497.17 271.53-7.6055-5.6484 7.7695-10.461 7.6055 5.6484z"/>
  <path d="m485.13 261.59-5.8828-7.4297 10.215-8.0938 5.8828 7.4297z"/>
  <path d="m476.09 248.86-3.7539-8.6953 11.961-5.1641 3.7539 8.6953z"/>
  <path d="m254.32 190.58c0.39844-0.39844 0.86719-0.5625 1.3906-0.52734 0.96484 0.074218 2.0156 0.76562 2.8242 1.8555l5.8633 7.957c2.3711 3.2188 5.8125 5.0664 9.4297 5.0664s7.0547-1.8516 9.4297-5.0781l5.8633-7.9609c0.80078-1.0898 1.8555-1.7812 2.8125-1.8555 0.54297-0.027343 0.99609 0.125 1.3984 0.52734l5.7539 5.7578 6.6992-6.6953-5.7617-5.7578c-2.3633-2.3594-5.4922-3.5273-8.8047-3.2734-3.7305 0.28516-7.2773 2.3555-9.7266 5.6836l-5.8633 7.9609c-1.1406 1.5469-2.4727 1.5547-3.6133 0l-5.8633-7.957c-2.4531-3.3281-6.0039-5.3984-9.7305-5.6797-3.3242-0.28125-6.4414 0.91016-8.8008 3.2695l-5.75 5.75 6.6953 6.6953z"/>
  <path d="m183.8 270.91c0.39453-0.39844 0.87109-0.5625 1.3867-0.52344 0.96484 0.074219 2.0156 0.76563 2.8242 1.8555l5.8633 7.957c2.3711 3.2188 5.8125 5.0664 9.4297 5.0664 3.6172 0 7.0547-1.8516 9.4297-5.0781l5.8633-7.9609c0.80078-1.0898 1.8555-1.7812 2.8125-1.8555 0.55469-0.042969 0.99609 0.125 1.3984 0.52734l5.7539 5.7539 6.6992-6.6953-5.7578-5.7578c-2.3633-2.3633-5.4727-3.5156-8.8047-3.2734-3.7305 0.28516-7.2773 2.3555-9.7266 5.6836l-5.8633 7.9609c-1.1406 1.5469-2.4727 1.5547-3.6133 0l-5.8633-7.957c-2.457-3.3281-6.0039-5.3984-9.7383-5.6797-3.3047-0.27344-6.4414 0.91016-8.793 3.2695l-5.7539 5.7539 6.6914 6.6953z"/>
 </g>
</svg>
