<?xml version="1.0" encoding="UTF-8"?>
<svg width="752pt" height="752pt" version="1.1" viewBox="70 100 552 552" xmlns="http://www.w3.org/2000/svg">
 <g>
  <path d="m566.52 281.88c-0.96094-0.94922-1.918-1.8906-2.8789-2.8359-4.2695-3.1875-9.375-5.0586-14.691-5.3789-2.2461-0.10938-4.4922 0.24219-6.6016 1.0352l-6.2891 2.2773c-1.7617 0.63672-2.7344-0.55078-3.1758-2.0859v0.003906c-0.51562-2.0469 0.10547-4.2109 1.6289-5.668 10.133-10.266 15.801-22.844 13.961-25.141-4.0273-5.0312-14.992-8.9492-33.461-4.582-12.621 2.9844-12.074 7.043-15 8.1562-6.0547 2.2969 4.8906-12.188 6.3477-20.809v-0.003906c0.21094-0.76172-0.027344-1.5781-0.61719-2.1016-0.58984-0.52734-1.4297-0.67188-2.1602-0.375-18.828 4.793-50.441 32.922-51.074 51.02-0.24609 6.6562 1.7305 13.203 5.6172 18.613-14.07-1.875-26.836-31.68-38.402-41.137-6.8125-36.504-25.328-69.25-61.695-86.723-9.2422-4.4375-17.258 9.4648-7.918 13.949h-0.003907c8.5117 4.0781 16.344 9.4375 23.227 15.898-1.5039 14.363-6.4727 28.148-14.484 40.164-8.6445 13.215-18.5 28.25-37.129 30.145v0.003906c-15.148 0.75781-29.82-5.4219-39.859-16.793 9.7422-1.4648 19.031-5.0977 27.184-10.637 7.4102-4.8281 13.312-11.641 17.035-19.664 3.7188-8.0234 5.1094-16.934 4.0117-25.707-1.1758-8.3945-5.5547-16.008-12.219-21.246-6.668-5.2344-15.102-7.6875-23.535-6.8398-20.422 1.8242-32.535 20.723-37.281 37.945-2.4844 11.016-0.98828 22.559 4.2305 32.574-3.1836-1.7305-5.9883-4.0742-8.2578-6.8945-12.504-15.379-13.039-34.977-10.656-49.777 0.99219-6.168-10.02-9.4336-11.004-3.3086-3.0508 18.941-0.28906 46.156 19.309 63.855h-0.003906c5.2227 4.8398 11.715 8.0938 18.715 9.3867 2.0078 2.668 4.1797 5.207 6.5039 7.6055 15.691 15.988 36.871 22.895 54.738 19.203 21.562-4.4531 33.027-23.812 42.828-40.414h0.003906c5.0938-8.7227 8.4883-18.332 10.004-28.32 22.102 29 26.59 69.82 21.883 107.16h-0.003906c5.4258 2.0156 10.465 4.9492 14.895 8.668 1.8906-12.547 2.7617-25.23 2.6016-37.922 12.316 11.957 22.66 28.637 34.383 30.055v-0.003906c-4.1523 5.0898-6.5195 11.398-6.7305 17.965-0.63281 18.098 28.941 48.363 47.391 54.453 0.71094 0.34766 1.5586 0.26172 2.1836-0.22266s0.92188-1.2812 0.76172-2.0547c-0.85547-8.7031-10.762-23.914-4.8828-21.199 2.8398 1.3125 2.0117 5.3242 14.395 9.1797 18.121 5.6445 29.332 2.5 33.699-2.2383 1.9961-2.1641-2.7812-15.109-12.176-26.055h0.003906c-1.418-1.5625-1.8867-3.7656-1.2305-5.7695 0.54688-1.5 1.6016-2.6172 3.3125-1.8594l6.1133 2.7109 0.003906 0.003907c2.0469 0.9375 4.2617 1.4453 6.5117 1.4922 5.3242 0.050782 10.551-1.4609 15.031-4.3398 1.0273-0.87891 2.043-1.7539 3.0703-2.6328l24.438-25.57zm-292.67-42.77c-1.7969-2.9102-3.332-5.9727-4.5898-9.1562-7.9688-20.469 4.7578-45.211 21.605-51.941 4.0039-1.6016 11.215-4.1016 16.582-1.2969v0.003906c3.7031 2.1094 6.7617 5.1836 8.8555 8.8984 2.0898 3.7109 3.1328 7.9219 3.0195 12.184-0.375 8.4258-3.4023 16.52-8.6445 23.125-9.2695 10.844-22.582 17.414-36.828 18.184z"/>
  <path d="m374.67 415.27c0 22.273-18.055 40.328-40.328 40.328s-40.328-18.055-40.328-40.328c0-22.27 18.055-40.324 40.328-40.324s40.328 18.055 40.328 40.324"/>
  <path d="m245.3 383.01c-1.6758-13.293 1.9688-26.711 10.145-37.324 8.1719-10.617 20.211-17.57 33.492-19.344-5.9336-12.777-18.109-21.527-32.109-23.086-14-1.5547-27.797 4.3086-36.391 15.473-8.5977 11.16-10.742 26-5.6602 39.137 5.082 13.141 16.656 22.672 30.523 25.145z"/>
  <path d="m267.36 405.32c4.4844 4.4805 9.9648 7.8359 15.996 9.7852 0.023437-13.469 5.3867-26.383 14.91-35.91 9.5273-9.5273 22.441-14.887 35.914-14.91-3.832-11.734-12.832-21.062-24.418-25.32-11.586-4.2578-24.484-2.9727-35 3.4844-10.52 6.4609-17.5 17.383-18.941 29.641-1.4453 12.262 2.8086 24.504 11.539 33.23z"/>
  <path d="m415.98 333.64c-7.875-7.8789-18.66-12.145-29.797-11.793-11.137 0.35547-21.629 5.3008-28.988 13.664-7.3594 8.3633-10.934 19.398-9.8711 30.488 8.7383 2.2578 16.715 6.8164 23.098 13.199 6.3828 6.3828 10.941 14.359 13.199 23.102 11.09 1.0625 22.125-2.5117 30.488-9.875 8.3633-7.3594 13.309-17.852 13.664-28.988 0.35547-11.133-3.9141-21.918-11.793-29.797z"/>
  <path d="m401.33 482.25c9.9258-9.9023 13.988-24.254 10.727-37.891-3.2656-13.637-13.391-24.594-26.727-28.926-0.019531 13.469-5.3828 26.383-14.91 35.91-9.5234 9.5273-22.438 14.887-35.91 14.91 4.332 13.336 15.289 23.457 28.926 26.723 13.637 3.2656 27.992-0.79688 37.895-10.727z"/>
  <path d="m423.28 460.68c-1.7734 13.277-8.7266 25.32-19.344 33.496-10.617 8.1719-24.031 11.816-37.328 10.141 2.4531 13.898 11.988 25.508 25.148 30.609 13.16 5.1055 28.027 2.9648 39.211-5.6484 11.184-8.6094 17.055-22.438 15.484-36.465-1.5742-14.027-10.359-26.211-23.172-32.133z"/>
  <path d="m340.18 492.93c-1.1797-0.98438-2.3359-2.0039-3.4453-3.1133v0.003906c-5.6797-5.668-9.9297-12.609-12.391-20.246l-1.5195-4.668c-11.754-2.5977-22.164-9.3867-29.281-19.098-9.6992 1.7188-18.434 6.9297-24.551 14.648-6.1211 7.7227-9.1992 17.414-8.6562 27.25 0.53906 9.8359 4.6641 19.133 11.594 26.133 6.9297 7.0039 16.184 11.223 26.012 11.867 9.832 0.64062 19.555-2.3359 27.336-8.375 7.7852-6.0391 13.086-14.719 14.902-24.402z"/>
  <path d="m250.79 496.44c-10.344 1.2578-19.801 6.4727-26.387 14.551-6.582 8.0781-9.7812 18.395-8.9219 28.781 0.85547 10.387 5.7031 20.039 13.523 26.93 7.8164 6.8867 18.004 10.48 28.414 10.027 10.41-0.45703 20.242-4.9297 27.43-12.477 7.1836-7.5508 11.168-17.586 11.113-28.008-10.789-0.94922-20.996-5.3242-29.121-12.484-8.1289-7.1602-13.754-16.734-16.051-27.32z"/>
  <path d="m256.69 409.43c-11.574 2.168-21.625 9.2891-27.504 19.492s-7 22.469-3.0703 33.57c3.9297 11.102 12.516 19.93 23.508 24.164-0.35156-11.535 3.2695-22.836 10.254-32.016 6.9844-9.1836 16.91-15.688 28.117-18.426-1.4453-3.1367-2.5703-6.4102-3.3633-9.7695-9.4023-2.0625-18.016-6.7695-24.828-13.57-1.1055-1.1055-2.1289-2.2656-3.1133-3.4453z"/>
  <path d="m304.54 296.65c-4.8789 4.8633-8.418 10.906-10.277 17.543 1.6758 2.418 3.1367 4.9727 4.3789 7.6367l2.0078 4.3203c11.82 1.0352 22.906 6.1953 31.305 14.578 2.3828 2.4336 4.5156 5.1016 6.3555 7.9648 4.4688-16.586 17.051-29.77 33.41-35.012-4.0508-13.625-14.977-24.109-28.754-27.602-13.777-3.4922-28.375 0.52344-38.426 10.57z"/>
  <path d="m435.93 377.9c-5.2383 16.359-18.426 28.941-35.012 33.41 2.8633 1.8438 5.5352 3.9727 7.9648 6.3555 8.3828 8.4023 13.547 19.488 14.582 31.312l4.3164 2.0039h-0.003906c2.668 1.2383 5.2227 2.7031 7.6406 4.375 11.285-3.1914 20.621-11.141 25.574-21.77 4.9531-10.629 5.0312-22.887 0.21875-33.582-4.8125-10.691-14.039-18.762-25.281-22.105z"/>
  <path d="m356.08 506.19-0.83203-4.6484v-0.003907c-1.9414-0.69922-3.8359-1.5117-5.6836-2.4375-2.6172 9.75-8.1094 18.488-15.766 25.074-7.6523 6.582-17.113 10.707-27.148 11.84 0.035156 5.8047-0.91797 11.574-2.8164 17.062 0.3125 0.33594 0.57031 0.70312 0.89844 1.0273 6.7617 6.7812 15.719 10.93 25.266 11.703 9.543 0.77344 19.051-1.8789 26.816-7.4844s13.277-13.793 15.551-23.094c-0.72266-0.64453-1.4648-1.2578-2.1602-1.9492v-0.003906c-7.3789-7.3633-12.312-16.82-14.125-27.086z"/>
  <path d="m204.8 533.39c0.51172-9.168 3.5078-18.027 8.6641-25.633 5.1523-7.6016 12.277-13.66 20.605-17.531-11.891-8.6016-19.449-21.953-20.695-36.578-13.434-0.078126-26.023 6.5391-33.574 17.648s-9.0703 25.25-4.0547 37.711c5.0156 12.461 15.91 21.605 29.055 24.383z"/>
  <path d="m205.32 544.43-2.7305-0.57813c-12.977-2.7227-24.371-10.414-31.746-21.438-7.7617 10.43-10.012 23.965-6.0391 36.344 3.9688 12.383 13.672 22.082 26.051 26.055 12.379 3.9688 25.914 1.7188 36.344-6.043-11.781-7.875-19.719-20.336-21.879-34.34z"/>
  <path d="m196.54 445.78c5.4297-1.8828 11.141-2.8359 16.887-2.8164 1.4453-11.336 6.5938-21.875 14.645-29.98 6.2344-6.1836 13.969-10.641 22.441-12.934-0.09375-0.18359-0.19531-0.36719-0.28516-0.55078-0.37109-0.75391-0.72266-1.5117-1.0547-2.2773-0.29688-0.68359-0.58984-1.3633-0.85547-2.0547-0.10156-0.26562-0.1875-0.53906-0.28125-0.80859l-4.6055-0.82031c-10.27-1.8125-19.727-6.7461-27.094-14.129-0.69531-0.69531-1.3047-1.4375-1.9492-2.1602-9.3047 2.2734-17.492 7.7891-23.098 15.551-5.6055 7.7656-8.2578 17.273-7.4844 26.82 0.77344 9.543 4.9219 18.5 11.703 25.262 0.32813 0.32812 0.69531 0.58594 1.0312 0.89844z"/>
 </g>
</svg>
