<?xml version="1.0" encoding="UTF-8"?>
<svg width="700pt" height="700pt" version="1.1" viewBox="120 40 500 500" xmlns="http://www.w3.org/2000/svg" xmlns:xlink="http://www.w3.org/1999/xlink">
  <path d="m560 270.97c0 46.609-45.078 90.906-97.121 99.527l5.5234-40.762c28.762-9.5547 53.402-34.668 53.402-58.766 0-10.293-4.1836-18.613-12.48-24.758-7.543-5.6289-17.602-8.6172-28.449-8.8438l5.1445-38.047c17.07 1.0977 33.117 6.5703 46.105 16.23 17.98 13.332 27.875 33.023 27.875 55.418zm-38.02 171.84h-381.98l38.191 20.016h305.59zm-49.238 31.062h-283.49l43.52 20.016h196.45zm-175.36-298.46v64.703l28 21.539v67.199h-72.801v-67.199l28-21.539 0.003906-64.703h-96.938l27.281 201.9s1.0195 54.578 54.578 54.578h130.96c52.199 0 54.566-54.578 54.566-54.578l27.301-201.9z"/>
</svg>
