<?xml version="1.0" encoding="UTF-8"?>
<svg width="752pt" height="752pt" version="1.1" viewBox="0 0 752 752" xmlns="http://www.w3.org/2000/svg">
 <defs>
  <clipPath id="a">
   <path d="m139.21 139.21h473.58v473.58h-473.58z"/>
  </clipPath>
 </defs>
 <g clip-path="url(#a)">
  <path d="m594.29 568.39h-3.6992v-14.801c0-3.9258-1.5586-7.6875-4.3359-10.465-2.7734-2.7734-6.5391-4.3359-10.465-4.3359h-25.898v-66.594h27.406c3.1562 0 5.9648-2.0039 6.9961-4.9883l28.09-81.398v0.003906c0.25781-1.6758 0.37891-3.3672 0.35547-5.0586-0.47266-4.0586-4.1406-6.9648-8.1992-6.5-25.367 2.9219-69.258 2.7578-79.078-10.137-1.3984-1.8398-3.5742-2.918-5.8867-2.918h-6.6836v-51.801h28.469c3.082 0 5.8438-1.9102 6.9258-4.793l27.031-71.918c0.039063-0.10547 0.050782-0.21094 0.082032-0.3125v-0.003906c0.082031-0.25391 0.15234-0.51172 0.20703-0.77344 0.050781-0.23047 0.089844-0.46094 0.11719-0.69531 0.027344-0.23047 0.039063-0.46484 0.042969-0.70312h-0.003906c0.003906-0.26562-0.003906-0.53125-0.03125-0.79688-0.011719-0.10938 0.003906-0.21484-0.011719-0.32422-0.015625-0.11328-0.058594-0.21094-0.078125-0.32422h0.003907c-0.050782-0.26562-0.11328-0.52734-0.19141-0.78516-0.066406-0.21875-0.13672-0.42969-0.21875-0.63672v0.003906c-0.09375-0.23047-0.19922-0.45703-0.31641-0.67969-0.10547-0.20312-0.21875-0.40234-0.34375-0.59375-0.13672-0.20703-0.28125-0.40625-0.4375-0.59766-0.14453-0.17578-0.28516-0.34766-0.44531-0.51172-0.16797-0.17578-0.35156-0.33594-0.53906-0.49609-0.1875-0.15625-0.375-0.30859-0.57422-0.44531-0.17969-0.125-0.36328-0.23438-0.55469-0.34375v-0.003906c-0.25-0.14062-0.50781-0.26953-0.77344-0.38281-0.089844-0.039062-0.16406-0.09375-0.25781-0.12891-0.089844-0.035156-0.17969-0.042969-0.26953-0.070312-0.28516-0.09375-0.57812-0.17188-0.875-0.23047-0.20312-0.039063-0.39844-0.074219-0.60156-0.097657-0.51172-0.058593-1.0312-0.0625-1.5469-0.015624-0.10547 0.011718-0.20703-0.003907-0.31641 0.011718-16.797 2.3086-67.133 4.8086-77.703-13.281-1.3242-2.2695-3.7578-3.6641-6.3867-3.6641h-15.297l11.406-49.086c0.011719-0.058594 0.007812-0.11719 0.019531-0.17188 0.11328-0.52734 0.17188-1.0664 0.16797-1.6094v-0.023437c-0.011719-0.55078-0.089844-1.0977-0.22656-1.6328-0.039063-0.15625-0.097657-0.30469-0.14844-0.46094v0.003906c-0.11328-0.37109-0.25781-0.73047-0.42969-1.0742-0.089843-0.18359-0.19141-0.35547-0.30078-0.53125-0.085937-0.14062-0.14453-0.29297-0.24219-0.42969-0.12109-0.17188-0.27344-0.30859-0.40625-0.46875-0.082032-0.097657-0.13281-0.21094-0.21875-0.30469-0.046875-0.050781-0.11328-0.085937-0.16016-0.13672-0.3125-0.31641-0.65625-0.60547-1.0195-0.86328-0.085937-0.0625-0.16406-0.13672-0.25391-0.19531-0.46094-0.29297-0.95312-0.53516-1.4648-0.71875-0.14453-0.050781-0.29297-0.078125-0.44141-0.12109-0.37109-0.11328-0.75391-0.19531-1.1406-0.24609-0.19922-0.027343-0.39453-0.035156-0.59375-0.046875-0.37109-0.019531-0.74609-0.007812-1.1211 0.035156-0.11719 0.011719-0.23438-0.007812-0.35156 0.011719-11.988 1.832-31.18 1.3477-34.52-4.3594v-0.003906c-2.0312-3.4766-6.4766-4.6914-9.9922-2.7266-9.1953 5.125-28.824 8.4375-50.012 8.4375-24.895 0-43.359-4.4258-50.621-8.8125v0.003906c-1.75-1.0586-3.8594-1.3438-5.8281-0.78906-1.9688 0.55078-3.6211 1.8945-4.5625 3.7109-2.0898 4.0156-19.074 6.1953-34.938 4.4961h-0.011718v-0.003906c-0.55469-0.054687-1.1133-0.046875-1.668 0.023438-0.125 0.015625-0.24219 0.046875-0.36328 0.070312-0.41406 0.070313-0.82031 0.17188-1.2148 0.3125-0.15234 0.054688-0.29688 0.11719-0.44531 0.17969h-0.003907c-0.35547 0.15234-0.70312 0.33594-1.0312 0.54688-0.14062 0.089843-0.28125 0.17188-0.41406 0.27344-0.32812 0.24219-0.62891 0.51172-0.91016 0.80469-0.085937 0.085937-0.1875 0.14844-0.26953 0.23828-0.023437 0.027344-0.035156 0.058594-0.058593 0.085937-0.03125 0.035157-0.070313 0.0625-0.10156 0.10156-0.32812 0.39453-0.60938 0.82031-0.84766 1.2695v0.003906c-0.25 0.48047-0.44531 0.98438-0.58203 1.5078-0.042969 0.15234-0.058594 0.30469-0.089844 0.45703v0.003906c-0.078125 0.37109-0.12891 0.75-0.14844 1.1289-0.007812 0.1875-0.007812 0.375 0 0.56641h-0.003906c0.015625 0.37109 0.054688 0.74219 0.12109 1.1055 0.019531 0.11719 0.011718 0.23438 0.039062 0.35156l11.391 49.086h-15.281c-2.7617 0-5.293 1.5391-6.5664 3.9883-7.7148 14.836-43.359 17.352-75.27 13.254l-2.2227-0.28906c-0.11328-0.015625-0.21875-0.003907-0.33203-0.011719v-0.003906c-0.27344-0.027344-0.54688-0.035156-0.82031-0.03125-0.22656 0.003906-0.45312 0.015625-0.67578 0.039062-0.5 0.054688-0.99609 0.16016-1.4766 0.3125-0.11328 0.035156-0.22656 0.046875-0.33594 0.089844-0.10547 0.039062-0.19531 0.10156-0.29687 0.14844h0.003906c-0.24219 0.10156-0.47656 0.21875-0.70312 0.34766-0.20312 0.11328-0.40234 0.23047-0.58984 0.35938-0.19922 0.13672-0.38281 0.28516-0.56641 0.44141-0.18359 0.15625-0.36328 0.3125-0.52734 0.48438-0.16406 0.16797-0.3125 0.34766-0.46094 0.53125-0.14844 0.1875-0.29688 0.375-0.42578 0.57422-0.12891 0.19531-0.23828 0.39844-0.34766 0.60547h-0.003906c-0.12109 0.21875-0.22656 0.44531-0.32031 0.67578-0.082031 0.19922-0.14844 0.40625-0.21094 0.61328v0.003906c-0.085938 0.26562-0.15234 0.54297-0.20312 0.81641-0.019531 0.097657-0.054688 0.1875-0.070313 0.28516-0.015625 0.10547-0.003906 0.20703-0.011718 0.30859v0.003907c-0.027344 0.28516-0.039063 0.57031-0.035157 0.85547 0.003907 0.21875 0.015625 0.4375 0.039063 0.65234 0.054687 0.5 0.16016 0.99219 0.3125 1.4727 0.039062 0.11719 0.050781 0.23437 0.09375 0.35156l26.992 71.918c1.082 2.8867 3.8438 4.7969 6.9258 4.7969h28.504v51.801h-6.6797c-2.457 0-4.75 1.2148-6.1289 3.25-6.7812 10.016-36.816 13.949-76.551 10.035l-2.3359-0.23438v-0.003906c-2.2539-0.26562-4.5039 0.53125-6.0938 2.1484-1.5859 1.6211-2.3359 3.8828-2.0273 6.1328-0.14453 1.1055-0.03125 2.2266 0.32813 3.2812l28.051 81.398c1.0273 2.9844 3.8359 4.9883 6.9961 4.9883h27.445v66.598l-25.898-0.003906c-3.9258 0-7.6914 1.5625-10.465 4.3359-2.7773 2.7773-4.3359 6.5391-4.3359 10.465v14.801h-3.6992c-4.9062 0.003907-9.6055 1.957-13.074 5.4219-3.4688 3.4688-5.4219 8.1719-5.4258 13.078v18.5-0.003906c0 4.0898 3.3125 7.4023 7.3984 7.4023h458.78c4.0898 0 7.4023-3.3125 7.4023-7.4023v-18.5 0.003906c-0.007813-4.9062-1.957-9.6094-5.4258-13.078-3.4688-3.4648-8.1719-5.418-13.074-5.4219zm-270.47-412.68c12.164 5.1055 31.555 8.1719 52.73 8.1719 20.867 0 39.617-2.8555 51.82-7.7656 4.9883 3.6094 10.82 5.875 16.941 6.5703-43.891 23.566-96.699 23.441-140.48-0.33203 6.793-0.55469 13.328-2.8438 18.984-6.6445zm52.711 39.051h-0.003906c29.734-0.21875 58.863-8.4062 84.355-23.715l-8.0781 34.758h-153.62l-7.9883-34.426c25.957 15.02 55.352 23.074 85.336 23.383zm-163.12 44.805c21.613 0 47.809-3.543 59.352-18.965l206.69 0.003906c12.855 15.867 41.793 18.871 63.539 18.645-28.711 13.273-89.035 24.668-169.45 24.668-78.07 0-137.02-11.258-165.54-24.426 1.7656 0.042968 3.5625 0.074218 5.4102 0.074218zm2.3203 55.035-16.027-42.703c33.441 16.48 97.93 26.816 173.84 26.816 77.918 0 145.67-10.996 179.18-27.945l-16.473 43.832zm234.27 29.598c-6.8672 0.007813-13.449 2.7383-18.305 7.5938-4.8555 4.8555-7.5898 11.438-7.5977 18.305v11.098l-22.199 0.003906v-11.102c0-9.25-4.9336-17.801-12.949-22.43-8.0117-4.625-17.883-4.625-25.898 0-8.0117 4.6289-12.949 13.18-12.949 22.43v11.098l-22.199 0.003906v-11.102c0-9.25-4.9336-17.801-12.949-22.43-8.0117-4.625-17.887-4.625-25.898 0-8.0117 4.6289-12.949 13.18-12.949 22.43v11.098l-22.199 0.003906v-51.801h244.19v51.801h-22.199v-11.102c-0.007813-6.8672-2.7383-13.449-7.5938-18.305-4.8555-4.8555-11.441-7.5859-18.305-7.5938zm11.098 25.898v11.098l-22.199 0.003906v-11.102c0-6.1289 4.9688-11.098 11.102-11.098 6.1289 0 11.098 4.9688 11.098 11.098zm-73.996 0v11.098l-22.199 0.003906v-11.102c0-6.1289 4.9688-11.098 11.098-11.098 6.1328 0 11.102 4.9688 11.102 11.098zm-73.996 0v11.098l-22.199 0.003906v-11.102c0-6.1289 4.9688-11.098 11.098-11.098s11.102 4.9688 11.102 11.098zm-134.2 40.746c23.48 0 46.125-3.457 57.012-14.844h280.39c11.016 10.539 32.98 13.836 52.527 14.461-47.172 12.277-142.32 22.535-225 22.535-79.898 0-139.56-9.9609-170.25-22.234 1.7734 0.035156 3.5508 0.082031 5.3242 0.082031zm1.0352 66.551-19.434-56.383c34.18 16.43 102.55 26.785 183.32 26.785 71.652 0 200.69-9.9375 248.67-29.738l-20.477 59.336zm307.05 29.598c-6.8672 0.007812-13.449 2.7383-18.305 7.5938-4.8555 4.8555-7.5859 11.441-7.5938 18.305v25.898h-22.199v-25.898c0-9.25-4.9375-17.801-12.949-22.43-8.0117-4.625-17.887-4.625-25.898 0-8.0117 4.6289-12.949 13.18-12.949 22.43v25.898h-22.199v-25.898c0-9.25-4.9375-17.801-12.949-22.43-8.0156-4.625-17.887-4.625-25.898 0-8.0156 4.6289-12.949 13.18-12.949 22.43v25.898h-22.199v-25.898c0-9.25-4.9375-17.801-12.949-22.43-8.0156-4.625-17.887-4.625-25.902 0-8.0117 4.6289-12.949 13.18-12.949 22.43v25.898h-22.199v-66.594h318.19v66.598h-22.199v-25.902c-0.007812-6.8633-2.7383-13.449-7.5938-18.305-4.8555-4.8555-11.438-7.5859-18.305-7.5938zm11.098 25.898v25.898h-22.195v-25.898c0-6.1289 4.9688-11.098 11.098-11.098 6.1328 0 11.102 4.9688 11.102 11.098zm-73.996 0v25.898h-22.199v-25.898c0-6.1289 4.9727-11.098 11.102-11.098s11.098 4.9688 11.098 11.098zm-73.996 0v25.898h-22.199v-25.898c0-6.1289 4.9688-11.098 11.102-11.098 6.1289 0 11.098 4.9688 11.098 11.098zm-73.996 0v25.898h-22.199v-25.898c0-6.1289 4.9688-11.098 11.102-11.098 6.1289 0 11.098 4.9688 11.098 11.098zm-99.895 40.699h399.58v14.801h-399.58zm421.78 44.398h-443.98v-11.098c0-2.043 1.6562-3.6992 3.6992-3.7031h436.58c2.043 0.003906 3.6953 1.6602 3.6992 3.7031z"/>
 </g>
</svg>
