<?xml version="1.0" encoding="UTF-8"?>
<svg width="752pt" height="752pt" version="1.1" viewBox="100 100 552 552" xmlns="http://www.w3.org/2000/svg">
 <defs>
  <clipPath id="f">
   <path d="m139.21 139.21h74.789v154.79h-74.789z"/>
  </clipPath>
  <clipPath id="e">
   <path d="m139.21 250h66.789v67h-66.789z"/>
  </clipPath>
  <clipPath id="d">
   <path d="m286 418h113v194.79h-113z"/>
  </clipPath>
  <clipPath id="c">
   <path d="m357 295h255.79v222h-255.79z"/>
  </clipPath>
  <clipPath id="b">
   <path d="m501 413h111.79v199.79h-111.79z"/>
  </clipPath>
  <clipPath id="a">
   <path d="m464 505h46v107.79h-46z"/>
  </clipPath>
 </defs>
 <path d="m324.57 390.72c-1.5391 0-3.0703-0.066406-4.6094-0.20703-12.348-1.1289-23.645-7.4023-31.133-17.285l11.559-9.25c4.9805 6.7266 12.586 11.016 20.922 11.797 18.418 1.8281 38.574-11.641 46.461-17.508l-13.785-62.055c-0.11719-0.52734-0.17969-1.0664-0.17969-1.6055-0.18359-6.7773-2.5391-13.312-6.7266-18.641-4.1875-5.332-9.9766-9.1758-16.516-10.957h-42.18l-9.2266 3.0781c-11.484 4.0156-23.887 4.6328-35.715 1.7812-11.223-2.6992-21.375-8.7109-29.141-17.25-7.7617-8.5391-12.785-19.215-14.41-30.641l14.547-2.7383h0.003906c1.1562 8.6484 4.9023 16.742 10.746 23.219 5.8398 6.4766 13.508 11.035 21.988 13.078 9.0781 2.1445 18.586 1.6328 27.379-1.4805l10.359-3.4648c0.74219-0.24219 1.5156-0.375 2.293-0.38281h44.398c0.60938 0 1.2109 0.074219 1.8008 0.22266 9.7773 2.418 18.504 7.9531 24.852 15.773 6.3516 7.8164 9.9844 17.492 10.348 27.559l14.629 65.855c0.59375 2.668-0.33203 5.4453-2.4062 7.2227-1.2031 1.0234-28.234 23.879-56.258 23.879z"/>
 <g clip-path="url(#f)">
  <path d="m186.9 293.36c-24.234-16.164-19.492-98.656-18.094-117l-11.098-0.14844c-6.6094 0-12.719-3.5273-16.023-9.25-3.3008-5.7266-3.3008-12.777 0-18.5 3.3047-5.7227 9.4141-9.25 16.023-9.25h16.406c4.5352-0.35156 9.0859 0.5 13.188 2.4648 4.1055 1.9688 7.6172 4.9805 10.188 8.7383 10.07 16.738 15.496 35.859 15.715 55.395h-14.797c-0.21484-16.816-4.8945-33.277-13.559-47.691-0.24219-0.36328-0.44922-0.74609-0.62109-1.1484-2.9023-2.1797-6.4961-3.2305-10.113-2.957h-16.406c-2.043 0-3.6992 1.6562-3.6992 3.6992 0 2.043 1.6562 3.6992 3.6992 3.6992h11.098c3.9531-0.082031 7.7656 1.4492 10.559 4.2422 2.793 2.793 4.3242 6.6055 4.2422 10.559-2.9609 38.715-1.3086 96.301 11.508 104.84z"/>
 </g>
 <path d="m243.3 339c-1.9844-0.003906-3.957-0.28125-5.8633-0.82422-51.605-14.715-53.75-56.332-53.824-58.094-0.10938-3.4922 2.2383-6.5859 5.6328-7.418 3.3945-0.83203 6.9062 0.82422 8.4258 3.9688 1.6562 3.5078 13.969 11.211 49.578 17.84v0.003907c5.0742 1.0234 9.6289 3.793 12.871 7.8281 3.2461 4.0352 4.9727 9.0742 4.8906 14.25 0.066407 7.1016-3.2266 13.816-8.8828 18.109-3.6875 2.8086-8.1953 4.332-12.828 4.3359zm-38.359-40.625h-0.003906c8.4375 12.914 21.531 22.07 36.555 25.566 1.9727 0.56641 4.0977 0.16016 5.7148-1.1016 1.9375-1.5039 3.0547-3.8359 3.0039-6.293 0.13672-3.5117-2.1953-6.6484-5.6016-7.5234-13.539-2.25-26.824-5.8125-39.672-10.641z"/>
 <g clip-path="url(#e)">
  <path d="m205.81 316.8c-16.273 0.089843-32.016-5.7734-44.27-16.48-12.25-10.711-20.164-25.527-22.254-41.668-0.52344-3.625 1.6836-7.0898 5.1914-8.1445 3.5078-1.0547 7.2578 0.61328 8.8242 3.9258 0.33203 0.73828 4.0625 7.0742 32.121 14.059l-3.5898 14.379c-7.0391-1.6953-13.961-3.8477-20.719-6.4453 4.293 8.0352 10.762 14.699 18.668 19.223 7.9062 4.5234 16.926 6.7227 26.027 6.3516z"/>
 </g>
 <path d="m295.26 376-8.7539-6.4766 2.7891-3.2188-1.4805-0.63672c7.2422-16.906 26.031-56.266 43.789-56.266h14.801v14.801h-14.801c-5.3125 0.85938-18.832 21.695-28.961 44.48-0.074219 4.0352-3.3477 7.2773-7.3828 7.3164z"/>
 <path d="m272.16 377.11c-34.184-1.1133-49.793-15.91-55.48-23.312h-18.27c-4.0898 0-7.4023-3.3125-7.4023-7.3984v-14.801c0-12.875 18.543-14.801 29.598-14.801v14.801h0.003906c-5.0078-0.058593-9.9961 0.62891-14.801 2.0352v5.3672h14.801c2.8047-0.003906 5.3672 1.582 6.6211 4.0898 0.33984 0.64453 10.094 18.031 45.426 19.238z"/>
 <path d="m334.65 304.65c-18.832 0-33.152-4.6328-42.75-13.875-8.957-9.0117-13.375-21.586-12.023-34.223l14.652 2.1016-7.3281-1.0508 7.332 1h0.003906c-0.76172 8.0117 2.082 15.945 7.7617 21.645 10.152 9.6211 30.074 12.062 57.578 7.082l2.6484 14.547c-9.1914 1.7539-18.52 2.6836-27.875 2.7734z"/>
 <g clip-path="url(#d)">
  <path d="m353.8 612.79h-44.398c-0.60547 0-1.207-0.074219-1.7969-0.22266-8.3867-2.1406-15.121-8.3789-17.898-16.574-9.9766-25.816 6.3203-72.672 13.543-83.504 11.477-17.211 24.465-73.359 28.504-93.539l14.504 2.9023c-0.61328 3.0781-15.258 75.699-30.695 98.852-6.9688 10.465-19.113 51.68-12.047 69.957v-0.003906c0.97266 3.418 3.5469 6.1523 6.9023 7.332h39.219c0.39062-1.2227 0.52344-2.5156 0.38281-3.7969-2.4453-8.3438-7.9727-15.453-15.457-19.883-1.8945-1.4219-2.9961-3.668-2.9609-6.0391 0-1.9297 1.1172-47.52 34.66-58.695v0.003906c4.8242-1.582 9.0508-4.5938 12.113-8.6406s4.8164-8.9336 5.0273-14.004l14.797 0.058594c-0.21875 8.168-2.9531 16.07-7.832 22.625-4.8789 6.5508-11.664 11.438-19.426 13.988-19.293 6.4297-23.434 31.914-24.309 41.355v0.003906c9.7383 6.582 16.328 16.891 18.211 28.496 0.53125 6.2773-1.5742 12.496-5.8086 17.16-1.3867 1.3867-3.2695 2.168-5.2344 2.168z"/>
 </g>
 <path d="m288.85 503.24 14.516-2.8906 5.8984 29.602-14.516 2.8906z"/>
 <path d="m285.89 488.48-12.074-60.676c-3.0117-15.125-1.1836-30.809 5.2148-44.836l7.875-17.418 13.48 6.0977-7.8672 17.426c-5.125 11.207-6.5898 23.746-4.1953 35.836l12.082 60.676z"/>
 <path d="m324.2 479.6c-19.312 0-22.199-37.094-22.199-59.199h14.801c0 20.719 3.8125 41.926 7.9766 44.539z"/>
 <g clip-path="url(#c)">
  <path d="m521.84 516.6h-66.598c-33.996 0-59.484-9.1758-75.758-27.273v-0.003907c-12.965-15.074-19.523-34.617-18.277-54.461v-29.258h14.801v29.598 0.73828h-0.003906c-0.90234 15.891 4.3281 31.52 14.617 43.66 13.32 14.746 35.105 22.199 64.629 22.199h66.598c32.441 0 50.969-22.016 60.797-40.477 14.562-27.379 14.844-27.875 14.879-63.555 0.003907-4.5078-0.78125-8.9766-2.3242-13.211-18.594-50.383-76.957-66.656-123.2-60.418-56.461 7.5781-111.73-14.332-114.03-15.266l5.5273-13.734c0.53125 0.21484 54.02 21.379 106.55 14.332 51.977-6.9844 117.66 11.938 139.05 69.965h0.003906c2.1641 5.875 3.2617 12.086 3.2422 18.344-0.042969 39.367-1.2969 41.711-16.621 70.496-16.609 31.164-42.863 48.324-73.883 48.324z"/>
 </g>
 <path d="m361.2 368.6h14.801v22.199h-14.801z"/>
 <g clip-path="url(#b)">
  <path d="m560.99 612.79h-51.797c-4.0859 0-7.3984-3.3125-7.3984-7.4023v-14.797c0-5.8867 2.3398-11.535 6.5-15.699 4.1641-4.1602 9.8125-6.5 15.699-6.5v-29.602h14.801v37h-0.003906c0 1.9648-0.77734 3.8438-2.1641 5.2344-1.3906 1.3867-3.2695 2.1641-5.2344 2.1641h-7.3984c-4.0859 0-7.3984 3.3164-7.3984 7.4023v7.3984h44.398-0.003906c1.9648 0 3.8477-0.78125 5.2344-2.168 1.3867-1.3867 2.168-3.2695 2.168-5.2305v-35.52c0.035157-6.6953 1.8555-13.258 5.2695-19.016 1.3633-2.3242 2.8398-4.4414 4.3867-6.7109 8.8789-12.875 19.98-28.859 19.98-116.34h14.801c0 92.066-12.512 110.19-22.562 124.74-1.3398 1.9375-2.625 3.7891-3.8047 5.8008-2.0938 3.4844-3.2227 7.4609-3.2734 11.527v35.52c0 5.8867-2.3359 11.531-6.5 15.695-4.1641 4.1641-9.8086 6.5039-15.699 6.5039z"/>
 </g>
 <g clip-path="url(#a)">
  <path d="m509.2 612.79h-36.996c-4.0898 0-7.4023-3.3125-7.4023-7.4023v-11.535c-0.050781-4.0586 1.0195-8.0508 3.0898-11.539 2.0703-3.4883 5.0664-6.3359 8.6562-8.2305 8.6172-4.4805 17.855-13.781 17.855-20.492 0-9.5078-8.5977-30.25-14.059-41.09l13.246-6.6172c1.5898 3.1836 15.539 31.625 15.539 47.707 0 16.078-16.91 28.992-25.848 33.625h-0.003906c-2.3867 1.3516-3.832 3.9141-3.75 6.6602v4.1133h29.598z"/>
 </g>
 <path d="m516.86 487h-81.656c-35.117 0-44.398-24.203-44.398-37v-36.996h14.801v37c0.035157 2.2188 1.2266 22.199 29.598 22.199h81.656c9.9648 0.082031 19.531-3.9297 26.453-11.102 14.801-15.723 32.484-47.098 32.484-107.3h14.801c0 65.035-19.859 99.754-36.516 117.43h-0.003906c-9.7148 10.148-23.172 15.852-37.219 15.77z"/>
 <path d="m390.8 316.8h14.801v59.199h-14.801z"/>
 <path d="m450 509.2h14.801v22.199h-14.801z"/>
 <path d="m479.6 509.2h14.801v22.199h-14.801z"/>
 <path d="m509.2 509.2h14.801v22.199h-14.801z"/>
 <path d="m546.2 501.8h14.801v22.199h-14.801z"/>
 <path d="m568.39 487h14.801v22.199h-14.801z"/>
 <path d="m420.4 501.8h14.801v22.199h-14.801z"/>
 <path d="m390.8 494.4h14.801v22.199h-14.801z"/>
 <path d="m436.75 401.79c-11.004-19.66-16.355-47.461-16.355-84.984h14.801c0 34.438 4.8672 60.605 14.465 77.762z"/>
 <path d="m494.4 435.2c-11.793 0.50391-23.484-2.375-33.699-8.293-10.211-5.918-18.52-14.633-23.945-25.117l12.914-7.2227h-0.003907c4.168 8.1641 10.609 14.949 18.547 19.535 7.9375 4.582 17.031 6.7695 26.188 6.2969 39.285 0 59.199-29.871 59.199-88.797h14.801c-0.003907 90.145-46.363 103.6-74 103.6z"/>
 <path d="m490.7 472.2c-4.9062 0-9.6094-1.9492-13.078-5.4219-3.4688-3.4688-5.418-8.1719-5.418-13.078s1.9492-9.6133 5.418-13.082 8.1719-5.418 13.078-5.418 9.6133 1.9492 13.082 5.418 5.418 8.1758 5.418 13.082-1.9492 9.6094-5.418 13.078c-3.4688 3.4727-8.1758 5.4219-13.082 5.4219zm0-22.199c-1.4961 0-2.8438 0.89844-3.418 2.2812-0.57031 1.3828-0.25391 2.9766 0.80469 4.0352 1.0586 1.0547 2.6484 1.3711 4.0312 0.80078 1.3828-0.57422 2.2852-1.9219 2.2852-3.418 0-0.98047-0.39063-1.9219-1.0859-2.6172-0.69531-0.69531-1.6328-1.082-2.6172-1.082z"/>
 <path d="m542.5 457.4c-4.9062 0-9.6133-1.9492-13.082-5.418s-5.418-8.1758-5.418-13.082 1.9492-9.6094 5.418-13.082c3.4688-3.4688 8.1758-5.418 13.082-5.418s9.6094 1.9492 13.078 5.418c3.4727 3.4727 5.418 8.1758 5.418 13.082s-1.9453 9.6133-5.418 13.082c-3.4688 3.4688-8.1719 5.418-13.078 5.418zm0-22.199c-1.4961 0-2.8477 0.90234-3.418 2.2852-0.57422 1.3828-0.25781 2.9727 0.80078 4.0312s2.6484 1.375 4.0312 0.80078c1.3828-0.57031 2.2852-1.9219 2.2852-3.418 0-0.98047-0.39062-1.9219-1.0859-2.6172-0.69141-0.69141-1.6328-1.082-2.6133-1.082z"/>
 <path d="m564.7 405.6c-4.9062 0-9.6133-1.9492-13.082-5.418-3.4688-3.4727-5.418-8.1758-5.418-13.082s1.9492-9.6133 5.418-13.082 8.1758-5.418 13.082-5.418 9.6094 1.9492 13.078 5.418 5.418 8.1758 5.418 13.082-1.9492 9.6094-5.418 13.082c-3.4688 3.4688-8.1719 5.418-13.078 5.418zm0-22.199c-1.4961 0-2.8477 0.89844-3.418 2.2812-0.57422 1.3828-0.25781 2.9766 0.80078 4.0352 1.0586 1.0547 2.6484 1.375 4.0312 0.80078s2.2852-1.9219 2.2852-3.418c0-0.98047-0.39062-1.9219-1.0859-2.6172-0.69141-0.69531-1.6328-1.082-2.6133-1.082z"/>
 <path d="m438.9 464.8c-4.9062 0-9.6094-1.9492-13.082-5.418-3.4688-3.4688-5.418-8.1758-5.418-13.082s1.9492-9.6094 5.418-13.078c3.4727-3.4688 8.1758-5.418 13.082-5.418s9.6133 1.9492 13.082 5.418 5.418 8.1719 5.418 13.078-1.9492 9.6133-5.418 13.082-8.1758 5.418-13.082 5.418zm0-22.199c-1.4961 0-2.8438 0.90234-3.418 2.2852-0.57422 1.3828-0.25781 2.9727 0.80078 4.0312 1.0586 1.0586 2.6523 1.375 4.0352 0.80469 1.3828-0.57422 2.2812-1.9219 2.2812-3.4219 0-0.98047-0.39062-1.9219-1.082-2.6133-0.69531-0.69531-1.6367-1.0859-2.6172-1.0859z"/>
 <path d="m416.7 413c-4.9062 0-9.6094-1.9492-13.082-5.418-3.4688-3.4688-5.418-8.1758-5.418-13.082s1.9492-9.6094 5.418-13.082c3.4727-3.4688 8.1758-5.418 13.082-5.418s9.6133 1.9492 13.082 5.418c3.4688 3.4727 5.418 8.1758 5.418 13.082s-1.9492 9.6133-5.418 13.082-8.1758 5.418-13.082 5.418zm0-22.199c-1.4961 0-2.8438 0.90234-3.418 2.2852-0.57422 1.3828-0.25391 2.9727 0.80078 4.0312 1.0586 1.0586 2.6523 1.375 4.0352 0.80078 1.3828-0.57031 2.2812-1.9219 2.2812-3.418 0-0.98047-0.38672-1.9219-1.082-2.6172-0.69531-0.69141-1.6367-1.082-2.6172-1.082z"/>
 <path d="m494.4 413c-16.523 0-38.227-10.02-47.766-57.719l14.512-2.9023c4.1797 20.891 13.348 45.82 33.254 45.82 35.992 0 37-73.258 37-73.996h14.801c-0.003907 3.625-0.59766 88.797-51.801 88.797z"/>
 <path d="m444.2 339.89c-0.95703-7.6602-1.4883-15.367-1.5977-23.086h14.801c0.11328 7.125 0.60547 14.238 1.4805 21.309z"/>
</svg>
