<?xml version="1.0" encoding="UTF-8"?>
<svg width="700pt" height="700pt" version="1.1" viewBox="0 0 700 700" xmlns="http://www.w3.org/2000/svg" xmlns:xlink="http://www.w3.org/1999/xlink">
  <path d="m389.37 290.39c3.9688 0 7.4414-2.668 8.4609-6.5039s-0.66797-7.875-4.1133-9.8477c-13.105-7.3281-28.734-8.6641-42.895-3.6562-14.16-5-29.785-3.668-42.895 3.6562-4.1953 2.3984-5.6523 7.7422-3.2578 11.938 2.3984 4.1953 7.7422 5.6523 11.938 3.2578 9.1055-5.0625 20.004-5.7461 29.668-1.8672 1.168 0.54688 2.4375 0.83203 3.7266 0.83203h1.6406c1.2656-0.007813 2.5156-0.28516 3.6719-0.80469 9.6758-3.9062 20.598-3.2305 29.723 1.8398 1.3164 0.75781 2.8125 1.1562 4.332 1.1562z"/>
  <path d="m109.38 560c4.832 0 8.75-3.918 8.75-8.75v-56.875c0-40.859 24.465-76.512 60.57-95.281l15.094 14.324 5.3516 27.645h-0.003906c0.85547 4.4023 3.3633 8.3125 7.0156 10.918l60.957 43.512c4.0234 2.875 9.0742 3.9102 13.906 2.8555 4.8281-1.0586 8.9883-4.1055 11.445-8.3945 2.457-4.2891 2.9883-9.418 1.457-14.121-7.1133-23.066-12.074-46.742-14.82-70.727l65.344 52.273 0.003906 0.003906 122.5 100.62-0.003907 0.003907c1.793 1.4727 4.0977 2.1758 6.4102 1.9492 2.3086-0.22656 4.4375-1.3594 5.9102-3.1523 1.4727-1.793 2.1719-4.1016 1.9453-6.4102-0.22656-2.3125-1.3633-4.4375-3.1562-5.9102l-55.719-45.77c0.12891 0.003906 0.25781 0.03125 0.38672 0.03125 3.6445 0 7.1992-1.1367 10.168-3.2578l60.957-43.512c3.6523-2.6055 6.1602-6.5156 7.0156-10.918l5.3516-27.645 15.094-14.324c36.102 18.77 60.566 54.422 60.566 95.281v56.875c0 4.832 3.918 8.75 8.75 8.75s8.75-3.918 8.75-8.75v-56.875c0-45.562-25.922-85.566-64.73-107.94l19.902-18.887c3.2383-3.0703 5.1797-7.2656 5.4258-11.723 0.25-4.457-1.2148-8.8398-4.0938-12.25-0.46484-0.56641-52.57-65.285-73.984-229.82h8.1055c4.832 0 8.75-3.918 8.75-8.75s-3.918-8.75-8.75-8.75h-10.824c-1.3281-5.9336-3.0273-11.777-5.0898-17.5h2.7891c4.832 0 8.75-3.918 8.75-8.75s-3.918-8.75-8.75-8.75h-10.527c-0.64844-1.2148-1.2969-2.4297-1.9961-3.6445-15.148-26.277-46.164-57.598-107.91-57.605h-0.015624c-2.1094 0-4.2422 0.035156-6.4258 0.11328-2.1875-0.078125-4.3359-0.11328-6.4453-0.11328-61.754 0-92.773 31.324-107.92 57.602-0.70312 1.2188-1.3516 2.4336-1.9961 3.6484h-10.52c-4.832 0-8.75 3.918-8.75 8.75s3.918 8.75 8.75 8.75h2.7812c-2.0586 5.7227-3.7578 11.566-5.0859 17.5h-10.82c-4.832 0-8.75 3.918-8.75 8.75s3.918 8.75 8.75 8.75h8.1055c-21.414 164.54-73.52 229.26-74.043 229.89-2.832 3.4258-4.2617 7.793-4.0039 12.227 0.26172 4.4336 2.1875 8.6094 5.3945 11.68l19.902 18.887c-38.809 22.375-64.73 62.379-64.73 107.94v56.875c0 4.832 3.918 8.75 8.75 8.75zm296.71-84.168c-0.95703 2.9805-1.0938 6.1641-0.39062 9.2148l-41.797-34.332 57-45.602c-2.7422 23.98-7.6992 47.656-14.812 70.719zm-56.082-36.41-71.559-57.246c14.477-5.3945 24.996-18.07 27.629-33.289 0.5625-3.2383 1.0508-6.4531 1.4922-9.6523 1.7969 1.1758 3.5859 2.3359 5.3516 3.4375v0.003906c11.105 7 23.961 10.715 37.086 10.715s25.984-3.7148 37.086-10.715c1.7656-1.1016 3.5586-2.2617 5.3516-3.4375 0.44141 3.1953 0.92969 6.4102 1.4922 9.6484 2.6328 15.219 13.152 27.895 27.629 33.289zm21.469-133.61v-0.003906c-0.69531-2.2109-2.2422-4.0586-4.3008-5.1328-2.0586-1.0703-4.457-1.2812-6.6719-0.58594l-10.496 3.3047-10.496-3.3047c-4.6094-1.4492-9.5234 1.1094-10.977 5.7188-1.4492 4.6094 1.1094 9.5234 5.7188 10.977l7.0039 2.2031v16.105c-6.7656-1.1562-13.242-3.625-19.062-7.2617-14.832-9.2617-36.316-24.703-48.945-42.695 0.5625-51.59 4.2109-94.848 5.7617-111.07l28.367-23.957 19.781 7.6641h0.003906c14.695 5.6914 30.992 5.6914 45.688 0l19.781-7.6641 28.363 23.957c1.5469 16.227 5.1914 59.5 5.7539 111.1-12.629 17.984-34.102 33.418-48.93 42.676v-0.003907c-5.8203 3.6367-12.297 6.1055-19.062 7.2617v-16.105l7.0039-2.2031c2.2109-0.69922 4.0586-2.2461 5.1289-4.3047 1.0742-2.0586 1.2852-4.457 0.58594-6.6719zm-80.125 21.895c-0.66016 5.9922-1.4492 12.039-2.5195 18.188h0.003906c-1.3906 7.9492-6.418 14.789-13.59 18.488-1.1758-17.617-1.7969-35.301-2-52.461 5.6992 5.6367 11.746 10.91 18.105 15.785zm119.83 18.184c-1.0703-6.1484-1.8555-12.195-2.5195-18.188l0.003906 0.003906c6.3555-4.875 12.398-10.141 18.09-15.77-0.20312 17.156-0.82031 34.832-1.9961 52.441-7.1641-3.7031-12.188-10.543-13.578-18.488zm-67.613-328.39c2.1055 0 4.2539 0.042969 6.4414 0.125 2.1953-0.082031 4.332-0.125 6.4414-0.125 48.074 0.003906 74.773 21.145 89.598 43.75h-192.09c14.824-22.609 41.523-43.75 89.609-43.75zm-98.883 61.25h210.64c2.3906 5.6797 4.3633 11.527 5.8906 17.5h-222.43c1.5273-5.9727 3.4961-11.82 5.8906-17.5zm-87.176 276.11s55.609-65.965 78.07-239.67c0 0 0.03125-0.53125 0.10938-1.4336h228.64c0.078126 0.90234 0.10938 1.4336 0.10938 1.4336 22.461 173.71 78.07 239.67 78.07 239.67l-52.402 49.727-6.418 33.152-60.957 43.516c37.43-115 14.973-315.99 14.973-315.99l-41.707-35.227-29.465 11.418c-10.633 4.1172-22.414 4.1172-33.047 0l-29.465-11.418-41.707 35.227s-22.457 200.99 14.973 315.99l-60.957-43.516-6.418-33.152z"/>
</svg>
