<svg height='300px' width='300px'  fill="#000000" xmlns="http://www.w3.org/2000/svg" xmlns:xlink="http://www.w3.org/1999/xlink" version="1.1" x="0px" y="0px" viewBox="0 0 512 512" style="enable-background:new 0 0 512 512;" xml:space="preserve"><g><g><path d="M510.6,427.7l-13-19.9c-0.3-0.5-0.7-0.9-1.1-1.3l-12.8-19.5c-0.2-0.5-0.5-1.1-0.8-1.6L377.1,223.1c-1.5-2.3-4-3.6-6.7-3.6    s-5.2,1.4-6.7,3.6l-19.9,30.5L241,97l-0.1,0l-14-21.5c-1.5-2.3-4-3.6-6.7-3.6s-5.2,1.4-6.7,3.6l-65.1,99.8    c-2.4,3.7-1.4,8.7,2.3,11.1s8.7,1.4,11.1-2.3l42.4-65.1l-74.4,278.1H22.9l98-150.2c2.4-3.7,1.4-8.7-2.3-11.1    c-3.7-2.4-8.7-1.4-11.1,2.3L1.4,400.7c-1.6,2.5-1.7,5.6-0.3,8.2c1.4,2.6,4.1,4.2,7,4.2h127.8c0,0,0,0,0,0c0,0,0,0,0,0h3.7    c4.4,0,8-3.6,8-8c0-2.1-0.8-3.9-2.1-5.3l24.8-92.8H232c4.4,0,8-3.6,8-8s-3.6-8-8-8h-57.2l50.1-187.1    c-3.5,105.4,41.1,203,14.1,310.5l-8.8,13.5c-1.6,2.5-1.7,5.6-0.3,8.2c1.4,2.6,4.1,4.2,7,4.2h149.4c4.4,0,8-3.6,8-8s-3.6-8-8-8    H251.7L350,273.3c0,0,0,0,0,0l2.7-4.1l-34.2,127.9c-1.1,4.3,1.4,8.7,5.7,9.8c0.7,0.2,1.4,0.3,2.1,0.3c3.5,0,6.8-2.4,7.7-5.9    l17-63.5h19.5c4.4,0,8-3.6,8-8s-3.6-8-8-8h-15.2l16.3-61c14.3,55.3,96.6,106,57.3,163.3h-16.5c-4.4,0-8,3.6-8,8s3.6,8,8,8h91.6    c2.9,0,5.6-1.6,7-4.2C512.3,433.3,512.2,430.2,510.6,427.7z M283.6,273c0,1.7-1.3,3-3,3h-9.5c-1.7,0-3-1.3-3-3s1.3-3,3-3h9.5    C282.3,270,283.6,271.3,283.6,273z M244.3,194.4c-1.7,0-3-1.3-3-3s1.3-3,3-3H276c1.7,0,3,1.3,3,3s-1.3,3-3,3H244.3z M487.5,424.1    l1.5-0.2l0.2,0.2H487.5z"></path><path d="M128.2,220.9c1.3,0.9,2.9,1.3,4.4,1.3c2.6,0,5.2-1.3,6.7-3.6l7.2-11c2.4-3.7,1.4-8.7-2.3-11.1c-3.7-2.4-8.7-1.4-11.1,2.3    l-7.2,11C123.4,213.6,124.5,218.5,128.2,220.9z"></path><path d="M86.1,332.7c-4.4,0-8,3.6-8,8s3.6,8,8,8h24.6c4.4,0,8-3.6,8-8s-3.6-8-8-8H86.1z"></path><path d="M416.2,370.2c0-4.4-3.6-8-8-8h-32c-4.4,0-8,3.6-8,8s3.6,8,8,8h32C412.7,378.2,416.2,374.7,416.2,370.2z"></path><path d="M394.7,181.7c37.3,0,67.7-30.4,67.7-67.7S432,46.3,394.7,46.3S327,76.7,327,114S357.4,181.7,394.7,181.7z M394.7,62.3    c9.8,0,19,2.8,26.9,7.6c33,34.1-30.8,68.3-27.7,95.8c-28.1-0.5-50.8-23.5-50.8-51.6C343,85.5,366.2,62.3,394.7,62.3z"></path></g></g></svg>