<?xml version="1.0" standalone="no"?>
<!DOCTYPE svg PUBLIC "-//W3C//DTD SVG 20010904//EN"
 "http://www.w3.org/TR/2001/REC-SVG-20010904/DTD/svg10.dtd">
<svg version="1.0" xmlns="http://www.w3.org/2000/svg"
 width="700.000000pt" height="700.000000pt" viewBox="0 0 700.000000 700.000000"
 preserveAspectRatio="xMidYMid meet">

<g transform="translate(0.000000,700.000000) scale(0.100000,-0.100000)"
fill="#000000" stroke="none">
<path d="M2947 5390 c-60 -23 -68 -28 -262 -170 -155 -114 -162 -118 -221
-123 -33 -2 -75 -12 -93 -22 -30 -15 -181 -123 -318 -227 -60 -46 -93 -105
-93 -167 0 -37 5 -49 36 -78 l36 -34 -14 -115 c-8 -63 -12 -117 -9 -118 3 -2
24 -7 47 -10 l40 -7 76 108 75 108 49 0 c87 -1 80 18 89 -266 10 -338 40 -488
139 -687 42 -86 87 -153 235 -352 64 -85 121 -164 127 -175 8 -15 7 -94 -2
-294 -8 -151 -15 -276 -17 -277 -8 -9 -327 64 -327 74 0 4 34 97 76 207 41
110 88 235 104 278 l29 78 -60 80 c-34 44 -62 79 -64 77 -2 -2 -35 -102 -75
-223 -107 -331 -149 -457 -152 -460 -2 -2 -70 14 -153 36 -162 42 -175 44
-175 30 0 -9 -11 -29 -100 -176 -19 -33 -43 -73 -52 -90 -9 -16 -29 -34 -45
-39 -15 -5 -53 -25 -83 -45 -30 -20 -66 -42 -80 -48 -158 -70 -816 -366 -885
-398 -49 -23 -227 -104 -395 -180 -282 -127 -339 -155 -315 -155 5 0 144 34
310 76 893 226 1280 322 1284 318 5 -5 -10 -38 -395 -876 -93 -202 -95 -204
196 222 102 149 205 300 230 335 25 35 130 188 234 339 167 244 191 276 215
276 27 0 66 -6 406 -65 116 -20 354 -60 530 -90 176 -30 415 -70 530 -90 116
-20 370 -63 565 -96 195 -33 473 -80 617 -105 145 -24 381 -64 525 -89 145
-24 344 -58 443 -75 99 -17 297 -51 440 -75 143 -24 327 -56 409 -70 162 -27
173 -28 163 -18 -4 3 -55 18 -114 33 -60 15 -205 53 -323 83 -118 31 -296 77
-395 102 -99 26 -229 59 -290 75 -242 63 -475 123 -563 145 -52 13 -96 26 -99
28 -5 6 206 338 233 366 9 10 17 11 26 4 7 -5 103 -56 213 -113 110 -56 236
-122 280 -145 244 -129 397 -206 401 -202 3 3 -314 282 -610 537 -23 19 -115
100 -205 178 -90 79 -170 146 -178 149 -14 6 -58 -35 -466 -436 -155 -153
-200 -192 -207 -181 -8 12 -10 9 -10 -10 0 -14 -4 -20 -8 -14 -4 6 -37 17 -75
24 -37 7 -70 16 -73 21 -3 5 -17 9 -31 9 -29 0 -375 88 -384 98 -4 4 4 39 17
77 14 39 33 97 43 130 11 33 53 159 94 280 72 211 74 221 58 240 -143 164
-177 201 -190 207 -17 8 -295 48 -330 48 -20 0 -21 -2 -9 -19 16 -23 158 -184
271 -307 32 -35 32 -39 -9 -214 -8 -36 -30 -139 -50 -230 -19 -90 -37 -166
-39 -168 -4 -4 -98 14 -175 34 -30 7 -152 39 -270 69 -118 31 -243 63 -278 73
l-64 17 7 55 c7 61 54 384 85 581 11 70 23 154 26 188 8 71 -1 69 159 46 55
-8 168 -23 250 -34 83 -11 195 -27 250 -36 55 -8 127 -19 160 -23 l60 -7 158
-180 c87 -99 178 -203 202 -230 l44 -51 -9 -54 c-15 -100 -62 -414 -74 -497
l-12 -82 63 -7 c35 -3 66 -4 68 -2 4 4 22 64 70 228 7 25 25 86 39 135 15 50
35 119 46 155 10 36 30 103 43 150 64 220 80 277 84 300 3 15 -9 55 -31 101
l-34 77 69 193 c39 107 76 204 84 215 8 12 45 56 84 97 38 42 79 93 89 114 21
41 40 153 26 153 -5 -1 -81 -25 -169 -54 l-160 -53 -76 72 c-129 123 -149 129
-589 195 -74 11 -211 31 -305 45 -93 14 -228 34 -300 45 -71 10 -193 28 -270
40 -77 11 -143 24 -146 28 -6 6 -21 39 -95 217 -14 33 -32 74 -39 90 -100 232
-98 212 -23 217 78 5 129 29 192 90 55 53 53 63 -9 71 -143 19 -215 32 -215
37 0 4 42 48 94 98 103 101 152 129 276 157 41 9 102 25 135 34 l60 17 -120
18 c-177 27 -251 28 -308 6z"/>
<path d="M6838 1433 c7 -3 16 -2 19 1 4 3 -2 6 -13 5 -11 0 -14 -3 -6 -6z"/>
</g>
</svg>
