<?xml version="1.0" encoding="UTF-8"?>
<svg width="752pt" height="752pt" version="1.1" viewBox="0 0 752 752" xmlns="http://www.w3.org/2000/svg">
 <g>
  <path d="m488.16 413.39h12.461v12.461h-12.461z"/>
  <path d="m575.4 376h12.461v12.461h-12.461z"/>
  <path d="m562.94 400.93h-37.387v-12.461l12.461-12.465h24.926z"/>
  <path d="m500.63 276.3v-12.461l-24.926-12.461v12.461h-12.461l-49.852-12.461v-12.461l-74.777-12.461-12.461 12.461-49.852-12.461h-49.852v-12.461h-24.926l-12.461 24.926h-24.926l12.461 62.312h12.461l12.461-12.461v12.461h49.852v12.461h12.461l-24.926 24.926v49.852h-24.926l24.926 24.926-12.461 12.461 12.461 24.926-12.461 24.926v12.461h12.461l12.461 12.461 12.461 24.926 12.461 12.461 37.387-37.387h74.777l24.926-24.926h12.461l12.461-37.387 24.926-12.461-24.926-24.926 37.387-62.312 49.852-12.461 24.926-24.926v-24.926z"/>
 </g>
</svg>
