<?xml version="1.0" encoding="UTF-8"?>
<svg width="752pt" height="752pt" version="1.1" viewBox="50 50 552 552" xmlns="http://www.w3.org/2000/svg">
 <defs>
  <clipPath id="b">
   <path d="m264 139.21h170v218.79h-170z"/>
  </clipPath>
  <clipPath id="a">
   <path d="m318 394h170v218.79h-170z"/>
  </clipPath>
 </defs>
 <g clip-path="url(#b)">
  <path d="m433.74 239.19h-29.762l-27.961-48.402-27.961 48.402-10.609 18.418-14.879 25.785-5.3438 9.2109-5.3047 9.2109-32.195 55.77-14.883-25.785 17.277-29.984 5.3398-9.2109 5.3047-9.2109 14.883-25.785 5.3438-9.207 5.3047-9.2109 57.723-99.977z"/>
 </g>
 <path d="m480.53 468.61h55.883l-27.961-48.402-10.609-18.418-14.883-25.789-5.3398-9.207-5.3047-9.2109-32.195-55.77h29.766l17.312 29.984 5.3047 9.2109 5.3398 9.207 14.883 25.785 10.609 18.422 57.723 99.977h-115.41z"/>
 <path d="m408.21 468.61-14.883 25.789h-222.39l57.727-99.977 14.879 25.785-27.922 48.402z"/>
 <g clip-path="url(#a)">
  <path d="m487.2 420.21-17.312 29.984-5.3047 9.2109-5.3438 9.207-14.883 25.789-10.609 18.418-57.723 99.977-57.723-99.977h29.762l27.961 48.402 27.961-48.402 10.609-18.418 14.883-25.789 5.3398-9.207 5.3047-9.2109 32.195-55.77z"/>
 </g>
 <path d="m311.92 450.19h-29.801l-17.277-29.984-5.3398-9.2109-5.3047-9.207-14.883-25.789-5.3398-9.207-5.3047-9.2109-57.727-99.977h115.45l-14.883 25.785h-55.883l27.922 48.406 5.3438 9.2109 5.3047 9.207 14.883 25.785 5.3398 9.2109 5.3047 9.2109z"/>
 <path d="m581.05 257.61-57.723 99.977-14.883-25.785 27.961-48.406h-192.59l14.883-25.785z"/>
</svg>
