<?xml version="1.0" encoding="UTF-8"?>
<svg width="752pt" height="752pt" version="1.1" viewBox="70 50 552 552" xmlns="http://www.w3.org/2000/svg">
 <path d="m344.67 372.91c32.637 19.75 50.285 68.168 40.672 119.97-11.574 62.289-58.195 105.87-104.13 97.34-45.941-8.5352-73.801-65.949-62.234-128.24 11.098-59.762 54.465-102.29 98.535-98.109 1.3633-13.07 12.77-74.09 107-80.664 13.879-0.96875 119.98-12.305 119.98-32.336 0-18.844 28.648-18.844 28.648 0 0 43.723-89.953 56.012-133.4 59.828l0.003906 11.809c36.594-8.7578 82.762 12.094 112.96 54.27 36.883 51.512 35.988 115.32-1.9961 142.52-37.992 27.207-98.691 7.4961-135.57-44.016-34.859-48.688-35.965-108.36-3.9102-137.72l-0.023438-24.09c-64.426 10.41-65.332 53.742-65.34 53.871-0.074219 2.1016-0.49609 3.9531-1.1953 5.5664zm30.066-212.18c43.086 0 121.88 67.109 100.73 107.18-52.359-12.637-95.566-51.008-100.73-107.18zm-202.53 94.871c83.887-38.004 177.09-12.195 210.79 15.77 0 0-91.051 88.902-210.79-15.77zm345.79 217.81c-14.348 6.7188-22.438 19.719-18.074 29.043s19.531 11.438 33.875 4.7227c14.348-6.7109 22.441-19.711 18.074-29.035-4.3633-9.3242-19.531-11.438-33.875-4.7266zm-226.6 61.379c15.84 0 28.684 8.3438 28.684 18.637s-12.844 18.637-28.684 18.637c-15.836 0-28.68-8.3438-28.68-18.637s12.844-18.637 28.68-18.637z" fill-rule="evenodd"/>
</svg>
