<?xml version="1.0" encoding="UTF-8"?>
<svg width="752pt" height="752pt" version="1.1" viewBox="80 50 552 552" xmlns="http://www.w3.org/2000/svg">
 <defs>
  <clipPath id="c">
   <path d="m176 213h436.79v326h-436.79z"/>
  </clipPath>
  <clipPath id="b">
   <path d="m544 470h68.793v36h-68.793z"/>
  </clipPath>
  <clipPath id="a">
   <path d="m139.21 438h77.789v39h-77.789z"/>
  </clipPath>
 </defs>
 <g>
  <g clip-path="url(#c)">
   <path d="m196.56 473.6c-4.9688 5.5156-10.281 10.703-15.91 15.543-3.5195 2.1836-5.1172 6.4766-3.8828 10.434 2.625 6.1055 10.543 5.2891 15.613 3.4023 4.6172-1.2461 9.3555-1.9883 14.133-2.2188-0.42578-2.3594-0.63672-4.7461-0.62891-7.1406 0.10938-7.2422 1.668-14.391 4.5859-21.016 0.87891-1.8398 3.0742-2.6328 4.9219-1.7773 1.8438 0.89453 2.6328 3.0977 1.7773 4.957 0 0.023438-0.015625 0.039063-0.039063 0.039063-0.40625 0.88672-8.0664 17.539-0.85156 30.746 4.293 7.8438 12.691 12.617 24.863 14.207 0.59375 0.10938 57.902 9.1758 75.18 16.281 0.59375 0.25781 1.1484 0.48047 1.6641 0.73828h0.003906c0.73438 0.36719 1.5195 0.62891 2.332 0.77734-0.054687-0.21875-0.09375-0.44141-0.11328-0.66797-0.63672-3.9023-3.2344-7.2031-6.8828-8.7305-1.8086-0.94922-2.5039-3.1875-1.5508-4.9961 0.94922-1.8086 3.1836-2.5039 4.9922-1.5547 5.75 2.582 9.793 7.9062 10.73 14.137 0.37891-0.33984 0.71484-0.72656 1-1.1484 3.125-5.0742 3.918-11.246 2.1836-16.945-1.4805-4.6602-5.5117-11.062-16.426-15.355l-32.152-13.098-0.035156-0.035156c-8.1406-3.5508-13.875-6.6602-13.688-14.207h-0.007812c0.085937-2.0234 1.75-3.6211 3.7773-3.6289 2.0391 0.046875 3.6602 1.7344 3.625 3.7773-0.074219 2.0352 0.33203 3.3672 9.2852 7.2891l0.51953 0.25781c9.7305 4.293 19.867 8.25 29.672 12.098l1.7031 0.66406c3.5938 1.3633 6.9805 3.2188 10.062 5.5156 1.6289-0.035156 3.1836-0.074218 4.7344-0.14844 36.148-1.4062 73.629-0.92578 109.96-0.40625 3.6992-2.1094 8.3242-4.957 13.949-8.4727 2.0352-1.2578 4.4766-2.2578 6.3633-3.6641 5.2891-2.8125 7.7695-4.4414 8.3633-6.4023 1.4414-4.8477-2.0703-12.172-4.8828-17.242-7.1406-13.023-1.2578-28.746-0.55469-30.488l-0.003907 0.003906c0.35156-0.91797 1.0547-1.6523 1.9531-2.0469 0.89844-0.39844 1.918-0.41797 2.832-0.054687 0.91406 0.35937 1.6445 1.0703 2.0312 1.9727s0.39844 1.9219 0.027343 2.8281c-1.207 3.3281-1.9766 6.8008-2.293 10.324-0.52734 4.7969 0.34375 9.6406 2.5156 13.949 3.6992 6.7344 7.6602 15.465 5.4766 22.863-0.53906 1.6953-1.4492 3.25-2.6641 4.5508-3.7734 4.0703-9.1367 5.957-13.762 8.7695-2.1094 1.2969-18.277 11.582-24.605 14.281-5.0312 1.8047-8.4492 6.5-8.6211 11.84 0.32031-0.17188 0.67578-0.27344 1.0352-0.29688 4.8672-0.65234 9.6133-1.9961 14.098-3.9961 0.89062-0.41797 1.9102-0.46484 2.832-0.12891 0.92578 0.33203 1.6758 1.0234 2.0898 1.9141s0.45703 1.9141 0.11719 2.8359c-0.34375 0.92188-1.0352 1.668-1.9297 2.0781-4.9805 2.25-10.246 3.7969-15.652 4.5859 1.3555 1.6719 3.2305 2.8438 5.3281 3.332 4.5156 0.63281 9.1016 0.62109 13.617-0.039062 10.805-0.92578 21.461-3.2188 32.336-3.2578v0.003906c6.3438 0.40625 12.695-0.59375 18.609-2.9258 14.023-6.3281 23.828-19.609 28.305-38.035v0.003906c3.2305-13.09 3.7227-26.707 1.4414-39.996-1.332-7.5859-4.3281-14.949-4.4414-22.719h0.003906c-0.011719-2.0547 1.6445-3.7266 3.6992-3.7344 2.0195-0.015625 3.6719 1.6016 3.6992 3.625 0.10937 7.3242 3.0703 14.355 4.3281 21.496 1.5742 9.4258 1.875 19.02 0.88672 28.523-0.44922 4.8984-1.2539 9.7578-2.4023 14.543 19.312-7.918 37.148-21.941 51.648-46.434 27.676-46.582 17.723-115.1-4.4414-162.35l0.003906-0.003906c-1.9023-3.4922-1.8477-7.7266 0.14453-11.172 0.88672-1.5156 19.055-18.426 20.016-19.609 4.1797-5.1445 8.8789-10.953 9.3984-17.832 0.22266-2.2617 0.11328-4.543-0.33203-6.7734-1.1836-5.0703-6.2148-13.281-26.602-11.062-0.55469 0.074219-7.9531 0.85156-7.9531 0.88672v0.003906c-2.0312-0.45703-4.0352-1.0391-5.9961-1.7422-2.8125-0.95703-5.6953-1.7148-8.6211-2.2539-10.148-1.7422-20.586-0.53906-30.074 3.4688-9.4883 4.0078-17.629 10.648-23.461 19.137-11.359 17.426-11.617 36.516-11.84 55.016-0.18359 14.91-0.37109 29.008-5.957 42.328-8.4727 20.238-30.301 27.191-49.539 33.336-2.1836 0.66406-87.02 28.82-120.5 38.219-31.41 8.8047-70.52 19.758-101.71 45.473l-0.003906-0.003906c-8.2383 7.1406-16.07 14.738-23.457 22.754zm372.87-67.371c4.5039-12.453 6.2578-25.73 5.1445-38.922-0.14844-0.97656 0.10156-1.9648 0.69141-2.7539 0.59375-0.78516 1.4766-1.3008 2.4531-1.4297 2.0039-0.27344 3.8633 1.1094 4.1797 3.1094 1.3359 14.387-0.53516 28.895-5.4766 42.473-0.69141 1.9219-2.8047 2.9258-4.7305 2.2422-1.9258-0.67969-2.9375-2.793-2.2617-4.7188zm-39.59-157.46 1.5898-3.6641h0.003906c1.6172-3.5195 5.082-5.8242 8.9531-5.957h3.957c2.043 0 3.6992 1.6562 3.6992 3.6992s-1.6562 3.6992-3.6992 3.6992h-3.957c-0.90625 0.11328-1.7031 0.64844-2.1484 1.4453l-1.5898 3.6992c-0.83594 1.8555-2.9922 2.7227-4.8828 1.9609-1.8711-0.82813-2.7266-3.0039-1.9258-4.8867z"/>
  </g>
  <g clip-path="url(#b)">
   <path d="m600.47 490.25c4.2266 0.23438 8.3672 1.3164 12.172 3.1797-0.45312-1.8789-1.3398-3.6289-2.5898-5.1055-0.29688-0.37109-7.5859-9.5469-15.871-9.5469h-10.656v0.003906c-1.7695-2.6758-3.3516-5.4727-4.7383-8.3633-0.09375 0.046875-0.17969 0.10938-0.25781 0.18359-9.5 10.785-21.074 19.543-34.039 25.754 3.418 5.5977 9.4609 9.0625 16.02 9.1758h39.367c0.59766 0 1.1836-0.15234 1.7031-0.44531l7.1055-3.625h-0.003906c0.46094-0.23047 0.89453-0.5 1.2969-0.81641-0.58984-0.22266-1.1133-0.58984-1.5156-1.0703-2.8828-1.0156-5.8789-1.6719-8.918-1.9609-2.0352-0.25781-3.4766-2.1133-3.2188-4.1445 0.25391-2.0352 2.1094-3.4766 4.1445-3.2188z"/>
  </g>
  <g clip-path="url(#a)">
   <path d="m139.76 466.45c3.4531 7.8047 17.539 9.5781 29.633 9.5781v0.003906c5.1367-0.019532 10.266-0.29688 15.375-0.83594 0.69141-0.70703 29.258-28.992 30.527-30.043 0.52344-0.42969 1.0625-0.82422 1.5898-1.2461-5.9414 0.43359-10.598 0.62109-12.797 0.69531-5.9102-4.9531-10.695-6.6406-14.602-5.168-2.2617 0.90234-4.0078 2.7617-4.7617 5.0781-2.2266 0.35156-4.5078 0.027344-6.5469-0.93359-2.6719-1.0508-5.5352-1.5234-8.4023-1.3906-3.8164 0.4375-13.457 7.1484-18.148 11.363-3.2266-1.1602-6.8203-0.58594-9.5195 1.5273-2.5781 2.9219-3.5391 6.9258-2.5664 10.699 0.050781 0.23047 0.125 0.45703 0.21875 0.67187z"/>
  </g>
 </g>
</svg>
