<?xml version="1.0" encoding="UTF-8"?>
<svg width="752pt" height="752pt" version="1.1" viewBox="100 100 552 552" xmlns="http://www.w3.org/2000/svg">
 <path d="m587.77 574.11v-8.1484h-35.957v-5.1953l-4.707-4.707v-113.7l3.3008-9.832h-3.2305v-8.0078l11.379-11.379h-11.52v-9.9727l-2.1055-2.2461 1.7539-1.7539-1.3359-16.082-2.1055-0.003906-2.5273 16.152 1.9648 1.9648-3.2305 2.5625v-28.094l3.5117-2.9805 1.5469-2.5273-5.0586-3.0352v-33.977l7.5859-9.4805h-7.5859v-10.816h-6.7422v-26.066l3.5117-4.4141h-3.5117v-1.793l6.1797-7.8984h-3.3711l2.1055-3.793h-10.816v-9.1953c2.1953-2.4297 3.3008-5.1953 2.9102-7.957-0.25-1.7617-1.0898-3.3555-2.3867-4.7227 0.042969-3.6133-0.85547-12.352-9.7578-18.055 0.33594-0.66016 0.52734-1.3633 0.52734-2.1016 0-1.8359-1.1367-3.4844-2.9492-4.6562v-8.25c1.1836-0.95703 1.8945-2.1836 1.8945-3.5273 0-1.5742-0.98437-2.9922-2.5586-3.9961 0.019531-0.3125 0.03125-0.63281 0.03125-0.95312 0-4.2539-1.7891-7.8242-4.2148-8.8789v-2.2891c0.95312-0.44922 1.6172-1.4062 1.6172-2.5312 0-1.2812-0.86328-2.3516-2.0352-2.6875v-2.1133c0.82422-0.33203 1.4062-1.1367 1.4062-2.082 0-1.0078-0.66797-1.8516-1.582-2.1367v-4.4688h1.3398c0.19141 0.25391 0.49609 0.42188 0.83984 0.42188 0.58203 0 1.0547-0.47266 1.0547-1.0547-0.003906-0.57812-0.47656-1.0508-1.0586-1.0508-0.32812 0-0.61719 0.15234-0.80859 0.38672h-1.3672v-1.6914c0.25391-0.19141 0.42188-0.49609 0.42188-0.83984 0-0.58203-0.47266-1.0547-1.0547-1.0547-0.58203 0-1.0547 0.47266-1.0547 1.0547 0 0.32812 0.15234 0.61719 0.38672 0.80859v1.7188h-1.4727c-0.19141-0.23437-0.48047-0.38672-0.80859-0.38672-0.58203 0-1.0547 0.47266-1.0547 1.0547s0.47266 1.0547 1.0547 1.0547c0.34375 0 0.64453-0.16797 0.83984-0.42188h1.4453l-0.003906 4.457c-0.92969 0.27344-1.6172 1.125-1.6172 2.1445 0 0.94141 0.58203 1.7461 1.4062 2.082v2.1562c-1.1016 0.37891-1.8945 1.4141-1.8945 2.6445 0 1.0938 0.63281 2.0312 1.5469 2.4922v2.1523c-2.6719 0.75391-4.707 4.5117-4.707 9.0508 0 0.33594 0.011719 0.66797 0.035156 0.99219-1.5352 1.0039-2.4922 2.4023-2.4922 3.957 0 1.4688 0.85937 2.8008 2.2461 3.7891v7.543c-2.2578 1.1758-3.7227 3.0195-3.7227 5.1055 0 0.89453 0.27344 1.75 0.76172 2.5234-5.0469 4.1133-8.5391 11.707-9.0469 20.75-1.9258 2.3164-2.875 4.9062-2.5039 7.4961 0.38672 2.6992 2.1445 4.9961 4.8203 6.7031v4.7031h-0.98438v2.1055h-3.5117l-3.582 3.582-3.3008 13.977 4.3555 5.0586v33.148l-9.5508 20.367 6.1094 6.1094v15.52h-2.7383l-3.3711 12.078 4.3555 5.3359v23.879l-4.7773 0.003906-2.9492 2.9492h-6.6016l2.1055-3.6523-35.539-12.078v-25.285l2.8789-6.5312-2.3164-1.3359-0.14062-4.4961 5.7578-3.3711s-1.2656-0.98437-5.4062-3.0898v-7.7969s-2.457-1.6875-5.6172-2.9492c0 0 1.8242-3.7227-3.793-9.9727l-1.1953-1.0547v-3.8633s-0.5625-0.98438-1.7539-1.8242c0 0 1.3359-27.18-27.742-45.723 0 0 4.6367-6.0391 0.28125-11.52v-5.6172s-3.0898-2.5273-5.3359-3.4414l-1.7539-3.1602v-13.484l2.3164-2.8086-1.5469-0.28125v-1.5469l1.9648-0.98438s-0.84375-2.9492-4.7773-5.125c0 0 0.49219-4.9883-4.6367-8.2188v-1.7539s-0.73828-0.77344-1.8945-1.1953c0 0 0.98438-1.1953-0.42188-2.5977 0 0-0.046875-1.4805-0.8125-2.3359v-1.3242c0.82031-0.38672 1.3906-1.2109 1.3906-2.1758 0-1.1016-0.74219-2.0234-1.75-2.3125v-1.8164c0.70703-0.28516 1.207-0.98047 1.207-1.7891 0-0.86719-0.57422-1.5898-1.3594-1.8359v-3.8398h1.1523c0.16406 0.21875 0.42578 0.36328 0.71875 0.36328 0.5 0 0.90625-0.40625 0.90625-0.90625s-0.40625-0.90625-0.90625-0.90625c-0.28125 0-0.53125 0.13281-0.69531 0.33203h-1.1758v-1.4531c0.21875-0.16406 0.36328-0.42578 0.36328-0.71875 0-0.5-0.40625-0.90625-0.90625-0.90625s-0.90625 0.40625-0.90625 0.90625c0 0.28125 0.13281 0.53125 0.33203 0.69531v1.4805h-1.2656c-0.16797-0.20312-0.41406-0.33203-0.69531-0.33203-0.5 0-0.90625 0.40625-0.90625 0.90625s0.40625 0.90625 0.90625 0.90625c0.29688 0 0.55469-0.14453 0.71875-0.36328h1.2422v3.832c-0.80078 0.23438-1.3906 0.96875-1.3906 1.8438 0 0.8125 0.5 1.5039 1.207 1.7891v1.8555c-0.94531 0.32812-1.6289 1.2148-1.6289 2.2734 0 0.94141 0.54297 1.7461 1.3281 2.1445v1.4688c-0.67969 0.86719-0.72266 2.2227-0.72266 2.2227-1.4062 1.4062-0.42188 2.5977-0.42188 2.5977-1.1602 0.42188-1.8945 1.1953-1.8945 1.1953v1.7539c-5.125 3.2305-4.6367 8.2188-4.6367 8.2188-3.9336 2.1758-4.7773 5.125-4.7773 5.125l1.9648 0.98438v1.5469l-1.5469 0.28125 2.3164 2.8086v13.484l-1.7539 3.1602c-2.2461 0.91406-5.3359 3.4414-5.3359 3.4414v5.6172c-4.3555 5.4766 0.28125 11.52 0.28125 11.52-29.074 18.543-27.742 45.723-27.742 45.723-1.1953 0.84375-1.7539 1.8242-1.7539 1.8242v3.8633l-1.1953 1.0547c-5.6172 6.25-3.793 9.9727-3.793 9.9727-3.1602 1.2656-5.6172 2.9492-5.6172 2.9492v7.7969c-4.1445 2.1055-5.4062 3.0898-5.4062 3.0898l5.7578 3.3711-0.14062 4.4961-2.3164 1.332 2.8789 6.5312v25.285l-35.539 12.078 2.1055 3.6523h-7.7266l-2.9492-2.9492h-4.7773v-23.879l4.3555-5.3359-3.3711-12.078h-2.7383v-15.52l6.1094-6.1094-9.5508-20.367v-33.148l4.3555-5.0586-3.3008-13.977-3.582-3.582-3.5078-0.003906v-2.1055h-0.98438v-4.7031c2.6758-1.707 4.4375-4.0039 4.8203-6.7031 0.37109-2.5898-0.57812-5.1836-2.5039-7.4961-0.50781-9.043-4-16.637-9.0469-20.75 0.48828-0.77344 0.76172-1.625 0.76172-2.5234 0-2.082-1.4648-3.9297-3.7227-5.1055v-7.543c1.3906-0.98828 2.2461-2.3203 2.2461-3.7891 0-1.5547-0.95703-2.9531-2.4922-3.957 0.023438-0.32812 0.035157-0.65625 0.035157-0.99219 0-4.5391-2.0352-8.2969-4.707-9.0508v-2.1523c0.91406-0.46094 1.5469-1.3984 1.5469-2.4922 0-1.2305-0.79688-2.2656-1.8945-2.6445v-2.1562c0.82422-0.33203 1.4062-1.1367 1.4062-2.082 0-1.0195-0.68359-1.8711-1.6172-2.1445l-0.003906-4.457h1.4453c0.19141 0.25391 0.49609 0.42188 0.83984 0.42188 0.58203 0 1.0547-0.47266 1.0547-1.0547s-0.47266-1.0547-1.0547-1.0547c-0.32812 0-0.61719 0.15234-0.80859 0.38672h-1.4727l-0.003906-1.7148c0.23438-0.19141 0.38672-0.48047 0.38672-0.80859 0-0.58203-0.47266-1.0547-1.0547-1.0547-0.58203 0-1.0547 0.47266-1.0547 1.0547 0 0.34375 0.16797 0.64453 0.42188 0.83984v1.6914h-1.3672c-0.19141-0.23438-0.48047-0.38672-0.80859-0.38672-0.58203 0-1.0547 0.47266-1.0547 1.0547 0 0.58203 0.47266 1.0547 1.0547 1.0547 0.34375 0 0.64453-0.16797 0.83984-0.42188h1.3398v4.4648c-0.91406 0.28516-1.582 1.1289-1.582 2.1367 0 0.94141 0.58203 1.7461 1.4062 2.082v2.1133c-1.1719 0.33594-2.0352 1.4062-2.0352 2.6875 0 1.1211 0.66406 2.082 1.6172 2.5312v2.2891c-2.4258 1.0508-4.2148 4.6211-4.2148 8.8789 0 0.32031 0.011718 0.64062 0.03125 0.95312-1.5742 1.0039-2.5586 2.4219-2.5586 3.9961 0 1.3438 0.71484 2.5703 1.8945 3.5273v8.25c-1.8125 1.1719-2.9492 2.8203-2.9492 4.6562 0 0.73828 0.19141 1.4414 0.52734 2.1016-8.9023 5.7031-9.8047 14.445-9.7578 18.055-1.2969 1.3672-2.1328 2.9609-2.3867 4.7227-0.39453 2.7656 0.71484 5.5273 2.9102 7.957v9.1953h-10.816l2.1055 3.793h-3.3711l6.1797 7.8984v1.793h-3.5117l3.5117 4.4141v26.066h-6.7422v10.816h-7.5859l7.5859 9.4805v33.977l-5.0586 3.0352 1.5469 2.5273 3.5117 2.9805v28.098l-3.2305-2.5625 1.9648-1.9648-2.5273-16.152h-2.1055l-1.3359 16.082 1.7539 1.7539-2.1055 2.2461v9.9727h-10.395l11.379 11.379v8.0078h-3.2305l3.3008 9.832v113.71l-4.707 4.707v5.1953l-35.961-0.007813v8.1484h-1.6836v15.449h426.31v-15.449z"/>
</svg>
