<?xml version="1.0" encoding="UTF-8"?>
<svg width="700pt" height="700pt" version="1.1" viewBox="0 0 700 700" xmlns="http://www.w3.org/2000/svg" xmlns:xlink="http://www.w3.org/1999/xlink">
 <path d="m393.14 360.76c-18.113 0-60.461 0-113.14 3.3242v-45.586c0-5.7734-4.7266-10.5-10.5-10.5s-10.5 4.7266-10.5 10.5v47.074c-63.613 4.0273-126.79 13.039-189 26.949v-70c98-54.426 214.38-56.523 231.96-56.523h46.727zm-289.19-230.04c34.562-28.176 75.949-46.727 120.05-53.727l30.449 77c-49.176 1.6641-97.387 13.914-141.31 35.961-5.1641 2.625-7.2617 8.9258-4.6367 14.086 2.625 5.1641 8.9258 7.2617 14.086 4.6367 43.402-21.695 91.266-33.246 139.91-33.684l28 70c-36.051 1.0508-132.21 8.2266-220.24 53.727v-129.33c9.1016-14.609 20.477-27.648 33.688-38.672zm267.05 352.27v-52.5c0-5.7734-4.7266-10.5-10.5-10.5s-10.5 4.7266-10.5 10.5v52.5h-70v-52.5c0-5.7734-4.7266-10.5-10.5-10.5s-10.5 4.7266-10.5 10.5v52.5h-189v-68.773c142.98-35.523 330.4-32.375 332.32-32.289h0.61328l47.426 101.06zm259 0h-156.45l-72.188-154h78.137c5.7734 0 10.5-4.7266 10.5-10.5v-49c23.887-0.4375 87.586 1.6641 140 30.188z"/>
</svg>
