<?xml version="1.0" standalone="no"?>
<!DOCTYPE svg PUBLIC "-//W3C//DTD SVG 20010904//EN"
 "http://www.w3.org/TR/2001/REC-SVG-20010904/DTD/svg10.dtd">
<svg version="1.0" xmlns="http://www.w3.org/2000/svg"
 width="1024.000000pt" height="1024.000000pt" viewBox="0 0 1024.000000 1024.000000"
 preserveAspectRatio="xMidYMid meet">

<g transform="translate(0.000000,1024.000000) scale(0.100000,-0.100000)"
fill="#000000" stroke="none">
<path d="M8421 8866 c-44 -23 -44 -23 -93 -4 -59 22 -76 23 -98 3 -13 -12 -23
-13 -47 -5 -39 14 -79 -1 -95 -35 -8 -18 -17 -24 -27 -20 -52 21 -77 17 -104
-15 -15 -17 -27 -35 -27 -40 0 -4 -23 -14 -51 -21 -63 -16 -77 -36 -85 -118
l-7 -62 -56 -28 c-50 -25 -58 -27 -77 -15 -13 9 -32 12 -53 8 -26 -6 -38 -18
-64 -63 -27 -47 -33 -52 -35 -33 -8 55 -113 44 -128 -12 -6 -24 -10 -25 -43
-20 l-38 6 -52 -93 c-35 -63 -66 -104 -93 -125 l-41 -31 -47 29 c-63 39 -114
50 -184 38 -76 -12 -110 -39 -134 -103 -37 -97 -44 -135 -33 -174 6 -21 7 -41
3 -45 -4 -4 -71 -45 -150 -92 -78 -47 -217 -133 -308 -192 -91 -58 -167 -105
-168 -103 -9 10 15 191 32 244 19 59 20 59 27 27 4 -18 10 -63 14 -100 l8 -67
29 60 c33 70 43 179 25 266 -6 28 -9 54 -7 56 6 7 27 -71 35 -132 l7 -50 13
45 c25 87 -6 241 -62 310 -7 8 -19 37 -25 64 -14 52 -77 149 -134 203 -46 44
-183 109 -270 127 -19 4 -33 18 -44 43 -25 52 -79 102 -143 132 -50 23 -68 26
-171 26 -112 0 -117 -1 -205 -40 -72 -31 -103 -52 -155 -105 -36 -36 -80 -92
-98 -126 -20 -39 -59 -87 -109 -135 -73 -70 -83 -76 -158 -96 -183 -50 -435
-71 -542 -45 -24 5 -43 7 -43 3 0 -12 85 -70 132 -90 l43 -18 -53 -7 c-73 -9
-244 -66 -328 -109 -133 -68 -196 -147 -194 -244 0 -26 1 -59 1 -73 1 -14 -2
-44 -6 -67 -15 -88 20 -155 110 -207 49 -29 75 -34 50 -10 -22 23 -42 64 -49
104 -25 140 269 246 610 221 190 -15 299 -14 364 3 30 8 56 13 58 12 1 -2 -20
-13 -48 -25 -85 -37 -200 -63 -282 -64 -42 -1 -75 -3 -73 -5 2 -2 36 -12 77
-23 160 -41 324 -17 439 66 28 20 52 35 53 33 1 -2 11 -25 21 -53 20 -54 54
-108 108 -170 l34 -39 -20 -28 c-26 -35 -18 -43 27 -27 38 14 58 7 38 -13 -7
-7 -12 -18 -12 -25 0 -11 4 -11 20 -1 24 15 31 9 23 -20 -4 -17 -9 -20 -18
-12 -9 7 -16 6 -25 -5 -7 -8 -15 -13 -19 -10 -4 2 -40 -21 -80 -51 -41 -30
-92 -64 -115 -76 -22 -11 -50 -28 -61 -38 -11 -10 -45 -24 -75 -32 -46 -11
-58 -18 -75 -50 -11 -20 -48 -56 -81 -81 -34 -25 -91 -75 -127 -111 -66 -66
-67 -69 -106 -193 -22 -69 -58 -200 -81 -291 -22 -92 -44 -177 -48 -188 -4
-12 -77 -85 -162 -162 -155 -139 -403 -387 -492 -493 -27 -31 -64 -91 -84
-134 -41 -88 -87 -277 -82 -338 l3 -41 100 110 c136 150 643 659 650 653 9
-10 -24 -171 -45 -213 -14 -29 -19 -60 -18 -101 1 -63 -18 -141 -39 -163 -16
-16 -17 -110 -3 -148 8 -20 8 -36 -1 -58 -14 -34 -63 -86 -83 -86 -36 0 -113
-37 -146 -70 -47 -47 -71 -110 -105 -276 -53 -263 -100 -403 -209 -629 -67
-139 -134 -243 -336 -530 -70 -99 -155 -234 -190 -300 -111 -211 -171 -309
-205 -340 -18 -16 -59 -62 -91 -100 -33 -39 -83 -93 -112 -120 -30 -27 -79
-88 -109 -135 -31 -47 -125 -188 -209 -315 -84 -126 -192 -303 -239 -393 -83
-157 -85 -163 -71 -191 14 -27 14 -29 -24 -66 -26 -26 -45 -56 -54 -89 -9 -28
-36 -79 -61 -114 -75 -103 -145 -210 -145 -221 0 -6 -7 -11 -15 -11 -27 0 -57
-39 -51 -65 4 -16 -2 -36 -18 -60 -41 -60 -49 -98 -32 -140 9 -20 13 -48 9
-65 -10 -54 3 -76 59 -100 50 -22 64 -23 278 -21 124 1 241 6 260 11 104 26
120 32 120 44 0 8 7 19 15 26 17 14 20 56 6 65 -6 3 -6 17 1 36 7 21 7 42 -1
72 -20 70 -20 108 -2 156 10 25 21 64 25 86 4 22 17 75 28 118 l21 77 45 0
c64 0 372 -59 399 -76 12 -8 31 -14 41 -14 11 0 44 -11 73 -24 30 -13 124 -45
209 -72 152 -48 157 -49 275 -47 66 1 194 8 285 17 171 16 203 15 405 -17 250
-40 326 -47 526 -47 113 0 254 -5 314 -11 78 -8 130 -8 184 0 42 6 153 11 246
11 94 1 216 4 273 7 89 5 102 8 102 24 0 9 3 24 6 33 5 14 9 14 37 -1 24 -13
57 -17 127 -18 86 0 101 3 150 29 89 46 105 49 320 57 252 9 520 26 540 33 19
8 60 67 60 88 0 17 25 48 38 48 7 0 1 -64 -14 -168 -15 -105 64 -124 661 -153
431 -21 574 8 603 122 6 23 7 51 2 63 -13 35 -107 124 -145 136 -42 14 -124
17 -147 6 -13 -6 -18 -4 -18 7 0 24 -38 64 -67 70 -15 3 -39 0 -53 -7 -22 -11
-32 -8 -85 21 l-60 34 119 -3 119 -3 -2 85 c-4 135 -60 429 -110 575 -28 82
-71 411 -76 575 -2 74 -8 147 -14 162 -24 62 -63 283 -72 408 -5 74 -16 158
-24 186 -31 108 -110 190 -342 354 -42 30 -109 81 -147 112 -47 38 -82 59
-108 63 -39 7 -163 66 -273 130 -33 19 -89 47 -125 62 -36 15 -82 38 -102 51
-28 18 -47 23 -75 20 -21 -3 -81 1 -133 7 -52 7 -142 16 -200 20 l-105 8 -56
52 c-57 52 -88 65 -161 65 -27 0 -27 1 -22 48 4 26 9 50 13 53 7 8 189 43 326
63 55 8 242 20 415 25 439 15 561 31 610 79 31 32 44 101 35 190 l-6 57 113
48 c180 77 176 77 407 93 119 8 252 19 296 25 186 24 339 75 371 124 57 87 -1
575 -106 895 -46 142 -47 160 -20 365 36 278 25 624 -31 900 l-20 100 79 205
c44 113 94 246 112 295 18 50 44 103 57 120 22 25 24 36 20 85 -13 126 -61
271 -117 350 l-20 28 56 26 c31 14 60 26 64 26 4 0 15 9 24 19 15 17 16 27 7
76 -6 31 -19 75 -30 99 -15 35 -25 44 -51 50 -42 8 -38 9 -89 -18z m-508 -656
c38 -70 65 -96 125 -119 40 -16 40 -28 2 -88 -16 -26 -30 -53 -30 -60 0 -12
-20 -20 -70 -25 -15 -2 -37 -19 -57 -46 l-32 -43 -7 28 c-23 101 -37 151 -50
170 -15 24 -17 68 -7 151 5 47 10 56 42 78 20 13 38 24 41 24 3 0 23 -31 43
-70z m-604 -468 c29 -71 41 -117 41 -152 l0 -49 -133 -109 c-101 -83 -140
-109 -163 -110 -42 -1 -235 -73 -381 -142 l-122 -58 -45 16 c-41 15 -49 15
-113 -2 -68 -17 -71 -17 -129 2 -54 19 -144 38 -204 44 -20 2 9 26 146 120
153 105 395 263 575 375 l66 42 28 -29 c36 -37 131 -88 182 -96 30 -4 52 -1
86 14 39 17 51 30 77 82 17 34 34 84 37 111 3 27 7 48 9 47 1 -2 21 -49 43
-106z"/>
</g>
</svg>
