<?xml version="1.0" encoding="UTF-8"?>
<svg width="752pt" height="752pt" version="1.1" viewBox="50 100 552 552" xmlns="http://www.w3.org/2000/svg">
 <g>
  <path d="m365.62 199.72c6.6055 16.738 22.285 38.59 59.434 43.602 2.125 0.28516 4.043 0.42578 5.8242 0.48047 0-0.16797 0.027344-0.32813 0.027344-0.5 0-36.055-29.242-65.293-65.293-65.293-36.055 0-65.293 29.234-65.293 65.293 0 0.16797 0.027343 0.32812 0.027343 0.5 1.7891-0.050782 3.6992-0.19531 5.8242-0.48047 37.16-5.0039 52.84-26.863 59.449-43.602z"/>
  <path d="m373.89 452.77c-84.555 0-153.67-15.555-177.08-21.527-0.035157 13.625 1.3164 27.816 4.2891 42.223 15.824 64.176 61.574 121.16 138.36 130.5 6.1094 0.99609 13.504 1.6719 19.863 1.6719 0.44922 0 3.3047-0.058594 3.7578-0.089844 0.14062 0 2.3945 0.019531 2.3945 0.035156 1.3359-0.015625 2.6055-0.035156 2.7539-0.035156 0.45313 0.03125 3.4883 0.089844 3.9375 0.089844 6.3633 0 13.852-0.67969 19.957-1.6719 76.789-9.3281 122.59-66.324 138.41-130.5 3.0039-14.559 4.3398-28.895 4.2656-42.633-54.852 16.312-110.61 21.938-160.91 21.938z"/>
  <path d="m534 414.67c-2.5117-26.914-10.809-50.625-23.648-67.633-58.926-78.031-21.766-71.883-44.906-136.29-2.0273-5.6523-4.625-10.691-7.5039-15.387-0.45703-0.80859-0.95312-1.582-1.4219-2.3984-0.21094-0.30859-0.41016-0.66406-0.63672-0.99609-18.164-29.805-51.766-49.953-90.406-50.324-36.836 0.36719-71.891 20.516-90.055 50.32-0.22656 0.33203-0.070313 0.68359-0.27734 0.99609-0.46875 0.81641-0.96484 1.5898-1.4219 2.3984-2.8789 4.6953-5.4766 9.7344-7.5039 15.387-23.141 64.414 11.555 62.648-44.906 136.29-13.043 17.016-21.363 40.938-23.785 68.094 29.105 7.7109 187.07 45.379 336.47-0.45703zm-168.52-248.98c43.789 0.80469 79.07 36.504 79.07 80.5 0 44-35.281 79.691-79.07 80.5-42.098-0.80469-79.07-36.496-79.07-80.5 0-43.996 36.977-79.688 79.07-80.5zm-67.09 215.57c13.465-41.5 50.809-35.66 61.527-33.039 1.4102-4.3516 5.4531-7.5234 10.277-7.5234 4.8008 0 8.8359 3.1484 10.262 7.4727 11.008-2.6484 47.953-8.1328 61.324 33.09 0 0-49.535 2.2031-62.066-24.605-1.832 3.3984-5.3828 5.7461-9.5195 5.7461-4.2305 0-7.8516-2.4414-9.6406-5.9688-12.348 27.047-62.164 24.828-62.164 24.828zm82.328 3.6797c0 5.7461-4.6445 10.391-10.387 10.391-5.7344 0-10.387-4.6445-10.387-10.391 0-5.7344 4.6523-10.387 10.387-10.387 5.7422 0.003906 10.387 4.6523 10.387 10.387zm-20.773 31.973c0-5.7422 4.6523-10.387 10.387-10.387 5.7422 0 10.391 4.6445 10.391 10.387 0 5.7461-4.6523 10.391-10.391 10.391-5.7344 0-10.387-4.6445-10.387-10.391z"/>
 </g>
</svg>
