<?xml version="1.0" encoding="UTF-8"?>
<svg width="700pt" height="700pt" version="1.1" viewBox="100 50 500 500" xmlns="http://www.w3.org/2000/svg" xmlns:xlink="http://www.w3.org/1999/xlink">
  <path d="m596.44 468.14h-492.88c-3.0703 0-5.5586 2.4883-5.5586 5.5586 0 3.0703 2.4883 5.5586 5.5586 5.5586h492.88c3.0703 0 5.5586-2.4883 5.5586-5.5586 0-3.0703-2.4883-5.5586-5.5586-5.5586zm-367.05-149.35v5.293h241.21l0.003906-5.293c0-8.4727 7.4805-15.562 17.66-17.902v-19.008c-39.906-8.0195-87.332-12.684-138.27-12.684s-98.363 4.668-138.27 12.684v19.004c10.18 2.3398 17.66 9.4336 17.66 17.906zm211.96-22.613c0-3.0703 2.4883-5.5586 5.5586-5.5586 3.0703 0 5.5586 2.4883 5.5586 5.5586v13.375h-11.117zm-27.688 0c0-3.0703 2.4883-5.5586 5.5586-5.5586 3.0664 0 5.5586 2.4883 5.5586 5.5586v13.375h-11.117zm-27.691 0c0-3.0703 2.4883-5.5586 5.5547-5.5586 3.0703 0 5.5586 2.4883 5.5586 5.5586v13.375h-11.117zm-27.691 0c0-3.0703 2.4922-5.5586 5.5586-5.5586 3.0703 0 5.5586 2.4883 5.5586 5.5586v13.375h-11.117zm-27.688 0c0-3.0703 2.4883-5.5586 5.5586-5.5586 3.0664 0 5.5586 2.4883 5.5586 5.5586v13.375h-11.117zm-27.688 0c0-3.0703 2.4883-5.5586 5.5586-5.5586 3.0664 0 5.5547 2.4883 5.5547 5.5586v13.375h-11.117zm-27.695 0c0-3.0703 2.4922-5.5586 5.5586-5.5586 3.0703 0 5.5586 2.4883 5.5586 5.5586v13.375h-11.117zm-27.688 0c0-3.0703 2.4883-5.5586 5.5586-5.5586 3.0703 0 5.5586 2.4883 5.5586 5.5586v13.375h-11.117zm55.137 107.46c0-3.0703-2.4883-5.5586-5.5547-5.5586-3.0703 0-5.5586 2.4883-5.5586 5.5586v13.375h11.117zm8.8594 31.266v13.375h11.117v-13.375c0-3.0664-2.4883-5.5547-5.5586-5.5547-3.0703 0-5.5586 2.4883-5.5586 5.5547zm-139.22 23.633h64.617v-69.758h-7.3398v-53.555h-11.926l-0.003906-16.434c0-4.8203-5.8398-8.7227-13.035-8.7227-7.1992 0-13.039 3.9023-13.039 8.7227v16.438h-11.93v53.555h-7.3398zm150.34-85.469c0-3.0703-2.4883-5.5586-5.5586-5.5586-3.0703 0-5.5586 2.4883-5.5586 5.5586v13.375h11.117zm-31.09 61.836v13.375h11.117v-13.375c0-3.0664-2.4883-5.5547-5.5547-5.5547-3.0742 0-5.5625 2.4883-5.5625 5.5547zm-187.51-122.51c-3.0664 0-5.5547 2.4922-5.5547 5.5586 0 3.0703 2.4883 5.5586 5.5547 5.5586h9.7305v135.03h44.465v-135.03h9.7305c3.0664 0 5.5586-2.4883 5.5586-5.5586 0-3.0664-2.4922-5.5586-5.5586-5.5586h-9.7305v-118.12h9.7305c3.0664 0 5.5586-2.4883 5.5586-5.5547 0-3.0703-2.4922-5.5586-5.5586-5.5586h-20.938c-0.64844-6.8125-1.6797-13.82-2.1328-20.844-0.76953-10.078-1.4258-20.148-2.3633-29.594-0.80469-9.4453-1.7695-18.262-2.5742-25.816-1.5195-15.109-2.8477-25.188-2.8477-25.188-0.0625-0.49219-0.45312-0.89844-0.96094-0.96484-0.61328-0.078125-1.1797 0.35156-1.2617 0.96484 0 0-1.3242 10.074-2.8477 25.188-0.80469 7.5586-1.7656 16.375-2.5742 25.816-0.93359 9.4453-1.5898 19.52-2.3633 29.594-0.44922 7.0234-1.4844 14.031-2.1328 20.844h-20.93c-3.0664 0-5.5547 2.4883-5.5547 5.5586 0 3.0664 2.4883 5.5547 5.5547 5.5547h9.7305v118.12zm378.32 6.3984v16.438h-11.93v53.555h-7.3398v69.758h64.617l-0.003906-69.762h-7.3398v-53.555h-11.926l-0.003906-16.434c0-4.8203-5.8398-8.7227-13.039-8.7227-7.1953 0-13.035 3.8984-13.035 8.7227zm-159.71 84.848c0-3.0703-2.4883-5.5586-5.5586-5.5586-3.0703 0-5.5586 2.4883-5.5586 5.5586v13.375h11.117zm129.8-138.93c-15.352-31.617-44.836-55.055-80.262-62.074 0.003906-0.16797 0.050781-0.32422 0.050781-0.49219 0-9.4336-5.9023-17.449-14.195-20.68-0.46094-3.8281-0.92578-7.6172-1.5078-11.238-0.80469-5.8633-1.7695-11.336-2.5742-16.023-1.5195-9.3789-2.8477-15.633-2.8477-15.633-0.09375-0.42578-0.42578-0.77734-0.87891-0.87891-0.60938-0.12891-1.2109 0.26172-1.3438 0.87891 0 0-1.3242 6.2539-2.8477 15.633-0.80469 4.6875-1.7656 10.16-2.5742 16.023-0.57812 3.6211-1.0469 7.4102-1.5078 11.238-8.293 3.2305-14.195 11.242-14.195 20.68 0 0.16797 0.046875 0.32422 0.050781 0.49219-35.422 7.0195-64.902 30.453-80.258 62.074 32.25-4.3398 66.992-6.6367 102.45-6.6367s70.195 2.2969 102.45 6.6367zm79.594 47.68c-3.0664 0-5.5586 2.4922-5.5586 5.5586 0 3.0703 2.4922 5.5586 5.5586 5.5586h9.7305v135.03h44.465v-135.03h9.7305c3.0664 0 5.5547-2.4883 5.5547-5.5586 0-3.0664-2.4883-5.5586-5.5547-5.5586h-9.7305v-118.12h9.7305c3.0664 0 5.5547-2.4883 5.5547-5.5547 0-3.0703-2.4883-5.5586-5.5547-5.5586h-20.934c-0.64844-6.8125-1.6836-13.82-2.1328-20.844-0.76953-10.078-1.4297-20.148-2.3633-29.594-0.80859-9.4453-1.7695-18.262-2.5742-25.816-1.5195-15.109-2.8477-25.188-2.8477-25.188-0.0625-0.49219-0.45312-0.89844-0.96484-0.96484-0.61328-0.078125-1.1758 0.35156-1.2578 0.96484 0 0-1.3242 10.074-2.8477 25.188-0.80469 7.5586-1.7656 16.375-2.5742 25.816-0.93359 9.4453-1.5898 19.52-2.3633 29.594-0.45312 7.0234-1.4844 14.031-2.1328 20.844h-20.934c-3.0664 0-5.5586 2.4883-5.5586 5.5586 0 3.0664 2.4922 5.5547 5.5586 5.5547h9.7305v118.12zm-165.62 60.676c0-3.0703-2.4883-5.5586-5.5586-5.5586-3.0664 0-5.5547 2.4883-5.5547 5.5586v13.375h11.117zm-21.887 30.57c0-3.0703-2.4883-5.5586-5.5586-5.5586-3.0664 0-5.5586 2.4883-5.5586 5.5586v13.375h11.117zm10.773 31.266v13.375h11.117v-13.375c0-3.0664-2.4883-5.5547-5.5586-5.5547s-5.5586 2.4883-5.5586 5.5547zm96.031 21.887v-78.078h7.3438v-43.512h-217.35v43.512h7.3438v78.078h24.441v-34.047c0-2.3008 0.14062-4.5703 0.34375-6.8203 0.074219-0.85938 0.17969-1.7109 0.28516-2.5664 0.16016-1.3086 0.36328-2.6016 0.59375-3.8906 3.2539-18.672 13.184-35.027 27.312-46.477l0.003907-0.003906c13.211-10.699 30.023-17.133 48.352-17.133s35.141 6.4336 48.352 17.141h0.003907c14.129 11.449 24.059 27.805 27.312 46.477 0.23047 1.2891 0.43359 2.5859 0.59375 3.8906 0.10547 0.85547 0.21094 1.707 0.28516 2.5664 0.20703 2.25 0.34375 4.5156 0.34375 6.8203v34.047zm-84.918-53.152c0-3.0703-2.4883-5.5586-5.5586-5.5586-3.0664 0-5.5547 2.4883-5.5547 5.5586v13.375h11.117zm-21.887-30.57c0-3.0703-2.4883-5.5586-5.5586-5.5586-3.0664 0-5.5586 2.4883-5.5586 5.5586v13.375h11.117zm-11.117 61.836v13.375h11.117v-13.375c0-3.0664-2.4883-5.5547-5.5586-5.5547-3.0664 0-5.5586 2.4883-5.5586 5.5547zm63.926 0v13.375h11.113v-13.375c0-3.0664-2.4883-5.5547-5.5586-5.5547-3.0664 0-5.5547 2.4883-5.5547 5.5547zm11.113-31.266c0-3.0703-2.4883-5.5586-5.5586-5.5586-3.0664 0-5.5547 2.4883-5.5547 5.5586v13.375h11.113zm-20.496-30.57c0-3.0703-2.4883-5.5586-5.5586-5.5586-3.0664 0-5.5547 2.4883-5.5547 5.5586v13.375h11.113zm-11.113 61.836v13.375h11.113v-13.375c0-3.0664-2.4883-5.5547-5.5586-5.5547-3.0703 0-5.5547 2.4883-5.5547 5.5547zm11.113-31.266c0-3.0703-2.4883-5.5586-5.5586-5.5586-3.0664 0-5.5547 2.4883-5.5547 5.5586v13.375h11.113z"/>
</svg>
