<?xml version="1.0" encoding="UTF-8" standalone="no"?>
<svg
   width="100"
   height="100"
   viewBox="0 0 100 100"
   fill="none"
   version="1.1"
   id="svg42"
   sodipodi:docname="c5a2962e36ac4404f72138aafc222fa3.svg"
   inkscape:version="1.1 (c68e22c387, 2021-05-23)"
   xmlns:inkscape="http://www.inkscape.org/namespaces/inkscape"
   xmlns:sodipodi="http://sodipodi.sourceforge.net/DTD/sodipodi-0.dtd"
   xmlns="http://www.w3.org/2000/svg"
   xmlns:svg="http://www.w3.org/2000/svg">
  <defs
     id="defs46" />
  <sodipodi:namedview
     id="namedview44"
     pagecolor="#ffffff"
     bordercolor="#666666"
     borderopacity="1.0"
     inkscape:pageshadow="2"
     inkscape:pageopacity="0.0"
     inkscape:pagecheckerboard="0"
     showgrid="false"
     inkscape:zoom="1.03"
     inkscape:cx="484.95146"
     inkscape:cy="-50.970874"
     inkscape:window-width="1920"
     inkscape:window-height="1009"
     inkscape:window-x="-8"
     inkscape:window-y="-8"
     inkscape:window-maximized="1"
     inkscape:current-layer="svg42" />
  <path
     d="M 78.661127,33.711075 89.191185,14.324722 c 0.745981,-1.39806 0.281126,-3.168934 -1.210835,-3.914561 -1.396777,-0.745626 -3.16765,-0.27962 -3.91363,1.211654 L 65.42606,45.920807 c -1.677904,0.0932 -3.541749,0.186385 -5.405593,0.279577 L 77.262136,14.324722 c 0.745982,-1.39806 0.278914,-3.168934 -1.210835,-3.914561 -1.39899,-0.745626 -3.169863,-0.27962 -3.915843,1.211654 L 53.308855,46.386769 c -0.838952,0 -1.770874,0 -2.702795,0 -20.597477,0 -33.274719,-2.516412 -37.374292,-4.380478 4.099573,-1.770874 16.869787,-4.380699 37.374292,-4.380699 0.74598,0 1.396776,0 2.142756,0 l 3.169865,-5.778583 c -2.049786,0 -3.915845,-0.0932 -5.219651,-0.0932 -10.34633,0 -44.2718445,0.745758 -44.2718445,10.159281 0,0.372769 0.092971,0.652346 0.1859417,0.931922 l 6.7116118,19.200035 c 2.328699,6.524342 6.802369,12.302925 12.953942,16.590432 1.213049,0.83873 2.609825,1.491075 4.101786,2.05045 v 5.592198 c 0,1.864065 1.398991,3.541747 3.262834,3.821324 4.659612,0.652346 10.532272,1.025336 17.055729,1.025336 6.430485,0 12.396116,-0.37299 16.962758,-1.025336 1.863844,-0.279577 3.262835,-1.864066 3.262835,-3.821324 v -5.592198 c 1.49196,-0.559375 2.888737,-1.21172 4.099572,-2.05045 6.246758,-4.3807 10.720428,-10.06609 13.049126,-16.590432 l 6.711612,-19.01365 c 0.09297,-0.279577 0.185942,-0.652346 0.185942,-0.931923 -0.09297,-4.47389 -7.455379,-6.990302 -16.309748,-8.388407 z m -2.983922,5.499006 c 6.151573,0.838951 10.25336,1.957258 12.303145,2.79621 -2.330912,1.025114 -7.643534,2.330026 -15.563767,3.262171 z"
     fill="#f1f3f2"
     id="path10"
     style="stroke-width:2.2136" />
  <mask
     id="mask0"
     mask-type="alpha"
     maskUnits="userSpaceOnUse"
     x="390"
     y="107"
     width="40"
     height="40">
    <path
       fill-rule="evenodd"
       clip-rule="evenodd"
       d="M410.897 110.279C410.574 110.602 410.275 110.94 409.999 111.293C409.933 111.209 409.865 111.125 409.796 111.041C409.567 110.767 409.336 110.512 409.101 110.277C406.916 108.094 404.052 107 401.189 107C398.325 107 395.46 108.092 393.276 110.277L393.277 110.278C391.092 112.463 390 115.327 390 118.19C390 121.054 391.092 123.918 393.277 126.103C393.512 126.338 393.767 126.569 394.041 126.797C394.124 126.866 394.207 126.933 394.292 126.999C393.94 127.275 393.601 127.575 393.277 127.899C391.092 130.084 390 132.948 390 135.811C390 138.675 391.092 141.54 393.277 143.724L393.278 143.723C395.463 145.908 398.327 147 401.19 147C404.054 147 406.918 145.908 409.103 143.723C409.426 143.399 409.726 143.061 410.002 142.709C410.068 142.794 410.135 142.877 410.203 142.959C410.431 143.233 410.662 143.488 410.897 143.723C413.082 145.908 415.946 147 418.81 147C421.673 147 424.538 145.908 426.722 143.724L426.723 143.724C428.906 141.539 430 138.675 430 135.812C430 132.948 428.908 130.084 426.723 127.899C426.488 127.664 426.233 127.433 425.959 127.205C425.876 127.135 425.792 127.068 425.709 127.002C426.06 126.726 426.399 126.427 426.723 126.103C428.906 123.918 430 121.054 430 118.19C430 115.326 428.908 112.461 426.723 110.277L426.722 110.278C424.537 108.095 421.673 107.002 418.81 107.002C415.946 107.002 413.082 108.094 410.897 110.279ZM408.959 112.882C409.09 112.638 409.231 112.398 409.382 112.162C409.263 112.001 409.14 111.844 409.014 111.693C408.826 111.468 408.615 111.236 408.379 111C406.393 109.014 403.791 108.022 401.189 108.022C398.587 108.022 395.985 109.016 393.999 110.999L394 111C392.014 112.986 391.022 115.588 391.022 118.19C391.022 120.792 392.016 123.395 394 125.38C394.235 125.615 394.466 125.827 394.693 126.014C394.848 126.143 395.004 126.266 395.162 126.383C395.397 126.232 395.638 126.091 395.882 125.959C395.773 125.885 395.666 125.808 395.559 125.729C395.201 125.461 394.859 125.166 394.537 124.843C392.699 123.008 391.78 120.597 391.78 118.19C391.78 115.782 392.699 113.373 394.535 111.536L394.534 111.536C396.371 109.699 398.78 108.78 401.189 108.78C403.597 108.78 406.006 109.699 407.843 111.536C408.16 111.853 408.455 112.195 408.727 112.56C408.807 112.666 408.884 112.773 408.959 112.882ZM408.445 113.973C408.284 113.697 408.107 113.428 407.914 113.17C407.681 112.859 407.417 112.555 407.12 112.258C405.483 110.62 403.336 109.802 401.189 109.802C399.042 109.802 396.896 110.621 395.258 112.258L395.258 112.258C393.62 113.897 392.802 116.043 392.802 118.19C392.802 120.338 393.621 122.485 395.258 124.122C395.548 124.415 395.854 124.678 396.17 124.914C396.428 125.108 396.697 125.285 396.973 125.446C397.296 125.315 397.623 125.199 397.954 125.1C397.78 125.018 397.608 124.929 397.439 124.834C396.846 124.498 396.292 124.081 395.794 123.585C394.304 122.095 393.559 120.141 393.559 118.189C393.559 116.236 394.304 114.282 395.794 112.792L395.794 112.792C397.284 111.304 399.237 110.559 401.189 110.559C403.141 110.559 405.095 111.304 406.585 112.794C407.086 113.296 407.504 113.853 407.838 114.445C407.932 114.612 408.019 114.781 408.099 114.953C408.199 114.622 408.314 114.295 408.445 113.973ZM394.582 118.189C394.582 116.497 395.226 114.806 396.515 113.517L396.515 113.517C397.807 112.227 399.498 111.582 401.189 111.582C402.881 111.582 404.572 112.227 405.862 113.517C406.3 113.954 406.662 114.434 406.951 114.945C407.16 115.315 407.33 115.702 407.462 116.1C407.216 116.157 406.971 116.223 406.728 116.297C406.615 115.967 406.471 115.645 406.298 115.333C406.041 114.873 405.716 114.441 405.328 114.052C404.185 112.91 402.688 112.339 401.19 112.339C399.694 112.339 398.197 112.91 397.054 114.052L397.777 114.775C398.719 113.832 399.954 113.36 401.19 113.36C402.426 113.36 403.662 113.832 404.605 114.775C404.929 115.098 405.197 115.455 405.409 115.832C405.553 116.09 405.672 116.361 405.766 116.639C405.53 116.735 405.297 116.84 405.067 116.953C405.005 116.759 404.929 116.57 404.838 116.387C404.645 115.997 404.388 115.632 404.067 115.314C403.271 114.518 402.23 114.12 401.19 114.12C400.149 114.12 399.106 114.517 398.312 115.312L399.035 116.035C399.629 115.44 400.41 115.143 401.19 115.143C401.971 115.143 402.753 115.439 403.345 116.035C403.59 116.277 403.781 116.55 403.924 116.837C404.023 117.037 404.099 117.245 404.151 117.457C403.918 117.601 403.688 117.753 403.464 117.915C403.405 117.424 403.187 116.947 402.81 116.57C402.363 116.124 401.777 115.9 401.19 115.9C400.604 115.9 400.017 116.124 399.571 116.57L399.808 116.808L399.571 116.572C399.124 117.019 398.9 117.605 398.9 118.19C398.9 118.775 399.124 119.36 399.571 119.81C399.947 120.187 400.424 120.405 400.915 120.464C400.753 120.689 400.6 120.919 400.457 121.152C400.243 121.1 400.034 121.023 399.834 120.924C399.548 120.783 399.279 120.591 399.035 120.349C398.441 119.754 398.143 118.973 398.143 118.192C398.143 117.412 398.439 116.631 399.035 116.036L398.312 115.314C397.518 116.108 397.12 117.151 397.12 118.192C397.12 119.231 397.518 120.273 398.312 121.07C398.631 121.388 398.994 121.645 399.382 121.837C399.567 121.929 399.758 122.006 399.953 122.068C399.84 122.297 399.735 122.53 399.639 122.766C399.363 122.672 399.091 122.551 398.829 122.404C398.453 122.193 398.098 121.927 397.777 121.605C396.834 120.662 396.361 119.426 396.361 118.19C396.361 116.956 396.834 115.719 397.777 114.776L397.054 114.054C395.911 115.195 395.341 116.692 395.341 118.19C395.341 119.688 395.911 121.185 397.054 122.328C397.441 122.715 397.872 123.038 398.33 123.295C398.639 123.468 398.964 123.612 399.298 123.725C399.223 123.969 399.157 124.215 399.1 124.462C398.699 124.33 398.309 124.158 397.937 123.948C397.434 123.662 396.956 123.301 396.517 122.862C395.227 121.57 394.582 119.88 394.582 118.189ZM400.292 117.292C400.045 117.54 399.921 117.864 399.921 118.19C399.921 118.515 400.044 118.841 400.292 119.089C400.54 119.336 400.865 119.46 401.19 119.46C401.513 119.46 401.835 119.338 402.082 119.093L402.087 119.087C402.09 119.084 402.093 119.081 402.096 119.079C402.339 118.832 402.46 118.511 402.46 118.19C402.46 117.865 402.336 117.54 402.087 117.293C401.84 117.046 401.515 116.921 401.19 116.921C400.865 116.921 400.54 117.044 400.293 117.293L400.292 117.292ZM402.81 119.81L402.806 119.813C400.823 121.798 399.832 124.399 399.832 127C399.832 129.582 400.811 132.165 402.765 134.145C402.78 134.159 402.795 134.174 402.81 134.189L402.809 134.189L402.81 134.19L402.087 134.913L402.087 134.913C401.84 134.664 401.515 134.54 401.19 134.54C400.865 134.54 400.54 134.664 400.293 134.913C400.044 135.16 399.921 135.485 399.921 135.81C399.921 136.136 400.044 136.461 400.293 136.71L400.293 136.71C400.542 136.955 400.865 137.079 401.19 137.079C401.515 137.079 401.84 136.956 402.089 136.708C402.336 136.46 402.46 136.135 402.46 135.81C402.46 135.485 402.336 135.16 402.087 134.913L402.81 134.19C403.257 134.637 403.48 135.224 403.48 135.81C403.48 136.396 403.257 136.983 402.81 137.43C402.36 137.876 401.775 138.1 401.19 138.1C400.605 138.1 400.019 137.876 399.572 137.43L399.819 137.181L399.571 137.428C399.124 136.981 398.9 136.395 398.9 135.81C398.9 135.225 399.124 134.639 399.571 134.192C399.947 133.812 400.423 133.594 400.914 133.535C400.753 133.311 400.6 133.082 400.457 132.849C400.244 132.901 400.036 132.977 399.835 133.076C399.545 133.219 399.274 133.412 399.033 133.653C398.437 134.25 398.141 135.032 398.141 135.811C398.141 136.593 398.439 137.374 399.033 137.968L399.033 137.968C399.627 138.562 400.407 138.857 401.187 138.857C401.967 138.857 402.748 138.56 403.342 137.965C403.938 137.369 404.236 136.59 404.236 135.81C404.236 135.03 403.938 134.249 403.344 133.655L403.345 133.654C401.508 131.817 400.59 129.409 400.59 127C400.59 124.591 401.509 122.182 403.345 120.345C405.182 118.509 407.591 117.59 410 117.59C412.409 117.59 414.818 118.509 416.655 120.345L415.932 121.068C414.295 119.429 412.147 118.612 410 118.612C407.853 118.612 405.707 119.431 404.068 121.068C402.429 122.705 401.612 124.853 401.612 127C401.612 129.147 402.431 131.293 404.068 132.932L404.068 132.932C404.862 133.728 405.26 134.769 405.26 135.81C405.26 136.851 404.862 137.894 404.068 138.688C403.273 139.482 402.231 139.88 401.189 139.88C400.149 139.88 399.108 139.482 398.312 138.688L398.565 138.433L398.311 138.686C397.517 137.892 397.119 136.851 397.119 135.81C397.119 134.769 397.517 133.726 398.311 132.932C398.634 132.61 398.997 132.353 399.384 132.162C399.568 132.07 399.758 131.994 399.953 131.932C399.84 131.703 399.736 131.471 399.64 131.236C399.361 131.329 399.09 131.448 398.832 131.593C398.455 131.805 398.098 132.073 397.775 132.396C396.832 133.339 396.36 134.575 396.36 135.811C396.36 137.047 396.832 138.282 397.775 139.225L397.052 139.948C395.91 138.805 395.339 137.307 395.339 135.811C395.339 134.314 395.91 132.816 397.052 131.673C397.441 131.285 397.873 130.96 398.333 130.704C398.645 130.53 398.968 130.386 399.297 130.273C399.223 130.03 399.157 129.785 399.1 129.538C398.702 129.669 398.315 129.84 397.945 130.049C397.434 130.337 396.954 130.7 396.517 131.138C395.227 132.428 394.582 134.119 394.582 135.811C394.582 137.502 395.227 139.193 396.517 140.485L396.516 140.486C397.806 141.775 399.498 142.42 401.189 142.42C402.88 142.42 404.572 141.775 405.862 140.485C407.152 139.195 407.799 137.502 407.799 135.811C407.799 134.121 407.154 132.428 405.862 131.138L405.865 131.135L406.585 130.415C408.074 131.905 408.819 133.857 408.819 135.811C408.819 137.764 408.074 139.716 406.585 141.208C405.095 142.697 403.143 143.442 401.189 143.442C399.236 143.442 397.284 142.697 395.792 141.208L395.793 141.207C394.304 139.717 393.559 137.763 393.559 135.811C393.559 133.859 394.304 131.905 395.794 130.415C396.296 129.914 396.853 129.496 397.445 129.162C397.916 128.897 398.409 128.685 398.914 128.528C398.879 128.271 398.853 128.014 398.835 127.756C398.265 127.922 397.709 128.15 397.179 128.437C396.49 128.813 395.842 129.292 395.258 129.876C393.62 131.517 392.802 133.664 392.802 135.81C392.802 137.957 393.621 140.103 395.258 141.742L394.536 142.464C392.699 140.628 391.78 138.219 391.78 135.81C391.78 133.401 392.699 130.992 394.536 129.155C395.19 128.502 395.918 127.965 396.693 127.544C397.371 127.175 398.084 126.895 398.814 126.705C398.821 126.44 398.837 126.174 398.863 125.91C398.066 126.096 397.288 126.38 396.547 126.759C395.634 127.228 394.773 127.848 394 128.621C392.014 130.607 391.022 133.209 391.022 135.811C391.022 138.413 392.016 141.015 393.999 143.001L394 143C395.986 144.986 398.588 145.978 401.19 145.978C403.792 145.978 406.395 144.984 408.38 143C410.366 141.014 411.36 138.412 411.36 135.81C411.36 133.208 410.366 130.605 408.38 128.62L408.38 128.62L408.38 128.62L409.103 127.897C409.35 128.146 409.675 128.269 410 128.269C410.325 128.269 410.65 128.146 410.897 127.898C411.146 127.65 411.269 127.325 411.269 127.001C411.269 126.68 411.149 126.359 410.907 126.113L410.897 126.103L410.897 126.103C410.65 125.854 410.325 125.731 410 125.731C409.675 125.731 409.35 125.854 409.103 126.102C408.854 126.35 408.731 126.675 408.731 126.999C408.731 127.323 408.854 127.648 409.101 127.896L408.379 128.618C407.933 128.171 407.71 127.584 407.71 127C407.71 126.414 407.933 125.827 408.38 125.38C408.827 124.934 409.415 124.71 410 124.71C410.586 124.71 411.173 124.934 411.62 125.38L411.62 125.38L411.621 125.382L411.621 125.382L411.63 125.391C413.615 127.37 416.212 128.358 418.81 128.358C421.412 128.358 424.014 127.366 426 125.38C427.986 123.395 428.978 120.792 428.978 118.19C428.978 115.588 427.984 112.986 426.001 111.001L426 111.002C424.014 109.016 421.412 108.024 418.81 108.024C416.208 108.024 413.605 109.017 411.62 111.002C410.848 111.773 410.227 112.636 409.758 113.548C409.379 114.289 409.095 115.066 408.908 115.863C409.173 115.837 409.438 115.821 409.704 115.814C409.894 115.084 410.174 114.372 410.542 113.694C410.964 112.919 411.501 112.192 412.155 111.539C413.99 109.7 416.401 108.781 418.808 108.781C421.217 108.781 423.626 109.7 425.463 111.537L425.464 111.536C427.301 113.372 428.22 115.781 428.22 118.19C428.22 120.597 427.301 123.008 425.464 124.845C423.628 126.681 421.219 127.601 418.81 127.601C416.403 127.601 413.994 126.681 412.155 124.845L412.878 124.122C414.517 125.761 416.662 126.578 418.81 126.578C420.956 126.578 423.103 125.759 424.74 124.122C426.379 122.483 427.198 120.338 427.198 118.19C427.198 116.043 426.379 113.897 424.742 112.258L424.74 112.26C423.101 110.621 420.956 109.804 418.808 109.804C416.661 109.804 414.513 110.623 412.876 112.26C412.29 112.843 411.81 113.491 411.436 114.181C411.148 114.71 410.921 115.265 410.755 115.835C411.013 115.853 411.271 115.879 411.528 115.914C411.686 115.41 411.897 114.918 412.163 114.447C412.496 113.853 412.914 113.296 413.415 112.796C414.905 111.306 416.859 110.561 418.811 110.561C420.763 110.561 422.716 111.305 424.206 112.794L424.206 112.794C425.696 114.284 426.441 116.236 426.441 118.19C426.441 120.143 425.696 122.095 424.206 123.586C422.716 125.076 420.764 125.821 418.81 125.821C416.857 125.821 414.905 125.076 413.414 123.586L413.415 123.585C412.472 122.642 411.236 122.17 410.002 122.17C408.765 122.17 407.529 122.642 406.588 123.585C405.645 124.528 405.173 125.764 405.173 126.998C405.173 128.235 405.645 129.471 406.588 130.412L405.865 131.135L405.862 131.138C404.719 129.995 404.149 128.498 404.149 127C404.149 125.502 404.721 124.005 405.862 122.862C407.005 121.72 408.502 121.149 410 121.149C411.498 121.149 412.995 121.721 414.138 122.862L414.136 122.864C415.426 124.154 417.119 124.8 418.81 124.8C420.501 124.8 422.192 124.154 423.483 122.864C424.773 121.574 425.418 119.881 425.418 118.19C425.418 116.5 424.774 114.81 423.485 113.518L423.485 113.518C422.195 112.228 420.504 111.583 418.811 111.583C417.12 111.583 415.429 112.228 414.138 113.518C413.7 113.954 413.338 114.436 413.051 114.946C412.841 115.315 412.669 115.703 412.538 116.1C412.785 116.157 413.03 116.223 413.274 116.297C413.386 115.969 413.529 115.648 413.702 115.338C413.959 114.875 414.284 114.442 414.672 114.054C415.815 112.911 417.312 112.341 418.81 112.341C420.307 112.341 421.805 112.911 422.946 114.054L422.946 114.054C424.089 115.196 424.659 116.694 424.659 118.19C424.659 119.688 424.089 121.185 422.946 122.328C421.803 123.471 420.306 124.041 418.81 124.041C417.313 124.041 415.815 123.469 414.673 122.329L414.672 122.33C413.382 121.04 411.689 120.395 409.998 120.395C408.307 120.395 406.616 121.04 405.326 122.33C404.036 123.621 403.39 125.312 403.39 127.003C403.39 128.694 404.035 130.385 405.325 131.675L404.604 132.396C403.114 130.907 402.369 128.954 402.369 127.002C402.369 125.049 403.114 123.097 404.604 121.607C406.094 120.117 408.048 119.373 410 119.373C411.952 119.373 413.904 120.117 415.394 121.606L415.395 121.605C416.338 122.548 417.574 123.019 418.81 123.019C420.046 123.019 421.282 122.547 422.223 121.605C423.166 120.662 423.639 119.426 423.639 118.19C423.639 116.954 423.166 115.718 422.224 114.777L422.223 114.777C421.281 113.834 420.044 113.361 418.81 113.361C417.574 113.361 416.338 113.834 415.395 114.777C415.071 115.1 414.803 115.456 414.593 115.835C414.448 116.092 414.328 116.361 414.235 116.639C414.47 116.735 414.703 116.84 414.933 116.953C414.995 116.759 415.071 116.57 415.162 116.387C415.353 116 415.61 115.637 415.933 115.314C416.727 114.518 417.769 114.12 418.81 114.12C419.849 114.12 420.891 114.518 421.686 115.314L421.687 115.313C422.482 116.108 422.881 117.151 422.881 118.19C422.881 119.231 422.483 120.274 421.689 121.068C420.895 121.862 419.853 122.26 418.811 122.26C417.77 122.26 416.727 121.862 415.933 121.068L416.656 120.345C417.252 120.941 418.032 121.239 418.811 121.239C419.591 121.239 420.372 120.941 420.967 120.347C421.563 119.751 421.861 118.971 421.861 118.19C421.861 117.409 421.563 116.628 420.97 116.035L421.46 115.542L420.965 116.033C420.372 115.439 419.591 115.143 418.81 115.143C418.03 115.143 417.249 115.44 416.655 116.035C416.41 116.276 416.219 116.547 416.076 116.837C415.977 117.037 415.901 117.245 415.849 117.457C416.082 117.601 416.312 117.753 416.536 117.915C416.595 117.424 416.813 116.947 417.19 116.57C417.637 116.124 418.223 115.9 418.81 115.9C419.396 115.9 419.983 116.124 420.429 116.57L420.429 116.57C420.876 117.017 421.1 117.604 421.1 118.19C421.1 118.777 420.876 119.363 420.429 119.81C419.983 120.257 419.396 120.48 418.81 120.48C418.223 120.48 417.637 120.257 417.19 119.81L417.19 119.81L417.186 119.805C415.201 117.823 412.6 116.832 410 116.832C407.4 116.832 404.801 117.824 402.816 119.804C402.814 119.806 402.812 119.808 402.81 119.81ZM421.687 115.313L421.688 115.312H421.686L421.687 115.313ZM410.275 129.273C410.437 129.499 410.59 129.729 410.734 129.964C410.946 129.911 411.153 129.836 411.353 129.737C411.64 129.596 411.913 129.403 412.155 129.158C412.399 128.914 412.593 128.643 412.734 128.357C412.833 128.156 412.909 127.947 412.962 127.733C412.728 127.59 412.498 127.437 412.274 127.275C412.215 127.766 411.997 128.243 411.62 128.62C411.243 128.996 410.766 129.214 410.275 129.273ZM413.648 128.805C413.74 128.621 413.817 128.432 413.878 128.238C414.108 128.351 414.34 128.455 414.575 128.551C414.482 128.829 414.362 129.1 414.217 129.36C414.008 129.734 413.74 130.09 413.415 130.415C413.09 130.74 412.734 131.008 412.358 131.217C412.099 131.362 411.828 131.482 411.551 131.575C411.455 131.34 411.35 131.107 411.238 130.878C411.431 130.816 411.62 130.74 411.803 130.65C412.193 130.456 412.558 130.2 412.878 129.88C413.198 129.558 413.455 129.195 413.648 128.805ZM411.893 132.537C411.967 132.781 412.033 133.026 412.09 133.273C412.488 133.141 412.875 132.971 413.246 132.762C413.751 132.477 414.233 132.114 414.674 131.674C415.114 131.233 415.477 130.751 415.762 130.246C415.972 129.876 416.142 129.488 416.273 129.09C416.026 129.033 415.78 128.967 415.536 128.893C415.424 129.223 415.281 129.545 415.108 129.856C414.848 130.318 414.525 130.751 414.138 131.138C413.751 131.524 413.319 131.848 412.856 132.106C412.546 132.281 412.223 132.424 411.893 132.537ZM416.647 130.745C416.913 130.274 417.124 129.781 417.282 129.276C417.538 129.311 417.796 129.338 418.054 129.355C417.888 129.926 417.66 130.481 417.372 131.011C416.998 131.699 416.518 132.349 415.933 132.933C415.349 133.517 414.699 133.997 414.011 134.372C413.48 134.66 412.925 134.887 412.355 135.053C412.338 134.796 412.311 134.539 412.276 134.283C412.781 134.125 413.273 133.914 413.743 133.648C414.339 133.312 414.895 132.896 415.395 132.396C415.894 131.897 416.311 131.341 416.647 130.745ZM412.376 136.106C412.369 136.372 412.353 136.637 412.327 136.902C413.124 136.715 413.902 136.431 414.643 136.052C415.558 135.585 416.418 134.963 417.19 134.19C417.962 133.418 418.583 132.558 419.052 131.643C419.433 130.902 419.716 130.124 419.902 129.327C419.637 129.353 419.372 129.369 419.106 129.376C418.916 130.106 418.636 130.82 418.266 131.498C417.845 132.273 417.307 133 416.655 133.653L416.653 133.655C416 134.307 415.273 134.845 414.498 135.266C413.82 135.635 413.106 135.916 412.376 136.106ZM424.121 128.043C424.365 127.911 424.604 127.77 424.84 127.62C425.001 127.738 425.157 127.86 425.307 127.986C425.534 128.174 425.765 128.387 426 128.621C427.984 130.607 428.978 133.209 428.978 135.812C428.978 138.414 427.986 141.016 426 143.002L425.998 143C424.013 144.984 421.41 145.978 418.808 145.978C416.206 145.978 413.604 144.986 411.618 143C411.384 142.764 411.171 142.533 410.984 142.308C410.856 142.154 410.734 141.999 410.618 141.842C410.769 141.606 410.911 141.366 411.042 141.121C411.116 141.229 411.192 141.335 411.271 141.441C411.539 141.799 411.835 142.141 412.155 142.464C413.992 144.301 416.403 145.22 418.81 145.22C421.219 145.22 423.628 144.301 425.464 142.464L425.464 142.464C427.3 140.627 428.219 138.217 428.219 135.81C428.219 133.401 427.3 130.992 425.463 129.155C425.146 128.838 424.803 128.544 424.439 128.271C424.334 128.192 424.228 128.116 424.121 128.043ZM423.031 128.557C422.708 128.688 422.381 128.803 422.05 128.903C422.22 128.983 422.388 129.07 422.553 129.163C423.147 129.496 423.704 129.914 424.204 130.415C425.694 131.905 426.439 133.857 426.439 135.811C426.439 137.763 425.695 139.715 424.206 141.206V141.206C422.716 142.696 420.764 143.44 418.81 143.44C416.857 143.44 414.905 142.696 413.414 141.206C412.918 140.71 412.501 140.155 412.165 139.561C412.07 139.394 411.983 139.225 411.902 139.053C411.802 139.383 411.687 139.71 411.556 140.032C411.716 140.306 411.893 140.573 412.086 140.83C412.322 141.146 412.585 141.452 412.876 141.742C414.517 143.38 416.664 144.198 418.81 144.198C420.957 144.198 423.102 143.379 424.741 141.743L424.74 141.742C426.379 140.103 427.197 137.957 427.197 135.81C427.197 133.663 426.377 131.515 424.74 129.878C424.444 129.582 424.139 129.317 423.829 129.084C423.572 128.892 423.305 128.716 423.031 128.557ZM420.701 130.273C420.775 130.029 420.841 129.784 420.898 129.537C421.296 129.669 421.684 129.84 422.054 130.051C422.564 130.337 423.046 130.7 423.482 131.138C424.772 132.428 425.417 134.12 425.417 135.811C425.417 137.501 424.773 139.193 423.484 140.482L423.483 140.482C422.192 141.772 420.501 142.417 418.81 142.417C417.119 142.417 415.426 141.772 414.136 140.482C413.697 140.044 413.336 139.566 413.051 139.062C412.84 138.689 412.669 138.3 412.536 137.899C412.784 137.842 413.029 137.776 413.273 137.701C413.387 138.036 413.531 138.362 413.705 138.672C413.962 139.13 414.285 139.561 414.672 139.948C415.815 141.09 417.312 141.661 418.81 141.661C420.306 141.661 421.803 141.09 422.946 139.948L422.223 139.225C421.282 140.168 420.046 140.64 418.81 140.64C417.574 140.64 416.338 140.168 415.395 139.225C415.073 138.903 414.807 138.548 414.596 138.173C414.448 137.91 414.328 137.637 414.234 137.36C414.469 137.263 414.702 137.159 414.932 137.046C414.994 137.241 415.071 137.433 415.163 137.618C415.355 138.006 415.612 138.369 415.933 138.688C416.729 139.482 417.77 139.88 418.81 139.88C419.851 139.88 420.893 139.482 421.687 138.689L421.688 138.689C422.482 137.895 422.88 136.853 422.88 135.811C422.88 134.772 422.482 133.731 421.688 132.933C421.368 132.613 421.005 132.357 420.615 132.163C420.43 132.072 420.24 131.995 420.045 131.933C420.158 131.703 420.262 131.47 420.359 131.234C420.638 131.327 420.909 131.447 421.168 131.593C421.545 131.804 421.902 132.071 422.225 132.395C423.168 133.338 423.64 134.574 423.64 135.81C423.64 137.044 423.168 138.281 422.225 139.224L422.948 139.946C424.09 138.805 424.661 137.308 424.661 135.81C424.661 134.312 424.09 132.815 422.948 131.672C422.558 131.284 422.127 130.959 421.664 130.702C421.352 130.529 421.03 130.385 420.701 130.273ZM421.857 135.811C421.857 136.591 421.561 137.37 420.966 137.966L420.965 137.965C420.371 138.559 419.59 138.857 418.81 138.857C418.03 138.857 417.249 138.561 416.655 137.965C416.412 137.723 416.219 137.452 416.078 137.166C415.978 136.966 415.901 136.756 415.849 136.542C416.082 136.4 416.311 136.248 416.535 136.086C416.594 136.578 416.812 137.054 417.192 137.431C417.639 137.878 418.225 138.102 418.81 138.102C419.395 138.102 419.981 137.878 420.428 137.431H420.426L419.708 136.709C419.46 136.957 419.135 137.081 418.808 137.081C418.483 137.081 418.157 136.957 417.911 136.709C417.662 136.461 417.539 136.136 417.539 135.812C417.539 135.503 417.651 135.194 417.876 134.951L417.913 134.914L417.95 134.877C418.192 134.652 418.501 134.54 418.81 134.54C419.135 134.54 419.46 134.664 419.707 134.913C419.956 135.16 420.079 135.485 420.079 135.81C420.079 136.135 419.954 136.46 419.707 136.707L420.429 137.43C420.876 136.983 421.1 136.396 421.1 135.81C421.1 135.224 420.876 134.637 420.429 134.19C420.052 133.813 419.575 133.595 419.083 133.536C419.245 133.312 419.397 133.083 419.54 132.85C419.753 132.902 419.962 132.978 420.163 133.078C420.45 133.22 420.721 133.412 420.967 133.656C421.559 134.249 421.857 135.03 421.857 135.811ZM417.906 119.08L417.913 119.087L417.913 119.087L417.913 119.087C418.16 119.336 418.485 119.46 418.81 119.46C419.135 119.46 419.46 119.336 419.707 119.087C419.954 118.84 420.079 118.515 420.079 118.19C420.079 117.865 419.956 117.54 419.707 117.293L419.707 117.293C419.46 117.046 419.135 116.921 418.81 116.921C418.485 116.921 418.16 117.044 417.913 117.293C417.664 117.54 417.54 117.865 417.54 118.19C417.54 118.512 417.662 118.834 417.906 119.08ZM407.122 129.876C406.328 129.082 405.93 128.041 405.93 127C405.93 125.959 406.328 124.919 407.122 124.124C407.916 123.326 408.959 122.929 410 122.929C411.041 122.929 412.084 123.326 412.878 124.12L412.155 124.843C411.561 124.247 410.78 123.951 410 123.951C409.22 123.951 408.439 124.249 407.845 124.843C407.249 125.437 406.952 126.219 406.952 126.998C406.952 127.78 407.25 128.561 407.845 129.157L407.122 129.875V129.876ZM407.845 129.157L407.845 129.157L407.845 129.155C409.681 130.994 410.601 133.401 410.601 135.81C410.601 138.217 409.681 140.626 407.845 142.464C406.008 144.301 403.599 145.22 401.19 145.22C398.783 145.22 396.372 144.301 394.536 142.464L395.258 141.742C396.897 143.38 399.043 144.198 401.19 144.198C403.338 144.198 405.485 143.379 407.122 141.742C408.761 140.103 409.578 137.957 409.578 135.81C409.578 133.664 408.759 131.517 407.122 129.88L407.845 129.157ZM407.04 135.812C407.04 134.314 406.469 132.816 405.326 131.674L404.604 132.396C405.545 133.339 406.017 134.575 406.017 135.812C406.017 137.046 405.547 138.282 404.604 139.225C403.661 140.168 402.425 140.64 401.189 140.64C399.954 140.64 398.718 140.168 397.775 139.225L397.052 139.948C398.193 141.09 399.691 141.661 401.189 141.661C402.686 141.661 404.184 141.09 405.326 139.948C406.469 138.807 407.04 137.309 407.04 135.812Z"
       fill="white"
       id="path22" />
  </mask>
  <mask
     id="mask1"
     mask-type="alpha"
     maskUnits="userSpaceOnUse"
     x="505"
     y="105"
     width="34"
     height="43">
    <path
       fill-rule="evenodd"
       clip-rule="evenodd"
       d="M529.81 132.33C531.44 133.08 533.298 132.917 533.298 132.917C533.298 132.917 538.514 131.808 537.666 126.038C536.819 120.268 533.331 116.291 533.331 116.291C533.331 116.291 532.647 119.649 532.059 121.474C531.472 123.3 530.136 125.093 530.136 125.093C530.136 125.093 529.386 126.169 528.799 125.615C528.213 125.061 529.941 122.876 529.941 122.876C529.941 122.876 533.331 116.715 532.027 114.27C529.908 110.717 526.55 110.293 526.55 110.293C527.822 111.401 527.17 116.975 527.17 116.975C527.17 116.975 526.681 121.083 525.018 121.213C523.356 121.344 524.334 119.486 524.334 119.486C525.67 116.422 525.899 111.988 525.899 111.988C525.899 111.988 525.997 110.88 525.508 109.836C525.018 108.793 523.291 108.304 522.28 108.402C521.269 108.5 518.303 108.109 518.303 108.109C520.715 111.206 520.226 114.857 520.226 114.857C520.226 114.857 520.226 115.9 519.77 116.454C519.314 117.008 518.792 115.933 518.792 115.933C518.792 115.933 518.531 114.336 518.433 111.858C518.335 109.381 516.901 108.435 516.901 108.435C516.901 108.435 515.629 107.653 513.673 107.979C511.717 108.305 509.696 107 509.696 107C510.674 108.956 507.968 114.889 507.968 114.889C507.968 114.889 506.958 117.204 507.415 118.084C507.871 118.964 508.751 119.909 510.903 120.268C513.055 120.627 515.435 120.464 515.435 120.464C515.435 120.464 517.26 120.138 518.271 120.627C519.282 121.115 517.88 122.029 517.88 122.029C517.88 122.029 516.607 122.68 513.478 122.746C510.348 122.812 506.24 119.779 506.24 119.779C506.697 123.691 509.044 127.212 509.044 127.212C509.826 130.472 512.108 133.015 512.108 133.015C512.108 133.015 512.369 133.406 514.684 133.34C516.999 133.275 521.041 132.265 521.041 132.265C521.041 132.265 522.573 131.678 523.095 131.841C523.616 132.005 522.964 132.591 522.964 132.591C522.964 132.591 522.214 133.601 518.824 133.992C515.433 134.384 512.76 134.351 512.76 134.351C513.804 136.503 516.313 138.263 516.313 138.263C516.313 138.263 520.225 141.1 524.691 140.187C529.157 139.274 529.386 134.612 529.386 134.612L534.373 147L535.188 146.152C535.188 146.152 530.787 135.069 529.809 133.406C528.832 131.743 529.81 132.33 529.81 132.33ZM512.599 117.386C512.599 117.386 511.123 116.714 513.209 116.207C515.296 115.7 515.412 117.119 515.412 117.119C515.013 119.084 512.599 117.386 512.599 117.386ZM517.22 127.672C517.22 127.672 522.082 126.745 522.416 127.573C522.749 128.4 519.42 128.806 517.22 127.672ZM526.276 136.507C525.694 137.126 524.568 137.036 524.419 136.937C524.39 136.918 524.369 136.896 524.353 136.865C524.207 136.595 523.933 134.397 525.596 133.376C526.802 132.626 527.092 134.224 527.092 134.224C527.222 134.626 527.058 135.674 526.276 136.507ZM526.936 123.987C527.1 123.738 527.317 123.407 527.687 123.009C528.748 121.868 527.841 121.353 527.841 121.353C527.841 121.353 527.104 120.934 526.884 122.047C526.665 123.159 525.931 123.792 525.931 123.792C525.931 123.792 525.439 124.263 525.94 124.435C526.511 124.631 526.63 124.451 526.936 123.987Z"
       fill="white"
       id="path29" />
    <path
       d="M533.298 132.917L533.331 133.291L533.354 133.289L533.376 133.284L533.298 132.917ZM529.81 132.33L529.617 132.651L529.634 132.662L529.653 132.67L529.81 132.33ZM537.666 126.038L537.295 126.093L537.666 126.038ZM533.331 116.291L533.613 116.043L533.114 115.475L532.964 116.216L533.331 116.291ZM532.059 121.474L532.416 121.589L532.059 121.474ZM530.136 125.093L529.835 124.869L529.828 124.879L530.136 125.093ZM528.799 125.615L529.057 125.342L528.799 125.615ZM529.941 122.876L530.235 123.109L530.254 123.084L530.269 123.057L529.941 122.876ZM532.027 114.27L532.358 114.094L532.354 114.086L532.349 114.078L532.027 114.27ZM526.55 110.293L526.597 109.921L525.376 109.767L526.304 110.576L526.55 110.293ZM527.17 116.975L527.542 117.02L527.542 117.019L527.17 116.975ZM525.018 121.213L525.048 121.587L525.018 121.213ZM524.334 119.486L524.666 119.661L524.672 119.648L524.678 119.636L524.334 119.486ZM525.899 111.988L525.525 111.955L525.524 111.969L525.899 111.988ZM525.508 109.836L525.847 109.677V109.677L525.508 109.836ZM518.303 108.109L518.352 107.737L517.445 107.617L518.007 108.339L518.303 108.109ZM520.226 114.857L519.855 114.808L519.851 114.832V114.857H520.226ZM519.77 116.454L519.481 116.216L519.77 116.454ZM518.792 115.933L518.422 115.993L518.431 116.047L518.455 116.096L518.792 115.933ZM516.901 108.435L517.107 108.122L517.097 108.116L516.901 108.435ZM513.673 107.979L513.735 108.349V108.349L513.673 107.979ZM509.696 107L509.899 106.685L508.747 105.941L509.361 107.168L509.696 107ZM507.968 114.889L507.627 114.734L507.625 114.739L507.968 114.889ZM507.415 118.084L507.747 117.911L507.415 118.084ZM510.903 120.268L510.841 120.638H510.841L510.903 120.268ZM515.435 120.464L515.46 120.838L515.48 120.837L515.5 120.833L515.435 120.464ZM518.271 120.627L518.434 120.289L518.271 120.627ZM517.88 122.029L518.051 122.362L518.068 122.354L518.084 122.343L517.88 122.029ZM513.478 122.746L513.485 123.121H513.485L513.478 122.746ZM506.24 119.779L506.463 119.477L505.768 118.964L505.868 119.823L506.24 119.779ZM509.044 127.212L509.409 127.124L509.393 127.059L509.356 127.004L509.044 127.212ZM512.108 133.015L512.42 132.806L512.405 132.784L512.387 132.764L512.108 133.015ZM514.684 133.34L514.673 132.966L514.684 133.34ZM521.041 132.265L521.132 132.629L521.154 132.623L521.175 132.615L521.041 132.265ZM523.095 131.841L522.983 132.199L523.095 131.841ZM522.964 132.591L522.713 132.313L522.686 132.338L522.663 132.368L522.964 132.591ZM518.824 133.992L518.867 134.365L518.824 133.992ZM512.76 134.351L512.765 133.976L512.158 133.969L512.423 134.515L512.76 134.351ZM516.313 138.263L516.534 137.96L516.529 137.956L516.313 138.263ZM524.691 140.187L524.616 139.82L524.691 140.187ZM529.386 134.612L529.733 134.472L529.011 134.594L529.386 134.612ZM534.373 147L534.025 147.14L534.242 147.678L534.643 147.26L534.373 147ZM535.188 146.152L535.458 146.412L535.625 146.238L535.536 146.014L535.188 146.152ZM529.809 133.406L529.486 133.596L529.809 133.406ZM513.209 116.207L513.121 115.843L513.209 116.207ZM512.599 117.386L512.814 117.079L512.786 117.059L512.754 117.044L512.599 117.386ZM515.412 117.119L515.779 117.193L515.79 117.141L515.785 117.089L515.412 117.119ZM517.22 127.672L517.15 127.304L516.082 127.508L517.049 128.006L517.22 127.672ZM522.416 127.573L522.763 127.433L522.416 127.573ZM524.419 136.937L524.626 136.625L524.626 136.624L524.419 136.937ZM526.276 136.507L526.55 136.763L526.55 136.763L526.276 136.507ZM524.353 136.865L524.685 136.69L524.683 136.687L524.353 136.865ZM525.596 133.376L525.792 133.696L525.794 133.695L525.596 133.376ZM527.092 134.224L526.723 134.291L526.727 134.316L526.735 134.339L527.092 134.224ZM527.687 123.009L527.962 123.264V123.264L527.687 123.009ZM526.936 123.987L526.622 123.781L526.936 123.987ZM527.841 121.353L528.026 121.027L528.026 121.027L527.841 121.353ZM526.884 122.047L526.516 121.974L526.516 121.974L526.884 122.047ZM525.931 123.792L525.686 123.508L525.678 123.514L525.671 123.521L525.931 123.792ZM525.94 124.435L525.818 124.79L525.819 124.79L525.94 124.435ZM533.298 132.917C533.265 132.543 533.265 132.543 533.266 132.543C533.266 132.543 533.266 132.543 533.266 132.543C533.266 132.543 533.266 132.543 533.266 132.543C533.266 132.543 533.266 132.543 533.265 132.543C533.265 132.543 533.264 132.543 533.263 132.544C533.26 132.544 533.256 132.544 533.25 132.545C533.238 132.545 533.219 132.547 533.194 132.548C533.145 132.551 533.07 132.554 532.976 132.556C532.786 132.559 532.515 132.556 532.195 132.531C531.551 132.48 530.727 132.339 529.966 131.989L529.653 132.67C530.523 133.071 531.443 133.223 532.136 133.278C532.484 133.306 532.779 133.309 532.989 133.306C533.094 133.304 533.177 133.3 533.236 133.297C533.265 133.295 533.288 133.294 533.304 133.293C533.312 133.292 533.318 133.292 533.323 133.291C533.325 133.291 533.327 133.291 533.328 133.291C533.329 133.291 533.329 133.291 533.33 133.291C533.33 133.291 533.33 133.291 533.33 133.291C533.33 133.291 533.331 133.291 533.331 133.291C533.331 133.291 533.331 133.291 533.298 132.917ZM537.295 126.093C537.699 128.838 536.666 130.431 535.56 131.353C534.998 131.821 534.409 132.122 533.958 132.306C533.733 132.398 533.545 132.46 533.414 132.498C533.349 132.518 533.299 132.531 533.265 132.539C533.249 132.544 533.236 132.546 533.229 132.548C533.225 132.549 533.222 132.55 533.221 132.55C533.22 132.55 533.22 132.55 533.219 132.55C533.219 132.55 533.219 132.55 533.22 132.55C533.22 132.55 533.22 132.55 533.22 132.55C533.22 132.55 533.22 132.55 533.298 132.917C533.376 133.284 533.376 133.284 533.377 133.284C533.377 133.284 533.377 133.284 533.377 133.284C533.378 133.283 533.378 133.283 533.379 133.283C533.38 133.283 533.381 133.283 533.383 133.282C533.387 133.281 533.391 133.28 533.397 133.279C533.409 133.276 533.426 133.272 533.448 133.267C533.49 133.256 533.551 133.24 533.627 133.218C533.778 133.173 533.99 133.103 534.242 133.001C534.742 132.796 535.404 132.46 536.04 131.929C537.33 130.854 538.482 129.008 538.037 125.984L537.295 126.093ZM533.331 116.291C533.049 116.538 533.049 116.538 533.049 116.538C533.049 116.538 533.049 116.538 533.049 116.538C533.049 116.538 533.049 116.538 533.049 116.538C533.049 116.538 533.05 116.539 533.05 116.539C533.052 116.541 533.054 116.543 533.057 116.547C533.063 116.554 533.072 116.564 533.084 116.578C533.108 116.607 533.144 116.651 533.191 116.709C533.285 116.824 533.421 116.998 533.587 117.224C533.92 117.678 534.374 118.343 534.855 119.186C535.818 120.875 536.88 123.267 537.295 126.093L538.037 125.984C537.605 123.039 536.5 120.558 535.507 118.815C535.009 117.943 534.539 117.253 534.191 116.78C534.018 116.544 533.875 116.361 533.774 116.237C533.724 116.175 533.684 116.127 533.657 116.095C533.643 116.079 533.633 116.066 533.625 116.058C533.622 116.053 533.619 116.05 533.617 116.048C533.616 116.046 533.615 116.045 533.614 116.045C533.614 116.044 533.614 116.044 533.613 116.044C533.613 116.044 533.613 116.044 533.613 116.044C533.613 116.043 533.613 116.043 533.331 116.291ZM532.416 121.589C532.715 120.66 533.036 119.35 533.281 118.282C533.404 117.745 533.508 117.267 533.582 116.922C533.618 116.75 533.648 116.611 533.668 116.515C533.678 116.467 533.685 116.43 533.69 116.404C533.693 116.392 533.695 116.382 533.696 116.376C533.697 116.372 533.698 116.37 533.698 116.368C533.698 116.367 533.698 116.367 533.698 116.366C533.698 116.366 533.698 116.366 533.698 116.366C533.698 116.366 533.698 116.366 533.698 116.366C533.698 116.366 533.698 116.366 533.331 116.291C532.964 116.216 532.964 116.216 532.964 116.216C532.963 116.216 532.963 116.216 532.963 116.216C532.963 116.216 532.963 116.216 532.963 116.216C532.963 116.217 532.963 116.217 532.963 116.218C532.963 116.22 532.962 116.222 532.962 116.225C532.96 116.231 532.958 116.241 532.956 116.253C532.951 116.278 532.943 116.315 532.933 116.362C532.914 116.457 532.885 116.595 532.848 116.766C532.775 117.108 532.672 117.582 532.55 118.114C532.305 119.181 531.991 120.463 531.702 121.359L532.416 121.589ZM530.136 125.093C530.436 125.317 530.436 125.317 530.436 125.317C530.436 125.317 530.437 125.317 530.437 125.317C530.437 125.317 530.437 125.317 530.437 125.316C530.437 125.316 530.437 125.316 530.438 125.315C530.439 125.314 530.44 125.313 530.441 125.311C530.444 125.307 530.448 125.301 530.454 125.294C530.464 125.279 530.479 125.258 530.499 125.231C530.538 125.176 530.594 125.097 530.663 124.996C530.801 124.795 530.99 124.507 531.198 124.162C531.613 123.474 532.11 122.541 532.416 121.589L531.702 121.359C531.421 122.233 530.957 123.109 530.556 123.775C530.357 124.106 530.175 124.381 530.044 124.573C529.979 124.669 529.926 124.743 529.889 124.794C529.871 124.819 529.857 124.838 529.848 124.851C529.844 124.857 529.84 124.862 529.838 124.865C529.837 124.867 529.836 124.868 529.835 124.868C529.835 124.869 529.835 124.869 529.835 124.869C529.835 124.869 529.835 124.869 529.835 124.869L529.835 124.869C529.835 124.869 529.835 124.869 530.136 125.093ZM528.542 125.887C528.774 126.107 529.047 126.177 529.311 126.138C529.553 126.101 529.762 125.977 529.915 125.859C530.073 125.738 530.204 125.601 530.293 125.497C530.339 125.445 530.375 125.399 530.4 125.366C530.413 125.349 530.423 125.336 530.43 125.326C530.434 125.321 530.437 125.317 530.439 125.314C530.44 125.312 530.441 125.311 530.442 125.31C530.442 125.309 530.442 125.309 530.443 125.308C530.443 125.308 530.443 125.308 530.443 125.308C530.443 125.308 530.443 125.308 530.443 125.308C530.443 125.308 530.443 125.308 530.136 125.093C529.828 124.879 529.828 124.878 529.828 124.878C529.828 124.878 529.828 124.878 529.828 124.878C529.828 124.878 529.828 124.878 529.828 124.878C529.829 124.878 529.829 124.878 529.829 124.878C529.829 124.878 529.828 124.878 529.828 124.879C529.827 124.88 529.826 124.882 529.824 124.884C529.82 124.89 529.813 124.899 529.804 124.91C529.786 124.934 529.76 124.968 529.725 125.008C529.655 125.089 529.562 125.185 529.459 125.264C529.352 125.346 529.263 125.386 529.2 125.396C529.158 125.402 529.118 125.399 529.057 125.342L528.542 125.887ZM529.941 122.876C529.646 122.644 529.646 122.644 529.646 122.644C529.646 122.644 529.646 122.644 529.646 122.644C529.646 122.644 529.646 122.644 529.646 122.644C529.646 122.645 529.645 122.645 529.645 122.646C529.644 122.647 529.642 122.649 529.64 122.651C529.637 122.656 529.632 122.663 529.625 122.671C529.612 122.688 529.593 122.713 529.569 122.745C529.521 122.808 529.454 122.898 529.375 123.008C529.218 123.227 529.013 123.528 528.826 123.849C528.642 124.166 528.462 124.523 528.369 124.852C528.287 125.145 528.226 125.589 528.542 125.887L529.057 125.342C529.08 125.364 529.015 125.327 529.091 125.055C529.158 124.818 529.3 124.525 529.474 124.227C529.645 123.933 529.836 123.652 529.985 123.445C530.059 123.341 530.122 123.256 530.166 123.198C530.189 123.168 530.206 123.146 530.218 123.131C530.224 123.123 530.228 123.117 530.231 123.114C530.232 123.112 530.233 123.111 530.234 123.11C530.234 123.109 530.235 123.109 530.235 123.109C530.235 123.109 530.235 123.109 530.235 123.109C530.235 123.109 530.235 123.109 530.235 123.109C530.235 123.109 530.235 123.109 529.941 122.876ZM531.696 114.446C531.965 114.95 532.011 115.695 531.88 116.592C531.751 117.477 531.459 118.449 531.121 119.36C530.784 120.268 530.406 121.103 530.112 121.712C529.965 122.016 529.84 122.263 529.751 122.434C529.707 122.519 529.672 122.585 529.648 122.629C529.636 122.652 529.627 122.668 529.621 122.679C529.618 122.685 529.615 122.689 529.614 122.692C529.613 122.693 529.613 122.694 529.612 122.695C529.612 122.695 529.612 122.695 529.612 122.695C529.612 122.695 529.612 122.695 529.612 122.696C529.612 122.696 529.612 122.695 529.941 122.876C530.269 123.057 530.269 123.057 530.269 123.057C530.269 123.057 530.269 123.057 530.269 123.057C530.27 123.056 530.27 123.056 530.27 123.056C530.27 123.055 530.271 123.053 530.272 123.052C530.274 123.048 530.276 123.044 530.28 123.038C530.286 123.025 530.296 123.007 530.309 122.984C530.334 122.937 530.371 122.868 530.416 122.78C530.508 122.604 530.637 122.35 530.788 122.039C531.088 121.416 531.477 120.558 531.824 119.62C532.171 118.685 532.482 117.658 532.622 116.7C532.76 115.755 532.741 114.812 532.358 114.094L531.696 114.446ZM526.55 110.293C526.503 110.665 526.503 110.665 526.503 110.665C526.503 110.665 526.503 110.665 526.503 110.665C526.503 110.665 526.502 110.665 526.502 110.665C526.502 110.665 526.503 110.665 526.503 110.665C526.504 110.665 526.505 110.665 526.507 110.665C526.512 110.666 526.519 110.667 526.53 110.669C526.551 110.672 526.584 110.678 526.628 110.686C526.715 110.703 526.845 110.731 527.009 110.776C527.337 110.866 527.8 111.022 528.327 111.285C529.379 111.809 530.689 112.758 531.705 114.462L532.349 114.078C531.246 112.229 529.817 111.189 528.661 110.613C528.084 110.326 527.575 110.154 527.207 110.053C527.023 110.003 526.874 109.97 526.77 109.95C526.717 109.94 526.676 109.933 526.647 109.928C526.632 109.926 526.621 109.924 526.613 109.923C526.608 109.922 526.605 109.922 526.602 109.921C526.601 109.921 526.6 109.921 526.599 109.921C526.599 109.921 526.598 109.921 526.598 109.921C526.598 109.921 526.598 109.921 526.598 109.921C526.597 109.921 526.597 109.921 526.55 110.293ZM527.17 116.975C527.542 117.019 527.542 117.019 527.542 117.019C527.542 117.019 527.542 117.019 527.542 117.019C527.542 117.018 527.542 117.018 527.543 117.018C527.543 117.017 527.543 117.016 527.543 117.014C527.543 117.011 527.544 117.007 527.544 117.002C527.546 116.99 527.547 116.974 527.55 116.953C527.554 116.911 527.561 116.849 527.569 116.771C527.584 116.614 527.605 116.389 527.626 116.116C527.667 115.57 527.71 114.829 527.712 114.051C527.714 113.275 527.676 112.45 527.553 111.74C527.491 111.386 527.407 111.049 527.29 110.758C527.174 110.471 527.017 110.202 526.797 110.01L526.304 110.576C526.401 110.66 526.502 110.809 526.594 111.038C526.685 111.264 526.758 111.545 526.814 111.869C526.926 112.516 526.964 113.292 526.962 114.049C526.96 114.803 526.919 115.524 526.878 116.059C526.858 116.325 526.837 116.545 526.822 116.697C526.815 116.773 526.808 116.832 526.804 116.872C526.802 116.892 526.8 116.907 526.799 116.917C526.799 116.922 526.798 116.926 526.798 116.929C526.798 116.93 526.798 116.931 526.797 116.931C526.797 116.932 526.797 116.932 526.797 116.932C526.797 116.932 526.797 116.932 526.797 116.932C526.797 116.932 526.797 116.932 527.17 116.975ZM525.048 121.587C525.627 121.542 526.057 121.153 526.364 120.71C526.675 120.262 526.905 119.695 527.075 119.159C527.246 118.618 527.363 118.084 527.436 117.688C527.473 117.489 527.499 117.323 527.517 117.207C527.525 117.149 527.532 117.103 527.536 117.071C527.538 117.055 527.539 117.043 527.541 117.034C527.541 117.03 527.541 117.026 527.542 117.024C527.542 117.023 527.542 117.022 527.542 117.021C527.542 117.021 527.542 117.021 527.542 117.02C527.542 117.02 527.542 117.02 527.542 117.02C527.542 117.02 527.542 117.02 527.17 116.975C526.798 116.931 526.798 116.931 526.798 116.931C526.798 116.931 526.798 116.931 526.798 116.931C526.798 116.931 526.798 116.931 526.797 116.931C526.797 116.932 526.797 116.932 526.797 116.933C526.797 116.935 526.797 116.937 526.796 116.941C526.795 116.948 526.794 116.958 526.792 116.972C526.788 117.001 526.783 117.043 526.775 117.097C526.759 117.206 526.734 117.363 526.699 117.551C526.629 117.929 526.519 118.43 526.36 118.932C526.2 119.439 525.996 119.924 525.748 120.283C525.495 120.646 525.241 120.82 524.989 120.84L525.048 121.587ZM524.334 119.486C524.002 119.311 524.002 119.311 524.002 119.311C524.002 119.312 524.002 119.312 524.002 119.312C524.002 119.312 524.002 119.312 524.002 119.312C524.001 119.313 524.001 119.314 524.001 119.314C524 119.316 523.999 119.318 523.998 119.32C523.995 119.325 523.992 119.331 523.988 119.34C523.98 119.356 523.968 119.379 523.955 119.407C523.929 119.464 523.893 119.545 523.857 119.64C523.785 119.827 523.702 120.093 523.679 120.368C523.657 120.635 523.688 120.983 523.933 121.251C524.185 121.528 524.574 121.624 525.048 121.587L524.989 120.84C524.631 120.868 524.519 120.781 524.487 120.746C524.448 120.703 524.412 120.61 524.427 120.429C524.441 120.256 524.497 120.065 524.557 119.908C524.587 119.832 524.615 119.768 524.635 119.724C524.645 119.702 524.654 119.685 524.659 119.674C524.662 119.668 524.664 119.665 524.665 119.662C524.666 119.661 524.666 119.66 524.666 119.66C524.666 119.66 524.666 119.66 524.666 119.66C524.666 119.66 524.666 119.66 524.666 119.66C524.666 119.66 524.666 119.66 524.666 119.66C524.666 119.66 524.666 119.661 524.334 119.486ZM525.899 111.988C525.524 111.969 525.524 111.969 525.524 111.969C525.524 111.969 525.524 111.969 525.524 111.969C525.524 111.969 525.524 111.969 525.524 111.969C525.524 111.97 525.524 111.97 525.524 111.971C525.524 111.973 525.524 111.976 525.524 111.98C525.523 111.988 525.523 112 525.522 112.016C525.52 112.048 525.517 112.096 525.512 112.158C525.504 112.283 525.49 112.466 525.469 112.695C525.427 113.152 525.357 113.795 525.247 114.532C525.024 116.013 524.639 117.849 523.99 119.336L524.678 119.636C525.366 118.059 525.763 116.146 525.988 114.644C526.102 113.889 526.173 113.232 526.216 112.763C526.237 112.528 526.251 112.34 526.26 112.211C526.265 112.146 526.268 112.095 526.27 112.061C526.271 112.044 526.272 112.031 526.272 112.022C526.273 112.017 526.273 112.014 526.273 112.011C526.273 112.01 526.273 112.009 526.273 112.009C526.273 112.008 526.273 112.008 526.273 112.008C526.273 112.008 526.273 112.007 526.273 112.007C526.273 112.007 526.273 112.007 525.899 111.988ZM525.168 109.996C525.388 110.465 525.479 110.956 525.513 111.337C525.53 111.526 525.533 111.684 525.531 111.794C525.531 111.848 525.529 111.891 525.528 111.918C525.527 111.932 525.526 111.942 525.526 111.949C525.525 111.952 525.525 111.954 525.525 111.955C525.525 111.955 525.525 111.956 525.525 111.956C525.525 111.956 525.525 111.956 525.525 111.956C525.525 111.955 525.525 111.955 525.525 111.955C525.525 111.955 525.525 111.955 525.525 111.955C525.525 111.955 525.525 111.955 525.899 111.988C526.272 112.021 526.272 112.021 526.272 112.021C526.272 112.021 526.272 112.021 526.272 112.021C526.272 112.02 526.272 112.02 526.272 112.02C526.272 112.02 526.272 112.019 526.273 112.019C526.273 112.018 526.273 112.016 526.273 112.015C526.273 112.012 526.273 112.007 526.274 112.002C526.275 111.992 526.275 111.977 526.276 111.958C526.278 111.921 526.281 111.869 526.281 111.803C526.283 111.672 526.28 111.488 526.26 111.27C526.221 110.836 526.116 110.251 525.847 109.677L525.168 109.996ZM522.316 108.775C522.755 108.733 523.38 108.818 523.954 109.041C524.535 109.266 524.983 109.601 525.168 109.996L525.847 109.677C525.543 109.029 524.883 108.597 524.225 108.342C523.56 108.083 522.816 107.973 522.244 108.029L522.316 108.775ZM518.303 108.109C518.254 108.481 518.254 108.481 518.254 108.481C518.254 108.481 518.254 108.481 518.254 108.481C518.254 108.481 518.254 108.481 518.254 108.481C518.255 108.481 518.255 108.481 518.256 108.481C518.258 108.481 518.26 108.481 518.263 108.482C518.269 108.483 518.277 108.484 518.288 108.485C518.311 108.488 518.343 108.492 518.385 108.498C518.469 108.508 518.59 108.523 518.738 108.541C519.033 108.576 519.438 108.622 519.876 108.665C520.734 108.75 521.767 108.829 522.316 108.775L522.244 108.029C521.782 108.074 520.827 108.006 519.949 107.919C519.518 107.877 519.119 107.831 518.827 107.796C518.681 107.779 518.562 107.764 518.479 107.753C518.438 107.748 518.406 107.744 518.384 107.741C518.374 107.74 518.365 107.739 518.36 107.738C518.357 107.738 518.355 107.738 518.354 107.737C518.353 107.737 518.353 107.737 518.352 107.737C518.352 107.737 518.352 107.737 518.352 107.737C518.352 107.737 518.352 107.737 518.352 107.737C518.352 107.737 518.352 107.737 518.303 108.109ZM520.226 114.857C520.598 114.907 520.598 114.907 520.598 114.907C520.598 114.907 520.598 114.906 520.598 114.906C520.598 114.906 520.598 114.906 520.598 114.905C520.598 114.904 520.599 114.903 520.599 114.902C520.599 114.9 520.599 114.896 520.6 114.892C520.601 114.883 520.602 114.871 520.604 114.856C520.607 114.825 520.612 114.781 520.616 114.725C520.626 114.612 520.636 114.45 520.64 114.246C520.648 113.839 520.634 113.266 520.541 112.593C520.355 111.249 519.857 109.494 518.599 107.878L518.007 108.339C519.161 109.821 519.624 111.44 519.798 112.696C519.884 113.323 519.898 113.856 519.89 114.231C519.886 114.418 519.877 114.565 519.869 114.664C519.865 114.713 519.861 114.751 519.859 114.775C519.857 114.787 519.856 114.796 519.855 114.801C519.855 114.804 519.855 114.806 519.855 114.807C519.855 114.808 519.855 114.808 519.855 114.808C519.855 114.808 519.855 114.808 519.855 114.808C519.855 114.808 519.855 114.808 519.855 114.808C519.855 114.808 519.855 114.808 520.226 114.857ZM520.059 116.693C520.351 116.339 520.479 115.859 520.539 115.512C520.57 115.331 520.586 115.17 520.593 115.054C520.597 114.996 520.599 114.948 520.6 114.914C520.601 114.898 520.601 114.884 520.601 114.875C520.601 114.87 520.601 114.866 520.601 114.863C520.601 114.861 520.601 114.86 520.601 114.859C520.601 114.859 520.601 114.858 520.601 114.858C520.601 114.858 520.601 114.858 520.601 114.858C520.601 114.858 520.601 114.857 520.601 114.857C520.601 114.857 520.601 114.857 520.226 114.857C519.851 114.857 519.851 114.857 519.851 114.857C519.851 114.857 519.851 114.857 519.851 114.857C519.851 114.857 519.851 114.857 519.851 114.857C519.851 114.857 519.851 114.857 519.851 114.857C519.851 114.857 519.851 114.857 519.851 114.858C519.851 114.859 519.851 114.861 519.851 114.864C519.851 114.87 519.851 114.879 519.851 114.892C519.85 114.917 519.848 114.956 519.845 115.004C519.839 115.101 519.826 115.235 519.8 115.384C519.746 115.697 519.645 116.016 519.481 116.216L520.059 116.693ZM518.792 115.933C518.455 116.096 518.455 116.097 518.455 116.097C518.455 116.097 518.455 116.097 518.455 116.097C518.455 116.097 518.455 116.097 518.455 116.097C518.455 116.098 518.455 116.098 518.456 116.099C518.456 116.1 518.457 116.101 518.458 116.102C518.459 116.106 518.461 116.11 518.464 116.115C518.469 116.124 518.476 116.138 518.485 116.155C518.502 116.188 518.528 116.234 518.56 116.287C518.623 116.39 518.718 116.532 518.837 116.658C518.947 116.776 519.122 116.928 519.35 116.974C519.624 117.03 519.875 116.917 520.059 116.693L519.481 116.216C519.437 116.269 519.451 116.229 519.499 116.239C519.502 116.24 519.46 116.227 519.383 116.145C519.314 116.071 519.25 115.979 519.201 115.897C519.177 115.858 519.159 115.824 519.146 115.801C519.14 115.789 519.135 115.781 519.132 115.775C519.131 115.772 519.13 115.77 519.13 115.769C519.129 115.769 519.129 115.769 519.129 115.768C519.129 115.768 519.129 115.769 519.129 115.769C519.129 115.769 519.129 115.769 519.129 115.769C519.129 115.769 519.129 115.769 519.129 115.769C519.129 115.769 519.129 115.769 518.792 115.933ZM518.058 111.873C518.108 113.122 518.198 114.149 518.277 114.865C518.316 115.224 518.352 115.504 518.378 115.696C518.391 115.792 518.402 115.865 518.41 115.915C518.414 115.94 518.417 115.959 518.419 115.973C518.42 115.979 518.42 115.984 518.421 115.988C518.421 115.989 518.422 115.991 518.422 115.992C518.422 115.992 518.422 115.992 518.422 115.993C518.422 115.993 518.422 115.993 518.422 115.993C518.422 115.993 518.422 115.993 518.422 115.993C518.422 115.993 518.422 115.993 518.792 115.933C519.162 115.872 519.162 115.872 519.162 115.872C519.162 115.872 519.162 115.872 519.162 115.872C519.162 115.872 519.162 115.872 519.162 115.872C519.162 115.872 519.162 115.872 519.162 115.872C519.162 115.871 519.162 115.87 519.162 115.869C519.161 115.866 519.16 115.862 519.16 115.856C519.158 115.844 519.155 115.827 519.151 115.803C519.144 115.756 519.134 115.686 519.121 115.593C519.096 115.408 519.06 115.135 519.022 114.784C518.946 114.082 518.857 113.072 518.808 111.843L518.058 111.873ZM516.901 108.435C516.694 108.749 516.694 108.748 516.694 108.748C516.694 108.748 516.694 108.748 516.694 108.748C516.694 108.748 516.693 108.748 516.693 108.748C516.693 108.748 516.693 108.747 516.693 108.747C516.692 108.747 516.692 108.747 516.693 108.747C516.693 108.748 516.696 108.749 516.699 108.752C516.705 108.756 516.717 108.765 516.732 108.777C516.763 108.801 516.811 108.84 516.87 108.896C516.988 109.006 517.152 109.181 517.32 109.428C517.654 109.92 518.012 110.709 518.058 111.873L518.808 111.843C518.756 110.53 518.348 109.607 517.94 109.007C517.738 108.708 517.536 108.492 517.383 108.348C517.306 108.276 517.241 108.222 517.193 108.185C517.169 108.166 517.149 108.152 517.135 108.142C517.128 108.136 517.122 108.132 517.117 108.129C517.115 108.127 517.113 108.126 517.111 108.125C517.11 108.124 517.109 108.124 517.109 108.123C517.108 108.123 517.108 108.123 517.108 108.123C517.108 108.123 517.108 108.123 517.107 108.123C517.107 108.122 517.107 108.122 516.901 108.435ZM513.735 108.349C514.65 108.196 515.402 108.304 515.921 108.447C516.181 108.518 516.382 108.598 516.516 108.66C516.583 108.69 516.633 108.716 516.665 108.733C516.681 108.741 516.692 108.748 516.699 108.752C516.702 108.753 516.704 108.755 516.705 108.755C516.705 108.756 516.706 108.756 516.706 108.756C516.705 108.756 516.705 108.755 516.705 108.755C516.705 108.755 516.705 108.755 516.705 108.755C516.705 108.755 516.705 108.755 516.704 108.755C516.704 108.755 516.704 108.755 516.901 108.435C517.097 108.116 517.097 108.116 517.097 108.116C517.097 108.116 517.097 108.116 517.097 108.116C517.096 108.116 517.096 108.115 517.096 108.115C517.095 108.115 517.095 108.115 517.094 108.114C517.093 108.113 517.091 108.112 517.089 108.111C517.085 108.109 517.08 108.106 517.073 108.102C517.06 108.094 517.043 108.084 517.02 108.072C516.975 108.048 516.91 108.015 516.827 107.977C516.661 107.902 516.423 107.807 516.12 107.723C515.514 107.557 514.652 107.436 513.611 107.609L513.735 108.349ZM509.696 107C509.493 107.315 509.493 107.315 509.493 107.315C509.493 107.315 509.493 107.315 509.493 107.315C509.493 107.315 509.493 107.316 509.494 107.316C509.494 107.316 509.495 107.316 509.495 107.317C509.497 107.318 509.499 107.319 509.501 107.321C509.506 107.324 509.513 107.328 509.521 107.333C509.539 107.344 509.564 107.359 509.595 107.378C509.659 107.416 509.75 107.468 509.866 107.53C510.097 107.653 510.425 107.813 510.818 107.962C511.595 108.258 512.662 108.528 513.735 108.349L513.611 107.609C512.728 107.756 511.807 107.536 511.084 107.261C510.727 107.125 510.428 106.979 510.219 106.868C510.114 106.812 510.033 106.765 509.978 106.733C509.951 106.717 509.93 106.704 509.917 106.696C509.91 106.692 509.905 106.689 509.902 106.687C509.901 106.686 509.9 106.685 509.899 106.685C509.899 106.685 509.899 106.685 509.899 106.685C509.899 106.685 509.899 106.685 509.899 106.685C509.899 106.685 509.899 106.685 509.899 106.685C509.899 106.685 509.899 106.685 509.696 107ZM507.968 114.889C508.31 115.045 508.31 115.045 508.31 115.045C508.31 115.044 508.31 115.044 508.31 115.044C508.31 115.044 508.31 115.044 508.31 115.043C508.311 115.042 508.311 115.041 508.312 115.04C508.313 115.037 508.315 115.032 508.318 115.026C508.323 115.014 508.331 114.997 508.341 114.975C508.361 114.93 508.39 114.864 508.427 114.78C508.5 114.611 508.603 114.369 508.723 114.073C508.964 113.48 509.275 112.668 509.556 111.793C509.836 110.919 510.09 109.971 510.21 109.11C510.328 108.268 510.33 107.43 510.031 106.832L509.361 107.168C509.551 107.548 509.582 108.185 509.467 109.006C509.355 109.807 509.116 110.709 508.842 111.564C508.569 112.416 508.265 113.209 508.028 113.79C507.911 114.081 507.81 114.317 507.739 114.481C507.703 114.563 507.675 114.626 507.656 114.669C507.647 114.691 507.639 114.707 507.634 114.718C507.632 114.723 507.63 114.727 507.629 114.73C507.628 114.731 507.628 114.732 507.628 114.733C507.627 114.733 507.627 114.733 507.627 114.733C507.627 114.733 507.627 114.734 507.627 114.734C507.627 114.734 507.627 114.734 507.968 114.889ZM507.747 117.911C507.684 117.788 507.653 117.568 507.682 117.247C507.709 116.939 507.786 116.592 507.881 116.259C507.975 115.928 508.083 115.622 508.168 115.398C508.211 115.286 508.247 115.195 508.273 115.133C508.286 115.102 508.296 115.078 508.302 115.062C508.306 115.054 508.308 115.048 508.31 115.044C508.311 115.042 508.311 115.041 508.312 115.04C508.312 115.04 508.312 115.039 508.312 115.039C508.312 115.039 508.312 115.039 508.312 115.039C508.312 115.039 508.312 115.039 508.312 115.039C508.312 115.039 508.312 115.039 507.968 114.889C507.625 114.739 507.625 114.739 507.625 114.739C507.625 114.739 507.625 114.739 507.625 114.739C507.625 114.739 507.625 114.74 507.624 114.74C507.624 114.74 507.624 114.741 507.624 114.742C507.623 114.743 507.622 114.745 507.621 114.747C507.619 114.752 507.616 114.76 507.612 114.769C507.604 114.787 507.593 114.814 507.579 114.848C507.551 114.915 507.512 115.012 507.467 115.131C507.377 115.369 507.261 115.696 507.159 116.054C507.058 116.41 506.968 116.807 506.935 117.18C506.902 117.541 506.917 117.939 507.082 118.257L507.747 117.911ZM510.965 119.898C509.934 119.726 509.232 119.418 508.741 119.067C508.253 118.716 507.954 118.31 507.747 117.911L507.082 118.257C507.332 118.738 507.702 119.244 508.305 119.676C508.906 120.107 509.72 120.451 510.841 120.638L510.965 119.898ZM515.435 120.464C515.409 120.09 515.409 120.09 515.409 120.09C515.409 120.09 515.409 120.09 515.409 120.09C515.409 120.09 515.409 120.09 515.409 120.09C515.409 120.09 515.408 120.09 515.408 120.09C515.407 120.09 515.405 120.09 515.403 120.09C515.399 120.09 515.393 120.091 515.384 120.091C515.367 120.092 515.341 120.094 515.308 120.096C515.24 120.099 515.141 120.104 515.015 120.109C514.763 120.119 514.403 120.128 513.978 120.126C513.124 120.122 512.013 120.073 510.965 119.898L510.841 120.638C511.945 120.822 513.1 120.872 513.974 120.876C514.412 120.878 514.782 120.868 515.043 120.859C515.174 120.854 515.277 120.849 515.348 120.845C515.384 120.843 515.412 120.841 515.43 120.84C515.44 120.839 515.447 120.839 515.452 120.839C515.455 120.838 515.456 120.838 515.458 120.838C515.459 120.838 515.459 120.838 515.459 120.838C515.46 120.838 515.46 120.838 515.46 120.838C515.46 120.838 515.46 120.838 515.46 120.838C515.46 120.838 515.46 120.838 515.435 120.464ZM518.434 120.289C517.841 120.002 517.052 119.967 516.461 119.987C516.156 119.998 515.885 120.025 515.69 120.048C515.592 120.06 515.513 120.072 515.458 120.08C515.43 120.084 515.409 120.088 515.394 120.09C515.386 120.092 515.38 120.093 515.376 120.093C515.374 120.094 515.372 120.094 515.371 120.094C515.37 120.094 515.37 120.095 515.369 120.095C515.369 120.095 515.369 120.095 515.369 120.095C515.369 120.095 515.369 120.095 515.369 120.095C515.369 120.095 515.369 120.095 515.435 120.464C515.5 120.833 515.5 120.833 515.5 120.833C515.5 120.833 515.5 120.833 515.5 120.833C515.5 120.833 515.5 120.833 515.5 120.833C515.5 120.833 515.5 120.833 515.501 120.833C515.501 120.833 515.502 120.833 515.504 120.833C515.506 120.832 515.511 120.831 515.517 120.83C515.529 120.828 515.548 120.825 515.572 120.822C515.62 120.814 515.692 120.804 515.781 120.793C515.96 120.771 516.209 120.747 516.487 120.737C517.061 120.717 517.69 120.762 518.108 120.964L518.434 120.289ZM517.88 122.029C518.084 122.343 518.085 122.343 518.085 122.343C518.085 122.343 518.085 122.343 518.085 122.343C518.085 122.343 518.085 122.342 518.085 122.342C518.086 122.342 518.086 122.342 518.087 122.341C518.088 122.341 518.09 122.34 518.091 122.338C518.095 122.336 518.1 122.333 518.106 122.329C518.118 122.32 518.135 122.309 518.156 122.294C518.197 122.264 518.254 122.222 518.318 122.17C518.445 122.069 518.613 121.918 518.751 121.741C518.88 121.574 519.031 121.321 519.01 121.026C518.987 120.69 518.759 120.446 518.434 120.289L518.108 120.964C518.2 121.009 518.239 121.046 518.254 121.064C518.26 121.072 518.262 121.076 518.262 121.077C518.262 121.077 518.262 121.077 518.262 121.078C518.263 121.092 518.253 121.158 518.158 121.281C518.071 121.393 517.953 121.502 517.848 121.586C517.797 121.628 517.752 121.661 517.72 121.683C517.705 121.694 517.692 121.703 517.685 121.708C517.681 121.711 517.678 121.713 517.676 121.714C517.675 121.714 517.675 121.715 517.675 121.715C517.675 121.715 517.675 121.715 517.675 121.715C517.675 121.715 517.675 121.715 517.675 121.715C517.675 121.715 517.675 121.715 517.675 121.715C517.675 121.715 517.675 121.714 517.88 122.029ZM513.485 123.121C515.075 123.087 516.203 122.905 516.94 122.727C517.309 122.638 517.58 122.551 517.762 122.483C517.853 122.45 517.922 122.421 517.97 122.4C517.993 122.39 518.012 122.381 518.026 122.375C518.032 122.372 518.038 122.369 518.042 122.367C518.044 122.366 518.046 122.365 518.047 122.364C518.048 122.364 518.049 122.364 518.049 122.363C518.049 122.363 518.05 122.363 518.05 122.363C518.05 122.363 518.05 122.363 518.05 122.363C518.05 122.363 518.051 122.362 517.88 122.029C517.709 121.695 517.709 121.695 517.709 121.695C517.709 121.695 517.709 121.695 517.709 121.695C517.71 121.695 517.71 121.694 517.71 121.694C517.71 121.694 517.71 121.694 517.71 121.694C517.711 121.694 517.711 121.694 517.71 121.694C517.709 121.695 517.707 121.696 517.704 121.697C517.697 121.7 517.685 121.706 517.668 121.713C517.634 121.728 517.579 121.751 517.502 121.78C517.348 121.837 517.105 121.916 516.764 121.998C516.083 122.162 515.009 122.339 513.47 122.371L513.485 123.121ZM506.24 119.779C506.018 120.081 506.018 120.081 506.018 120.081C506.018 120.081 506.018 120.081 506.018 120.081C506.018 120.081 506.019 120.081 506.019 120.082C506.02 120.082 506.02 120.083 506.022 120.084C506.024 120.085 506.027 120.088 506.031 120.091C506.04 120.097 506.052 120.106 506.068 120.117C506.1 120.141 506.147 120.174 506.208 120.217C506.329 120.301 506.505 120.422 506.726 120.566C507.167 120.854 507.788 121.237 508.51 121.619C509.937 122.373 511.819 123.156 513.485 123.121L513.47 122.371C512.007 122.402 510.27 121.701 508.861 120.956C508.164 120.587 507.563 120.217 507.136 119.938C506.923 119.799 506.753 119.683 506.638 119.602C506.58 119.562 506.536 119.53 506.506 119.509C506.492 119.498 506.48 119.49 506.473 119.485C506.47 119.482 506.467 119.48 506.465 119.479C506.464 119.478 506.464 119.478 506.463 119.478C506.463 119.477 506.463 119.477 506.463 119.477C506.463 119.477 506.463 119.477 506.463 119.477C506.463 119.477 506.463 119.477 506.24 119.779ZM509.044 127.212C509.356 127.004 509.356 127.004 509.356 127.004C509.356 127.004 509.356 127.004 509.356 127.004C509.356 127.004 509.356 127.004 509.356 127.004C509.356 127.003 509.355 127.003 509.355 127.002C509.354 127.001 509.353 126.999 509.351 126.996C509.347 126.99 509.341 126.98 509.332 126.968C509.316 126.942 509.292 126.904 509.26 126.854C509.197 126.753 509.106 126.604 508.994 126.412C508.772 126.029 508.469 125.476 508.153 124.803C507.518 123.453 506.835 121.636 506.613 119.736L505.868 119.823C506.103 121.834 506.821 123.734 507.474 125.122C507.801 125.818 508.114 126.39 508.346 126.789C508.462 126.988 508.557 127.145 508.624 127.252C508.658 127.305 508.684 127.347 508.703 127.375C508.712 127.389 508.719 127.4 508.724 127.407C508.726 127.411 508.728 127.414 508.73 127.416C508.73 127.417 508.731 127.418 508.731 127.419C508.731 127.419 508.732 127.419 508.732 127.419C508.732 127.419 508.732 127.42 508.732 127.42C508.732 127.42 508.732 127.42 509.044 127.212ZM512.108 133.015C512.387 132.764 512.387 132.764 512.388 132.764C512.388 132.764 512.388 132.764 512.388 132.764C512.388 132.764 512.388 132.764 512.387 132.764C512.387 132.764 512.387 132.764 512.387 132.763C512.386 132.762 512.385 132.761 512.383 132.759C512.379 132.755 512.373 132.748 512.365 132.739C512.35 132.721 512.326 132.694 512.296 132.657C512.234 132.585 512.145 132.476 512.035 132.335C511.815 132.054 511.512 131.643 511.185 131.133C510.53 130.11 509.787 128.699 509.409 127.124L508.679 127.299C509.084 128.984 509.873 130.475 510.554 131.538C510.895 132.071 511.212 132.5 511.444 132.797C511.56 132.946 511.655 133.061 511.722 133.14C511.755 133.18 511.781 133.21 511.8 133.231C511.809 133.242 511.816 133.25 511.821 133.255C511.823 133.258 511.825 133.261 511.827 133.262C511.827 133.263 511.828 133.264 511.828 133.264C511.829 133.264 511.829 133.264 511.829 133.265C511.829 133.265 511.829 133.265 511.829 133.265C511.829 133.265 511.829 133.265 512.108 133.015ZM514.673 132.966C513.533 132.998 512.927 132.916 512.62 132.838C512.467 132.8 512.398 132.765 512.375 132.751C512.365 132.745 512.367 132.745 512.376 132.753C512.381 132.758 512.387 132.764 512.395 132.773C512.399 132.777 512.403 132.782 512.407 132.788C512.409 132.791 512.411 132.794 512.414 132.797C512.415 132.798 512.416 132.8 512.417 132.802C512.418 132.802 512.418 132.803 512.419 132.804C512.419 132.804 512.419 132.805 512.42 132.805C512.42 132.806 512.42 132.806 512.108 133.015C511.796 133.223 511.797 133.223 511.797 133.224C511.797 133.224 511.798 133.225 511.798 133.225C511.799 133.226 511.799 133.227 511.8 133.228C511.801 133.229 511.802 133.231 511.803 133.233C511.806 133.236 511.808 133.24 511.811 133.243C511.817 133.25 511.822 133.258 511.829 133.265C511.841 133.279 511.856 133.294 511.872 133.309C511.905 133.339 511.945 133.369 511.995 133.398C512.094 133.456 512.234 133.514 512.436 133.566C512.838 133.667 513.52 133.748 514.695 133.715L514.673 132.966ZM521.041 132.265C520.95 131.901 520.95 131.901 520.95 131.901C520.95 131.901 520.95 131.901 520.95 131.901C520.949 131.901 520.949 131.901 520.949 131.901C520.949 131.901 520.948 131.902 520.947 131.902C520.945 131.902 520.942 131.903 520.939 131.904C520.931 131.906 520.92 131.909 520.905 131.912C520.875 131.919 520.831 131.93 520.774 131.944C520.661 131.971 520.495 132.011 520.289 132.058C519.876 132.154 519.302 132.281 518.657 132.411C517.358 132.671 515.796 132.934 514.673 132.966L514.695 133.715C515.887 133.682 517.503 133.407 518.804 133.146C519.458 133.015 520.04 132.886 520.457 132.789C520.666 132.741 520.834 132.701 520.95 132.673C521.008 132.659 521.054 132.648 521.084 132.64C521.1 132.637 521.111 132.634 521.119 132.632C521.123 132.631 521.126 132.63 521.128 132.63C521.129 132.629 521.13 132.629 521.131 132.629C521.131 132.629 521.131 132.629 521.131 132.629C521.131 132.629 521.131 132.629 521.131 132.629C521.132 132.629 521.132 132.629 521.041 132.265ZM523.207 131.484C522.989 131.415 522.722 131.435 522.499 131.468C522.26 131.503 522.002 131.566 521.77 131.631C521.537 131.697 521.322 131.767 521.166 131.821C521.087 131.848 521.023 131.872 520.978 131.888C520.956 131.896 520.938 131.903 520.926 131.907C520.92 131.91 520.915 131.911 520.912 131.913C520.91 131.913 520.909 131.914 520.908 131.914C520.908 131.914 520.907 131.914 520.907 131.915C520.907 131.915 520.907 131.915 520.907 131.915C520.907 131.915 520.907 131.915 520.907 131.915C520.907 131.915 520.907 131.915 521.041 132.265C521.175 132.615 521.175 132.615 521.175 132.615L521.175 132.615C521.175 132.615 521.175 132.615 521.175 132.615C521.175 132.615 521.175 132.615 521.175 132.615C521.176 132.615 521.177 132.614 521.178 132.614C521.18 132.613 521.184 132.612 521.19 132.61C521.2 132.606 521.216 132.6 521.237 132.592C521.278 132.577 521.337 132.556 521.411 132.53C521.558 132.479 521.759 132.414 521.974 132.353C522.19 132.292 522.414 132.238 522.608 132.21C522.819 132.179 522.939 132.186 522.983 132.199L523.207 131.484ZM522.964 132.591C523.215 132.87 523.215 132.87 523.215 132.87C523.215 132.87 523.215 132.87 523.215 132.87C523.216 132.87 523.216 132.87 523.216 132.87C523.216 132.869 523.216 132.869 523.217 132.869C523.218 132.868 523.218 132.867 523.219 132.866C523.221 132.864 523.224 132.862 523.227 132.859C523.234 132.853 523.242 132.845 523.253 132.835C523.274 132.814 523.302 132.786 523.334 132.751C523.395 132.684 523.481 132.584 523.549 132.467C523.609 132.364 523.698 132.18 523.665 131.969C523.624 131.707 523.425 131.552 523.207 131.484L522.983 132.199C523.009 132.207 522.997 132.209 522.975 132.187C522.949 132.161 522.93 132.124 522.924 132.086C522.919 132.053 522.925 132.036 522.924 132.043C522.922 132.048 522.916 132.063 522.901 132.088C522.872 132.139 522.827 132.195 522.782 132.243C522.761 132.266 522.743 132.285 522.73 132.297C522.723 132.303 522.718 132.308 522.716 132.311C522.714 132.312 522.713 132.313 522.713 132.313C522.713 132.313 522.713 132.313 522.713 132.313C522.713 132.313 522.713 132.313 522.713 132.313C522.713 132.313 522.713 132.313 522.713 132.313C522.713 132.313 522.713 132.313 522.713 132.313C522.713 132.313 522.713 132.313 522.964 132.591ZM518.867 134.365C520.594 134.166 521.673 133.806 522.331 133.482C522.661 133.319 522.885 133.166 523.031 133.046C523.105 132.986 523.159 132.934 523.196 132.895C523.215 132.875 523.23 132.858 523.242 132.845C523.247 132.838 523.252 132.832 523.256 132.827C523.258 132.825 523.26 132.822 523.261 132.82C523.262 132.819 523.263 132.818 523.263 132.818C523.264 132.817 523.264 132.817 523.264 132.816C523.265 132.816 523.265 132.816 523.265 132.816C523.265 132.815 523.265 132.815 522.964 132.591C522.663 132.368 522.663 132.368 522.664 132.367C522.664 132.367 522.664 132.367 522.664 132.367C522.664 132.366 522.665 132.366 522.665 132.366C522.665 132.365 522.666 132.365 522.666 132.364C522.667 132.363 522.668 132.362 522.668 132.362C522.669 132.36 522.669 132.36 522.668 132.361C522.667 132.363 522.663 132.368 522.654 132.376C522.638 132.394 522.607 132.424 522.557 132.465C522.457 132.547 522.282 132.67 522 132.809C521.435 133.087 520.444 133.428 518.781 133.62L518.867 134.365ZM512.76 134.351C512.756 134.726 512.756 134.726 512.756 134.726C512.756 134.726 512.756 134.726 512.756 134.726C512.756 134.726 512.756 134.726 512.757 134.726C512.757 134.726 512.757 134.726 512.758 134.726C512.76 134.726 512.762 134.726 512.765 134.726C512.77 134.726 512.778 134.727 512.789 134.727C512.81 134.727 512.841 134.727 512.881 134.727C512.962 134.727 513.081 134.727 513.235 134.725C513.541 134.722 513.985 134.714 514.535 134.693C515.634 134.652 517.16 134.562 518.867 134.365L518.781 133.62C517.098 133.814 515.592 133.903 514.507 133.944C513.964 133.964 513.528 133.972 513.227 133.975C513.077 133.977 512.961 133.977 512.882 133.977C512.843 133.977 512.814 133.977 512.794 133.977C512.784 133.977 512.777 133.976 512.772 133.976C512.769 133.976 512.767 133.976 512.766 133.976C512.766 133.976 512.765 133.976 512.765 133.976C512.765 133.976 512.765 133.976 512.765 133.976C512.765 133.976 512.765 133.976 512.765 133.976C512.765 133.976 512.765 133.976 512.76 134.351ZM516.313 138.263C516.529 137.956 516.529 137.956 516.529 137.956L516.529 137.956C516.529 137.956 516.529 137.956 516.529 137.956C516.529 137.956 516.528 137.956 516.528 137.956C516.527 137.955 516.525 137.954 516.523 137.952C516.519 137.95 516.513 137.945 516.504 137.939C516.487 137.926 516.461 137.907 516.427 137.882C516.359 137.832 516.26 137.757 516.137 137.66C515.892 137.467 515.554 137.186 515.184 136.84C514.439 136.143 513.59 135.202 513.098 134.188L512.423 134.515C512.974 135.652 513.901 136.667 514.672 137.388C515.06 137.751 515.415 138.045 515.673 138.249C515.802 138.351 515.907 138.43 515.98 138.485C516.017 138.512 516.046 138.533 516.066 138.547C516.076 138.555 516.084 138.56 516.089 138.564C516.092 138.566 516.094 138.567 516.095 138.568C516.096 138.569 516.097 138.569 516.097 138.57C516.097 138.57 516.098 138.57 516.098 138.57C516.098 138.57 516.098 138.57 516.098 138.57C516.098 138.57 516.098 138.57 516.313 138.263ZM524.616 139.82C522.478 140.256 520.461 139.798 518.963 139.218C518.216 138.928 517.605 138.611 517.182 138.367C516.97 138.245 516.806 138.142 516.696 138.07C516.641 138.034 516.599 138.005 516.572 137.986C516.558 137.977 516.548 137.97 516.542 137.965C516.538 137.963 516.536 137.962 516.535 137.961C516.534 137.96 516.534 137.96 516.533 137.96C516.533 137.96 516.533 137.96 516.533 137.96C516.533 137.96 516.533 137.96 516.533 137.96C516.533 137.96 516.534 137.96 516.313 138.263C516.093 138.567 516.093 138.567 516.094 138.567C516.094 138.567 516.094 138.567 516.094 138.567C516.094 138.568 516.094 138.568 516.095 138.568C516.096 138.569 516.097 138.569 516.098 138.57C516.1 138.572 516.104 138.574 516.108 138.577C516.117 138.584 516.129 138.592 516.145 138.603C516.177 138.626 516.224 138.657 516.285 138.697C516.406 138.776 516.582 138.887 516.807 139.017C517.257 139.276 517.903 139.611 518.692 139.917C520.267 140.527 522.438 141.03 524.766 140.554L524.616 139.82ZM529.386 134.612C529.011 134.594 529.011 134.594 529.011 134.593C529.011 134.593 529.011 134.593 529.011 134.593C529.011 134.593 529.011 134.593 529.011 134.593C529.011 134.593 529.011 134.594 529.011 134.594C529.011 134.596 529.011 134.598 529.011 134.601C529.01 134.608 529.009 134.62 529.008 134.635C529.006 134.665 529.002 134.711 528.995 134.771C528.981 134.891 528.956 135.066 528.913 135.281C528.826 135.71 528.666 136.29 528.375 136.895C527.797 138.097 526.706 139.392 524.616 139.82L524.766 140.554C527.142 140.069 528.399 138.576 529.051 137.22C529.376 136.545 529.552 135.902 529.648 135.429C529.696 135.192 529.724 134.996 529.74 134.857C529.748 134.788 529.753 134.733 529.756 134.695C529.757 134.676 529.758 134.66 529.759 134.65C529.759 134.644 529.76 134.64 529.76 134.637C529.76 134.635 529.76 134.634 529.76 134.633C529.76 134.632 529.76 134.632 529.76 134.631C529.76 134.631 529.76 134.631 529.76 134.631C529.76 134.631 529.76 134.63 529.386 134.612ZM534.721 146.86L529.733 134.472L529.038 134.752L534.025 147.14L534.721 146.86ZM534.917 145.893L534.103 146.74L534.643 147.26L535.458 146.412L534.917 145.893ZM529.486 133.596C529.716 133.987 530.164 134.967 530.718 136.248C531.266 137.517 531.907 139.056 532.518 140.545C533.129 142.033 533.709 143.47 534.137 144.534C534.351 145.067 534.526 145.506 534.649 145.812C534.71 145.965 534.757 146.085 534.79 146.166C534.806 146.207 534.818 146.238 534.827 146.259C534.831 146.27 534.834 146.278 534.836 146.283C534.837 146.285 534.838 146.287 534.839 146.289C534.839 146.289 534.839 146.29 534.839 146.29C534.839 146.29 534.839 146.291 534.839 146.291C534.839 146.291 534.839 146.291 535.188 146.152C535.536 146.014 535.536 146.014 535.536 146.014C535.536 146.014 535.536 146.014 535.536 146.013C535.536 146.013 535.536 146.013 535.536 146.012C535.535 146.011 535.534 146.009 535.533 146.006C535.531 146.001 535.528 145.993 535.524 145.982C535.515 145.961 535.503 145.93 535.487 145.889C535.454 145.807 535.406 145.687 535.345 145.534C535.223 145.227 535.047 144.788 534.833 144.255C534.405 143.189 533.824 141.751 533.212 140.26C532.6 138.77 531.958 137.226 531.406 135.95C530.859 134.685 530.391 133.656 530.132 133.216L529.486 133.596ZM529.81 132.33C530.003 132.008 530.002 132.008 530.002 132.008C530.002 132.008 530.002 132.008 530.002 132.008C530.002 132.008 530.002 132.008 530.001 132.007C530.001 132.007 530 132.007 530 132.006C529.999 132.006 529.997 132.005 529.996 132.004C529.992 132.002 529.988 131.999 529.983 131.997C529.972 131.991 529.958 131.983 529.941 131.974C529.908 131.957 529.86 131.934 529.805 131.913C529.752 131.893 529.68 131.87 529.6 131.86C529.525 131.85 529.401 131.846 529.275 131.909C529.128 131.982 529.042 132.115 529.012 132.259C528.987 132.386 529.004 132.514 529.034 132.629C529.093 132.861 529.237 133.173 529.486 133.596L530.132 133.216C529.892 132.807 529.792 132.569 529.76 132.443C529.744 132.379 529.754 132.377 529.747 132.41C529.737 132.46 529.696 132.537 529.611 132.58C529.577 132.596 529.548 132.602 529.531 132.603C529.515 132.605 529.505 132.604 529.504 132.604C529.503 132.603 529.506 132.604 529.513 132.606C529.52 132.608 529.529 132.611 529.539 132.615C529.56 132.623 529.581 132.633 529.598 132.641C529.606 132.645 529.612 132.648 529.615 132.65C529.617 132.651 529.618 132.652 529.618 132.652C529.618 132.652 529.618 132.652 529.618 132.652C529.618 132.652 529.618 132.652 529.618 132.652C529.617 132.652 529.617 132.652 529.617 132.651C529.617 132.651 529.617 132.651 529.617 132.651C529.617 132.651 529.617 132.651 529.81 132.33ZM513.121 115.843C512.587 115.973 512.214 116.126 511.988 116.322C511.869 116.425 511.773 116.555 511.734 116.715C511.695 116.878 511.727 117.027 511.782 117.145C511.882 117.359 512.076 117.506 512.192 117.584C512.258 117.628 512.319 117.663 512.363 117.687C512.385 117.699 512.404 117.708 512.418 117.715C512.425 117.718 512.43 117.721 512.435 117.723C512.437 117.724 512.439 117.725 512.44 117.725C512.441 117.726 512.441 117.726 512.442 117.726C512.442 117.726 512.443 117.726 512.443 117.727C512.443 117.727 512.443 117.727 512.443 117.727C512.443 117.727 512.443 117.727 512.599 117.386C512.754 117.044 512.754 117.044 512.754 117.044C512.754 117.044 512.754 117.044 512.754 117.044C512.754 117.044 512.755 117.044 512.755 117.045C512.755 117.045 512.755 117.045 512.755 117.045C512.755 117.045 512.755 117.045 512.754 117.044C512.753 117.044 512.751 117.043 512.747 117.041C512.741 117.038 512.73 117.032 512.716 117.025C512.687 117.01 512.649 116.988 512.609 116.961C512.569 116.934 512.532 116.905 512.503 116.877C512.488 116.863 512.478 116.852 512.471 116.842C512.467 116.838 512.465 116.834 512.463 116.831C512.462 116.829 512.461 116.827 512.461 116.828C512.462 116.83 512.472 116.856 512.464 116.891C512.456 116.922 512.443 116.92 512.479 116.889C512.563 116.816 512.789 116.695 513.298 116.572L513.121 115.843ZM515.412 117.119C515.785 117.089 515.785 117.088 515.785 117.088C515.785 117.088 515.785 117.088 515.785 117.087C515.785 117.087 515.785 117.087 515.785 117.086C515.785 117.085 515.785 117.084 515.785 117.083C515.785 117.081 515.784 117.078 515.784 117.076C515.784 117.07 515.783 117.063 515.782 117.054C515.779 117.037 515.776 117.015 515.771 116.989C515.761 116.936 515.744 116.864 515.715 116.782C515.659 116.619 515.553 116.404 515.359 116.209C514.949 115.796 514.247 115.569 513.121 115.843L513.298 116.572C514.258 116.338 514.658 116.568 514.827 116.737C514.923 116.833 514.977 116.941 515.007 117.028C515.022 117.071 515.03 117.107 515.034 117.129C515.036 117.141 515.038 117.149 515.038 117.152C515.038 117.154 515.038 117.155 515.038 117.154C515.038 117.154 515.038 117.154 515.038 117.153C515.038 117.152 515.038 117.152 515.038 117.151C515.038 117.151 515.038 117.151 515.038 117.15C515.038 117.15 515.038 117.15 515.038 117.15C515.038 117.15 515.038 117.149 515.412 117.119ZM512.599 117.386C512.383 117.692 512.383 117.692 512.383 117.692C512.383 117.692 512.383 117.692 512.383 117.693C512.384 117.693 512.384 117.693 512.384 117.693C512.385 117.693 512.385 117.694 512.386 117.694C512.388 117.696 512.39 117.697 512.393 117.699C512.399 117.703 512.406 117.708 512.417 117.715C512.437 117.729 512.465 117.748 512.501 117.771C512.574 117.817 512.676 117.88 512.801 117.948C513.046 118.084 513.39 118.25 513.757 118.351C514.115 118.449 514.552 118.5 514.948 118.336C515.372 118.16 515.661 117.775 515.779 117.193L515.044 117.044C514.963 117.446 514.8 117.585 514.66 117.643C514.491 117.713 514.25 117.708 513.955 117.628C513.668 117.549 513.383 117.413 513.164 117.292C513.055 117.232 512.966 117.178 512.905 117.139C512.874 117.119 512.851 117.103 512.835 117.093C512.827 117.088 512.822 117.084 512.818 117.081C512.817 117.08 512.815 117.079 512.815 117.079C512.814 117.079 512.814 117.079 512.814 117.079C512.814 117.079 512.814 117.079 512.814 117.079C512.814 117.079 512.814 117.079 512.814 117.079C512.814 117.079 512.814 117.079 512.599 117.386ZM517.22 127.672C517.291 128.041 517.291 128.041 517.291 128.041C517.291 128.041 517.291 128.041 517.291 128.041C517.291 128.041 517.291 128.041 517.291 128.041C517.292 128.04 517.293 128.04 517.294 128.04C517.296 128.04 517.299 128.039 517.304 128.038C517.312 128.037 517.326 128.034 517.343 128.031C517.378 128.024 517.43 128.015 517.496 128.003C517.627 127.98 517.817 127.947 518.045 127.911C518.502 127.837 519.112 127.749 519.731 127.685C520.354 127.622 520.969 127.586 521.441 127.614C521.679 127.628 521.86 127.657 521.98 127.696C522.117 127.741 522.09 127.769 522.068 127.713L522.763 127.433C522.657 127.169 522.406 127.046 522.213 126.983C522.004 126.915 521.75 126.88 521.485 126.865C520.952 126.834 520.289 126.874 519.655 126.939C519.017 127.004 518.391 127.096 517.926 127.17C517.693 127.208 517.5 127.241 517.364 127.265C517.297 127.277 517.244 127.287 517.207 127.293C517.189 127.297 517.175 127.299 517.165 127.301C517.16 127.302 517.157 127.303 517.154 127.303C517.153 127.303 517.152 127.304 517.151 127.304C517.151 127.304 517.151 127.304 517.151 127.304C517.151 127.304 517.15 127.304 517.15 127.304C517.15 127.304 517.15 127.304 517.22 127.672ZM522.068 127.713C522.067 127.71 522.062 127.694 522.065 127.672C522.068 127.65 522.076 127.639 522.074 127.642C522.065 127.654 522.021 127.699 521.898 127.755C521.658 127.865 521.256 127.953 520.745 127.983C519.728 128.044 518.417 127.867 517.392 127.339L517.049 128.006C518.223 128.611 519.676 128.798 520.79 128.732C521.345 128.699 521.85 128.602 522.209 128.438C522.386 128.357 522.565 128.244 522.682 128.08C522.816 127.895 522.856 127.664 522.763 127.433L522.068 127.713ZM524.212 137.25C524.29 137.302 524.38 137.326 524.433 137.338C524.499 137.353 524.575 137.365 524.655 137.372C524.816 137.387 525.015 137.388 525.228 137.364C525.643 137.316 526.172 137.165 526.55 136.763L526.003 136.25C525.799 136.468 525.474 136.581 525.143 136.619C524.982 136.637 524.835 136.636 524.725 136.625C524.67 136.62 524.628 136.613 524.602 136.607C524.563 136.598 524.585 136.598 524.626 136.625L524.212 137.25ZM524.021 137.039C524.067 137.127 524.131 137.196 524.212 137.25L524.626 136.624C524.634 136.63 524.646 136.64 524.659 136.654C524.672 136.668 524.68 136.681 524.685 136.69L524.021 137.039ZM525.4 133.057C524.447 133.642 524.059 134.561 523.927 135.339C523.86 135.729 523.856 136.092 523.878 136.378C523.889 136.522 523.907 136.65 523.929 136.755C523.949 136.85 523.978 136.959 524.023 137.043L524.683 136.687C524.692 136.703 524.681 136.685 524.664 136.603C524.649 136.533 524.635 136.437 524.626 136.32C524.608 136.087 524.611 135.786 524.666 135.465C524.776 134.822 525.082 134.132 525.792 133.696L525.4 133.057ZM527.092 134.224C527.461 134.157 527.461 134.157 527.461 134.157C527.461 134.157 527.461 134.157 527.461 134.156C527.46 134.156 527.46 134.156 527.46 134.156C527.46 134.155 527.46 134.154 527.46 134.154C527.46 134.152 527.459 134.15 527.459 134.148C527.458 134.143 527.457 134.137 527.455 134.129C527.452 134.114 527.447 134.093 527.441 134.068C527.429 134.018 527.41 133.948 527.383 133.868C527.331 133.71 527.242 133.494 527.099 133.298C526.956 133.101 526.737 132.898 526.421 132.827C526.1 132.754 525.756 132.836 525.398 133.058L525.794 133.695C526.04 133.542 526.183 133.542 526.256 133.558C526.334 133.576 526.414 133.631 526.493 133.74C526.573 133.85 526.632 133.986 526.672 134.105C526.691 134.162 526.704 134.211 526.712 134.245C526.717 134.262 526.719 134.275 526.721 134.283C526.722 134.287 526.722 134.29 526.723 134.291C526.723 134.292 526.723 134.292 526.723 134.292C526.723 134.292 526.723 134.292 526.723 134.292C526.723 134.292 526.723 134.292 526.723 134.291C526.723 134.291 526.723 134.291 526.723 134.291C526.723 134.291 526.723 134.291 527.092 134.224ZM526.55 136.763C526.985 136.3 527.249 135.776 527.386 135.309C527.518 134.859 527.546 134.412 527.448 134.109L526.735 134.339C526.767 134.438 526.778 134.716 526.666 135.098C526.559 135.464 526.349 135.881 526.003 136.25L526.55 136.763ZM527.413 122.754C527.021 123.176 526.789 123.528 526.622 123.781L527.249 124.193C527.41 123.948 527.614 123.639 527.962 123.264L527.413 122.754ZM527.841 121.353C527.655 121.679 527.655 121.679 527.655 121.678C527.655 121.678 527.655 121.678 527.655 121.678C527.654 121.678 527.654 121.678 527.654 121.678C527.653 121.677 527.653 121.677 527.652 121.677C527.651 121.676 527.651 121.676 527.65 121.676C527.649 121.675 527.649 121.675 527.65 121.675C527.65 121.676 527.654 121.678 527.659 121.682C527.669 121.689 527.686 121.702 527.705 121.721C527.745 121.759 527.785 121.811 527.807 121.876C527.84 121.97 527.887 122.243 527.413 122.754L527.962 123.264C528.548 122.634 528.672 122.079 528.516 121.63C528.444 121.424 528.324 121.276 528.226 121.181C528.177 121.134 528.131 121.098 528.096 121.072C528.079 121.06 528.063 121.05 528.052 121.042C528.046 121.038 528.04 121.035 528.036 121.033C528.034 121.031 528.032 121.03 528.03 121.029C528.029 121.029 528.029 121.028 528.028 121.028C528.028 121.028 528.027 121.027 528.027 121.027C528.027 121.027 528.026 121.027 528.026 121.027C528.026 121.027 528.026 121.027 527.841 121.353ZM527.252 122.12C527.299 121.882 527.366 121.766 527.411 121.712C527.451 121.666 527.483 121.656 527.505 121.653C527.536 121.648 527.575 121.652 527.614 121.664C527.632 121.669 527.646 121.675 527.655 121.679C527.659 121.681 527.661 121.682 527.661 121.682C527.662 121.682 527.661 121.682 527.66 121.681C527.66 121.681 527.659 121.681 527.658 121.68C527.658 121.68 527.658 121.68 527.657 121.68C527.657 121.68 527.657 121.679 527.656 121.679C527.656 121.679 527.656 121.679 527.656 121.679C527.656 121.679 527.656 121.679 527.841 121.353C528.026 121.027 528.026 121.026 528.025 121.026C528.025 121.026 528.025 121.026 528.025 121.026C528.025 121.026 528.024 121.026 528.024 121.026C528.023 121.025 528.023 121.025 528.022 121.024C528.02 121.024 528.019 121.023 528.017 121.022C528.013 121.02 528.009 121.017 528.003 121.014C527.993 121.009 527.979 121.002 527.962 120.995C527.93 120.98 527.885 120.962 527.83 120.946C527.724 120.914 527.565 120.883 527.384 120.912C527.195 120.943 527.001 121.038 526.841 121.226C526.686 121.407 526.579 121.656 526.516 121.974L527.252 122.12ZM525.931 123.792C526.175 124.076 526.175 124.076 526.176 124.076C526.176 124.076 526.176 124.076 526.176 124.076C526.176 124.076 526.176 124.076 526.176 124.075C526.177 124.075 526.177 124.075 526.177 124.074C526.178 124.074 526.179 124.073 526.181 124.072C526.183 124.069 526.186 124.067 526.19 124.063C526.198 124.056 526.208 124.047 526.221 124.035C526.246 124.011 526.28 123.977 526.322 123.933C526.404 123.846 526.514 123.719 526.631 123.554C526.864 123.225 527.13 122.74 527.252 122.119L526.516 121.974C526.419 122.466 526.208 122.854 526.019 123.12C525.925 123.252 525.838 123.353 525.776 123.419C525.745 123.452 525.72 123.476 525.704 123.491C525.696 123.498 525.691 123.504 525.688 123.506C525.686 123.508 525.685 123.509 525.685 123.509C525.685 123.509 525.685 123.509 525.685 123.509C525.685 123.509 525.685 123.509 525.685 123.509C525.685 123.509 525.685 123.508 525.685 123.508C525.685 123.508 525.686 123.508 525.686 123.508C525.686 123.508 525.686 123.508 525.931 123.792ZM526.062 124.081C526.002 124.06 526.054 124.061 526.08 124.136C526.102 124.196 526.079 124.228 526.092 124.198C526.102 124.173 526.124 124.14 526.152 124.106C526.164 124.09 526.176 124.078 526.183 124.07C526.187 124.066 526.189 124.064 526.191 124.062C526.191 124.062 526.192 124.061 526.191 124.062C526.191 124.062 526.191 124.062 526.191 124.062C526.191 124.062 526.191 124.062 526.19 124.063C526.19 124.063 526.19 124.063 526.19 124.063C526.19 124.063 526.19 124.063 526.19 124.063C526.19 124.063 526.19 124.063 525.931 123.792C525.671 123.521 525.671 123.521 525.671 123.521C525.671 123.521 525.671 123.521 525.671 123.522C525.671 123.522 525.671 123.522 525.671 123.522C525.67 123.522 525.67 123.523 525.67 123.523C525.669 123.524 525.668 123.524 525.667 123.525C525.665 123.527 525.663 123.53 525.66 123.533C525.654 123.538 525.647 123.546 525.638 123.555C525.62 123.574 525.597 123.599 525.571 123.631C525.522 123.691 525.453 123.786 525.403 123.9C525.356 124.009 525.304 124.191 525.374 124.388C525.45 124.6 525.628 124.724 525.818 124.79L526.062 124.081ZM526.622 123.781C526.543 123.901 526.488 123.984 526.438 124.047C526.389 124.108 526.363 124.126 526.353 124.132C526.35 124.134 526.342 124.14 526.307 124.138C526.263 124.137 526.188 124.124 526.062 124.081L525.819 124.79C526.13 124.897 526.437 124.946 526.722 124.785C526.851 124.712 526.947 124.611 527.025 124.514C527.1 124.419 527.175 124.305 527.249 124.193L526.622 123.781Z"
       fill="white"
       id="path31" />
  </mask>
</svg>
