<?xml version="1.0" encoding="UTF-8"?>
<svg width="752pt" height="752pt" version="1.1" viewBox="70 100 552 552" xmlns="http://www.w3.org/2000/svg">
 <defs>
  <clipPath id="a">
   <path d="m139.21 179h473.58v394h-473.58z"/>
  </clipPath>
 </defs>
 <path d="m332.31 479.74-15.195 15.191c-19.199 19.301-45.32 30.125-72.547 30.051-2.4922 0-4.9805-0.085938-7.2109-0.24219l-2.5742-0.27734-1.6719 15.695 2.8242 0.29688c2.8789 0.21484 5.7539 0.31641 8.6328 0.31641 31.41 0.078125 61.539-12.414 83.684-34.676l15.199-15.191z"/>
 <g clip-path="url(#a)">
  <path d="m568.95 272.19-32.25-32.199c8.168-11.141 6.9609-26.578-2.8359-36.316-32.195-32.133-84.328-32.133-116.52 0l-16.895 16.902-0.55078-0.11328c-13.617-2.7148-26.129-9.4102-35.938-19.238l-5.582-5.582-33.488 33.449 5.582 5.582c9.8203 9.8086 16.516 22.316 19.23 35.93l0.10938 0.55078-16.898 16.902c-0.47266 0.46484-0.87109 0.98828-1.3242 1.4609-32.543-29.324-82.34-28.066-113.36 2.8555-9.7969 9.7383-11 25.176-2.832 36.316l-32.25 32.258c-31.023 31.016-46.906 74.062-43.465 117.79l5.8477 54.922c0.078125 0.69922-0.003906 1.4062-0.23438 2.0703l-2.2031 6.6211c-2.4766 7.4297-0.53906 15.621 5 21.156 5.5391 5.5352 13.73 7.4609 21.156 4.9844l6.625-2.1992c0.64844-0.23047 1.3398-0.32031 2.0273-0.26172l55.121 5.8828c3.8711 0.29297 7.7148 0.4375 11.566 0.4375 39.762 0.007812 77.898-15.801 106-43.934l32.25-32.258c11.145 8.1523 26.562 6.9531 36.316-2.8164 7.7695-7.7852 13.906-17.051 18.047-27.246 0.41016 0.21484 0.85156 0.38281 1.2617 0.59375 3.4922 1.8086 7.0352 3.4961 10.645 5.0234 1.3555 0.56641 2.7422 1.0547 4.1133 1.5781 2.8906 1.1211 5.793 2.1797 8.7539 3.1562 1.582 0.48828 3.1562 0.94141 4.6914 1.3828 2.8789 0.8125 5.7734 1.543 8.6836 2.1797 1.5781 0.34766 3.1562 0.70312 4.7344 0.99609 3.1602 0.57812 6.3164 1.0195 9.4766 1.3984 1.3945 0.17188 2.7852 0.39453 4.2031 0.51953 4.5508 0.41797 9.1406 0.67969 13.75 0.67969 3.875 0 7.7656-0.14844 11.684-0.44922l54.891-5.8594c0.69141-0.074219 1.3867 0 2.043 0.22266l6.625 2.207c7.4258 2.4766 15.613 0.54297 21.148-4.9922 5.5391-5.5312 7.4727-13.719 5.0078-21.148l-2.2109-6.6289c-0.22266-0.66016-0.30078-1.3594-0.22656-2.0508l5.8828-55.125c3.4062-43.656-12.441-86.617-43.391-117.6zm-222-42.844 11.676-11.676c8.5078 7.0742 18.301 12.434 28.844 15.789l-24.711 24.703c-3.3594-10.539-8.7266-20.324-15.812-28.812zm123.83-12.254h-39.93v-4.4102c10.984-10.074 25.062-16.125 39.93-17.164zm15.789 51.316v-35.527h35.527zm-15.789 15.789-3.9492 3.9492h-35.684l-0.20313-55.262h39.836zm-130.96 19.738h12.543v47.367h-27.527c-1.3164-17.129 4.0508-34.105 14.984-47.367zm75.297-71.051 0.20703 55.262h-47.172v-13.004l42.262-42.262zm-94.332 179.51-21.605-21.617h21.605zm7.1758-45.301h24.402v29.891c-3.1133-0.089844-6.082-1.3594-8.293-3.5625-7.375-7.3789-12.895-16.402-16.109-26.328zm40.191 0h19.699l-19.699 19.699zm35.488-15.789h-35.488v-47.367h47.227l0.14453 35.527zm27.527-47.367h19.879l-19.738 19.738zm-117.15 71.051h-30.629l-2.0781-2.0742v-53.188h31.988c-6.0977 17.961-5.8438 37.469 0.72266 55.262zm-48.496-17.863-36.133-36.133c-0.37891-0.39844-0.72656-0.81641-1.0391-1.2656h37.176zm118.42 118.42-21.617-21.609h21.617zm-37.406-37.398-9.9609-9.9609v-20.605c9.7695 7.0391 22.965 6.9727 32.656-0.16406l14.711 14.715v16.016zm53.195-0.21875 0.21875 0.21875h-0.21875zm124.73-220.83h-37.891v-20.848c13.691 2.2266 26.336 8.7188 36.133 18.543 0.67578 0.69922 1.2656 1.4727 1.7578 2.3047zm-203.84 86.84h-39.309v-19.664c15.125 1.0547 29.426 7.293 40.492 17.66-0.41797 0.65625-0.78125 1.3398-1.1836 2.0039zm-55.098-18.945v18.945h-36.457c0.12109-0.125 0.19531-0.26562 0.32422-0.39453 9.8008-9.8242 22.441-16.312 36.133-18.555zm73.922 232.26c-27.613 27.695-65.965 41.926-104.96 38.938l-54.871-5.8594c-0.73047-0.078125-1.457-0.11719-2.1914-0.11719-2.2227-0.003907-4.4375 0.35547-6.5547 1.0547l-6.6211 2.2109c-1.7539 0.58594-3.6875 0.13281-4.9961-1.1758-1.3086-1.3125-1.7617-3.2461-1.168-5l2.1953-6.6211c0.9375-2.793 1.2617-5.7539 0.94922-8.6836l-5.8359-54.695c-3.0234-39.059 11.195-77.492 38.914-105.18l31.934-31.941 72.574 72.574 72.57 72.566zm68.574-35.082c-2.207 2.1953-5.1719 3.4688-8.2891 3.5625v-31.793h18.41c1.1445 0.85547 2.3203 1.6562 3.4883 2.4727 0.60938 0.42969 1.1836 0.91797 1.8008 1.3359-3.2812 9.1758-8.543 17.52-15.41 24.43zm188.68-93.852-5.8555 54.891c-0.3125 2.9297 0.007812 5.8906 0.94141 8.6836l2.1992 6.6133c0.59766 1.7539 0.14453 3.6914-1.168 5-1.3125 1.3047-3.2422 1.7617-5 1.1836l-6.6211-2.2109c-2.8047-0.94141-5.7852-1.2656-8.7305-0.9375l-54.652 5.832c-4.5508 0.32812-9.1211 0.42969-13.68 0.30078-1.3516-0.039063-2.6797-0.17188-4.0195-0.25391-3.1562-0.17188-6.3789-0.41797-9.5273-0.78516-1.5781-0.19922-3.1562-0.46484-4.7383-0.73047-2.9102-0.47266-5.8047-1.0352-8.6797-1.6953-1.582-0.37109-3.1602-0.78906-4.7773-1.1914-2.8438-0.78906-5.6562-1.6562-8.4414-2.6133-1.4844-0.51172-2.9844-0.99609-4.4531-1.582-3.0234-1.1602-5.9766-2.4727-8.9062-3.8438-1.1445-0.53906-2.3203-1.0039-3.4492-1.582-4.0078-2.0195-7.8945-4.2266-11.738-6.6367-0.55469-0.35547-1.0742-0.78906-1.6328-1.1523-3.2852-2.1641-6.5078-4.4375-9.6094-6.8984-0.58203-0.45703-1.1523-0.95703-1.7344-1.4297-3.3867-2.7773-6.7031-5.6836-9.8359-8.8203l-31.934-31.941 145.14-145.14 31.938 31.941c27.707 27.629 41.957 65.988 39 105z"/>
 </g>
 <path d="m531.43 279.34-11.164 11.18 15.18 15.188c21.031 20.996 31.91 50.094 29.816 79.734l-0.48047 4.4766 15.695 1.6719 0.50391-4.7344c2.5156-34.324-10.031-68.039-34.371-92.367z"/>
</svg>
