<?xml version="1.0" encoding="UTF-8"?>
<svg width="752pt" height="752pt" version="1.1" viewBox="120 130 452 452" xmlns="http://www.w3.org/2000/svg">
 <g>
  <path d="m511.56 401.46h-2.3672c-0.59375-13.617-2.9609-26.641-6.5117-39.07 13.617-8.8789 53.871-42.621 44.988-121.36-0.59375-2.9609-2.3672-4.7344-5.3281-5.3281-2.9609 0-5.3281 1.7773-5.918 4.1445-0.59375 2.3672-14.207 50.91-74.59 58.012-17.168-15.391-37.887-26.047-60.973-30.191h-0.59375c-0.59375 0-1.1836-0.59375-2.3672-0.59375-3.5508 0-5.918 2.9609-5.918 5.918v34.336c0 1.7773 1.1836 3.5508 2.3672 4.7344 1.7773 1.1836 3.5508 1.1836 5.3281 0.59375l5.9219-1.7734 5.3281 43.215-11.25-13.613c-1.1836-1.1836-2.9609-2.3672-4.7344-2.3672-1.7773 0-3.5508 1.1836-4.7344 2.3672l-1.1836 1.1836-20.719-33.152c-0.59375-1.1836-2.3672-2.3672-4.1445-2.3672-1.7773-0.59375-2.9609 0-4.7344 1.1836l-11.246 7.6953-12.43-37.293c0-0.59375-0.59375-0.59375-0.59375-0.59375 0-0.59375-0.59375-0.59375-0.59375-1.1836 0 0-0.59375-0.59375-1.1836-0.59375-0.59375 0-0.59375-0.59375-1.1836-0.59375-0.59375 0-0.59375 0-1.1836-0.59375h-1.1836-1.1836-1.1836c-14.207 5.918-26.641 13.617-37.887 23.68-60.383-7.1055-73.996-55.645-74.59-58.012-0.59375-2.9609-3.5508-4.7344-5.918-4.1445-2.9609 0-5.3281 2.3672-5.3281 5.3281-8.8789 78.141 31.375 111.88 44.988 121.36-4.1445 12.43-6.5117 25.453-7.1055 39.07l-1.7773 0.003906c-3.5508 0-5.918 2.3672-5.918 5.918v46.176c0 3.5508 2.3672 5.918 5.918 5.918h26.047v46.176c0 3.5508 2.3672 5.918 5.918 5.918s5.918-2.3672 5.918-5.918v-46.176h68.078c6.5117 0 11.84 5.918 11.84 13.023 0 7.1055-5.3281 13.023-11.84 13.023-1.7773 0-2.9609 0.59375-4.1445 1.7773-2.3672 2.3672-2.3672 5.918 0 8.2891l30.191 32.559c1.1836 1.1836 2.9609 1.7773 4.1445 1.7773s2.9609-0.59375 4.1445-1.7773l30.191-32.559s0-0.59375 0.59375-0.59375c0-0.59375 0.59375-0.59375 0.59375-1.1836v-1.1836-0.59375-1.1836-0.59375s0-0.59375-0.59375-0.59375c0-0.59375-0.59375-1.1836-1.1836-1.1836 0 0-0.59375 0-0.59375-0.59375-0.59375 0-0.59375-0.59375-1.1836-0.59375h-1.1836-0.59375c-6.5117 0-11.84-5.918-11.84-13.023s5.3281-13.023 11.84-13.023h105.37c3.5508 0 5.918-2.3672 5.918-5.918v-46.176c0.003906-4.7266-2.957-7.6875-5.918-7.6875zm-13.613-50.91c-6.5117-15.391-15.391-30.191-26.641-42.031 5.918-1.1836 10.656-2.3672 15.984-4.1445 5.918 2.9609 23.68 13.023 26.641 30.781-5.3281 7.6992-11.84 12.434-15.984 15.395zm20.125-63.344c0.59375 0.59375 1.1836 0.59375 1.7773 0.59375 0 0 9.4727 1.7773 11.84 13.023-2.3672 8.2891-5.3281 15.391-8.8789 21.902-5.3281-11.246-14.207-18.941-21.902-23.68 6.5117-4.1406 12.43-7.6953 17.164-11.84zm18.945-21.902c0 6.5117-0.59375 11.84-1.1836 17.758-2.3672-2.3672-5.3281-4.1445-7.6953-5.3281 1.1836-1.1836 1.7773-2.3672 2.9609-3.5508 1.7734-2.957 4.1406-5.918 5.918-8.8789zm-322.04 0.59375c1.7773 2.9609 4.1445 5.918 6.5117 8.8789 10.656 13.023 29.008 28.414 58.605 34.336-11.246 12.43-20.129 26.641-26.641 42.031-11.84-8.8828-37.887-33.746-38.477-85.246zm40.254 122.54h90.574c3.5508 0 5.918-2.3672 5.918-5.918s-2.3672-5.918-5.918-5.918l-88.207-0.003906c1.1836-4.7344 2.3672-9.4727 4.1445-14.207l43.215 2.9609h0.59375c2.9609 0 5.918-2.3672 5.918-5.3281 0-3.5508-2.3672-5.918-5.3281-6.5117l-39.664-2.9609c2.3672-5.3281 4.7344-10.062 7.6953-14.801l36.109 5.918h1.1836c2.9609 0 5.3281-1.7773 5.918-4.7344 0.59375-2.9609-1.7773-6.5117-4.7344-6.5117l-31.371-5.3281c4.1445-5.3281 8.2891-10.656 13.617-15.391 0.59375 0.59375 1.1836 0.59375 1.7773 0.59375l24.863 5.918h1.1836c2.9609 0 5.3281-1.7773 5.918-4.7344 0.59375-2.9609-1.1836-6.5117-4.1445-7.1055l-18.941-4.1445c6.5117-4.7344 13.617-9.4727 21.312-13.023l13.023 38.477c0.59375 1.7773 1.7773 2.9609 3.5508 3.5508 1.7773 0.59375 3.5508 0 5.3281-0.59375l12.43-8.8789 22.496 34.926c1.1836 1.7773 2.9609 2.9609 4.7344 2.9609 1.7773 0 3.5508-0.59375 4.7344-2.3672l1.7773-2.3672 18.941 23.086c1.1836 1.1836 2.9609 2.3672 4.7344 2.3672 0.59375 0 1.7773 0 2.3672-0.59375 2.3672-1.1836 4.1445-3.5508 3.5508-5.918l-8.8789-71.039c0-1.7773-1.1836-3.5508-2.9609-4.1445-1.7773-1.1836-3.5508-1.1836-5.3281-0.59375l-3.5469 2.9688v-17.758c53.277 13.023 91.758 62.75 94.125 120.76h-243.89c0-4.7344 0.58984-9.4688 1.1836-13.613zm140.3 105.37-19.535 20.719-19.535-20.719c7.6953-4.1445 12.43-12.43 12.43-21.902 0-4.7344-1.1836-8.8789-3.5508-13.023h20.719c-2.3672 3.5508-3.5508 8.2891-3.5508 13.023 0.59375 9.4727 5.3281 17.758 13.023 21.902zm110.11-46.176h-259.88v-34.336h260.47v34.336z"/>
  <path d="m270.63 419.81c-7.1055 0-12.43 5.918-12.43 12.43s5.918 12.43 12.43 12.43c6.5117 0 12.43-5.918 12.43-12.43 0.003906-6.5117-5.3242-12.43-12.43-12.43zm-0.58984 13.023c0-0.59375 0.59375-0.59375 0.59375-0.59375l0.59375 0.59375c0.58594 0.58984-1.1875 0.58984-1.1875 0z"/>
  <path d="m323.32 419.81c-7.1055 0-12.43 5.918-12.43 12.43s5.918 12.43 12.43 12.43c6.5117 0 12.43-5.918 12.43-12.43s-5.3281-12.43-12.43-12.43zm-0.59375 13.023c0-0.59375 0.59375-0.59375 0.59375-0.59375l0.59375 0.59375c-0.003906 0.58984-1.1875 0.58984-1.1875 0z"/>
  <path d="m376 419.81c-7.1055 0-12.43 5.918-12.43 12.43s5.918 12.43 12.43 12.43 12.43-5.918 12.43-12.43c0.003906-6.5117-5.3242-12.43-12.43-12.43zm-0.58984 13.023c0-0.59375 0.59375-0.59375 0.59375-0.59375l0.59375 0.59375c-0.003906 0.58984-1.1875 0.58984-1.1875 0z"/>
  <path d="m428.69 419.81c-7.1055 0-12.43 5.918-12.43 12.43s5.918 12.43 12.43 12.43 12.43-5.918 12.43-12.43-5.3281-12.43-12.43-12.43zm-0.59375 13.023c0-0.59375 0.59375-0.59375 0.59375-0.59375l0.59375 0.59375c-0.003906 0.58984-1.1875 0.58984-1.1875 0z"/>
  <path d="m481.38 419.81c-7.1055 0-12.43 5.918-12.43 12.43s5.918 12.43 12.43 12.43 12.43-5.918 12.43-12.43-5.3281-12.43-12.43-12.43zm-1.1875 13.023c0-0.59375 0.59375-0.59375 0.59375-0.59375l0.59375 0.59375c0.58984 0.58984-1.1875 0.58984-1.1875 0z"/>
  <path d="m290.16 481.38c-3.5508 0-5.918 2.3672-5.918 5.918v65.711c0 3.5508 2.3672 5.918 5.918 5.918 3.5508 0 5.918-2.3672 5.918-5.918l0.003907-65.711c0-3.5508-2.9609-5.918-5.9219-5.918z"/>
  <path d="m313.84 466.57c-3.5508 0-5.918 2.3672-5.918 5.918v36.703c0 3.5508 2.3672 5.918 5.918 5.918s5.918-2.3672 5.918-5.918v-36.703c0.003906-2.957-2.957-5.918-5.918-5.918z"/>
  <path d="m481.96 463.02c-3.5508 0-5.918 2.3672-5.918 5.918v35.52c0 3.5508 2.3672 5.918 5.918 5.918 3.5508 0 5.918-2.3672 5.918-5.918v-35.52c0.003907-3.5508-2.957-5.918-5.918-5.918z"/>
  <path d="m459.47 486.7c-3.5508 0-5.918 2.3672-5.918 5.918v40.254c0 3.5508 2.3672 5.918 5.918 5.918s5.918-2.3672 5.918-5.918v-40.254c0.003906-2.957-2.3633-5.918-5.918-5.918z"/>
  <path d="m437.57 468.94c-3.5508 0-5.918 2.3672-5.918 5.918v26.047c0 3.5508 2.3672 5.918 5.918 5.918 3.5508 0 5.918-2.3672 5.918-5.918v-26.047c0.003906-2.957-2.3672-5.918-5.918-5.918z"/>
  <path d="m422.77 510.97c-3.5508 0-5.918 2.3672-5.918 5.918v37.887c0 3.5508 2.3672 5.918 5.918 5.918s5.918-2.3672 5.918-5.918v-37.887c0.003906-3.5508-2.3633-5.918-5.918-5.918z"/>
 </g>
</svg>
