<svg height='300px' width='300px'  fill="#e3e3e3" xmlns="http://www.w3.org/2000/svg" viewBox="0 0 64 64" x="0px" y="0px"><title>gravity, discovery, theory, sciene, law, apple</title><g><path d="M12.23,22.72a1,1,0,0,1,.71-1.61c3.18-.3,8.43.45,12.43,7.14a7.62,7.62,0,0,1-4.9.67C17.6,28.37,14.83,26.29,12.23,22.72Zm32.69-11a1,1,0,0,0,1-1V8.27a1,1,0,1,0-2,0v2.45A1,1,0,0,0,44.92,11.72Zm1,13.82V14.85a1,1,0,0,0-2,0v8.73l.21.13A23.68,23.68,0,0,1,45.92,25.54ZM35.2,20.24V12.16a1,1,0,1,0-2,0v8.71l.68-.25A13.1,13.1,0,0,1,35.2,20.24ZM50.42,50.75c-2,3.91-5.15,5.27-7.61,5.27h-.44a0,0,0,0,0,0,0,1,1,0,0,0-1,.53c-1.15,2.24-4,4.5-8.67,4.16-4.87-.36-16-6.5-19-15.05-3.39-9.8,4.08-14.3,5.77-14.91a15.28,15.28,0,0,1,6.69-.68h0A31.07,31.07,0,0,1,24.58,14.4a1,1,0,1,1,2,.28,29.46,29.46,0,0,0,1.26,14,14.6,14.6,0,0,1,3.07-4.16,11,11,0,0,1,2.31-1.42,12,12,0,0,1,1.32-.54l.68-.21a10.61,10.61,0,0,1,8.72,1.28v7.16a1,1,0,0,0,2,0v-5.2C53.29,34,52.77,46.12,50.42,50.75ZM18.25,46a12.21,12.21,0,0,1-.73-1.68,1,1,0,1,0-1.89.65,12,12,0,0,0,.86,2A1,1,0,1,0,18.25,46ZM19,34.55a1,1,0,0,0-1.42,0A9,9,0,0,0,15.7,37a8.61,8.61,0,0,0-.84,3.77,1,1,0,0,0,2,0,6.52,6.52,0,0,1,.64-2.89,6.79,6.79,0,0,1,1.44-2A1,1,0,0,0,19,34.55ZM39.64,17.14a1,1,0,0,0,1-1V4.25a1,1,0,0,0-2,0V16.14A1,1,0,0,0,39.64,17.14Z"></path></g></svg>