<?xml version="1.0" encoding="UTF-8" standalone="no"?>
<svg
   width="752pt"
   height="752pt"
   version="1.1"
   viewBox="0 0 752 752"
   id="svg12"
   sodipodi:docname="psychology.svg"
   inkscape:version="1.1 (c68e22c387, 2021-05-23)"
   xmlns:inkscape="http://www.inkscape.org/namespaces/inkscape"
   xmlns:sodipodi="http://sodipodi.sourceforge.net/DTD/sodipodi-0.dtd"
   xmlns="http://www.w3.org/2000/svg"
   xmlns:svg="http://www.w3.org/2000/svg">
  <defs
     id="defs16" />
  <sodipodi:namedview
     id="namedview14"
     pagecolor="#ffffff"
     bordercolor="#666666"
     borderopacity="1.0"
     inkscape:pageshadow="2"
     inkscape:pageopacity="0.0"
     inkscape:pagecheckerboard="0"
     inkscape:document-units="pt"
     showgrid="false"
     inkscape:zoom="0.41090426"
     inkscape:cx="302.99029"
     inkscape:cy="414.93851"
     inkscape:window-width="1920"
     inkscape:window-height="1009"
     inkscape:window-x="-8"
     inkscape:window-y="-8"
     inkscape:window-maximized="1"
     inkscape:current-layer="svg12" />
  <g
     fill-rule="evenodd"
     id="g10"
     transform="matrix(2.0425217,0,0,2.0425217,-387.11373,-391.18581)">
    <path
       d="m 366.14,210.04 -0.0117,42.098 c 0,3.4102 1.2695,4.2344 3.0508,4.7344 1.7852,0.50391 4.0977,-0.0742 5.3672,-1.5938 7.293,-8.7617 18.652,-11.812 28.316,-8.5078 9.6602,3.3047 17.164,13.254 17.164,27.68 0,14.418 -7.5195,24.395 -17.188,27.699 -9.6602,3.3047 -20.988,0.22266 -28.285,-8.5391 -1.2617,-1.5195 -3.6094,-2.082 -5.3945,-1.582 -1.7852,0.50391 -3.0195,1.3164 -3.0195,4.7266 l -0.0117,48.23 h 34.992 c 6.8242,0 12.055,4.4688 13.523,9.6836 1.4727,5.2109 -0.0156,11.117 -4.5195,14.871 -6.0156,5.0078 -7.7812,12.391 -5.7461,18.344 2.0352,5.957 7.5703,10.988 19.043,10.988 11.473,0 17.027,-5.0508 19.062,-11.008 2.0352,-5.957 0.28516,-13.293 -5.7344,-18.305 -4.5039,-3.75 -6.0234,-9.6914 -4.5508,-14.902 1.4727,-5.2109 6.7109,-9.6914 13.535,-9.6914 l 39.293,0.0117 c -0.27344,-8.4922 4.9766,-13.695 5.0156,-26.785 0.0742,-27.246 -15.004,-48.789 -30.195,-65.57 -18.562,-20.5 -42.605,-33.359 -62.387,-38.18 -0.0352,-0.0156 -0.0742,-0.0273 -0.11719,-0.043 -10.363,-2.7812 -20.832,-4.1953 -31.203,-4.3594 z"
       id="path2" />
    <path
       d="m 356.99,210.27 c -0.56641,0.0312 -1.1406,0.0117 -1.7031,0.0508 -41.617,2.8984 -80.32,26.043 -102.05,63.738 -12.785,22.184 -18.617,46.77 -17.5,70.906 l 40.801,-0.0117 c 3.4102,0 4.2266,-1.2383 4.7266,-3.0195 0.50391,-1.7852 -0.0742,-4.1406 -1.5938,-5.4023 -8.7617,-7.293 -11.812,-18.613 -8.5078,-28.273 3.3047,-9.6602 13.266,-17.164 27.688,-17.164 14.422,0 24.383,7.4922 27.688,17.152 3.3047,9.6602 0.23047,21.023 -8.5312,28.316 -1.5195,1.2617 -2.0977,3.582 -1.5938,5.3672 0.50391,1.7852 1.3242,3.0625 4.7344,3.0625 h 35.84 v -48.223 c 0,-6.8242 4.4688,-12.043 9.6836,-13.512 5.2109,-1.4727 11.16,0.004 14.914,4.5078 5.0078,6.0195 12.355,7.7812 18.312,5.7461 5.957,-2.0352 10.977,-7.5625 10.977,-19.031 0,-11.473 -5.0078,-17.039 -10.965,-19.074 -5.957,-2.0352 -13.332,-0.28516 -18.344,5.7344 -3.75,4.5039 -9.6523,6.0234 -14.859,4.5508 -5.2109,-1.4727 -9.6914,-6.7188 -9.6914,-13.543 z"
       id="path4" />
    <path
       d="m 298.86,300.21 c -11.473,0 -17.027,5.0508 -19.062,11.008 -2.0352,5.957 -0.29297,13.324 5.7266,18.332 4.5039,3.75 6.0352,9.6602 4.5625,14.871 -1.4727,5.2109 -6.7188,9.6836 -13.543,9.6836 l -40.051,-0.0117 c 3.2773,27.332 15.602,53.609 37.059,74.605 20.547,20.102 14.832,40.348 10.676,66.586 -1.5273,9.625 3.4219,17.59 15.691,25.363 14.418,9.1289 35.613,16.508 57.051,20.359 l 0.0312,-89.734 c 0,-3.4102 -1.2695,-4.2344 -3.0508,-4.7344 -1.7852,-0.50391 -4.0977,0.0742 -5.3672,1.5938 -7.293,8.7617 -18.652,11.855 -28.316,8.5508 -9.6602,-3.3047 -17.164,-13.297 -17.164,-27.719 0,-14.422 7.4922,-24.383 17.152,-27.688 9.6602,-3.3047 21.023,-0.23047 28.316,8.5312 1.2617,1.5195 3.5742,2.125 5.3555,1.625 1.7852,-0.50391 3.0742,-1.3242 3.0742,-4.7344 v -52.598 l -35.844,0.0117 c -6.8242,0 -12.039,-4.4766 -13.512,-9.6914 -1.4727,-5.2148 0.0156,-11.117 4.5195,-14.871 6.0195,-5.0078 7.7734,-12.359 5.7344,-18.312 -2.043,-5.9648 -7.5664,-11.027 -19.039,-11.027 z"
       id="path6" />
    <path
       d="m 366.12,354.09 -0.0117,52.598 c 0,6.8242 -4.4766,12.043 -9.6914,13.512 -5.2148,1.4727 -11.117,-0.0469 -14.871,-4.5508 -5.0078,-6.0195 -12.359,-7.7734 -18.312,-5.7344 -5.957,2.0352 -11.02,7.5938 -11.02,19.062 0,11.473 5.0508,17.008 11.008,19.043 5.957,2.0352 13.324,0.27344 18.332,-5.7461 3.75,-4.5039 9.6523,-5.9844 14.859,-4.5078 5.2109,1.4727 9.6914,6.6758 9.6914,13.504 l 0.0117,91.234 c 12.234,1.5898 24.242,1.9258 34.809,0.58594 10.777,-1.3672 17.164,-6.7305 19.148,-19.387 2.3086,-14.746 3.9766,-24.094 21.984,-23.785 16.695,0.28906 32.262,2.2773 34.688,-20.5 0.5625,-5.2734 0.1875,-7.3789 4.5312,-13.012 7.5391,-9.793 9.375,-14.859 3.0312,-21.199 3.3359,0 12.875,-4.793 8.7461,-11.891 l -7.5938,-13.043 c -2.2305,-3.832 1.5938,-5.3984 3.5469,-6.2773 l 21.121,-9.5391 c 5.0586,-2.2852 7.0039,-9.25 3.4219,-13.641 -9.9727,-12.215 -20.039,-22.16 -25.953,-35.684 -0.16406,-0.36719 -0.20703,-0.65234 -0.34766,-1.0039 l -41.512,-0.0117 c -3.4102,0 -4.2344,1.2305 -4.7344,3.0117 -0.50391,1.7852 0.0742,4.1406 1.5938,5.4023 8.7617,7.293 11.824,18.613 8.5195,28.273 -3.3047,9.6602 -13.266,17.164 -27.688,17.164 -14.422,0 -24.383,-7.4844 -27.688,-17.145 -3.3047,-9.6602 -0.23047,-20.988 8.5312,-28.285 1.5195,-1.2617 2.0977,-3.6133 1.5938,-5.3945 -0.50391,-1.7852 -1.3242,-3.0625 -4.7344,-3.0625 l -35.012,-0.004 z"
       id="path8" />
  </g>
</svg>
