<?xml version="1.0" encoding="UTF-8"?>
<svg width="752pt" height="752pt" version="1.1" viewBox="130 140 452 452" xmlns="http://www.w3.org/2000/svg">
 <g>
  <path d="m455.6 394.45v0.015625c-2.5703 0.015625-5.1445 0.11719-7.707 0.32812 43.355 3.5078 76.754 39.434 76.793 82.598 0 45.809-37.422 82.941-83.586 82.941-43.352-0.027343-79.492-32.934-83.227-75.797-0.21484 2.4141-0.33594 4.8242-0.37109 7.2422-0.003906 53.75 43.91 97.336 98.086 97.336h0.007812c54.172 0 98.098-43.574 98.098-97.332v-0.007812c0-53.75-43.922-97.324-98.094-97.324z"/>
  <path d="m305.58 405.7-54.398 20.16-17.508-47.238-27.199 10.082 17.508 47.238-52.254 19.367 9.8125 26.48 52.262-19.363 45.363 122.41 27.203-10.082-45.375-122.41 54.406-20.168z"/>
  <path d="m533.14 278.5c-6.8594 0-12.406 5.5547-12.406 12.406v0.003906c0 6.8477 5.5508 12.406 12.402 12.406s12.402-5.5547 12.402-12.406c0.003906-6.8477-5.5469-12.402-12.398-12.41z"/>
  <path d="m492.49 203.69c-48.484 0-87.793 39.301-87.793 87.793 0 48.48 39.309 87.781 87.793 87.781 48.477 0 87.781-39.301 87.781-87.781 0.003906-48.48-39.297-87.785-87.781-87.793zm-28.25 87.23c0 6.8477-5.5547 12.406-12.406 12.406-6.8477 0-12.402-5.5547-12.402-12.406 0-6.8516 5.5469-12.406 12.398-12.414h0.003907c6.8516 0 12.406 5.5547 12.406 12.414v0zm68.703 42.734c-24.902-0.55469-34.363-13.695-40.078-30.691-0.32813-33.145-13.938-52.695-43.512-52.695-12.844 0-24.293 7.5195-32.316 19.293 9.75-33.57 40.496-56.672 75.457-56.703 43.422 0 78.629 35.203 78.629 78.629-0.019531 4.7305-0.46875 9.4414-1.3359 14.094-10.023 23.207-24.34 28.051-36.844 28.074z"/>
  <path d="m182.6 335.98h65.789l32.609 56.492 32.617-56.492h68.844l-34.418-59.621 32.895-56.98h-65.797l-32.609-56.488-32.617 56.492h-68.844l34.418 59.617zm23.133-13.359 17.469-30.262 7.832 13.566 9.6328 16.695zm75.266 43.129-17.188-29.773h34.387zm78.32-43.129h-37.992l9.6406-16.695 9.3594-16.211zm-1.5234-89.875-17.469 30.258-17.469-30.25h34.938zm-75.266-43.133 17.188 29.773h-34.375zm-24.906 43.133h49.805l13.492 23.367 11.691 20.246-13.219 22.887-13.492 23.371h-49.805l-13.492-23.371-11.688-20.242 13.215-22.887zm-53.414 0h37.992l-9.6406 16.688-9.3594 16.207z"/>
  <path d="m421.06 476.1 15.797 25.91 2.043-30.285 29.527-7.0195-28.172-11.297 2.4531-30.25-19.453 23.301-28.016-11.68 16.148 25.699-19.758 23.035z"/>
 </g>
</svg>
