<?xml version="1.0" encoding="UTF-8" standalone="no"?>
<svg
   width="752pt"
   height="752pt"
   version="1.1"
   viewBox="0 0 752 752"
   id="svg4"
   sodipodi:docname="robotics.svg"
   inkscape:version="1.1 (c68e22c387, 2021-05-23)"
   xmlns:inkscape="http://www.inkscape.org/namespaces/inkscape"
   xmlns:sodipodi="http://sodipodi.sourceforge.net/DTD/sodipodi-0.dtd"
   xmlns="http://www.w3.org/2000/svg"
   xmlns:svg="http://www.w3.org/2000/svg">
  <defs
     id="defs8" />
  <sodipodi:namedview
     id="namedview6"
     pagecolor="#ffffff"
     bordercolor="#666666"
     borderopacity="1.0"
     inkscape:pageshadow="2"
     inkscape:pageopacity="0.0"
     inkscape:pagecheckerboard="0"
     inkscape:document-units="pt"
     showgrid="false"
     inkscape:zoom="0.82180851"
     inkscape:cx="501.94175"
     inkscape:cy="744.09061"
     inkscape:window-width="1920"
     inkscape:window-height="1009"
     inkscape:window-x="-8"
     inkscape:window-y="-8"
     inkscape:window-maximized="1"
     inkscape:current-layer="svg4" />
  <path
     d="m 319.95125,350.65728 c -7.47256,7.10655 -17.88997,9.7419 -27.85704,7.07844 -10.94705,-2.92814 -19.36616,-12.03386 -21.36418,-23.20075 -0.87283,-4.75274 -5.47353,-7.89495 -10.17552,-7.03894 -4.73587,0.86157 -7.89495,5.41154 -7.05018,10.16428 3.22668,17.7833 16.58967,32.29422 34.06304,36.97358 4.06568,1.08682 8.17648,1.62177 12.24778,1.62177 11.81979,0 23.2959,-4.48806 32.17025,-12.89534 3.50822,-3.3224 3.64892,-8.8634 0.34914,-12.36038 -3.32803,-3.51384 -8.84091,-3.66031 -12.38287,-0.34349 z m 41.99748,-20.5987 v 93.7703 c 0,16.22928 -13.22762,29.43413 -29.46728,29.43413 -16.20622,0 -29.40098,-13.20514 -29.40098,-29.43413 0,-7.15152 2.59599,-14.04976 7.29799,-19.43247 3.1928,-3.62643 2.8438,-9.1507 -0.7771,-12.33788 -3.64892,-3.18719 -9.1507,-2.83242 -12.34351,0.79399 -7.51191,8.53125 -11.65083,19.49445 -11.68471,30.85841 -7.78783,-3.81788 -13.82444,-10.9188 -15.89627,-19.70348 -0.56311,-2.27496 -1.9653,-4.24588 -3.96996,-5.46229 -1.96531,-1.21633 -4.35285,-1.57679 -6.62794,-1.03613 -2.28058,0.55749 -4.62877,0.84468 -6.98272,0.84468 -15.75067,0 -28.87047,-12.76589 -29.40097,-28.48846 0.31534,-8.29469 4.13891,-16.12837 10.5584,-21.51122 3.71653,-3.09146 4.21215,-8.62136 1.12623,-12.32664 -3.11972,-3.70529 -8.6326,-4.18951 -12.34351,-1.08682 -7.16291,6.01412 -12.24778,13.98215 -14.87708,22.74953 -8.41852,-5.31019 -13.95966,-14.72571 -13.95966,-25.09786 0,-17.6305 14.34817,-31.97419 31.99582,-31.97419 h 70.87372 c -1.85834,2.29758 -3.57583,4.7301 -5.01179,7.41619 -2.24684,4.25713 -0.63069,9.55608 3.61519,11.83103 1.30079,0.68138 2.73669,1.02488 4.10518,1.02488 3.11972,0 6.13795,-1.67815 7.71475,-4.63439 5.15811,-9.65742 15.08611,-15.63823 25.99885,-15.63823 16.23505,0.006 29.4572,13.21076 29.4572,29.4399 z M 225.19636,283.12802 h 70.87372 c -1.85834,-2.32008 -3.57583,-4.74149 -5.01179,-7.43306 -2.24684,-4.25713 -0.63069,-9.55045 3.61519,-11.81979 4.27975,-2.26371 9.54483,-0.65884 11.81978,3.61519 4.38672,8.21584 12.24779,13.73997 21.26327,15.20432 h 8.98175 c 14.20747,-2.07789 25.22184,-14.22433 25.22184,-29.00598 l -0.006,-93.7876 c 0,-16.22928 -13.22763,-29.43413 -29.46729,-29.43413 -16.20621,0 -29.40097,13.21076 -29.40097,29.43413 0,7.16853 2.59599,14.07225 7.29798,19.444 3.19281,3.62081 2.8438,9.1507 -0.77709,12.33788 -1.68377,1.46407 -3.71653,2.19048 -5.7888,2.19048 -2.4158,0 -4.84284,-1.00798 -6.56596,-2.97325 -7.51191,-8.53126 -11.65083,-19.48437 -11.6847,-30.84688 -7.78784,3.81787 -13.82444,10.92442 -15.89628,19.70348 -0.56312,2.27496 -1.9653,4.24588 -3.96996,5.46228 -1.99904,1.21634 -4.38672,1.5768 -6.66167,1.03614 -2.21311,-0.56875 -4.5613,-0.84468 -6.94884,-0.84468 -15.75068,0 -28.87048,12.76589 -29.40098,28.48846 0.31535,8.29469 4.13892,16.11684 10.55841,21.50545 3.71653,3.10833 4.21214,8.62136 1.12623,12.32664 -1.757,2.06103 -4.21215,3.13097 -6.73491,3.13097 -1.9653,0 -3.96996,-0.67011 -5.6086,-2.02715 -7.16291,-6.03098 -12.24779,-13.98215 -14.87708,-22.74954 -8.41853,5.29333 -13.95966,14.6868 -13.95966,24.9465 0.006,17.75447 14.34816,32.09817 32.00158,32.09817 z m 301.28972,8.31156 c 0,5.60298 4.56692,10.16427 10.17552,10.16427 5.57487,0 10.14179,-4.56691 10.14179,-10.16427 0,-5.59736 -4.5613,-10.16428 -10.14179,-10.16428 -5.6086,0.0113 -10.17552,4.57254 -10.17552,10.16428 z M 448.74756,153.63341 c 4.87657,2.8043 11.08775,1.13749 13.89768,-3.71653 1.37399,-2.34819 1.72312,-5.0905 1.01924,-7.70913 -0.7039,-2.61848 -2.38192,-4.81458 -4.73587,-6.17745 -2.35381,-1.35148 -5.08488,-1.72311 -7.71475,-1.00798 -2.62973,0.7039 -4.80896,2.38754 -6.17168,4.7415 -2.79306,4.84845 -1.14313,11.08212 3.70528,13.86956 z m 27.04112,79.88358 c 0,5.59736 4.56129,10.16428 10.17552,10.16428 5.61984,0 10.17552,-4.56692 10.17552,-10.16428 0,-5.60298 -4.5613,-10.16428 -10.17552,-10.16428 -5.6086,0.006 -10.17552,4.5613 -10.17552,10.16428 z m 0,112.3926 c 0,5.6086 4.56129,10.16428 10.17552,10.16428 5.61984,0 10.17552,-4.54991 10.17552,-10.16428 0,-5.59736 -4.5613,-10.16428 -10.17552,-10.16428 -5.6086,0 -10.17552,4.56692 -10.17552,10.16428 z m -13.1544,87.07417 c -1.33458,-2.35381 -3.54195,-4.04881 -6.17168,-4.73587 -0.88409,-0.22525 -1.72312,-0.3435 -2.59599,-0.35476 l -0.0394,-0.006 h -0.0338 c -1.75699,0 -3.46872,0.46739 -5.05114,1.36274 -4.84284,2.80992 -6.49272,9.02673 -3.71653,13.88643 1.36273,2.34818 3.54195,4.03195 6.17168,4.7301 2.62973,0.69827 5.36656,0.3435 7.71475,-1.00798 2.34818,-1.36273 4.03194,-3.5532 4.73587,-6.16606 0.70953,-2.6241 0.36039,-5.35517 -1.01362,-7.70912 z m -130.16437,37.77943 c -18.83565,0 -35.11539,-11.23422 -42.55537,-27.35106 -15.40181,-2.8438 -28.52161,-13.33459 -34.73337,-27.67684 -1.01924,0.0732 -2.03291,0.10136 -3.08584,0.10136 -23.01479,0 -42.58853,-17.12451 -46.27753,-39.31183 -17.7487,-6.9151 -30.10446,-24.40591 -30.10446,-43.78792 0,-16.97746 8.49176,-31.91797 21.43193,-40.86584 -12.94046,-8.931 -21.43193,-23.85378 -21.43193,-40.73033 0,-19.50599 12.34351,-37.00818 30.10446,-43.92343 3.6828,-22.20318 23.26274,-39.31182 46.27753,-39.31182 1.05303,0 2.06665,0.0225 3.08584,0.10136 6.20556,-14.34255 19.33156,-24.83406 34.73337,-27.69415 7.43883,-16.11684 23.67936,-27.34529 42.55537,-27.34529 25.89218,0 46.94065,21.04992 46.94065,46.91326 v 55.05097 h 33.89438 l 31.78823,-31.7767 v -12.16331 c -1.72312,-0.57438 -3.44062,-1.27827 -5.08488,-2.2356 -13.19375,-7.62464 -17.7487,-24.56304 -10.10791,-37.76789 3.6828,-6.39138 9.65179,-10.97516 16.76987,-12.89534 7.15152,-1.90332 14.59021,-0.92351 20.98216,2.76494 13.22763,7.62465 17.74871,24.56881 10.14179,37.78519 -3.50822,6.07597 -9.01548,10.26 -15.19279,12.33789 v 15.79537 c 0,2.30883 -0.94603,4.53866 -2.56211,6.17745 l -36.90727,36.89573 c -1.64989,1.6274 -3.863,2.55087 -6.17168,2.55087 h -37.54301 v 16.39218 h 42.52077 l 21.50546,-21.48239 c 1.64988,-1.64426 3.86299,-2.56773 6.17168,-2.56773 h 10.24313 c 3.6828,-10.94706 13.92593,-18.90918 26.09976,-18.90918 15.26054,0 27.64946,12.41112 27.64946,27.65523 0,15.24901 -12.38863,27.65522 -27.64946,27.65522 -12.17455,0 -22.41797,-7.96241 -26.09976,-18.90917 h -6.63356 l -21.4723,21.48816 c -1.64989,1.64426 -3.863,2.56773 -6.17168,2.56773 l -47.91516,0.0282 c -1.72312,6.04223 -4.5613,11.5776 -8.35106,16.38641 H 510.5604 c 3.68279,-10.95267 13.92592,-18.90917 26.09976,-18.90917 15.22594,0 27.64369,12.41112 27.64369,27.65522 0,15.24901 -12.41674,27.65523 -27.64369,27.65523 -12.17456,0 -22.41798,-7.96241 -26.09976,-18.90918 H 368.65005 c 3.96996,4.76399 6.94884,10.32761 8.80155,16.39218 h 49.43026 c 2.28058,0 4.5218,0.92351 6.17168,2.55088 l 17.99666,18.01972 h 8.80155 c 3.6828,-10.94706 13.92593,-18.89188 26.09976,-18.89188 15.26054,0 27.64946,12.39425 27.64946,27.64369 0,15.26054 -12.38863,27.65523 -27.64946,27.65523 -12.17455,0 -22.41797,-7.96241 -26.09976,-18.90918 h -12.41674 c -2.32008,0 -4.5218,-0.91788 -6.17168,-2.55087 L 423.22631,334.0697 h -43.82108 v 16.39218 h 37.54301 c 2.30883,0 4.52179,0.92351 6.17168,2.56774 l 36.90727,36.87844 c 1.61615,1.64426 2.56211,3.86862 2.56211,6.19431 v 15.85736 c 6.17169,2.06102 11.68471,6.19431 15.19279,12.2759 3.6828,6.39138 4.66264,13.84145 2.77619,20.98216 -1.9258,7.13466 -6.49272,13.09241 -12.90659,16.7814 -4.24588,2.4664 -8.98175,3.71654 -13.79071,3.71654 -2.38754,0 -4.80895,-0.32099 -7.19102,-0.94604 -7.11779,-1.91456 -13.08678,-6.49272 -16.76987,-12.87848 -7.65276,-13.20514 -3.08584,-30.16068 10.10791,-37.77366 1.64989,-0.94603 3.373,-1.70625 5.08488,-2.29182 v -12.11256 l -31.78823,-31.7594 h -33.89437 v 55.8842 c 0.006,25.88641 -21.04415,46.93056 -46.94065,46.93056 z m -12.5237,-236.44757 c -7.47256,-7.11779 -17.88998,-9.75876 -27.89165,-7.08967 -10.94705,2.93952 -19.33155,12.0451 -21.32525,23.20075 -0.7771,4.22901 -4.45996,7.19102 -8.59873,7.19102 -0.52369,0 -1.05303,-0.0507 -1.57679,-0.14078 -4.73587,-0.86157 -7.89495,-5.40592 -7.05018,-10.16428 3.22668,-17.7833 16.58967,-32.29422 34.02844,-36.98511 15.89627,-4.22901 32.52055,-0.0225 44.45248,11.27919 3.50823,3.3224 3.64893,8.8634 0.34914,12.37162 -3.33365,3.49136 -8.84653,3.64892 -12.38863,0.33788 z m -13.32897,287.465 c 0,-10.24313 -8.31156,-18.58338 -18.59347,-18.58338 -10.20925,0 -18.56031,8.33982 -18.56031,18.58338 0,10.23188 8.35106,18.57761 18.56031,18.57761 10.27686,0.006 18.59347,-8.33982 18.59347,-18.57761 z m 17.50796,0 c 0,15.20432 -9.4716,28.21167 -22.84036,33.49938 -1.46969,45.58989 -17.36668,82.74944 -32.84058,118.6822 -2.91126,6.77989 -5.7888,13.48106 -8.56499,20.18209 -1.37399,3.37877 -4.62876,5.4284 -8.06952,5.4284 h -0.0507 c -1.10934,-0.006 -2.21311,-0.21961 -3.2829,-0.65884 -4.45419,-1.83571 -6.59407,-6.94322 -4.76961,-11.41441 2.8043,-6.78551 5.71557,-13.58802 8.66071,-20.44157 14.49507,-33.65796 29.40098,-68.40719 31.37162,-109.50945 -17.88998,-2.13425 -31.75363,-17.34938 -31.75363,-35.78572 0,-19.90098 16.17305,-36.07836 36.03367,-36.07836 19.90098,0.0281 36.10719,16.19468 36.10719,36.09566 z m 153.13879,1.92018 c 0,10.23189 8.31156,18.56608 18.56031,18.56608 10.24313,0 18.56031,-8.32843 18.56031,-18.56608 0,-10.25437 -8.31156,-18.58338 -18.56031,-18.58338 -10.24875,0 -18.56031,8.33405 -18.56031,18.58338 z m -11.44252,19.96297 c -59.04847,25.35158 -92.76264,71.60027 -108.79443,148.9438 -0.87283,4.12204 -4.52741,6.97132 -8.56499,6.97132 h -0.0563 c -0.57438,-0.006 -1.15438,-0.0563 -1.73436,-0.18019 -4.73587,-0.99109 -7.7541,-5.60861 -6.76864,-10.33886 17.39984,-84.02811 54.62282,-134.24115 120.02864,-161.90358 -0.10699,-1.13749 -0.1802,-2.30321 -0.1802,-3.4631 0,-19.90098 16.17306,-36.07836 36.06251,-36.07836 19.88944,0 36.0625,16.17882 36.0625,36.07836 0,19.87791 -16.17306,36.06251 -36.0625,36.06251 -12.51809,0 -23.53232,-6.40825 -29.99203,-16.09954 z m 196.3717,-105.45429 c -2.28058,9.87149 -10.45144,18.31236 -24.27617,25.08633 -4.21214,2.17362 -9.65179,5.00617 -2.77619,28.86039 1.89207,4.95542 1.26702,10.45144 -1.83008,15.57624 -3.64892,6.09298 -10.4177,11.1891 -17.88998,14.77041 8.14261,6.59969 14.66373,14.6349 15.40182,23.70674 0.42234,5.20323 -0.94604,12.84475 -9.79264,19.66456 -4.27976,3.19858 -9.08871,10.36696 -9.29702,38.37624 0.52369,10.16428 -4.17265,16.60698 -8.17086,20.13163 -10.7386,9.47722 -30.66669,11.31307 -62.6971,5.7382 -29.40097,-6.66167 -52.23989,-4.57254 -68.37979,6.10422 -15.4739,10.24875 -25.7509,29.13572 -30.56001,56.14224 -0.83904,4.75274 -5.40591,7.88932 -10.13602,7.06142 -4.7696,-0.84467 -7.92867,-5.38342 -7.08967,-10.13602 5.71556,-31.90067 18.52715,-54.6502 38.13981,-67.65324 20.24408,-13.41906 47.64559,-16.34172 81.46067,-8.66633 34.49119,5.99725 44.83595,0.79399 47.68451,-1.72312 1.16002,-1.00798 2.48903,-2.68609 2.28057,-6.67291 0.20835,-29.08527 4.91607,-44.19301 16.17306,-52.64642 3.08584,-2.3763 2.97888,-3.85175 2.94515,-4.34722 -0.32099,-4.10518 -7.61903,-12.2759 -22.77261,-20.50356 -3.40688,-1.84133 -5.19198,-5.70994 -4.38672,-9.50547 0.83904,-3.78414 4.03195,-6.58282 7.89495,-6.90386 11.65083,-0.92351 23.4314,-8.93101 24.55727,-12.60256 -0.0732,-0.1971 -0.14078,-0.40545 -0.21399,-0.61943 -5.50163,-18.8198 -8.41852,-39.44589 11.54387,-49.80219 8.94787,-4.37547 14.10036,-8.97612 15.11927,-13.38533 0.81088,-3.44624 -0.80526,-7.78784 -4.76961,-12.91221 -14.9506,-16.26821 -27.01805,-33.08853 -35.82032,-50.01554 -8.70021,-16.68482 -11.85928,-33.18512 -9.96159,-51.89103 0.73769,-7.55704 1.12623,-15.26054 1.12623,-22.87928 0,-124.97757 -101.67014,-226.659246 -226.64483,-226.659246 -124.97469,0 -226.64483,101.670146 -226.64483,226.659246 0,53.60939 19.05044,105.61286 53.6757,146.44987 12.45047,14.71419 19.23064,30.48649 21.36418,49.64506 6.38575,58.37812 -9.40399,128.24418 -45.67495,201.99385 -1.50919,3.10271 -4.59503,4.89344 -7.82171,4.89344 -1.29517,0 -2.62973,-0.29282 -3.85175,-0.89535 -4.35284,-2.13426 -6.14357,-7.3656 -3.99807,-11.7072 34.80689,-70.79443 49.99391,-137.31603 43.96235,-192.39295 -1.72312,-15.53011 -7.19102,-28.32412 -17.33209,-40.24596 C 145.47785,410.30619 124.91951,354.27062 124.91951,296.53688 124.90825,161.94687 234.44049,52.420128 369.0651,52.420128 c 134.61884,0 244.14558,109.526742 244.14558,244.145582 0,8.19898 -0.42234,16.49309 -1.22759,24.63657 -1.54292,15.16972 1.01924,28.54467 8.06952,42.06523 8.13699,15.63823 19.39931,31.28079 33.4374,46.51971 0.14077,0.1802 0.31534,0.35476 0.45613,0.53496 7.50629,9.59542 10.27686,18.97692 8.24409,27.87434 z"
     fill-rule="evenodd"
     id="path2"
     style="stroke-width:1.44158" />
</svg>
