<?xml version="1.0" encoding="UTF-8"?>
<svg width="700pt" height="700pt" version="1.1" viewBox="100 20 500 500" xmlns="http://www.w3.org/2000/svg" xmlns:xlink="http://www.w3.org/1999/xlink">
  <path d="m211.94 417.66 14.293-14.23-7.7148-7.7148-14.23 14.293 2.9102-25.617-4.8711-4.8711-4.2383 36.621-6.5938 6.5938c-5.2617-2.2227-11.566-1.207-15.852 3.0781-5.6484 5.6484-5.6484 14.805 0 20.449 5.6484 5.6484 14.805 5.6484 20.449 0 4.2852-4.2852 5.3008-10.582 3.0859-15.844l6.5625-6.5625 36.688-4.2383-4.9336-4.9336z"/>
  <path d="m275.88 310.64 10.031 10.012-7.168 7.168c-28.637-22.422-67.379-24.609-95.516-5.7812-6.3711 4.2266-7.5938 12.91-2.8398 17.664l101.8 101.79c4.8047 4.8047 13.441 3.5352 17.715-2.7891 18.793-28.195 16.633-66.926-5.8125-95.559l7.1758-7.1758 10.039 10.02c4.1133 4.1133 10.184 5.25 15.309 3.2891l-54.02-54.016c-1.9609 5.1289-0.82031 11.203 3.2891 15.375z"/>
  <path d="m499.55 122.34c-6.4531-6.4531-15.625-8.6641-23.848-6.4531l30.363 30.363c2.1484-8.2227-0.066406-17.457-6.5156-23.91z"/>
  <path d="m573.49 365.86-92.031-92.035c-5.6914-5.6289-14.863-5.5664-20.492 0l-6.832 6.832-15.688-15.688 74.004-74.004c5.6914-5.6289 5.6914-14.738 0-20.43l-61.102-61.102c-5.6289-5.6914-14.738-5.6914-20.43 0l-74.008 74.004-15.688-15.688 6.832-6.832c5.6289-5.6289 5.6914-14.738 0-20.43l-92.031-92.031c-5.6914-5.6914-14.801-5.6289-20.43 0l-64.77 64.77c-5.6289 5.6289-5.6914 14.801 0 20.43l91.969 92.035c5.6914 5.6914 14.863 5.6289 20.492 0l6.832-6.7695 15.688 15.625-27.77 27.832c-5.6289 5.5664-5.6914 14.738 0 20.43l61.102 61.102c5.6289 5.6289 14.801 5.6289 20.43 0l27.77-27.77 15.688 15.625-6.832 6.8945c-5.6289 5.5664-5.6914 14.738 0 20.43l92.031 92.031c5.6914 5.6914 14.801 5.6289 20.43 0l64.832-64.77c5.5703-5.6289 5.6328-14.801 0.003906-20.492zm-63.508-44.973 16.445 16.445c0.82422 0.82422 0.88672 2.2148 0 3.0977l-23.973 23.973c-0.82422 0.82422-2.2773 0.82422-3.0977 0l-16.445-16.445c-0.82422-0.82031-0.82422-2.2773 0-3.0977l23.973-23.973c0.88672-0.88672 2.2773-0.82422 3.0977 0zm-60.785-9.7422 24.035-23.973c0.82422-0.82422 2.1484-0.82422 3.0352 0l16.383 16.445c0.88672 0.88672 0.88672 2.2148 0 3.0352l-23.973 23.973c-0.82422 0.82422-2.1484 0.88672-3.0352 0l-16.445-16.383c-0.82031-0.88281-0.75781-2.2773 0-3.0977zm-130.87-181.91 16.383 16.383c0.88672 0.88672 0.88672 2.2148 0 3.0977l-23.973 23.973c-0.82422 0.82422-2.2148 0.88672-3.0977 0l-16.383-16.445c-0.88672-0.82422-0.82422-2.2148 0-3.0352l23.973-23.973c0.88281-0.88672 2.2109-0.88672 3.0977 0zm-33.777-33.777 16.445 16.508c0.82422 0.82422 0.88672 2.1523 0 3.0352l-23.973 23.973c-0.82422 0.82422-2.2148 0.82422-3.0352 0l-16.508-16.445c-0.75781-0.82422-0.75781-2.2773 0-3.0977l24.035-23.973c0.82031-0.82422 2.2109-0.82422 3.0352 0zm-60.723-9.6758 23.973-23.973c0.88672-0.88672 2.2148-0.88672 3.0352 0l16.445 16.383c0.88672 0.88672 0.88672 2.2148 0 3.0977l-23.973 23.973c-0.82422 0.82422-2.2148 0.88672-3.0977 0l-16.383-16.445c-0.88672-0.82422-0.82422-2.2148 0-3.0352zm-23.277 59.141-16.445-16.383c-0.82422-0.88672-0.82422-2.2148 0-3.0977l23.973-23.973c0.88672-0.82422 2.2148-0.82422 3.1016 0l16.383 16.445c0.88672 0.82422 0.88672 2.2148 0 3.0352l-23.973 23.973c-0.82422 0.88281-2.2188 0.88281-3.0391 0zm33.777 33.777-16.508-16.508c-0.82422-0.82422-0.88672-2.2148 0-3.0352l23.973-23.973c0.82422-0.82422 2.2773-0.82422 3.0977 0l16.445 16.445c0.82422 0.82422 0.82422 2.2148 0 3.0352l-23.973 24.035c-0.88672 0.82031-2.2773 0.75781-3.0352 0zm60.723 9.6758-23.973 23.973c-0.88672 0.88672-2.2148 0.88672-3.0977 0l-16.383-16.383c-0.88672-0.88672-0.88672-2.2148 0-3.0977l23.973-23.973c0.82422-0.82422 2.2148-0.88672 3.0352 0l16.445 16.445c0.88672 0.82031 0.82031 2.2109 0 3.0352zm40.039 42.633-2.6562-2.6562c-5.25-5.3125-13.598-5.6914-19.355-1.0117l0.57031-0.63281-15.688-15.688 35.422-35.359 15.688 15.625-3.2891 3.2891c-5.6289 5.6289-5.6289 14.738 0 20.43l2.6562 2.6562zm44.844 44.844-34.98-34.98 13.348-13.348 34.852 34.852zm15.117 32.262c4.1133-5.6289 3.6055-13.535-1.5195-18.66l-3.7969-3.7969 13.348-13.348 3.7969 3.7969c5.6914 5.6914 14.863 5.6289 20.43 0l3.2891-3.2266 15.688 15.625-35.422 35.422zm30.934 62.238-16.445-16.445c-0.88672-0.88672-0.88672-2.2148 0-3.0352l23.973-23.973c0.82422-0.82422 2.2148-0.88672 3.0977 0l16.383 16.383c0.88672 0.88672 0.82422 2.2773 0 3.0977l-23.973 23.973c-0.88672 0.82422-2.2148 0.82422-3.0352 0zm33.711 33.715-16.445-16.445c-0.82422-0.82422-0.88672-2.2148 0-3.0977l23.973-23.973c0.82422-0.82422 2.2773-0.82422 3.0352 0l16.508 16.508c0.82422 0.75781 0.82422 2.2148 0 3.0352l-23.973 23.973c-0.88281 0.88672-2.2734 0.82031-3.0977 0zm60.723 9.7422-23.973 23.973c-0.82422 0.82422-2.2148 0.82422-3.0352 0l-16.445-16.445c-0.82422-0.82422-0.82422-2.2148 0-3.0352l23.973-23.973c0.82422-0.82422 2.2148-0.82422 3.0977 0l16.383 16.445c0.82422 0.82031 0.82422 2.2109 0 3.0352zm39.723-39.723-23.973 24.035c-0.82031 0.75781-2.2148 0.82031-3.0977 0l-16.383-16.445c-0.88672-0.88672-0.82422-2.2148 0-3.0352l23.973-24.035c0.82422-0.82422 2.1523-0.82422 3.0352 0l16.445 16.445c0.82422 0.88281 0.82422 2.2109 0 3.0352z"/>
  <path d="m131.06 249.39 37.367-39.223 5.9531 5.6719-37.367 39.223z"/>
  <path d="m128.27 318.82-5.9531-5.6719 37.359-39.23 5.9531 5.6719z"/>
  <path d="m358.35 452.04-5.9531-5.6719 37.359-39.23 5.9531 5.6719z"/>
  <path d="m349.61 515.79-5.9531-5.6719 37.359-39.23 5.9531 5.6719z"/>
</svg>
