<?xml version="1.0" encoding="UTF-8" standalone="no"?>
<svg
   width="752pt"
   height="752pt"
   version="1.1"
   viewBox="0 0 752 752"
   id="svg10"
   sodipodi:docname="transport.svg"
   inkscape:version="1.1 (c68e22c387, 2021-05-23)"
   xmlns:inkscape="http://www.inkscape.org/namespaces/inkscape"
   xmlns:sodipodi="http://sodipodi.sourceforge.net/DTD/sodipodi-0.dtd"
   xmlns="http://www.w3.org/2000/svg"
   xmlns:svg="http://www.w3.org/2000/svg">
  <defs
     id="defs14" />
  <sodipodi:namedview
     id="namedview12"
     pagecolor="#ffffff"
     bordercolor="#666666"
     borderopacity="1.0"
     inkscape:pageshadow="2"
     inkscape:pageopacity="0.0"
     inkscape:pagecheckerboard="0"
     inkscape:document-units="pt"
     showgrid="false"
     inkscape:zoom="0.20545213"
     inkscape:cx="-187.39158"
     inkscape:cy="-99.779934"
     inkscape:window-width="1920"
     inkscape:window-height="1009"
     inkscape:window-x="-8"
     inkscape:window-y="-8"
     inkscape:window-maximized="1"
     inkscape:current-layer="svg10" />
  <g
     id="g8"
     transform="matrix(1.7095042,0,0,1.7095042,-256.84125,-208.02993)">
    <path
       d="m 489.88,384.4 c -14.078,0 -25.535,11.457 -25.535,25.539 0,14.094 11.457,25.547 25.535,25.547 14.094,0 25.551,-11.453 25.551,-25.547 C 515.42319,395.857 503.97,384.4 489.88,384.4 Z"
       id="path2" />
    <path
       d="m 251.44,382.94 c -14.488,0 -26.277,11.789 -26.277,26.289 0,14.5 11.793,26.293 26.277,26.293 14.5,0 26.293,-11.793 26.293,-26.293 0,-14.5 -11.793,-26.289 -26.293,-26.289 z"
       id="path4" />
    <path
       d="m 440.44,344.36 c -13.184,-6.8945 -53.301,-27.871 -82.867,-27.871 -32.539,0 -88.199,17.066 -107.69,25.828 -19.43,8.7461 -27.297,11.77 -49.848,11.77 -2.3867,0 -4.6172,-0.004 -6.6719,-0.0195 h -0.29688 c -1.8438,-0.008 -3.5547,-0.0195 -5.1523,-0.0195 -11.926,0 -19.801,0 -19.801,8.1758 0,1.4023 -0.21484,4.1289 -0.46875,7.582 l -0.15625,2.1133 c -0.008,0.19531 0.0586,0.38672 0.19531,0.53516 0.13281,0.14062 0.32031,0.22656 0.51953,0.22656 h 27.527 c 3.5391,0 6.4258,2.8828 6.4258,6.4219 0,3.5469 -2.8906,6.4258 -6.4258,6.4258 h -28.383 c -0.38672,0 -0.69922,0.29687 -0.71094,0.69141 -0.75781,19.965 1.3633,31.219 6.4453,34.367 10.152,6.2734 28.633,8.3047 35.996,8.3047 1.7773,0 3.2266,-0.59375 4.3203,-1.7617 2.625,-2.8125 2.2305,-8.1992 2,-11.492 -0.0469,-0.62891 -0.082,-1.1523 -0.082,-1.5312 0.0156,-0.37891 2.0508,-38.039 36.121,-38.039 31.758,0 34.227,31.664 34.227,41.359 0,1.1211 -0.043,2.2539 -0.10547,3.3359 -0.1875,4.0156 -0.36328,7.8047 2.0898,10.383 1.7188,1.8086 4.5195,2.6914 8.5352,2.6914 11.301,0 79.836,0.28906 80.438,0.29688 h 68.047 c 6.582,0 10.996,-5.375 10.996,-13.371 v -0.28906 c -0.0156,-3.6406 -0.0156,-14.703 4.207,-24.57 5.2266,-12.219 15.004,-18.414 29.059,-18.414 32.645,0 35.184,34.211 35.184,44.691 0,7.7578 13.176,8.6484 23.094,8.6484 1.0977,0 2.1328,-0.0156 3.0938,-0.0234 0.71875,0 1.3789,-0.0156 1.9336,-0.0156 21.824,0 32.891,-5.6211 32.891,-16.699 0,-2.8516 0.11328,-5.5 0.22266,-7.8672 0.46484,-10.172 0.80078,-17.508 -10.086,-22.953 -4.2422,-2.1211 -13.531,-5.8242 -24.277,-9.6719 -0.30859,-0.10938 -0.67188,0.008 -0.84766,0.28906 -0.17578,0.28516 -0.13281,0.65234 0.0976,0.89063 l 6.3242,6.3164 c 0.95312,0.94531 1.4648,2.207 1.4648,3.5391 0,1.3398 -0.50781,2.5859 -1.4648,3.5312 -1.8789,1.88671 -5.1719,1.88671 -7.0664,0 l -22.48,-22.48 c -0.0742,-0.0859 -0.17578,-0.14063 -0.28906,-0.17969 -12.949,-3.9961 -31.145,-9.0586 -44.297,-10.461 -26.395,-2.8281 -30.195,-4.7305 -38.527,-8.8984 -0.78125,-0.38672 -1.8711,-0.95702 -3.2188,-1.6641 z m -123.79,-9.0859 v 21.234 c -10.363,-1.4219 -15.973,-4.4414 -21.703,-7.9453 -2.4727,-1.5117 -3.8438,-2.9961 -3.7695,-4.0664 0.0664,-0.98438 1.4961,-2.2344 3.5273,-3.1133 1.7148,-0.73047 11.566,-3.5234 21.945,-6.1094 z m 58.676,-5.1914 c 18.867,3.7656 52.145,22.121 65.234,29.633 -20.645,-0.68359 -76.215,-2.4297 -100.19,-2.4297 -2.2969,0 -4.3125,0.0156 -5.9922,0.0469 -2.6328,0.0586 -5.0625,0.0469 -7.3281,-0.0195 v -24.5 c 4.6172,-1.0273 8.4688,-1.7812 11.453,-2.2383 10.5,-1.6133 16.078,-2.3359 21.43,-2.3359 4.4297,-0.004 8.7461,0.51172 15.391,1.8438 z"
       id="path6" />
  </g>
</svg>
